<?xml version="1.0" encoding="UTF-8" standalone="no"?>
<!-- Created with Inkscape (http://www.inkscape.org/) -->
<svg
   xmlns:dc="http://purl.org/dc/elements/1.1/"
   xmlns:cc="http://web.resource.org/cc/"
   xmlns:rdf="http://www.w3.org/1999/02/22-rdf-syntax-ns#"
   xmlns:svg="http://www.w3.org/2000/svg"
   xmlns="http://www.w3.org/2000/svg"
   xmlns:xlink="http://www.w3.org/1999/xlink"
   xmlns:sodipodi="http://sodipodi.sourceforge.net/DTD/sodipodi-0.dtd"
   xmlns:inkscape="http://www.inkscape.org/namespaces/inkscape"
   id="svg2228"
   sodipodi:version="0.32"
   inkscape:version="0.45.1"
   width="354"
   height="427"
   version="1.0"
   sodipodi:docbase="C:\Documents and Settings\David\Bureau"
   sodipodi:docname="cad.svg"
   inkscape:output_extension="org.inkscape.output.svg.inkscape">
  <metadata
     id="metadata2233">
    <rdf:RDF>
      <cc:Work
         rdf:about="">
        <dc:format>image/svg+xml</dc:format>
        <dc:type
           rdf:resource="http://purl.org/dc/dcmitype/StillImage" />
      </cc:Work>
    </rdf:RDF>
  </metadata>
  <defs
     id="defs2231">
    <linearGradient
       id="linearGradient10806">
      <stop
         style="stop-color:#c9ff34;stop-opacity:1;"
         offset="0"
         id="stop10808" />
      <stop
         id="stop10818"
         offset="0.41463414"
         style="stop-color:#00ff7f;stop-opacity:1;" />
      <stop
         style="stop-color:#c9ff34;stop-opacity:1;"
         offset="1"
         id="stop10810" />
    </linearGradient>
    <linearGradient
       id="linearGradient8722">
      <stop
         style="stop-color:#7fff6a;stop-opacity:1;"
         offset="0"
         id="stop8724" />
      <stop
         id="stop9807"
         offset="0.39024389"
         style="stop-color:#a5ff6a;stop-opacity:0.49803922;" />
      <stop
         style="stop-color:#cbff6a;stop-opacity:0;"
         offset="1"
         id="stop8726" />
    </linearGradient>
    <linearGradient
       id="elements-f12.svglinearGradient1626">
      <stop
         id="elements-f12.svgstop1627"
         offset="0.0000000"
         style="stop-color:#ffffff;stop-opacity:0.0000000;" />
      <stop
         id="elements-f12.svgstop1628"
         offset="1"
         style="stop-color:#a4ff63;stop-opacity:1;" />
    </linearGradient>
    <linearGradient
       id="elements-f12.svglinearGradient1752">
      <stop
         id="elements-f12.svgstop1753"
         offset="0.0000000"
         style="stop-color:#556d4a;stop-opacity:1.0000000;" />
      <stop
         id="elements-f12.svgstop1754"
         offset="0.64777780"
         style="stop-color:#778670;stop-opacity:0.97175139;" />
      <stop
         id="elements-f12.svgstop1755"
         offset="1.0000000"
         style="stop-color:#8b9f82;stop-opacity:1.0000000;" />
    </linearGradient>
    <linearGradient
       id="elements-f12.svglinearGradient1514">
      <stop
         id="elements-f12.svgstop1515"
         offset="0.0000000"
         style="stop-color:#484848;stop-opacity:1.0000000;" />
      <stop
         id="elements-f12.svgstop1631"
         offset="0.68666667"
         style="stop-color:#929292;stop-opacity:1.0000000;" />
      <stop
         id="elements-f12.svgstop1516"
         offset="1.0000000"
         style="stop-color:#d8d8d8;stop-opacity:1.0000000;" />
    </linearGradient>
    <linearGradient
       id="elements-f12.svglinearGradient1756">
      <stop
         id="elements-f12.svgstop1757"
         offset="0.0000000"
         style="stop-color:#495942;stop-opacity:1.0000000;" />
      <stop
         id="elements-f12.svgstop1758"
         offset="0.32111111"
         style="stop-color:#778670;stop-opacity:0.97254902;" />
      <stop
         id="elements-f12.svgstop1759"
         offset="1.0000000"
         style="stop-color:#a9c19e;stop-opacity:1.0000000;" />
    </linearGradient>
    <linearGradient
       id="elements-f12.svglinearGradient1806">
      <stop
         id="elements-f12.svgstop1807"
         offset="0.0000000"
         style="stop-color:#000000;stop-opacity:0.40784314;" />
      <stop
         id="elements-f12.svgstop3276"
         offset="0.64777780"
         style="stop-color:#000000;stop-opacity:0.079096042;" />
      <stop
         id="elements-f12.svgstop1808"
         offset="1.0000000"
         style="stop-color:#000000;stop-opacity:0.0000000;" />
    </linearGradient>
    <radialGradient
       inkscape:collect="always"
       xlink:href="#linearGradient8722"
       id="radialGradient9823"
       cx="179.34799"
       cy="197.78381"
       fx="179.34799"
       fy="197.78381"
       r="58.341476"
       gradientTransform="matrix(0.9637238,0.2669015,-0.737722,2.6637551,152.41552,-400.20377)"
       gradientUnits="userSpaceOnUse" />
    <linearGradient
       inkscape:collect="always"
       xlink:href="#linearGradient10806"
       id="linearGradient10816"
       x1="6.8495841"
       y1="291.41318"
       x2="346.51248"
       y2="291.41318"
       gradientUnits="userSpaceOnUse" />
  </defs>
  <sodipodi:namedview
     inkscape:window-height="994"
     inkscape:window-width="1400"
     inkscape:pageshadow="2"
     inkscape:pageopacity="0.0"
     guidetolerance="10.0"
     gridtolerance="10.0"
     objecttolerance="10.0"
     borderopacity="1.0"
     bordercolor="#666666"
     pagecolor="#ffffff"
     id="base"
     inkscape:zoom="4.9944592"
     inkscape:cx="183.94504"
     inkscape:cy="75.36285"
     inkscape:window-x="0"
     inkscape:window-y="22"
     inkscape:current-layer="svg2228" />
  <path
     id="path2322"
     style="fill:url(#linearGradient10816);fill-opacity:1.0;fill-rule:evenodd;stroke:#7bff6a;stroke-width:0.99646068px;stroke-linecap:butt;stroke-linejoin:miter;stroke-opacity:1"
     d="M 163.77097,384.16246 L 189.37805,387.90298 L 189.21825,391.76941 C 216.51611,395.87137 226.42707,421.25316 250.90264,421.26058 L 250.90292,424.31893 L 102.45912,424.31893 L 102.45939,421.26058 C 126.93496,421.25316 136.84592,395.87137 164.14379,391.76941 L 163.77097,384.16246 z M 189.7785,375.65048 C 180.7294,371.85681 170.69774,368.8376 163.09781,363.95706 L 161.96209,341.24296 C 174.05147,343.03192 178.64324,344.24909 191.14738,343.95474 L 189.7785,375.65048 z M 345.91594,158.50743 L 346.01426,166.5021 C 286.07997,167.64907 271.03175,208.75939 228.38103,231.80764 C 236.82652,203.57511 213.96756,179.55561 191.89674,158.50743 L 345.91594,158.50743 M 7.4461489,158.50743 L 186.5037,158.50743 C 221.69114,191.80067 227.72637,218.22443 222.87809,234.14245 C 213.37226,237.98769 206.29058,239.3272 196.05257,239.36485 L 192.6354,315.35637 C 182.59811,318.44221 170.98388,317.5909 160.52183,313.81079 L 157.30947,239.36485 C 98.020498,239.33752 63.653124,167.20548 7.3478143,166.5021 L 7.4461489,158.50743"
     sodipodi:nodetypes="cccccccccccccccccccccccccccc" />
  <path
     id="path12958"
     style="fill:#008000;fill-rule:evenodd;stroke:none;stroke-width:0.99646068px;stroke-linecap:butt;stroke-linejoin:miter;stroke-opacity:1"
     d="M 187.86953,7.4639152 C 210.09821,23.032561 214.08491,59.879437 199.74432,77.210068 C 197.3379,80.51086 193.99743,80.927904 190.86236,81.979037 C 190.03837,97.166794 190.26159,112.28576 198.37301,126.15988 C 208.23553,119.06348 219.90771,111.03802 224.37779,90.399655 C 222.84523,88.65407 221.35528,86.879261 221.33446,84.096524 C 220.28765,52.931023 221.98019,18.088214 187.86953,7.4639152 z M 182.47943,9.6861548 C 198.27442,14.110227 206.37528,33.048986 205.55873,51.5462 C 204.8095,59.526315 201.85818,66.562959 199.06904,70.255793 C 199.8169,63.485495 200.16626,57.044259 200.00539,49.422622 C 197.19061,26.267704 184.65952,24.739594 176.97648,24.78437 C 163.91089,25.088613 150.88818,37.702873 149.92209,59.667741 C 147.56219,105.21469 181.44357,129.81528 195.99732,144.67019 C 220.62219,169.90563 260.99725,202.66191 218.81089,254.03381 C 234.71257,228.15377 233.61294,203.47211 211.93503,180.24095 C 183.83922,147.70323 142.23094,116.62543 140.51929,77.763887 C 136.9623,49.648898 148.32126,6.7919331 182.47943,9.6861548 z M 148.08778,20.524893 C 137.17058,35.322544 128.25313,47.514734 125.57913,77.663882 C 122.66451,122.52803 146.56071,140.95133 177.96918,173.56308 C 191.30609,187.55657 220.15784,218.16403 195.89915,242.49281 L 194.74346,270.43398 C 259.44748,224.54742 202.27049,174.00008 175.37507,146.88648 C 156.35758,130.331 139.09399,104.7079 134.44606,77.246309 C 132.46685,52.986593 140.27054,36.926211 148.08778,20.524893 z M 157.50084,247.96864 C 138.67043,261.58888 122.2372,274.4871 121.48699,298.93322 C 121.43805,332.51069 150.86218,341.55461 182.74397,344.14095 C 216.79229,345.13584 231.54423,324.83124 231.30728,313.11654 C 231.24976,290.49535 210.1261,282.71783 194.06081,282.50574 L 193.37814,303.00397 C 198.69963,302.79292 202.51212,305.88746 202.11238,308.62031 C 189.47372,317.37839 173.85523,314.14027 160.50072,311.84803 L 159.68152,295.00297 C 154.98394,295.53817 152.91274,299.47104 148.90697,303.566 C 147.37523,293.15007 151.1256,286.27902 159.13923,281.10462 L 157.50084,247.96864 z M 146.85899,262.14801 C 140.22797,268.79194 134.78714,271.81282 134.5826,288.8246 C 135.86042,313.93858 160.39921,320.12582 177.96151,321.3946 C 189.57717,321.61472 212.71803,318.73575 213.16383,300.19383 C 212.7697,292.40114 209.38229,289.22909 205.38532,286.99802 C 206.86058,290.9634 209.21496,294.95574 208.52556,300.33829 C 206.43472,315.78174 188.68824,316.56252 180.41909,317.18334 C 157.13913,316.73547 139.98793,306.63369 138.81126,288.54359 C 139.21163,277.41612 142.6845,269.75352 146.85899,262.14801 z M 231.58034,406.75972 C 227.8156,388.31906 206.80151,382.79003 188.60718,375.30983 C 179.33451,371.57258 170.40068,368.43628 162.9583,364.07716 L 162.00256,341.1903 C 150.81841,339.02044 142.72633,335.47749 133.3538,328.83753 C 127.51203,337.74127 129.19557,347.78098 129.26166,350.60033 C 133.81007,376.99656 151.06655,382.49695 170.46374,385.41844 C 192.98595,388.1702 222.14724,390.80057 231.58034,406.75972 z M 145.86704,349.77485 C 145.61017,346.67345 144.28984,343.1716 147.13206,340.0702 L 143.31299,337.96259 C 142.3497,340.93887 139.67929,342.82976 141.17424,347.77263 C 142.27306,357.97532 151.63576,364.45542 155.84798,367.9411 C 152.94954,363.45838 146.34124,355.93384 145.86704,349.77485 z "
     sodipodi:nodetypes="ccccccccccccccccccccccccccccccccccccccccccccccccccccccccccccc" />
  <path
     id="path9759"
     style="opacity:1;fill:url(#radialGradient9823);fill-opacity:1.0;fill-rule:evenodd;stroke:#007a00;stroke-width:0.99646068px;stroke-linecap:butt;stroke-linejoin:miter;stroke-opacity:1"
     d="M 187.88734,7.7103783 C 210.11602,23.279023 214.10272,60.125899 199.76213,77.456531 C 197.35571,80.757321 194.01524,81.174361 190.88017,82.225501 C 190.05618,97.413251 190.2794,112.53223 198.39082,126.40635 C 208.25334,119.30995 219.92552,111.28449 224.3956,90.646121 C 222.86304,88.900531 221.37309,87.125721 221.35227,84.342981 C 220.30546,53.177485 221.998,18.334676 187.88734,7.7103783 z M 182.49724,9.9326173 C 198.29223,14.356689 206.39309,33.295448 205.57654,51.792662 C 204.82731,59.772777 201.87599,66.809421 199.08685,70.502251 C 199.83471,63.731957 200.18407,57.290721 200.0232,49.669084 C 197.20842,26.514166 184.67733,24.986056 176.99429,25.030832 C 163.9287,25.335075 150.90599,37.949335 149.9399,59.914203 C 147.58,105.46116 181.46138,130.06175 196.01513,144.91666 C 220.64,170.1521 261.01506,202.90838 218.8287,254.28028 C 234.73038,228.40024 233.63075,203.71858 211.95284,180.48742 C 183.85703,147.9497 142.24875,116.8719 140.5371,78.010351 C 136.98011,49.89536 148.33907,7.0383958 182.49724,9.9326173 z M 148.10559,20.771355 C 137.18839,35.569006 128.27094,47.761196 125.59694,77.910341 C 122.68232,122.7745 146.57852,141.1978 177.98699,173.80955 C 191.3239,187.80304 220.17565,218.4105 195.91696,242.73928 L 194.76127,270.68045 C 259.46529,224.79389 202.2883,174.24655 175.39288,147.13295 C 156.37539,130.57747 139.1118,104.95437 134.46387,77.492771 C 132.48466,53.233055 140.28835,37.172673 148.10559,20.771355 z M 157.51865,248.21511 C 138.68824,261.83535 122.25501,274.73357 121.5048,299.17969 C 121.45586,332.75716 150.87999,341.80108 182.76178,344.38742 C 216.8101,345.38231 231.56204,325.07771 231.32509,313.36301 C 231.26757,290.74182 210.14391,282.9643 194.07862,282.75221 L 193.39595,303.25044 C 198.71744,303.03939 202.52993,306.13393 202.13019,308.86678 C 189.49153,317.62486 173.87304,314.38674 160.51853,312.0945 L 159.69933,295.24944 C 155.00175,295.78464 152.93055,299.71751 148.92478,303.81247 C 147.39304,293.39654 151.14341,286.52549 159.15704,281.35109 L 157.51865,248.21511 z M 146.8768,262.39448 C 140.24578,269.03841 134.80495,272.05929 134.60041,289.07107 C 135.87823,314.18505 160.41702,320.37229 177.97932,321.64107 C 189.59498,321.86119 212.73584,318.98222 213.18164,300.4403 C 212.78751,292.64761 209.4001,289.47556 205.40313,287.24449 C 206.87839,291.20987 209.23277,295.20221 208.54337,300.58476 C 206.45253,316.02821 188.70605,316.80899 180.4369,317.42981 C 157.15694,316.98194 140.00574,306.88016 138.82907,288.79006 C 139.22944,277.66259 142.70231,269.99999 146.8768,262.39448 z M 231.59815,407.00619 C 227.83341,388.56553 206.81932,383.0365 188.62499,375.5563 C 179.35232,371.81905 170.41849,368.68275 162.97611,364.32363 L 162.02037,341.43677 C 150.83622,339.26691 142.74414,335.72396 133.37161,329.084 C 127.52984,337.98774 129.21338,348.02745 129.27947,350.8468 C 133.82788,377.24303 151.08436,382.74342 170.48155,385.66491 C 193.00376,388.41667 222.16505,391.04704 231.59815,407.00619 z M 145.88485,350.02132 C 145.62798,346.91992 144.30765,343.41807 147.14987,340.31667 L 143.3308,338.20906 C 142.36751,341.18534 139.6971,343.07623 141.19205,348.0191 C 142.29087,358.22179 151.65357,364.70189 155.86579,368.18757 C 152.96735,363.70485 146.35905,356.18031 145.88485,350.02132 z "
     sodipodi:nodetypes="ccccccccccccccccccccccccccccccccccccccccccccccccccccccccccccc" />
</svg>
