<?xml version="1.0" encoding="UTF-8" standalone="no"?>
<!-- Created with Inkscape (http://www.inkscape.org/) -->
<svg
   xmlns:dc="http://purl.org/dc/elements/1.1/"
   xmlns:cc="http://creativecommons.org/ns#"
   xmlns:rdf="http://www.w3.org/1999/02/22-rdf-syntax-ns#"
   xmlns:svg="http://www.w3.org/2000/svg"
   xmlns="http://www.w3.org/2000/svg"
   xmlns:sodipodi="http://sodipodi.sourceforge.net/DTD/sodipodi-0.dtd"
   xmlns:inkscape="http://www.inkscape.org/namespaces/inkscape"
   version="1.0"
   width="299"
   height="356"
   id="svg16413"
   sodipodi:version="0.32"
   inkscape:version="0.46"
   sodipodi:docname="Caduceus.svg"
   inkscape:output_extension="org.inkscape.output.svg.inkscape">
  <metadata
     id="metadata7">
    <rdf:RDF>
      <cc:Work
         rdf:about="">
        <dc:format>image/svg+xml</dc:format>
        <dc:type
           rdf:resource="http://purl.org/dc/dcmitype/StillImage" />
      </cc:Work>
    </rdf:RDF>
  </metadata>
  <sodipodi:namedview
     inkscape:window-height="751"
     inkscape:window-width="1280"
     inkscape:pageshadow="2"
     inkscape:pageopacity="0.0"
     guidetolerance="10.0"
     gridtolerance="10.0"
     objecttolerance="10.0"
     borderopacity="1.0"
     bordercolor="#666666"
     pagecolor="#ffffff"
     id="base"
     showgrid="false"
     inkscape:zoom="1.2977528"
     inkscape:cx="148.23676"
     inkscape:cy="178.55699"
     inkscape:window-x="-4"
     inkscape:window-y="-4"
     inkscape:current-layer="svg16413" />
  <defs
     id="defs16415">
    <inkscape:perspective
       sodipodi:type="inkscape:persp3d"
       inkscape:vp_x="0 : 178 : 1"
       inkscape:vp_y="0 : 1000 : 0"
       inkscape:vp_z="299 : 178 : 1"
       inkscape:persp3d-origin="149.5 : 118.66667 : 1"
       id="perspective9" />
  </defs>
  <path
     style="opacity:1;fill:#ffff00;fill-opacity:1;fill-rule:nonzero;stroke:none;stroke-width:6.8130002;stroke-linecap:square;stroke-linejoin:miter;marker:none;marker-start:none;marker-mid:none;marker-end:none;stroke-miterlimit:4;stroke-dasharray:27.252, 13.626, 6.813, 13.626;stroke-dashoffset:0;stroke-opacity:1;visibility:visible;display:inline;overflow:visible;enable-background:accumulate"
     d="M 147.45178,8.3540115 C 142.99877,8.5234198 138.7766,12.867003 136.97764,16.67675 C 135.82454,21.82424 137.28949,27.504998 141.95396,30.450559 C 147.64957,35.862992 159.83961,33.0759 161.76148,25.520987 C 165.31655,16.903814 156.34359,7.2438386 147.45178,8.3540115 z M 154.69917,13.161057 C 159.30822,14.52577 160.27345,20.585938 157.49246,24.117496 C 155.96475,26.158841 152.11564,29.4952 149.66643,27.536869 C 153.52883,25.106637 156.69043,20.026193 154.55469,15.400505 C 154.43795,14.883535 153.98999,13.377346 154.69917,13.161057 z"
     id="path4555"
     sodipodi:nodetypes="cccccccccc" />
  <path
     style="opacity:1;fill:#ffff00;fill-opacity:1;fill-rule:nonzero;stroke:none;stroke-width:5.24984407;stroke-linecap:square;stroke-linejoin:miter;marker:none;marker-start:none;marker-mid:none;marker-end:none;stroke-miterlimit:4;stroke-dasharray:20.99937662, 10.49968831, 5.24984416, 10.49968831;stroke-dashoffset:0;stroke-opacity:1;visibility:visible;display:inline;overflow:visible;enable-background:accumulate"
     d="M 141.50835,36.04481 C 141.31449,63.233749 139.7592,90.472559 141.08712,117.63872 C 139.89257,122.76172 145.23766,123.36115 148.89699,124.62601 C 153.04173,125.95789 152.41063,120.06544 152.60366,117.74851 C 154.00642,91.535118 155.68445,65.304934 156.55744,39.082574 C 155.67977,34.134695 148.78019,36.351165 145.34095,35.551925 C 144.12649,35.833541 142.28933,34.674794 141.50835,36.04481 z"
     id="path4044" />
  <path
     style="opacity:1;fill:#ffff00;fill-opacity:1;fill-rule:nonzero;stroke:none;stroke-width:6.8130002;stroke-linecap:square;stroke-linejoin:miter;marker:none;marker-start:none;marker-mid:none;marker-end:none;stroke-miterlimit:4;stroke-dasharray:27.252, 13.626, 6.813, 13.626;stroke-dashoffset:0;stroke-opacity:1;visibility:visible;display:inline;overflow:visible;enable-background:accumulate"
     d="M 142.17824,150.19398 C 139.53678,152.2155 141.34477,156.98346 140.65363,159.81776 C 141.33216,166.32699 139.08399,174.70783 143.12633,180.32502 C 144.61814,181.74165 149.01512,182.93398 149.13667,179.89158 C 150.28746,171.66293 151.13801,163.09583 150.99769,154.89645 C 148.63067,153.33529 145.06121,150.42947 142.17824,150.19398 z"
     id="path4557"
     sodipodi:nodetypes="cccccc" />
  <path
     style="opacity:1;fill:#ffff00;fill-opacity:1;fill-rule:nonzero;stroke:none;stroke-width:6.8130002;stroke-linecap:square;stroke-linejoin:miter;marker:none;marker-start:none;marker-mid:none;marker-end:none;stroke-miterlimit:4;stroke-dasharray:27.252, 13.626, 6.813, 13.626;stroke-dashoffset:0;stroke-opacity:1;visibility:visible;display:inline;overflow:visible;enable-background:accumulate"
     d="M 140.71148,210.6612 C 138.95653,215.99119 141.67373,224.31301 141.52736,230.02632 C 141.40506,233.04164 144.34079,236.49458 146.77682,236.72058 C 147.91988,229.99896 150.10943,222.72314 148.50847,216.05987 C 147.46821,214.69008 142.62632,209.928 140.71148,210.6612 z"
     id="path4559"
     sodipodi:nodetypes="ccccc" />
  <path
     style="opacity:1;fill:#ffff00;fill-opacity:1;fill-rule:nonzero;stroke:none;stroke-width:6.8130002;stroke-linecap:square;stroke-linejoin:miter;marker:none;marker-start:none;marker-mid:none;marker-end:none;stroke-miterlimit:4;stroke-dasharray:27.252, 13.626, 6.813, 13.626;stroke-dashoffset:0;stroke-opacity:1;visibility:visible;display:inline;overflow:visible;enable-background:accumulate"
     d="M 142.44241,264.95283 C 140.52673,268.81077 140.81537,275.1237 141.4242,279.32651 C 141.43643,281.49284 146.09072,283.78042 146.30962,281.06642 C 146.61338,276.68168 146.74264,268.64061 143.59825,265.09731 C 143.25463,264.90764 142.82123,264.79868 142.44241,264.95283 z"
     id="path4561"
     sodipodi:nodetypes="ccccc" />
  <path
     style="opacity:1;fill:#ffff00;fill-opacity:1;fill-rule:nonzero;stroke:none;stroke-width:6.81300020000000030;stroke-linecap:square;stroke-linejoin:miter;marker:none;marker-start:none;marker-mid:none;marker-end:none;stroke-miterlimit:4;stroke-dasharray:27.25199999999999900, 13.62599999999999900, 6.81299999999999970, 13.62599999999999900;stroke-dashoffset:0;stroke-opacity:1;visibility:visible;display:inline;overflow:visible;enable-background:accumulate"
     d="M 142.04037,301.7478 C 141.32161,303.02859 141.52025,304.66261 141.33001,306.09425 C 140.9889,318.37335 141.15125,330.66647 141.56695,342.94204 C 141.76431,344.36474 141.46959,345.97283 142.13669,347.27722 C 142.94903,347.91585 143.50025,346.70995 143.41896,346.01904 C 144.14189,338.10138 143.87628,330.12872 143.96364,322.18577 C 143.83239,315.72436 144.19043,309.21859 143.35274,302.79528 C 143.31548,302.11479 142.85305,301.15609 142.04037,301.7478 z"
     id="path4563" />
  <path
     style="opacity:1;fill:#00ff00;fill-opacity:1;fill-rule:nonzero;stroke:none;stroke-width:6.8130002;stroke-linecap:square;stroke-linejoin:miter;marker:none;marker-start:none;marker-mid:none;marker-end:none;stroke-miterlimit:4;stroke-dasharray:27.252, 13.626, 6.813, 13.626;stroke-dashoffset:0;stroke-opacity:1;visibility:visible;display:inline;overflow:visible;enable-background:accumulate"
     d="M 125.30255,87.561479 C 113.77133,87.577591 100.95979,97.633243 103.20601,109.95596 C 104.94038,122.353 116.44853,129.59335 126.56369,135.07149 C 137.65805,141.79664 151.2778,146.20405 160.84476,154.91348 C 166.86384,161.63189 163.5828,171.97899 157.81067,177.69324 C 155.9902,179.85066 150.66259,183.98258 154.4973,186.37789 C 157.94026,189.36142 164.77052,193.81239 168.93496,190.23684 C 178.41844,184.69429 183.5993,172.52516 182.90212,161.5355 C 183.82199,150.23731 175.42576,141.45014 166.77531,135.81041 C 152.02579,126.3671 132.25789,124.81989 118.96949,113.08637 C 114.67999,108.99646 113.41657,102.68939 115.01964,97.240255 C 118.85188,100.41819 123.6216,101.92159 128.67376,100.01088 C 132.25753,98.584649 137.60676,95.519096 136.88507,91.029011 C 134.3055,87.845369 129.08517,87.669974 125.30255,87.561479 z M 124.55607,90.089888 C 125.74536,89.95134 128.40275,90.968052 125.78415,91.631013 C 124.94824,92.317577 120.28119,92.634833 121.93134,90.78821 C 122.73533,90.247036 123.60822,90.139134 124.55607,90.089888 z"
     id="path4565"
     sodipodi:nodetypes="cccccccccccccccccc" />
  <path
     style="opacity:1;fill:#00ff00;fill-opacity:1;fill-rule:nonzero;stroke:none;stroke-width:6.8130002;stroke-linecap:square;stroke-linejoin:miter;marker:none;marker-start:none;marker-mid:none;marker-end:none;stroke-miterlimit:4;stroke-dasharray:27.252, 13.626, 6.813, 13.626;stroke-dashoffset:0;stroke-opacity:1;visibility:visible;display:inline;overflow:visible;enable-background:accumulate"
     d="M 168.24561,87.048951 C 164.54257,86.614978 157.41608,89.132749 158.52622,93.942701 C 160.76801,98.881932 166.66197,102.21491 172.01655,101.52759 C 176.31738,102.43452 179.50291,98.508463 182.85396,96.495191 C 182.884,103.75021 179.48507,110.56286 173.65537,114.94054 C 168.91765,119.77198 161.62461,121.8299 156.21454,125.6727 C 156.13331,128.72898 161.28737,130.1528 163.42133,131.70028 C 167.07064,134.31645 171.80691,135.96287 175.34097,132.91798 C 184.77946,126.438 191.73658,113.79644 191.59503,102.12993 C 190.02402,96.205775 184.74453,91.712816 179.53091,88.982204 C 176.01699,87.570278 171.99036,87.041153 168.24561,87.048951 z M 171.82528,90.258448 C 172.96262,89.471457 176.01981,92.348022 173.41457,92.064455 C 172.08468,92.777063 168.92074,92.099901 169.05607,90.83637 C 169.91286,90.410033 170.87715,90.287175 171.82528,90.258448 z"
     id="path4567"
     sodipodi:nodetypes="ccccccccccccccc" />
  <path
     style="opacity:1;fill:#00ff00;fill-opacity:1;fill-rule:nonzero;stroke:none;stroke-width:6.8130002;stroke-linecap:square;stroke-linejoin:miter;marker:none;marker-start:none;marker-mid:none;marker-end:none;stroke-miterlimit:4;stroke-dasharray:27.252, 13.626, 6.813, 13.626;stroke-dashoffset:0;stroke-opacity:1;visibility:visible;display:inline;overflow:visible;enable-background:accumulate"
     d="M 121.40158,138.97388 C 116.88704,142.30947 113.03844,148.53982 111.10427,153.82988 C 110.11004,160.91687 109.09322,168.83543 111.10498,175.77439 C 116.39996,189.30215 130.10764,196.99404 141.92533,204.26343 C 148.56421,209.067 158.37732,213.62125 158.02739,223.20461 C 158.2985,229.15444 152.36648,232.96677 150.5399,237.98978 C 152.81452,241.70142 158.40267,246.45978 163.06698,246.35242 C 171.62161,243.48778 175.89159,235.03949 177.37881,226.64665 C 179.68951,219.31637 177.55824,210.55392 173.20469,204.5109 C 167.41815,195.4204 156.54546,191.28889 148.12857,185.03133 C 141.27803,180.2675 131.52838,176.96478 129.17945,168.18161 C 127.64356,162.07643 128.78783,154.91041 133.43124,150.0493 C 135.84088,147.27271 131.75782,144.61788 129.15537,143.5236 C 126.69671,142.20737 124.22864,139.43836 121.40158,138.97388 z"
     id="path4569"
     sodipodi:nodetypes="cccccccccccccc" />
  <path
     style="opacity:1;fill:#00ff00;fill-opacity:1;fill-rule:nonzero;stroke:none;stroke-width:6.8130002;stroke-linecap:square;stroke-linejoin:miter;marker:none;marker-start:none;marker-mid:none;marker-end:none;stroke-miterlimit:4;stroke-dasharray:27.252, 13.626, 6.813, 13.626;stroke-dashoffset:0;stroke-opacity:1;visibility:visible;display:inline;overflow:visible;enable-background:accumulate"
     d="M 122.19622,199.63233 C 117.78628,201.4398 116.59236,208.3363 114.87588,212.39265 C 110.93715,225.59956 117.14337,240.12556 127.99952,248.03118 C 135.54268,254.90777 147.61333,258.46736 151.59801,268.40293 C 151.96843,273.11186 147.72312,278.09681 148.59387,283.00204 C 148.07576,286.11272 153.32212,291.04852 156.66852,288.4437 C 163.91384,283.95004 168.70878,275.0369 167.39454,265.99492 C 167.00768,252.89061 154.29334,245.60469 144.91436,238.73048 C 138.6205,233.7936 130.11374,227.63386 132.21354,218.43675 C 132.61258,214.76999 136.12987,211.71395 136.5947,208.29903 C 132.57988,205.35504 127.31535,200.11177 122.19622,199.63233 z"
     id="path4571"
     sodipodi:nodetypes="ccccccccccc" />
  <path
     style="opacity:1;fill:#00ff00;fill-opacity:1;fill-rule:nonzero;stroke:none;stroke-width:6.8130002;stroke-linecap:square;stroke-linejoin:miter;marker:none;marker-start:none;marker-mid:none;marker-end:none;stroke-miterlimit:4;stroke-dasharray:27.252, 13.626, 6.813, 13.626;stroke-dashoffset:0;stroke-opacity:1;visibility:visible;display:inline;overflow:visible;enable-background:accumulate"
     d="M 124.98951,255.28069 C 120.23585,256.88533 120.01716,264.19815 119.91759,268.36303 C 119.92759,280.97193 132.03182,289.22112 142.02897,294.46157 C 149.41865,298.03677 156.81238,305.19853 154.80066,314.15509 C 154.81214,316.76779 153.42732,320.53972 153.46869,323.03026 C 156.0846,323.72503 159.48514,318.21946 160.77794,316.41862 C 164.64602,309.98927 162.98348,301.03718 157.35315,295.73383 C 150.72653,287.68766 140.03315,283.10212 135.60883,273.43567 C 134.67767,269.21396 136.42533,264.53342 135.51936,260.4166 C 132.37024,258.82372 128.61069,255.55906 124.98951,255.28069 z"
     id="path4573"
     sodipodi:nodetypes="cccccccccc" />
  <path
     style="opacity:1;fill:#00ff00;fill-opacity:1;fill-rule:nonzero;stroke:none;stroke-width:6.8130002;stroke-linecap:square;stroke-linejoin:miter;marker:none;marker-start:none;marker-mid:none;marker-end:none;stroke-miterlimit:4;stroke-dasharray:27.252, 13.626, 6.813, 13.626;stroke-dashoffset:0;stroke-opacity:1;visibility:visible;display:inline;overflow:visible;enable-background:accumulate"
     d="M 129.90185,294.96326 C 124.19353,297.02796 122.70948,305.22972 124.06007,310.30087 C 124.72353,314.043 127.75919,318.41803 129.98849,321.48913 C 132.2048,317.07386 129.22013,309.11567 131.70786,304.25818 C 132.70711,301.88935 138.40875,297.68858 134.53136,295.78199 C 133.41324,295.32461 131.14488,294.79594 129.90185,294.96326 z"
     id="path4575"
     sodipodi:nodetypes="cccccc" />
  <path
     style="opacity:1;fill:#ffd5d5;fill-opacity:1;fill-rule:nonzero;stroke:none;stroke-width:6.8130002;stroke-linecap:square;stroke-linejoin:miter;marker:none;marker-start:none;marker-mid:none;marker-end:none;stroke-miterlimit:4;stroke-dasharray:27.252, 13.626, 6.813, 13.626;stroke-dashoffset:0;stroke-opacity:1;visibility:visible;display:inline;overflow:visible;enable-background:accumulate"
     d="M 191.92145,8.273532 C 186.53978,8.3377504 181.11011,9.9879005 177.49942,14.198995 C 171.07108,19.995051 170.7525,30.297053 175.64346,37.100569 C 177.40584,39.913559 179.82257,42.195623 182.09676,44.592534 C 178.88106,50.047621 173.83147,55.48542 166.92554,54.859931 C 164.4184,55.069275 162.08952,53.821332 159.68898,53.582891 C 159.0314,60.122924 159.61456,66.982523 159.41654,73.640924 C 162.85184,76.034871 167.75501,76.012886 171.89748,75.922568 C 181.49818,75.39545 190.99067,68.272258 192.41524,58.469696 C 192.52906,57.106861 190.15597,54.967128 192.77281,55.353719 C 199.15079,54.701984 206.57262,55.887011 211.53678,50.841513 C 216.71387,46.549587 220.5794,40.201223 219.86308,33.286478 C 220.06764,32.234459 219.49015,28.412838 221.05498,30.66429 C 223.84471,35.11231 226.67674,39.66287 230.96927,42.904548 C 243.38125,52.756677 255.958,64.193093 272.11953,67.017346 C 277.53507,67.922174 284.91935,68.473604 288.31239,63.271364 C 288.88688,60.380397 284.69085,59.998514 282.84666,59.04862 C 263.07001,50.635596 246.02191,36.87484 228.4562,24.577033 C 217.5544,17.041724 205.92998,7.8863091 191.92145,8.273532 z"
     id="path4579" />
  <path
     style="opacity:1;fill:#ffd5d5;fill-opacity:1;fill-rule:nonzero;stroke:none;stroke-width:6.8130002;stroke-linecap:square;stroke-linejoin:miter;marker:none;marker-start:none;marker-mid:none;marker-end:none;stroke-miterlimit:4;stroke-dasharray:27.252, 13.626, 6.813, 13.626;stroke-dashoffset:0;stroke-opacity:1;visibility:visible;display:inline;overflow:visible;enable-background:accumulate"
     d="M 158.22464,99.454148 C 156.84939,102.70993 157.43604,106.73029 157.30517,110.24939 C 157.53504,113.10255 161.32221,111.31907 162.9582,111.08372 C 165.70973,109.93376 169.64121,109.90476 171.57396,107.49098 C 169.76413,104.95426 165.8975,104.57247 163.5201,102.51904 C 161.7425,101.73923 160.35158,99.175752 158.22464,99.454148 z"
     id="path4583" />
  <path
     style="opacity:1;fill:#ffd5d5;fill-opacity:1;fill-rule:nonzero;stroke:none;stroke-width:6.8130002;stroke-linecap:square;stroke-linejoin:miter;marker:none;marker-start:none;marker-mid:none;marker-end:none;stroke-miterlimit:4;stroke-dasharray:27.252, 13.626, 6.813, 13.626;stroke-dashoffset:0;stroke-opacity:1;visibility:visible;display:inline;overflow:visible;enable-background:accumulate"
     d="M 194.765,69.690615 C 187.91652,75.322077 180.3099,81.446271 170.94395,81.030726 C 166.97457,81.277677 162.90627,80.350515 159.02492,80.724236 C 159.0422,82.689703 157.73797,87.446828 161.15332,87.296732 C 167.30954,86.058548 173.85055,84.947269 179.81512,87.637276 C 184.53315,89.105026 187.81711,93.360968 192.4493,94.941942 C 197.14342,92.924511 200.3616,88.369729 203.61914,84.555354 C 205.0756,82.972817 206.16607,80.64444 204.12995,79.021517 C 201.34158,75.71057 198.38845,72.303137 195.08851,69.571425 L 194.765,69.690615 z"
     id="path4585" />
  <path
     style="opacity:1;fill:#ffd5d5;fill-opacity:1;fill-rule:nonzero;stroke:none;stroke-width:6.8130002;stroke-linecap:square;stroke-linejoin:miter;marker:none;marker-start:none;marker-mid:none;marker-end:none;stroke-miterlimit:4;stroke-dasharray:27.252, 13.626, 6.813, 13.626;stroke-dashoffset:0;stroke-opacity:1;visibility:visible;display:inline;overflow:visible;enable-background:accumulate"
     d="M 202.18885,58.827267 C 199.4277,58.325087 196.60907,60.69676 197.72773,63.560826 C 201.32658,71.83827 209.39226,77.920612 218.17388,80.004032 C 219.80973,80.477693 222.45771,79.408173 222.74067,77.710423 C 218.99917,74.175665 214.92001,70.954589 212.15383,66.580208 C 209.50068,63.456729 207.13559,58.149753 202.18885,58.827267 z"
     id="path4587" />
  <path
     style="opacity:1;fill:#ffd5d5;fill-opacity:1;fill-rule:nonzero;stroke:none;stroke-width:6.8130002;stroke-linecap:square;stroke-linejoin:miter;marker:none;marker-start:none;marker-mid:none;marker-end:none;stroke-miterlimit:4;stroke-dasharray:27.252, 13.626, 6.813, 13.626;stroke-dashoffset:0;stroke-opacity:1;visibility:visible;display:inline;overflow:visible;enable-background:accumulate"
     d="M 216.86629,54.212897 C 214.61876,55.036812 211.97757,56.542446 211.19624,58.861321 C 213.67183,64.479352 219.22594,68.047113 223.88149,71.767933 C 229.41382,75.704968 236.37424,77.373301 243.05411,77.267716 C 245.00808,76.647261 244.56794,74.218372 242.74762,73.674978 C 234.60248,68.381538 227.05521,62.170296 220.01632,55.575073 C 219.13533,54.848183 218.06921,54.088465 216.86629,54.212897 z"
     id="path4589" />
  <path
     style="opacity:1;fill:#ffd5d5;fill-opacity:1;fill-rule:nonzero;stroke:none;stroke-width:6.8130002;stroke-linecap:square;stroke-linejoin:miter;marker:none;marker-start:none;marker-mid:none;marker-end:none;stroke-miterlimit:4;stroke-dasharray:27.252, 13.626, 6.813, 13.626;stroke-dashoffset:0;stroke-opacity:1;visibility:visible;display:inline;overflow:visible;enable-background:accumulate"
     d="M 223.64311,43.128195 C 220.97639,43.954616 220.89565,47.95022 221.77012,50.177453 C 225.95675,57.328541 233.0538,62.289889 239.66217,66.974732 C 246.13242,70.954997 253.94271,75.798425 261.80105,73.283353 C 263.93932,71.376591 261.21784,68.868744 259.24697,68.362494 C 247.59555,61.293512 237.13725,52.623124 226.48666,44.200908 C 225.61677,43.691798 224.69434,43.072073 223.64311,43.128195 z"
     id="path4591" />
  <path
     style="opacity:1;fill:#ffd5d5;fill-opacity:1;fill-rule:nonzero;stroke:none;stroke-width:6.8130002;stroke-linecap:square;stroke-linejoin:miter;marker:none;marker-start:none;marker-mid:none;marker-end:none;stroke-miterlimit:4;stroke-dasharray:27.252, 13.626, 6.813, 13.626;stroke-dashoffset:0;stroke-opacity:1;visibility:visible;display:inline;overflow:visible;enable-background:accumulate"
     d="M 137.55363,99.164686 C 133.04858,101.24382 129.19593,104.40848 124.44269,105.99259 C 123.98211,108.45115 129.22581,108.84497 130.92825,110.45898 C 133.00679,110.86975 135.39033,113.86155 137.48552,112.41184 C 139.03164,108.58053 138.87324,104.06058 138.69445,99.964964 C 138.57236,99.478106 138.08416,99.024185 137.55363,99.164686 z"
     id="path4593" />
  <path
     style="opacity:1;fill:#ffd5d5;fill-opacity:1;fill-rule:nonzero;stroke:none;stroke-width:6.8130002;stroke-linecap:square;stroke-linejoin:miter;marker:none;marker-start:none;marker-mid:none;marker-end:none;stroke-miterlimit:4;stroke-dasharray:27.252, 13.626, 6.813, 13.626;stroke-dashoffset:0;stroke-opacity:1;visibility:visible;display:inline;overflow:visible;enable-background:accumulate"
     d="M 102.29031,64.888947 C 98.93704,68.234434 94.830092,71.571627 93.487254,76.263112 C 94.715528,81.985594 99.09138,86.568023 103.49924,90.106219 C 105.25001,91.277178 107.58515,93.376988 109.44173,91.093796 C 114.39714,87.489257 120.49526,84.773945 126.77403,85.888243 C 130.46564,85.783312 133.98415,87.263103 137.55363,87.415923 C 139.69283,86.164236 138.76649,82.771063 138.62634,80.843426 C 132.16707,79.895543 125.1505,81.602322 118.95993,79.208816 C 112.08569,76.284503 107.35612,70.231546 102.71599,64.718675 L 102.29031,64.888947 z"
     id="path4595" />
  <path
     style="opacity:1;fill:#ffd5d5;fill-opacity:1;fill-rule:nonzero;stroke:none;stroke-width:6.8130002;stroke-linecap:square;stroke-linejoin:miter;marker:none;marker-start:none;marker-mid:none;marker-end:none;stroke-miterlimit:4;stroke-dasharray:27.252, 13.626, 6.813, 13.626;stroke-dashoffset:0;stroke-opacity:1;visibility:visible;display:inline;overflow:visible;enable-background:accumulate"
     d="M 102.32437,7.1156829 C 92.193319,7.1688077 83.718604,13.721035 75.234605,18.421199 C 55.548147,30.706082 36.707735,44.429748 15.229346,53.436626 C 13.894959,54.453256 10.634232,54.659647 10.803208,56.68184 C 14.560136,59.48839 19.786046,59.949879 24.390292,59.908115 C 36.103442,58.879356 45.983817,51.585751 55.935119,45.998571 C 64.880509,40.572917 73.655381,34.708246 81.091458,27.343988 C 82.314359,27.694677 81.93161,30.298077 82.096063,31.447541 C 82.312763,40.14836 87.671703,48.29673 95.632681,51.795036 C 99.410778,53.98882 104.02935,53.7564 107.99442,55.081284 C 105.05561,57.317862 106.95652,61.365833 107.87523,64.190832 C 111.05864,71.345626 118.97009,75.367934 126.38379,76.51852 C 129.905,76.761777 133.86571,76.428316 136.9747,74.781746 C 139.55132,70.575752 138.47136,65.121476 138.85304,60.393779 C 138.42023,58.042179 140.46465,52.72702 136.19145,53.923435 C 132.9183,53.786645 129.36353,55.096998 126.36295,54.536169 C 123.4639,51.37596 119.42461,48.44099 118.17668,44.200908 C 117.87952,39.850915 122.93612,37.681302 124.80026,34.188919 C 127.88636,29.936088 128.33675,24.137274 127.09893,19.187962 C 122.94701,11.42153 114.19308,7.004088 105.50845,7.1327101 C 104.44754,7.0987211 103.3855,7.0781141 102.32437,7.1156829 z"
     id="path4597" />
  <path
     style="opacity:1;fill:#ffd5d5;fill-opacity:1;fill-rule:nonzero;stroke:none;stroke-width:6.8130002;stroke-linecap:square;stroke-linejoin:miter;marker:none;marker-start:none;marker-mid:none;marker-end:none;stroke-miterlimit:4;stroke-dasharray:27.252, 13.626, 6.813, 13.626;stroke-dashoffset:0;stroke-opacity:1;visibility:visible;display:inline;overflow:visible;enable-background:accumulate"
     d="M 93.844826,56.102916 C 89.566592,57.159463 87.165725,61.48699 83.846333,64.072192 C 80.63289,67.527366 76.52221,70.219483 73.616521,73.896332 C 73.736654,76.562561 77.595996,75.605862 79.371712,75.496888 C 88.202907,74.120208 95.273884,67.472057 100.74084,60.887557 C 102.59122,58.293316 99.054029,56.462634 96.875666,56.341296 C 95.876281,56.155218 94.86394,56.029691 93.844826,56.102916 z"
     id="path4599" />
  <path
     style="opacity:1;fill:#ffd5d5;fill-opacity:1;fill-rule:nonzero;stroke:none;stroke-width:6.8130002;stroke-linecap:square;stroke-linejoin:miter;marker:none;marker-start:none;marker-mid:none;marker-end:none;stroke-miterlimit:4;stroke-dasharray:27.252, 13.626, 6.813, 13.626;stroke-dashoffset:0;stroke-opacity:1;visibility:visible;display:inline;overflow:visible;enable-background:accumulate"
     d="M 81.857682,48.627978 C 73.233793,56.077203 64.407213,63.195436 54.563092,68.941419 C 52.784178,69.442057 52.04825,72.268886 54.39282,72.278749 C 60.042628,72.985222 65.906641,72.191504 70.704871,69.026555 C 77.463108,65.116539 83.95686,60.486647 89.894517,55.489937 C 87.766592,52.906604 84.964221,49.736342 81.857682,48.627978 z"
     id="path4601" />
  <path
     style="opacity:1;fill:#ffd5d5;fill-opacity:1;fill-rule:nonzero;stroke:none;stroke-width:6.8130002;stroke-linecap:square;stroke-linejoin:miter;marker:none;marker-start:none;marker-mid:none;marker-end:none;stroke-miterlimit:4;stroke-dasharray:27.252, 13.626, 6.813, 13.626;stroke-dashoffset:0;stroke-opacity:1;visibility:visible;display:inline;overflow:visible;enable-background:accumulate"
     d="M 76.187627,36.60678 C 62.918017,45.674945 50.312288,56.294699 35.424528,62.471086 C 34.310508,62.37314 32.158767,62.990963 33.585591,64.310023 C 39.174722,68.570798 47.265477,67.342901 53.132808,64.173805 C 62.319319,59.35251 71.228344,53.888988 79.593065,47.674455 C 82.100405,45.238265 78.790641,41.765208 78.160493,39.183657 C 77.545105,38.510099 77.527038,36.101876 76.187627,36.60678 z"
     id="path4603" />
  <g
     id="layer1">
    <path
       d="M 140.40096,350.28254 C 139.45246,349.13956 139.02852,345.72679 139.02852,339.23422 L 139.02852,329.83975 L 135.02852,328.02359 C 126.14035,323.98802 122.52852,317.9713 122.52852,307.20063 C 122.52852,301.54229 122.96083,299.76445 125.10346,296.61128 C 127.85782,292.55788 127.8601,292.5688 123.19366,287.44936 C 116.73194,280.36036 115.18559,263.12366 120.5035,257.46301 C 121.61726,256.27747 122.52852,254.85264 122.52852,254.29672 C 122.52852,253.7408 120.45656,250.61981 117.92417,247.36117 C 110.06079,237.24272 109.10301,234.71066 109.06342,223.93638 C 109.03154,215.25894 109.27792,214.00345 111.90886,209.43638 C 113.49305,206.68638 116.10231,203.0425 117.70722,201.33888 L 120.62524,198.24137 L 116.96119,193.85579 C 114.94596,191.44372 112.13932,186.98759 110.72421,183.95329 C 108.44604,179.06839 108.14426,177.11895 108.08991,166.93638 C 108.03667,156.96302 108.33684,154.75504 110.35109,150.30395 C 111.6285,147.48111 113.991,143.90942 115.60109,142.36686 C 118.4383,139.64863 119.45592,136.93638 117.63855,136.93638 C 117.14907,136.93638 114.26962,134.49671 111.23977,131.51488 C 102.83339,123.24174 98.48827,108.93639 101.9164,100.81976 L 103.44391,97.203108 L 99.73621,94.193328 C 96.09813,91.240048 94.09446,88.100648 91.15823,80.753088 L 89.68632,77.069788 L 84.61676,78.690968 C 79.76021,80.244038 79.32623,80.223618 74.28786,78.205028 C 70.9926,76.884808 66.9226,76.121098 63.38935,76.159998 C 59.42481,76.203658 56.31694,75.528278 52.92389,73.885728 C 50.26944,72.600728 46.09861,71.431608 43.65539,71.287688 C 40.67981,71.112398 37.3668,69.891778 33.62084,67.590638 C 29.62917,65.138558 26.81221,64.141888 23.77902,64.108508 C 18.97663,64.055668 11.16886,60.257958 7.07278,55.982568 L 4.47148,53.267398 L 10.03204,52.023008 C 16.80691,50.506848 34.83141,41.486878 47.02852,33.508908 C 51.97852,30.271178 62.32852,23.475548 70.02852,18.407508 C 87.2077,7.100398 88.50093,6.435928 96.32396,4.896838 C 114.43562,1.333588 128.71417,9.654588 131.03403,25.124568 C 131.9281,31.086678 130.25471,36.310248 125.88763,41.189258 C 124.04012,43.253338 122.52852,45.350838 122.52852,45.850368 C 122.52852,46.349888 123.96613,47.968258 125.7232,49.446738 C 128.30551,51.619608 129.58609,52.026438 132.40394,51.569168 C 137.68558,50.712078 138.50557,49.299638 138.59368,40.907308 C 138.65305,35.251848 138.16866,32.415348 136.60032,29.234688 C 132.30606,20.525748 134.76692,11.250808 142.4358,7.240878 C 152.81927,1.811528 164.01869,7.226388 165.26304,18.277718 C 165.61126,21.370368 165.05456,23.915528 163.09127,28.206768 C 160.77142,33.277348 160.48625,35.035848 160.73988,42.706768 L 161.02852,51.436378 L 165.72635,51.739038 C 170.04581,52.017318 176.52852,49.926498 176.52852,48.255088 C 176.52852,47.908628 175.47179,46.232688 174.18023,44.530768 C 168.41859,36.938538 167.92419,24.617298 173.07354,16.950098 C 179.46388,7.435118 188.09073,4.329318 200.80906,6.964888 C 212.48517,9.384478 217.37671,12.306848 245.70052,33.784628 C 252.48092,38.926168 263.87852,46.489638 271.02852,50.592348 C 283.40085,57.691658 284.282,58.032988 289.27852,57.661828 C 294.10647,57.303188 294.52852,57.444858 294.52852,59.424108 C 294.52852,62.358568 288.16746,69.569768 283.46091,71.970868 C 281.34192,73.051898 277.84465,73.936378 275.6892,73.936378 C 273.53375,73.936378 269.21104,75.108008 266.08316,76.539998 C 261.45349,78.659528 259.55934,79.018128 255.89558,78.468708 C 252.70178,77.989778 250.75479,78.213328 249.18995,79.238648 C 246.68471,80.880148 240.57576,82.084768 232.52852,82.524118 C 215.96423,83.428468 210.40609,83.894008 209.50196,84.452788 C 208.9499,84.793988 207.8678,86.581948 207.09728,88.426058 C 205.54269,92.146718 201.4758,96.689748 197.27852,99.394368 C 194.75279,101.0219 194.52852,101.6848 194.52852,107.52288 C 194.52852,116.4585 191.26715,123.32994 182.92465,131.97126 L 176.27638,138.85767 L 180.40051,143.78349 C 186.53915,151.11542 188.48069,156.13571 188.50656,164.74356 C 188.54695,178.18198 185.24062,185.75299 175.81195,193.81237 L 171.06871,197.86676 L 174.13995,201.15157 C 181.40454,208.92134 182.03377,210.55161 181.96922,221.43638 C 181.89629,233.73586 180.27011,237.41447 171.55496,244.99467 C 165.97188,249.85069 164.04028,252.93638 166.58355,252.93638 C 167.16381,252.93638 168.78751,255.52388 170.19176,258.68638 C 174.61963,268.65837 172.60197,279.02711 164.42626,288.31521 C 162.2825,290.75065 160.52852,292.99174 160.52852,293.29542 C 160.52852,293.5991 161.65352,295.50534 163.02852,297.53152 C 165.05204,300.51334 165.52852,302.43719 165.52852,307.62559 C 165.52852,318.9016 158.50026,327.93638 149.72852,327.93638 L 146.8292,327.93638 L 146.14837,339.14621 C 145.52339,349.43638 144.81178,351.86224 142.40096,351.92107 C 142.05581,351.92949 141.15581,351.19215 140.40096,350.28254 z M 143.52852,324.37736 C 143.52852,309.77414 143.17189,301.93638 142.50741,301.93638 C 141.8383,301.93638 141.53285,309.86099 141.62131,324.925 C 141.69803,337.98845 142.13888,347.67719 142.64242,347.36599 C 143.12977,347.06478 143.52852,336.7199 143.52852,324.37736 z M 139.07482,312.50941 C 138.95425,303.67118 137.6363,301.8935 134.99339,307.00431 C 133.10021,310.66532 133.6665,317.38499 136.29278,322.42321 L 137.86347,325.43638 L 138.52321,322.93638 C 138.88607,321.56138 139.13429,316.86924 139.07482,312.50941 z M 150.49334,322.00212 C 151.91521,319.34533 151.79946,309.60732 150.32852,308.13638 C 148.09215,305.90001 147.67606,306.92081 147.35199,315.43871 C 147.11679,321.621 147.36001,323.94041 148.24334,323.93871 C 148.91149,323.93743 149.92399,323.06596 150.49334,322.00212 z M 158.6354,317.26345 C 165.05928,306.86939 162.60789,298.89084 149.932,288.93638 C 148.88146,288.11138 146.18848,285.99751 143.9476,284.23888 C 141.70673,282.48026 138.61596,279.22705 137.07922,277.00954 C 134.61344,273.45142 134.3352,272.28572 134.71115,267.08833 L 135.13715,261.19896 L 130.97798,258.56767 C 128.69043,257.12046 126.09005,255.93638 125.19934,255.93638 C 120.93809,255.93638 118.77891,268.81321 121.8198,276.09109 C 124.73654,283.07183 133.91944,291.05199 143.52852,294.9565 C 148.55065,296.99717 154.30511,303.22857 155.10503,307.49251 C 155.76709,311.02158 155.3163,316.08105 153.90722,320.93638 C 153.25672,323.17783 153.3535,323.29548 154.84302,322.07396 C 155.75676,321.32463 157.46333,319.1599 158.6354,317.26345 z M 129.85295,316.02787 C 129.05762,309.31253 130.05024,304.93174 133.11645,301.62498 C 136.12715,298.37807 135.72095,296.27376 131.89828,295.31434 C 129.67225,294.75564 128.75059,295.15608 126.7883,297.53454 C 124.66732,300.10533 124.44288,301.19559 124.82103,307.0913 C 125.11318,311.64616 125.94902,314.8807 127.46976,317.3413 C 128.69179,319.31859 129.85874,320.93638 130.06296,320.93638 C 130.26719,320.93638 130.17269,318.72755 129.85295,316.02787 z M 159.68194,284.18638 C 164.87618,279.50315 167.4846,273.90366 167.4846,267.43638 C 167.4846,257.85048 161.57502,249.69499 149.00697,241.93638 C 141.7529,237.45824 134.77058,231.30516 132.95174,227.78791 C 130.70982,223.4525 131.14787,216.77639 133.94469,212.65505 C 136.73396,208.54484 136.80883,208.6618 127.76615,203.00435 C 121.67793,199.19533 121.25155,199.35461 117.09553,206.9906 C 113.11044,214.31252 112.62216,221.89758 115.54979,231.00254 C 117.46774,236.96737 118.84473,239.16092 123.96629,244.4101 C 127.68066,248.21702 132.56948,251.93786 136.39301,253.86798 C 148.71772,260.08947 154.67586,268.01018 151.1169,273.44184 C 150.21897,274.81225 149.52852,277.96781 149.52852,280.7012 C 149.52852,288.91864 153.0809,290.138 159.68194,284.18638 z M 145.63921,277.68638 C 145.85395,269.44142 144.8895,265.93638 142.40608,265.93638 C 141.05442,265.93638 141.34676,279.35462 142.72852,280.73638 C 144.80865,282.81651 145.52515,282.06572 145.63921,277.68638 z M 139.2566,268.18638 C 138.85797,266.51971 138.80176,266.51971 138.07629,268.18638 C 137.65733,269.14888 137.65733,270.72388 138.07629,271.68638 C 138.80176,273.35305 138.85797,273.35305 139.2566,271.68638 C 139.48681,270.72388 139.48681,269.14888 139.2566,268.18638 z M 165.35931,244.18548 C 172.38277,239.91426 176.68479,231.99918 177.32194,222.17601 C 177.75005,215.57579 177.51199,214.3451 174.70377,208.64079 C 173.00476,205.18962 170.58278,201.43437 169.32159,200.29579 C 166.02256,197.31748 151.64575,187.53976 147.52852,185.47423 C 145.60352,184.5085 141.21129,181.85492 137.76802,179.57737 C 132.38819,176.0189 131.22765,174.69258 129.51802,170.14887 C 126.26769,161.51042 126.94483,155.54969 131.78,150.23726 C 134.5429,147.20163 133.59329,145.62552 126.99804,142.30043 L 121.31726,139.43638 L 117.80871,143.43638 C 112.35939,149.64899 110.52852,154.85224 110.52852,164.12632 C 110.52852,171.00569 110.96315,173.06112 113.57502,178.53382 C 117.13712,185.99752 123.89768,193.01664 132.17948,197.84982 C 144.72016,205.16845 154.8523,212.42008 156.64505,215.35997 C 157.67685,217.052 158.52273,220.14181 158.52478,222.22622 C 158.52871,226.21365 155.76146,232.66824 153.10161,234.87572 C 150.45209,237.07463 151.3286,239.66402 155.77852,242.78389 C 160.85413,246.34243 161.62665,246.45544 165.35931,244.18548 z M 147.53865,228.93638 C 147.84528,215.4173 147.78791,215.12187 144.52852,213.43638 L 141.52852,211.88502 L 141.52852,222.37174 C 141.52852,231.8805 141.73317,233.04913 143.723,234.90294 C 144.92997,236.0274 146.24908,236.60743 146.65436,236.1919 C 147.05964,235.77636 147.45757,232.51138 147.53865,228.93638 z M 153.90822,225.75668 C 154.1062,220.29247 152.06006,220.92761 151.71852,226.43638 C 151.47918,230.2968 151.67968,231.16751 152.59823,230.25668 C 153.25256,229.60784 153.84206,227.58284 153.90822,225.75668 z M 138.74645,219.75431 C 137.29619,218.30405 136.1618,222.40501 137.08559,225.75855 C 137.80974,228.38739 137.84101,228.36628 138.79447,224.60497 C 139.44149,222.05256 139.42546,220.43332 138.74645,219.75431 z M 170.49573,187.46045 C 178.84401,181.33225 182.81117,173.20121 182.94899,161.93638 C 183.00487,157.36941 182.44727,154.26441 181.07401,151.49552 C 179.19407,147.70501 170.67887,137.93638 169.25468,137.93638 C 168.87466,137.93638 165.67589,136.16881 162.14628,134.00846 C 158.54776,131.80592 150.52349,128.4277 143.87866,126.31779 C 130.49362,122.06768 121.62508,117.20246 117.17986,111.67103 C 114.76222,108.66262 114.06689,106.70258 113.72103,101.92104 C 113.26478,95.613398 114.03344,94.626848 116.91951,97.815918 C 120.93762,102.2559 130.98375,100.987 135.30474,95.493738 C 137.57831,92.603368 137.37039,90.503618 134.7012,89.398448 C 127.40167,86.376088 118.69969,87.346488 112.04513,91.924948 C 103.61869,97.722488 101.21617,107.47856 105.93923,116.71962 C 110.39221,125.43226 116.73282,130.15965 138.33637,140.87407 C 156.5219,149.89329 159.78858,152.00306 162.59236,156.53967 C 166.44505,162.77346 164.02343,172.43473 157.0081,178.81853 C 153.10075,182.37414 152.73366,183.93154 155.27852,186.15623 C 157.62283,188.2056 162.70218,190.84674 164.39454,190.89634 C 165.14586,190.91836 167.89139,189.37221 170.49573,187.46045 z M 121.25347,92.327998 C 120.01479,91.089318 121.62206,89.936378 124.58754,89.936378 C 126.20508,89.936378 127.52852,90.386378 127.52852,90.936378 C 127.52852,91.486378 126.89032,91.936378 126.11031,91.936378 C 125.33029,91.936378 124.06929,92.175368 123.30807,92.467478 C 122.54686,92.759578 121.62229,92.696818 121.25347,92.327998 z M 150.00024,168.76615 C 150.72157,155.72363 150.70585,155.57835 148.37858,153.78268 C 145.33042,151.43079 142.51443,150.51839 141.60207,151.58704 C 141.20325,152.05418 141.13605,158.41554 141.45273,165.7234 C 142.01063,178.59748 142.10622,179.05284 144.52852,180.37535 C 149.10922,182.87629 149.23459,182.61029 150.00024,168.76615 z M 157.99092,173.63411 C 160.60765,169.64047 160.79777,165.74418 158.55193,162.13688 C 157.42211,160.32216 156.05465,159.11122 155.51312,159.4459 C 154.2262,160.24126 154.21892,175.93638 155.50547,175.93638 C 156.04279,175.93638 157.16124,174.90036 157.99092,173.63411 z M 138.52852,165.43638 C 138.52852,157.76002 138.24733,155.93638 137.0637,155.93638 C 135.35606,155.93638 134.04225,158.14523 133.07821,162.63704 C 132.59677,164.88025 132.99327,167.19861 134.40367,170.38704 C 137.50109,177.38926 138.52852,176.15613 138.52852,165.43638 z M 172.84426,132.80419 C 182.348,127.87801 190.4777,116.23877 191.2615,106.43638 C 191.70753,100.85829 191.51804,100.15512 188.56664,96.436378 C 183.66861,90.264908 178.42513,87.586298 171.14755,87.537918 C 164.51576,87.493838 159.24875,89.435068 158.73293,92.113498 C 158.5569,93.027538 159.722,95.240558 161.32205,97.031328 C 163.85782,99.869338 164.99447,100.34247 170.17769,100.71739 C 175.46314,101.09971 176.46836,100.85789 179.22069,98.541948 C 180.92379,97.108878 182.59509,95.936378 182.93469,95.936378 C 183.78093,95.936378 182.48953,103.9695 181.24672,106.43638 C 177.65024,113.57513 168.47249,121.19268 160.22362,123.88558 C 155.11783,125.55241 155.72573,127.43682 162.52852,131.03048 C 168.64224,134.26013 169.6884,134.44 172.84426,132.80419 z M 170.27852,92.247048 C 167.45798,91.509968 168.26905,89.936378 171.4695,89.936378 C 174.79629,89.936378 176.32415,91.417088 173.94099,92.331588 C 173.07416,92.664228 172.28925,92.884178 172.19673,92.820378 C 172.10422,92.756578 171.24102,92.498578 170.27852,92.247048 z M 151.67092,123.68638 C 152.08618,120.04132 152.4583,113.07559 153.50057,89.436378 C 154.13107,75.136378 154.8211,62.900108 155.03398,62.244658 C 155.24685,61.589208 155.50079,55.739208 155.59828,49.244658 L 155.77555,37.436378 L 148.92473,36.747008 C 145.15679,36.367858 141.93485,36.196718 141.76487,36.366688 C 141.5949,36.536668 141.24609,55.607148 140.98975,78.745548 C 140.62399,111.76027 140.79324,120.9898 141.7761,121.62586 C 143.41492,122.68644 148.68685,124.66515 150.27852,124.81707 C 150.96602,124.88269 151.5926,124.37388 151.67092,123.68638 z M 162.83338,120.00986 C 167.39653,117.91433 174.52852,111.84148 174.52852,110.05151 C 174.52852,109.43819 173.85352,108.93638 173.02852,108.93638 C 172.20352,108.93638 171.64102,108.42142 171.77852,107.79203 C 171.91602,107.16264 170.46991,106.22487 168.56494,105.70809 C 166.65996,105.19132 163.50996,103.36843 161.56494,101.65721 L 158.02852,98.545898 L 157.72779,104.85708 C 157.56239,108.32823 157.6505,111.3917 157.9236,111.66479 C 158.19669,111.93788 160.46951,111.46302 162.97432,110.60955 C 169.17283,108.4975 168.73341,110.03419 162.28685,113.01373 C 157.18735,115.37067 155.72656,117.40411 156.91256,120.49479 C 157.61798,122.33309 157.80834,122.3175 162.83338,120.00986 z M 138.28506,117.7536 C 137.58536,115.94298 125.52982,108.93638 123.11418,108.93638 C 121.37903,108.93638 121.49012,109.28686 124.08313,111.99338 C 130.1958,118.37364 140.07277,122.37967 138.28506,117.7536 z M 137.72942,111.18638 C 138.477,108.17304 138.70812,98.936378 138.03594,98.936378 C 137.68346,98.936378 135.9626,100.02048 134.2118,101.34547 C 132.461,102.67046 129.48849,104.37666 127.60622,105.13702 L 124.18393,106.51951 L 130.10622,109.57963 C 137.4132,113.35524 137.20237,113.31081 137.72942,111.18638 z M 198.16341,90.456938 C 200.52405,87.993248 203.20271,84.837068 204.116,83.443208 C 205.75198,80.946398 205.70475,80.831508 200.92185,75.672648 C 198.25178,72.792698 195.72037,70.286178 195.29649,70.102588 C 194.87261,69.919008 192.49033,71.560488 190.00254,73.750328 C 183.27008,79.676478 179.13863,81.340378 171.02852,81.391898 C 167.17852,81.416368 162.90352,81.211378 161.52852,80.936378 C 159.24281,80.479238 159.02852,80.736378 159.02852,83.936378 C 159.02852,87.792958 158.89975,87.761498 166.92839,85.866808 C 173.27588,84.368858 181.89171,86.776558 187.30399,91.560788 C 189.35248,93.371578 191.66816,94.871858 192.44994,94.894748 C 193.23172,94.917648 195.80278,92.920628 198.16341,90.456938 z M 109.43756,90.545978 C 110.07222,89.781258 112.92772,88.150558 115.7831,86.922208 C 120.04331,85.089508 122.09983,84.793898 127.24609,85.274468 C 130.69535,85.596558 134.36079,86.311428 135.39151,86.863048 C 137.73356,88.116478 138.52852,87.358698 138.52852,83.872768 L 138.52852,81.142498 L 130.27852,81.169358 C 123.95868,81.189928 120.95049,80.701668 117.42073,79.082408 C 113.1389,77.118128 106.49542,70.864868 103.92497,66.379348 C 102.90217,64.594538 102.48138,64.818728 98.17497,69.442848 C 95.61942,72.186928 93.52852,75.013478 93.52852,75.724068 C 93.52852,78.499048 97.66103,84.893958 101.67403,88.328928 C 106.26683,92.260198 107.67997,92.663748 109.43756,90.545978 z M 220.94673,79.329388 C 223.34509,78.409058 222.87334,77.312608 219.06684,74.960058 C 217.16291,73.783368 213.52836,69.696668 210.99004,65.878498 C 206.86891,59.679428 206.02993,58.936378 203.15172,58.936378 C 196.1361,58.936378 195.79232,63.165918 202.24704,70.066538 C 207.15455,75.313068 210.92834,77.759678 216.02852,79.001308 C 217.67852,79.402998 219.10422,79.777718 219.19673,79.834018 C 219.28925,79.890318 220.07675,79.663228 220.94673,79.329388 z M 135.15903,75.384568 C 137.87471,74.841158 138.49797,72.392788 138.51487,62.201708 L 138.52852,53.967038 L 132.53837,54.593138 L 126.54822,55.219228 L 122.03837,50.709388 C 116.43455,45.105568 116.17071,42.218658 120.90051,38.259178 C 125.45191,34.449058 127.52852,30.017458 127.52852,24.114648 C 127.52852,19.834658 127.04001,18.651428 123.77852,15.031718 C 118.81151,9.519158 112.3027,7.125628 102.92717,7.363908 C 96.79845,7.519668 94.67552,8.116538 87.42718,11.721788 C 82.80791,14.019368 76.49552,17.595068 73.39963,19.667788 C 70.30374,21.740518 64.00374,25.957038 59.39963,29.037848 C 41.15753,41.244418 31.69701,46.526118 14.04048,54.361328 L 10.05244,56.131048 L 12.8863,57.615858 C 18.07036,60.332058 25.81555,60.462158 32.76588,57.949778 C 44.50394,53.706758 75.90107,33.967098 78.84547,28.979118 C 81.25668,24.894408 82.52852,25.949748 82.52852,32.035228 C 82.52852,43.686748 93.1507,53.909988 105.27852,53.930798 C 107.06602,53.933868 108.52852,54.386378 108.52852,54.936378 C 108.52852,55.486378 108.01927,55.936378 107.39685,55.936378 C 105.58392,55.936378 107.04183,63.444138 109.53455,66.944848 C 112.41481,70.989798 118.64025,74.866658 123.8645,75.868748 C 127.71714,76.607738 129.40861,76.535228 135.15903,75.384568 z M 244.52852,75.959428 C 244.52852,75.422108 243.29102,74.230348 241.77852,73.311068 C 234.63877,68.971628 229.6874,65.290748 225.93702,61.534398 C 217.73315,53.317478 218.07756,53.498978 214.59434,55.556568 C 212.90814,56.552628 211.52852,58.102068 211.52852,58.999768 C 211.52852,61.569408 222.9263,71.776668 228.75079,74.423128 C 234.13778,76.870808 244.52852,77.882578 244.52852,75.959428 z M 86.59362,72.888348 C 88.55442,71.896168 92.29158,69.175438 94.8984,66.842278 C 102.61996,59.931328 102.91816,57.662908 96.26906,56.415528 C 92.62171,55.731278 92.32112,55.909988 85.77136,62.656628 C 82.0628,66.476658 77.79102,70.404098 76.27852,71.384268 C 73.10157,73.443078 72.80372,74.596418 75.27852,75.256478 C 77.82406,75.935408 82.50997,74.954698 86.59362,72.888348 z M 177.02718,74.832398 C 182.88489,73.357408 188.95572,68.003088 191.08149,62.436858 C 192.46569,58.812388 192.55267,57.670408 191.53771,56.447448 C 190.84796,55.616358 190.45123,54.921018 190.65608,54.902258 C 190.86092,54.883488 194.47291,54.770988 198.68271,54.652258 C 205.49703,54.460068 206.81375,54.091658 210.68271,51.294788 C 217.41088,46.430988 221.00343,38.015658 219.37381,30.936378 C 218.58731,27.519688 221.88709,29.763408 223.39471,33.670428 C 225.05113,37.963078 232.92616,44.950698 249.31023,56.665638 C 262.60296,66.170208 278.80026,70.100068 285.77852,65.513738 C 289.54277,63.039758 289.22849,61.462668 284.70091,60.106168 C 274.96778,57.190058 256.3007,45.805228 235.72147,30.234188 C 209.23101,10.190498 200.00588,6.436948 184.79686,9.513798 C 181.59724,10.161098 175.46223,15.850788 173.87956,19.638638 C 170.97945,26.579588 172.86206,34.709568 178.78189,40.809158 L 182.51701,44.657688 L 180.27276,47.955088 C 175.69158,54.686068 169.89394,56.807288 162.27852,54.538748 L 159.52852,53.719558 L 159.52852,63.799378 L 159.52852,73.879198 L 162.77852,74.817598 C 167.29766,76.122448 171.88499,76.127218 177.02718,74.832398 z M 260.94673,73.329388 C 262.64256,72.678638 263.15598,69.936378 261.58198,69.936378 C 259.64659,69.936378 239.75433,55.915618 232.64379,49.539738 C 225.02572,42.708758 223.17011,41.822028 222.13551,44.518168 C 220.59354,48.536458 221.63042,51.168468 226.77852,56.303958 C 238.78632,68.282348 254.1497,75.937658 260.94673,73.329388 z M 69.54346,69.464268 C 72.02667,68.198538 77.54885,64.555878 81.81495,61.369448 L 89.5715,55.575938 L 86.35384,52.256158 C 84.58413,50.430278 82.77923,48.936378 82.34294,48.936378 C 81.90665,48.936378 79.18134,51.073878 76.28668,53.686378 C 69.57362,59.745078 62.18967,65.098958 56.77852,67.831128 C 51.6887,70.401068 51.40038,71.666798 55.77852,72.221218 C 60.57133,72.828148 64.47959,72.045368 69.54346,69.464268 z M 53.02852,64.069208 C 58.40537,61.501228 80.52852,47.472828 80.52852,46.631318 C 80.52852,45.139158 77.17205,36.936378 76.56148,36.936378 C 76.133,36.936378 69.9878,41.278968 62.90548,46.586588 C 51.71187,54.975258 37.92635,62.936378 34.59406,62.936378 C 32.22162,62.936378 33.74116,64.940588 36.77852,65.817598 C 42.5297,67.478188 46.86812,67.011408 53.02852,64.069208 z M 158.64297,28.968348 C 165.78471,20.413688 160.42803,8.936378 149.29366,8.936378 C 144.98036,8.936378 143.88215,9.382738 140.92852,12.336378 C 138.01527,15.249628 137.52852,16.417088 137.52852,20.491218 C 137.52852,24.768098 137.94665,25.643808 141.68824,29.203098 C 145.63674,32.959218 146.10454,33.135488 150.90108,32.674598 C 155.06222,32.274768 156.42883,31.620538 158.64297,28.968348 z M 149.12309,28.089398 C 148.78011,27.534438 149.43163,26.784518 150.57093,26.422918 C 153.64021,25.448768 156.29187,19.388348 154.73769,16.899708 C 152.24727,12.911918 154.691,11.248458 157.87353,14.765118 C 160.2305,17.369538 159.95018,22.352948 157.27852,25.342968 C 154.81325,28.101998 150.10981,29.685938 149.12309,28.089398 z "
       style="fill:#000000"
       id="path16479" />
  </g>
</svg>
