<?xml version="1.0" encoding="UTF-8" standalone="no"?>
<!-- Created with Inkscape (http://www.inkscape.org/) -->
<svg
   xmlns:dc="http://purl.org/dc/elements/1.1/"
   xmlns:cc="http://creativecommons.org/ns#"
   xmlns:rdf="http://www.w3.org/1999/02/22-rdf-syntax-ns#"
   xmlns:svg="http://www.w3.org/2000/svg"
   xmlns="http://www.w3.org/2000/svg"
   xmlns:sodipodi="http://sodipodi.sourceforge.net/DTD/sodipodi-0.dtd"
   xmlns:inkscape="http://www.inkscape.org/namespaces/inkscape"
   width="244.21167"
   height="205.29706"
   id="svg2"
   sodipodi:version="0.32"
   inkscape:version="0.46"
   sodipodi:docname="electrocution.svg"
   inkscape:output_extension="org.inkscape.output.svg.inkscape"
   version="1.0">
  <defs
     id="defs4">
    <inkscape:perspective
       sodipodi:type="inkscape:persp3d"
       inkscape:vp_x="0 : 526.18109 : 1"
       inkscape:vp_y="0 : 1000 : 0"
       inkscape:vp_z="744.09448 : 526.18109 : 1"
       inkscape:persp3d-origin="372.04724 : 350.78739 : 1"
       id="perspective10" />
    <clipPath
       id="clipPath2470"
       clipPathUnits="userSpaceOnUse">
      <path
         id="path2472"
         d="M 1995.6,5139.6 L 3979.6,5139.6 L 3979.6,6825.73 L 1995.6,6825.73 L 1995.6,5139.6 z" />
    </clipPath>
    <inkscape:perspective
       id="perspective2450"
       inkscape:persp3d-origin="372.04724 : 350.78739 : 1"
       inkscape:vp_z="744.09448 : 526.18109 : 1"
       inkscape:vp_y="0 : 1000 : 0"
       inkscape:vp_x="0 : 526.18109 : 1"
       sodipodi:type="inkscape:persp3d" />
    <clipPath
       id="clipPath2736"
       clipPathUnits="userSpaceOnUse">
      <path
         id="path2738"
         d="M 1924.8,3976.8 L 4333.8,3976.8 L 4333.8,6825.28 L 1924.8,6825.28 L 1924.8,3976.8 z" />
    </clipPath>
    <inkscape:perspective
       id="perspective2708"
       inkscape:persp3d-origin="372.04724 : 350.78739 : 1"
       inkscape:vp_z="744.09448 : 526.18109 : 1"
       inkscape:vp_y="0 : 1000 : 0"
       inkscape:vp_x="0 : 526.18109 : 1"
       sodipodi:type="inkscape:persp3d" />
    <clipPath
       id="clipPath3041"
       clipPathUnits="userSpaceOnUse">
      <path
         id="path3043"
         d="M 2052,2365.2 L 4206,2365.2 L 4206,4444.75 L 2052,4444.75 L 2052,2365.2 z" />
    </clipPath>
    <inkscape:perspective
       id="perspective2989"
       inkscape:persp3d-origin="372.04724 : 350.78739 : 1"
       inkscape:vp_z="744.09448 : 526.18109 : 1"
       inkscape:vp_y="0 : 1000 : 0"
       inkscape:vp_x="0 : 526.18109 : 1"
       sodipodi:type="inkscape:persp3d" />
    <clipPath
       id="clipPath3282"
       clipPathUnits="userSpaceOnUse">
      <path
         id="path3284"
         d="M 1712.4,873.602 L 4546.4,873.602 L 4546.4,3692.06 L 1712.4,3692.06 L 1712.4,873.602 z" />
    </clipPath>
    <inkscape:perspective
       id="perspective3240"
       inkscape:persp3d-origin="372.04724 : 350.78739 : 1"
       inkscape:vp_z="744.09448 : 526.18109 : 1"
       inkscape:vp_y="0 : 1000 : 0"
       inkscape:vp_x="0 : 526.18109 : 1"
       sodipodi:type="inkscape:persp3d" />
    <clipPath
       id="clipPath3498"
       clipPathUnits="userSpaceOnUse">
      <path
         id="path3500"
         d="M 1570.8,1348.8 L 4404.8,1348.8 L 4404.8,3444.15 L 1570.8,3444.15 L 1570.8,1348.8 z" />
    </clipPath>
    <inkscape:perspective
       id="perspective3426"
       inkscape:persp3d-origin="372.04724 : 350.78739 : 1"
       inkscape:vp_z="744.09448 : 526.18109 : 1"
       inkscape:vp_y="0 : 1000 : 0"
       inkscape:vp_x="0 : 526.18109 : 1"
       sodipodi:type="inkscape:persp3d" />
    <clipPath
       id="clipPath3643"
       clipPathUnits="userSpaceOnUse">
      <path
         id="path3645"
         d="M 1570.8,1944 L 4404.8,1944 L 4404.8,5701.34 L 1570.8,5701.34 L 1570.8,1944 z" />
    </clipPath>
    <inkscape:perspective
       id="perspective3605"
       inkscape:persp3d-origin="372.04724 : 350.78739 : 1"
       inkscape:vp_z="744.09448 : 526.18109 : 1"
       inkscape:vp_y="0 : 1000 : 0"
       inkscape:vp_x="0 : 526.18109 : 1"
       sodipodi:type="inkscape:persp3d" />
    <clipPath
       id="clipPath3780"
       clipPathUnits="userSpaceOnUse">
      <path
         id="path3782"
         d="M 1712.4,2679.6 L 4546.4,2679.6 L 4546.4,5249.26 L 1712.4,5249.26 L 1712.4,2679.6 z" />
    </clipPath>
    <inkscape:perspective
       id="perspective3742"
       inkscape:persp3d-origin="372.04724 : 350.78739 : 1"
       inkscape:vp_z="744.09448 : 526.18109 : 1"
       inkscape:vp_y="0 : 1000 : 0"
       inkscape:vp_x="0 : 526.18109 : 1"
       sodipodi:type="inkscape:persp3d" />
  </defs>
  <sodipodi:namedview
     id="base"
     pagecolor="#ffffff"
     bordercolor="#666666"
     borderopacity="1.0"
     inkscape:pageopacity="0.0"
     inkscape:pageshadow="2"
     inkscape:zoom="1.4"
     inkscape:cx="69.534112"
     inkscape:cy="123.0456"
     inkscape:document-units="px"
     inkscape:current-layer="layer1"
     showgrid="false"
     inkscape:window-width="1127"
     inkscape:window-height="743"
     inkscape:window-x="22"
     inkscape:window-y="0" />
  <metadata
     id="metadata7">
    <rdf:RDF>
      <cc:Work
         rdf:about="">
        <dc:format>image/svg+xml</dc:format>
        <dc:type
           rdf:resource="http://purl.org/dc/dcmitype/StillImage" />
      </cc:Work>
    </rdf:RDF>
  </metadata>
  <g
     inkscape:label="Calque 1"
     inkscape:groupmode="layer"
     id="layer1"
     transform="translate(-45.690548,-15.391113)">
    <path
       style="opacity:1;fill:#803300;fill-opacity:1;fill-rule:nonzero;stroke:none;stroke-width:4.34112597;stroke-linecap:square;stroke-linejoin:miter;marker:none;marker-start:none;marker-mid:none;marker-end:none;stroke-miterlimit:4;stroke-dasharray:8.68225201, 4.34112601, 2.170563, 4.34112601;stroke-dashoffset:0;stroke-opacity:1;visibility:visible;display:inline;overflow:visible;enable-background:accumulate"
       d="M 120.0625 39.15625 C 118.53505 39.070386 118.19553 40.888379 117.24631 41.703325 C 116.14922 42.361277 114.81409 42.968673 113.53125 42.90625 C 112.91673 42.240623 111.72788 42.46542 111.53125 43.375 C 111.41949 44.74783 109.76213 45.136009 108.99434 46.096057 C 108.13803 46.99577 106.50483 48.257778 105.44311 46.943114 C 104.72565 46.250342 104.15827 45.071001 103 45.15625 C 101.59168 45.317616 101.08492 46.802635 100.55118 47.897639 C 100.03368 49.289097 98.344554 50.261047 96.9375 49.5625 C 95.850848 48.952589 94.270016 48.641875 93.443114 49.838136 C 91.975442 51.469667 91.837747 54.086811 89.84375 55.28125 C 88.212631 56.205667 86.295993 55.6464 84.53125 55.8125 C 83.211493 55.979636 82.647917 57.763934 83.40625 58.78125 C 84.267301 59.762854 85.013894 60.951673 84.96875 62.319726 C 84.859977 63.413768 84.35869 64.562511 84.96875 65.625 C 85.475794 66.928046 86.993775 66.738113 88.036924 67.261452 C 89.028069 67.575232 90.591048 68.705708 91.25 67.34375 C 91.89652 66.200056 91.269819 64.482681 92.459313 63.631741 C 93.511682 62.856362 94.884766 63.202638 96.03125 63.53125 C 98.113623 63.786812 99.743864 62.183511 101.40605 61.208099 C 103.33585 59.985353 105.49446 58.879576 107.84375 58.96875 C 109.38079 58.550978 110.5998 59.888994 112 59.8125 C 113.22535 59.205384 114.48503 57.563835 115.84375 58.96875 C 116.92642 60.020837 118.38629 60.21331 119.75 60.6875 C 121.07194 61.313274 122.40904 62.089241 123.94473 61.875 C 125.42881 61.712336 127.00448 62.667593 127.30907 64.178348 C 127.96177 65.854533 128.55155 67.575884 128.71875 69.375 C 129.1959 70.881002 130.93364 71.260263 132.21875 71.8125 C 133.28312 72.222802 134.94674 71.869605 135.0558 70.53015 C 135.16019 68.82457 134.17043 67.309815 133.91724 65.654592 C 133.49237 63.89399 133.58379 61.919521 134.65887 60.401666 C 135.28277 59.29419 136.49201 58.136431 135.94564 56.757439 C 135.3861 55.221148 134.03799 54.065518 132.59375 53.375 C 131.07101 52.961477 129.51576 54.192177 128.0477 53.392207 C 126.68645 52.757766 126.59772 51.080505 126.19244 49.812254 C 125.85922 48.387502 125.71743 46.914326 125.21875 45.53125 C 124.91742 44.117463 125.94041 42.641672 125.25 41.28125 C 124.20069 40.395825 122.24341 41.549844 121.69311 39.880614 C 121.27812 39.46273 120.69246 39.004092 120.0625 39.15625 z "
       id="path3189"
       transform="translate(45.690548,15.391113)" />
    <path
       style="opacity:1;fill:#803300;fill-opacity:1;fill-rule:nonzero;stroke:none;stroke-width:4.34112597;stroke-linecap:square;stroke-linejoin:miter;marker:none;marker-start:none;marker-mid:none;marker-end:none;stroke-miterlimit:4;stroke-dasharray:8.68225201, 4.34112601, 2.170563, 4.34112601;stroke-dashoffset:0;stroke-opacity:1;visibility:visible;display:inline;overflow:visible;enable-background:accumulate"
       d="M 94.71875 60.25 C 94.833624 60.364096 94.833624 60.135904 94.71875 60.25 z M 91.1875 63.3125 C 90.087976 64.592034 89.188853 66.02036 88.28125 67.4375 C 87.19606 66.415193 88.323441 64.710608 87.4375 63.59375 C 85.76677 63.299155 84.86679 65.138433 84.729165 66.532334 C 84.17815 68.83761 83.685496 71.163925 82.90625 73.40625 C 81.921894 74.422499 80.555841 75.748808 81.374886 77.280796 C 81.511209 78.556022 81.917647 79.755973 82.625 80.8125 C 82.890939 82.087298 84.363962 81.157706 84.646285 82.38632 C 85.154141 83.407558 86.620141 82.707867 87.53125 83.09375 C 89.082799 82.534589 88.613504 80.556631 88.158394 79.374955 C 87.298661 76.050209 87.736867 72.542986 88.65625 69.28125 C 89.288362 67.224167 90.202061 65.265152 91.28125 63.40625 C 91.390014 63.257698 91.231885 63.260157 91.1875 63.3125 z "
       id="path3191"
       transform="translate(45.690548,15.391113)" />
    <path
       style="opacity:1;fill:#0000ff;fill-opacity:1;fill-rule:nonzero;stroke:none;stroke-width:4.34112597;stroke-linecap:square;stroke-linejoin:miter;marker:none;marker-start:none;marker-mid:none;marker-end:none;stroke-miterlimit:4;stroke-dasharray:8.68225201, 4.34112601, 2.170563, 4.34112601;stroke-dashoffset:0;stroke-opacity:1;visibility:visible;display:inline;overflow:visible;enable-background:accumulate"
       d="M 205.34596,34.761659 C 200.95648,37.234407 198.00626,41.73448 194.18822,45.006803 C 187.8469,50.946682 181.81146,57.404638 174.61523,62.162047 C 171.37642,62.740965 167.83855,61.556279 164.70311,62.13048 C 162.53382,65.031279 162.61571,68.717962 164.08755,71.900549 C 165.62184,76.517658 165.96343,81.634652 167.52838,86.200521 C 171.9746,87.493152 176.91055,86.390889 181.52781,86.616648 C 191.97522,86.230063 202.51208,86.300844 212.89054,85.190368 C 214.85466,83.169624 213.37799,79.764263 214.21637,77.266984 C 214.71207,75.363281 215.58717,71.543753 212.46438,71.632227 C 201.85177,73.24192 190.767,72.024126 180.26577,74.220743 C 177.98724,74.924339 176.07837,76.406824 173.7787,76.746124 C 173.16154,77.844564 175.69467,79.567233 174.66258,80.155389 C 174.004,79.109467 171.32822,77.070353 173.52616,76.414668 C 179.11512,73.168119 183.30301,67.977616 188.18023,63.708197 C 196.00233,56.061857 204.08013,48.595658 211.4858,40.58582 C 212.07283,39.046428 210.23804,38.319967 209.35501,37.855251 C 209.11015,36.180873 206.92527,34.838193 205.34596,34.761659 z"
       id="path3197"
       transform="translate(45.690548,15.391113)" />
    <path
       style="opacity:1;fill:#ff0000;fill-opacity:1;fill-rule:nonzero;stroke:none;stroke-width:4.34112597;stroke-linecap:square;stroke-linejoin:miter;marker:none;marker-start:none;marker-mid:none;marker-end:none;stroke-miterlimit:4;stroke-dasharray:8.68225201, 4.34112601, 2.170563, 4.34112601;stroke-dashoffset:0;stroke-opacity:1;visibility:visible;display:inline;overflow:visible;enable-background:accumulate"
       d="M 140.80669,64.040299 C 136.90799,64.042108 136.62193,68.434549 135.60904,71.195432 C 134.6991,74.668337 133.18391,77.959509 131.58905,81.102407 C 133.78896,81.850521 137.78736,81.772896 138.04455,85.000965 C 138.97274,87.900365 136.44052,92.029737 133.13584,90.904044 C 131.71407,90.409569 129.65683,90.673911 129.91598,92.592892 C 128.99416,95.246376 126.32795,96.970101 123.57096,96.901824 C 124.15765,98.796381 125.23514,103.15906 128.0666,101.00177 C 130.23824,99.861657 133.98967,99.37038 134.60372,96.617719 C 143.10022,95.935588 151.31791,93.285731 159.87181,93.516318 C 162.14982,92.956118 166.03435,94.041178 167.26006,92.245652 C 164.79393,90.084694 167.39679,87.065626 166.43931,84.432754 C 165.34338,77.64366 163.38817,70.855435 162.00411,64.229703 C 160.50919,63.173018 159.60171,65.852947 158.01085,65.744932 C 154.42339,66.900157 151.37742,69.189527 147.65678,70.022296 C 146.02291,70.618458 144.04129,71.716342 142.92169,72.658163 C 142.5478,69.763021 143.47132,66.698086 143.15845,63.835112 C 142.40245,63.569245 141.58146,64.013333 140.80669,64.040299 z"
       id="path3199"
       transform="translate(45.690548,15.391113)" />
    <path
       style="opacity:1;fill:#ff0000;fill-opacity:1;fill-rule:nonzero;stroke:none;stroke-width:4.34112597;stroke-linecap:square;stroke-linejoin:miter;marker:none;marker-start:none;marker-mid:none;marker-end:none;stroke-miterlimit:4;stroke-dasharray:8.68225201, 4.34112601, 2.170563, 4.34112601;stroke-dashoffset:0;stroke-opacity:1;visibility:visible;display:inline;overflow:visible;enable-background:accumulate"
       d="M 167.702,87.463211 C 167.8027,89.059697 166.71483,90.929747 167.33898,92.435056 C 170.35076,93.673286 169.37553,87.357004 167.702,87.463211 z"
       id="path3201"
       transform="translate(45.690548,15.391113)" />
    <path
       style="opacity:1;fill:#e9c6af;fill-opacity:1;fill-rule:nonzero;stroke:none;stroke-width:4.34112597;stroke-linecap:square;stroke-linejoin:miter;marker:none;marker-start:none;marker-mid:none;marker-end:none;stroke-miterlimit:4;stroke-dasharray:8.68225201, 4.34112601, 2.170563, 4.34112601;stroke-dashoffset:0;stroke-opacity:1;visibility:visible;display:inline;overflow:visible;enable-background:accumulate"
       d="M 121.58222,98.464404 C 113.92969,100.45455 106.94883,104.45933 99.252623,106.46547 C 88.619444,108.83017 79.334657,117.03321 68.075704,116.17364 C 65.048024,115.92074 63.928725,112.03797 61.083554,111.73844 C 58.962906,113.43549 62.134507,115.79117 63.277479,117.02596 C 65.07342,118.99809 68.059587,121.02426 69.96974,121.88732 C 67.401503,122.65337 65.137014,120.00884 62.693485,121.68213 C 60.011298,123.04302 56.707599,124.26321 55.038423,126.85916 C 55.501946,128.99426 57.983578,127.34384 58.968548,126.48035 C 62.406546,124.92258 66.632019,121.84174 70.206495,124.77572 C 71.398217,126.3279 74.073591,127.38933 75.22569,125.17031 C 77.122135,123.15679 75.910649,118.8909 79.471487,118.63589 C 89.898651,115.19938 100.43307,111.93488 110.10989,106.68452 C 114.5369,104.33944 119.49277,103.54585 124.04447,101.62113 C 125.01831,100.07975 123.33435,98.024169 121.58222,98.464404 z"
       id="path3203"
       transform="translate(45.690548,15.391113)" />
    <path
       style="opacity:1;fill:#e9c6af;fill-opacity:1;fill-rule:nonzero;stroke:none;stroke-width:4.34112597;stroke-linecap:square;stroke-linejoin:miter;marker:none;marker-start:none;marker-mid:none;marker-end:none;stroke-miterlimit:4;stroke-dasharray:8.68225201, 4.34112601, 2.170563, 4.34112601;stroke-dashoffset:0;stroke-opacity:1;visibility:visible;display:inline;overflow:visible;enable-background:accumulate"
       d="M 109.72871,59.841853 C 108.65529,59.558056 108.0861,60.540914 107.39274,60.820438 C 106.24844,60.553111 104.94749,59.204931 103.96769,60.773087 C 102.02455,63.811106 98.333132,64.012126 95.097285,63.961381 C 91.86908,65.2493 90.928885,69.435761 89.146855,72.011034 C 89.307767,70.966794 88.841758,68.309527 87.868381,69.943378 C 86.36543,74.11999 87.982215,78.469818 87.931515,82.63342 C 86.945399,82.984352 86.063278,84.829607 87.742111,84.527456 C 91.071428,84.521233 88.814308,80.174026 91.009324,78.845348 C 93.984996,77.238402 90.795005,76.930265 89.415177,76.872393 C 91.271968,76.272282 93.926356,76.671696 95.318256,77.314335 C 93.273146,78.547388 89.640471,79.798947 90.630516,82.949092 C 91.324198,90.016372 94.952494,97.560853 102.2157,99.742878 C 109.38414,102.53849 116.69416,97.75308 122.16073,93.506287 C 125.19973,91.191846 129.10788,88.40625 132.96222,90.430535 C 136.79803,91.207897 139.99876,85.214572 136.261,82.949092 C 135.44201,81.755521 132.77416,82.0788 133.98816,83.801409 C 135.2912,84.832724 135.68099,88.295618 133.86189,88.378662 C 134.76366,86.886081 134.91745,84.415546 132.67812,83.911894 C 131.51388,83.311767 128.70452,82.893842 128.70064,84.827345 C 127.03425,83.108095 129.32886,80.497442 129.74236,78.624377 C 130.0989,76.56507 133.53248,77.546796 133.00957,75.057276 C 133.30196,73.283215 132.05678,71.669406 130.20009,72.011034 C 126.88131,71.799715 127.65025,67.36411 125.33873,65.729148 C 124.69208,64.468301 123.22749,64.253543 122.19778,64.071867 C 121.6867,62.337677 120.03537,61.648743 118.37814,61.720105 C 115.75187,60.207669 112.77742,59.732347 109.72871,59.841853 z M 119.68819,65.965903 C 121.32603,66.841816 122.80687,69.938797 121.23498,71.363905 C 119.76784,70.706589 119.78178,68.079849 119.30938,66.644599 C 119.24752,66.371348 119.35234,65.880105 119.68819,65.965903 z M 110.75465,67.686319 C 110.55265,69.010159 107.11043,68.865662 107.44009,70.495805 C 107.84136,71.335591 109.93227,70.328337 108.40289,71.411256 C 107.34481,71.960072 105.09583,72.750936 104.45698,72.200438 C 106.18081,70.344035 108.38012,68.587526 110.75465,67.686319 z M 117.14702,69.848676 C 117.15172,70.478562 116.75887,70.307291 117.14702,69.848676 z M 97.780502,71.648011 C 100.01207,72.074694 95.551788,72.177831 96.296841,73.747234 C 96.287371,74.740184 99.619611,75.244139 97.733151,75.530785 C 95.785835,75.495217 94.893436,72.848961 96.865052,71.995251 C 97.134045,71.785891 97.455481,71.707483 97.780502,71.648011 z M 120.69834,75.199328 C 123.55608,83.937325 118.46312,94.220465 110.34427,97.990895 C 104.36441,99.989159 98.218348,96.231078 95.365606,90.935611 C 94.057201,88.781834 91.914026,85.734123 94.355454,83.54887 C 99.832521,77.426204 107.63844,72.905176 116.119,73.098413 C 118.41217,73.069386 120.69625,71.922403 120.69834,75.199328 z"
       id="path3205"
       transform="translate(45.690548,15.391113)" />
    <path
       style="opacity:1;fill:#e9c6af;fill-opacity:1;fill-rule:nonzero;stroke:none;stroke-width:4.34112597;stroke-linecap:square;stroke-linejoin:miter;marker:none;marker-start:none;marker-mid:none;marker-end:none;stroke-miterlimit:4;stroke-dasharray:8.68225201, 4.34112601, 2.170563, 4.34112601;stroke-dashoffset:0;stroke-opacity:1;visibility:visible;display:inline;overflow:visible;enable-background:accumulate"
       d="M 164.46635,24.139274 C 161.28126,24.566523 158.29079,26.345467 157.41167,29.554196 C 157.23977,29.160671 158.39461,26.063251 156.322,26.522602 C 153.59393,27.007637 149.20915,26.11394 147.94089,29.284738 C 147.88823,34.335728 150.59286,39.750479 148.06768,44.589782 C 145.98384,50.372274 142.48794,55.800248 141.23285,61.78324 C 141.34254,63.649047 143.53151,62.57229 143.58461,61.215029 C 147.17293,53.769366 148.72424,45.17364 153.10214,38.249842 C 155.63805,36.672772 159.19749,35.963811 160.69407,32.930758 C 162.03954,30.113604 164.37354,28.037028 166.2499,25.622935 C 166.44399,24.618202 165.31974,23.996206 164.46635,24.139274 z"
       id="path3207"
       transform="translate(45.690548,15.391113)" />
    <path
       style="opacity:1;fill:#e9c6af;fill-opacity:1;fill-rule:nonzero;stroke:none;stroke-width:4.34112597;stroke-linecap:square;stroke-linejoin:miter;marker:none;marker-start:none;marker-mid:none;marker-end:none;stroke-miterlimit:4;stroke-dasharray:8.68225201, 4.34112601, 2.170563, 4.34112601;stroke-dashoffset:0;stroke-opacity:1;visibility:visible;display:inline;overflow:visible;enable-background:accumulate"
       d="M 160.15742,13.374836 C 156.09709,13.42749 156.41338,18.675525 155.97476,21.519191 C 155.73966,22.967568 155.4698,26.654867 157.91615,25.85969 C 160.45632,22.575426 160.87252,18.048024 162.25665,14.227152 C 162.05639,13.300716 160.87701,13.366462 160.15742,13.374836 z"
       id="path3209"
       transform="translate(45.690548,15.391113)" />
    <path
       style="opacity:1;fill:#e9c6af;fill-opacity:1;fill-rule:nonzero;stroke:none;stroke-width:4.34112597;stroke-linecap:square;stroke-linejoin:miter;marker:none;marker-start:none;marker-mid:none;marker-end:none;stroke-miterlimit:4;stroke-dasharray:8.68225201, 4.34112601, 2.170563, 4.34112601;stroke-dashoffset:0;stroke-opacity:1;visibility:visible;display:inline;overflow:visible;enable-background:accumulate"
       d="M 154.15964,16.168539 C 152.56026,17.882465 153.46534,20.877961 153.5283,23.065987 C 153.16844,24.383109 154.96349,26.043128 155.46968,24.218192 C 155.877,21.668875 156.24265,18.348408 154.61737,16.21589 C 154.48008,16.141022 154.30971,16.107192 154.15964,16.168539 z"
       id="path3211"
       transform="translate(45.690548,15.391113)" />
    <path
       style="opacity:1;fill:#e9c6af;fill-opacity:1;fill-rule:nonzero;stroke:none;stroke-width:4.34112597;stroke-linecap:square;stroke-linejoin:miter;marker:none;marker-start:none;marker-mid:none;marker-end:none;stroke-miterlimit:4;stroke-dasharray:8.68225201, 4.34112601, 2.170563, 4.34112601;stroke-dashoffset:0;stroke-opacity:1;visibility:visible;display:inline;overflow:visible;enable-background:accumulate"
       d="M 150.57676,18.015224 C 148.35629,18.781455 149.92835,22.028424 150.21373,23.571063 C 150.28397,24.83393 152.13168,27.657034 153.039,25.401964 C 153.24036,23.014656 153.4306,19.034114 150.75038,17.99944 L 150.65567,17.99944 L 150.57676,18.015224 z"
       id="path3213"
       transform="translate(45.690548,15.391113)" />
    <path
       style="opacity:1;fill:#e9c6af;fill-opacity:1;fill-rule:nonzero;stroke:none;stroke-width:4.34112597;stroke-linecap:square;stroke-linejoin:miter;marker:none;marker-start:none;marker-mid:none;marker-end:none;stroke-miterlimit:4;stroke-dasharray:8.68225201, 4.34112601, 2.170563, 4.34112601;stroke-dashoffset:0;stroke-opacity:1;visibility:visible;display:inline;overflow:visible;enable-background:accumulate"
       d="M 147.19906,22.16632 C 145.32284,23.212322 147.76965,27.892364 149.53504,25.922824 C 150.24878,24.46575 148.83416,22.084522 147.19906,22.16632 z"
       id="path3215"
       transform="translate(45.690548,15.391113)" />
    <path
       style="opacity:1;fill:#aa0000;fill-opacity:1;fill-rule:nonzero;stroke:none;stroke-width:4.34112597000000020;stroke-linecap:square;stroke-linejoin:miter;marker:none;marker-start:none;marker-mid:none;marker-end:none;stroke-miterlimit:4;stroke-dasharray:8.68225200999999910, 4.34112601000000000, 2.17056300000000000, 4.34112601000000000;stroke-dashoffset:0;stroke-opacity:1;visibility:visible;display:inline;overflow:visible;enable-background:accumulate"
       d="M 113.61149,85.427123 C 108.50969,86.088182 103.4674,89.394861 101.12663,93.997636 C 100.75067,96.999041 104.884,97.986329 107.21912,97.911977 C 112.01849,97.216664 116.02343,93.398994 118.28344,89.309897 C 119.42076,86.484904 115.79509,85.16965 113.61149,85.427123 z"
       id="path3219"
       transform="translate(45.690548,15.391113)" />
    <path
       style="fill:#000000"
       d="M 58.405233,220.15275 C 58.405233,219.85828 60.071173,216.60217 62.107313,212.91696 C 64.143453,209.23176 65.809383,205.81496 65.809383,205.32407 C 65.809383,204.3565 71.729923,192.20533 73.957593,188.60089 C 74.711023,187.38181 75.128483,186.06241 74.885283,185.66889 C 74.642073,185.27537 72.810413,187.37847 70.814923,190.34245 C 68.819443,193.30643 66.743703,196.27322 66.202173,196.93533 C 65.660653,197.59744 63.911983,199.84291 62.316233,201.92527 C 57.306723,208.46244 50.233063,216.64955 49.594473,216.64955 C 49.257483,216.64955 48.981773,216.34665 48.981773,215.97644 C 48.981773,215.60623 49.235063,215.30334 49.544633,215.30334 C 49.854213,215.30334 51.292973,213.78507 52.741883,211.9294 C 54.190793,210.07374 56.494073,207.3294 57.860273,205.83088 L 60.344283,203.10628 L 57.768823,200.45244 C 54.462533,197.04554 52.917903,192.47248 53.477513,187.7475 C 53.810003,184.94013 54.212263,184.07529 55.447283,183.51257 L 56.999233,182.80545 L 55.006583,180.94403 C 52.819603,178.90109 52.806263,179.10148 55.581723,172.30516 L 57.335553,168.01053 L 55.346253,166.42427 C 53.612473,165.04176 53.372343,164.43809 53.476753,161.72457 C 53.574973,159.17202 53.365793,158.55079 52.315593,158.27616 C 51.611053,158.09191 50.681513,156.96469 50.249953,155.77122 C 49.743963,154.37193 48.764523,153.33675 47.492183,152.8565 C 45.861713,152.24106 45.556747,151.78419 45.735943,150.22554 C 45.882443,148.95131 46.553363,148.05283 47.803833,147.45626 C 49.261513,146.76084 49.654873,146.10895 49.654873,144.38865 C 49.654873,143.18718 49.306953,141.85622 48.881713,141.43098 C 47.742743,140.29201 49.902223,137.33236 52.736203,136.14825 C 54.003133,135.61889 55.035303,134.81123 55.029913,134.35343 C 55.013943,132.99619 53.037033,127.71447 51.980313,126.20578 C 51.441733,125.43685 51.001083,124.00353 51.001083,123.02061 C 51.001083,122.03769 50.546743,120.85641 49.991423,120.39554 C 48.828823,119.43066 48.640023,117.70312 49.697183,117.70312 C 50.090663,117.70312 50.358683,117.17305 50.292783,116.52519 C 50.086253,114.49484 50.303373,113.66449 51.040813,113.66449 C 51.432863,113.66449 51.579373,113.94646 51.366383,114.29108 C 51.153393,114.63571 51.294463,115.11257 51.679883,115.35077 C 52.065303,115.58898 52.297423,115.52833 52.195693,115.21601 C 52.093973,114.90368 52.692263,113.91536 53.525223,113.01974 C 54.358193,112.12412 55.039713,110.80556 55.039713,110.08962 C 55.039713,109.02627 55.219193,108.93688 56.019883,109.60139 C 56.558973,110.0488 57.366533,110.18836 57.814453,109.91153 C 58.382623,109.56039 58.056893,108.95214 56.737123,107.89979 C 54.281553,105.94178 54.828113,104.24102 57.912933,104.24102 C 59.146243,104.24102 60.556643,104.61964 61.047173,105.0824 C 61.759873,105.75477 62.000943,105.75496 62.247223,105.08336 C 62.459833,104.50357 63.373033,104.37369 65.192053,104.66457 C 66.949503,104.94559 67.828703,104.83305 67.828703,104.32705 C 67.828703,103.90952 68.434493,103.56792 69.174913,103.56792 C 69.915323,103.56792 70.521113,103.26502 70.521113,102.89481 C 70.521113,101.48798 70.646343,101.17967 71.683063,100.03412 C 72.858903,98.734819 74.607873,98.500449 75.614663,99.507239 C 76.360663,100.25324 79.271473,99.672499 79.271473,98.777679 C 79.271473,98.450649 78.817133,98.183079 78.261823,98.183079 C 76.864923,98.183079 76.917053,93.611089 78.331773,92.047839 C 79.148873,91.144959 79.684493,91.025449 80.5346,91.556349 C 81.3595,92.071509 82.77683,91.890449 85.87107,90.874669 C 90.39377,89.389939 92.06046,89.544079 92.06046,91.447099 C 92.06046,92.105589 92.44769,93.390739 92.92097,94.302989 C 95.0061,98.322089 97.71339,99.021479 98.53374,95.752969 C 99.02386,93.800159 99.20843,93.788109 102.05422,95.523089 C 104.00469,96.712229 104.24254,97.141269 103.82528,98.717819 C 103.56018,99.719439 103.23636,101.67481 103.10567,103.06309 C 102.88915,105.36319 103.01574,105.58723 104.53186,105.58723 C 105.56206,105.58723 106.19566,105.97173 106.19566,106.59689 C 106.19566,107.1522 106.60231,107.60655 107.09932,107.60655 C 107.92756,107.60655 108.48813,106.70067 110.93798,101.4033 C 111.94295,99.230209 112.66231,99.485599 113.26495,102.22943 C 113.74182,104.40059 114.23808,104.67972 115.45598,103.46182 C 116.02501,102.89279 116.47589,102.8824 117.12766,103.42332 C 118.65519,104.69106 119.77398,103.25295 119.82379,99.957659 C 119.86419,97.285759 120.07347,96.823679 121.27884,96.745199 C 122.59269,96.659659 122.58557,96.634049 121.17224,96.361839 C 119.43635,96.027489 119.11464,93.662289 120.49913,91.413079 C 121.22576,90.232619 121.12982,89.886089 119.7957,88.872309 C 118.04318,87.540569 118.43988,86.740289 120.85256,86.740289 C 122.30813,86.740289 122.44358,86.528579 122.03682,84.889249 C 121.78421,83.871179 121.29703,82.937249 120.95419,82.813849 C 119.55566,82.310449 120.45185,81.360169 121.9666,81.740349 C 123.32199,82.080539 123.54356,81.938529 123.25942,80.911799 C 123.07082,80.230279 121.97743,79.066899 120.82967,78.326479 C 117.80585,76.375829 117.85927,75.535429 121.03414,75.109589 C 124.43937,74.652849 124.88233,74.253959 123.83918,72.583609 C 122.5174,70.467099 122.87061,69.573259 125.64495,68.013989 C 128.62569,66.338719 129.26598,65.187919 128.64424,62.623299 L 128.20846,60.825749 L 129.54093,62.441709 C 131.26302,64.530189 134.23548,63.998099 134.86533,61.488609 C 135.16083,60.311209 135.74535,59.816099 136.83984,59.816099 C 139.03945,59.816099 140.524,59.142209 140.524,58.143739 C 140.524,56.843659 142.34031,55.505009 142.68819,56.548679 C 142.87333,57.104069 143.45116,56.888929 144.44579,55.894299 C 145.85118,54.488899 146.01445,54.469419 147.61243,55.516459 C 149.16107,56.531169 149.26332,56.531929 148.87725,55.525839 C 148.34049,54.127059 148.88324,54.143959 151.09773,55.594939 C 152.40233,56.449749 152.94693,56.539079 153.14945,55.931499 C 153.3011,55.476569 153.82186,55.104359 154.30671,55.104359 C 154.79157,55.104359 155.36065,54.655119 155.57136,54.106049 C 155.79682,53.518499 156.39688,53.277519 157.02973,53.520369 C 157.74962,53.796619 158.22218,53.484999 158.45948,52.577559 C 158.68714,51.706989 159.224,51.329359 159.96027,51.521899 C 160.59077,51.686779 161.67172,51.197239 162.36241,50.434049 C 164.06938,48.547869 165.31397,48.690849 165.85211,50.834929 L 166.30099,52.623439 L 167.60384,50.834929 C 168.91507,49.034889 171.05124,48.470199 171.82336,49.719519 C 172.05216,50.089729 172.97873,50.392629 173.8824,50.392629 C 174.89414,50.392629 175.52544,50.780559 175.52544,51.402279 C 175.52544,52.075389 176.19854,52.411939 177.54475,52.411939 C 179.08606,52.411939 179.56406,52.106549 179.56406,51.121819 C 179.56406,50.412259 179.29691,49.730739 178.97038,49.607339 C 178.64386,49.483929 178.16289,48.095659 177.90156,46.522269 C 177.50893,44.158299 177.61201,43.661579 178.49524,43.661579 C 179.0831,43.661579 179.56406,43.207229 179.56406,42.651919 C 179.56406,42.096609 179.30978,41.642259 178.99901,41.642259 C 178.20673,41.642259 176.77249,38.308619 177.2396,37.552819 C 177.45138,37.210159 178.91202,36.605629 180.48547,36.209429 C 182.62958,35.669529 184.07983,34.637469 186.27435,32.089779 C 188.81607,29.139029 189.05503,28.607999 188.08532,28.065329 C 186.69771,27.288779 186.65457,25.561969 187.97567,23.675839 C 188.8474,22.431259 189.24168,22.335089 190.90238,22.961929 C 192.44123,23.542779 193.44176,23.431299 195.95034,22.399469 C 199.3404,21.005069 199.52735,20.625189 198.07444,18.083589 C 197.54537,17.158069 197.10175,16.173649 197.08864,15.895999 C 197.07552,15.618339 198.81686,15.391169 200.95828,15.391169 C 204.59218,15.391169 204.93336,15.529259 206.07516,17.462169 C 207.25147,19.453509 207.26574,21.012179 206.13248,23.724679 C 205.62828,24.931519 205.90691,24.967849 212.10387,24.503239 C 215.67901,24.235199 218.5945,24.271339 218.58273,24.583549 C 218.57095,24.895749 218.1166,25.739149 217.57307,26.457779 C 217.02953,27.176399 216.58482,28.422859 216.58482,29.227699 C 216.58482,30.032529 215.95639,31.489949 215.18832,32.466399 C 213.69568,34.363979 213.92012,34.645629 217.24438,35.046479 C 219.60014,35.330549 220.79161,38.689299 219.00105,39.998589 C 217.89724,40.805719 217.84745,41.161679 218.5882,42.950009 C 219.79131,45.854579 219.1617,46.759069 215.29025,47.687819 C 212.03808,48.467999 211.87308,48.614909 211.87308,50.730469 C 211.87308,52.535119 211.52482,53.086509 210.02205,53.661089 C 207.99502,54.436119 206.95275,55.251439 204.58778,57.912099 L 203.02386,59.671549 L 204.40185,60.955329 L 205.77983,62.239119 L 203.81913,63.397339 C 200.23383,65.515219 200.75685,68.238889 205.20608,70.620049 C 206.7353,71.438459 207.2607,71.101569 209.05848,68.149799 C 209.96156,66.667029 212.27757,66.492819 213.77871,67.794749 C 214.58166,68.491139 215.23861,69.351549 215.23861,69.706769 C 215.23861,70.479059 219.27625,70.012109 220.4119,69.108489 C 220.85087,68.759209 221.40899,67.567509 221.65218,66.460269 C 221.9144,65.266399 222.69497,64.218739 223.5702,63.885979 C 225.29227,63.231249 227.12652,59.857919 227.68266,56.322869 C 228.16218,53.274789 231.29915,50.392629 234.13718,50.392629 C 236.22131,50.392629 236.49648,49.717159 236.15387,45.442189 C 235.99082,43.407769 237.26952,39.586929 238.36228,38.843339 C 239.02061,38.395359 241.46722,39.466079 242.25304,40.546079 C 242.48778,40.868689 243.54792,40.117859 244.60891,38.877549 C 248.28627,34.578679 252.60664,30.880169 254.81126,30.143699 C 257.28157,29.318479 259.33624,29.768469 258.59252,30.971829 C 258.30586,31.435649 258.40202,31.572779 258.82892,31.308939 C 259.22471,31.064329 259.6691,31.225899 259.81646,31.667989 C 260.01037,32.249709 260.5032,32.178449 261.60026,31.410039 C 263.42552,30.131579 265.52674,30.544909 266.08107,32.291469 C 266.547,33.759479 267.75175,33.935639 269.03649,32.723619 C 269.74999,32.050519 269.99006,32.050519 270.23686,32.723619 C 270.40655,33.186379 270.82578,33.564999 271.16851,33.564999 C 271.51124,33.564999 272.71984,34.452029 273.85429,35.536169 C 275.57943,37.184809 275.7987,37.728249 275.19437,38.857439 C 274.23065,40.658169 274.28075,41.673329 275.31377,41.276919 C 275.78192,41.097279 276.54266,41.827989 277.02726,42.922779 C 277.79266,44.651929 277.7206,45.270809 276.43556,48.004609 C 274.82945,51.421469 274.99177,52.228399 277.06233,51.120269 C 280.97273,49.027479 281.64807,51.518249 278.34217,55.840569 C 275.83382,59.120119 274.69228,59.735629 274.33295,58.002309 C 274.13414,57.043299 273.73201,57.317479 272.42539,59.302929 C 270.94104,61.558449 270.4703,61.819609 267.87562,61.827079 C 264.15177,61.837799 261.28529,63.338229 260.72517,65.569909 C 260.48192,66.539119 259.5022,68.568809 258.54801,70.080339 C 257.08102,72.404199 256.71622,72.655409 256.18556,71.707179 C 255.19831,69.943059 254.61703,70.365229 253.79077,73.446469 C 253.36885,75.019849 252.83862,76.786829 252.61247,77.373089 C 252.25513,78.299459 252.93214,78.420579 257.78344,78.298179 C 260.85362,78.220719 264.27428,77.956019 265.3849,77.709949 C 267.18641,77.310819 267.52175,77.501439 268.49393,79.477289 C 269.50969,81.541699 269.79098,81.681349 272.63892,81.535009 C 275.50072,81.387959 275.73988,81.509069 276.41563,83.447509 C 277.0985,85.406409 277.27805,85.493179 279.77568,85.071209 C 282.73274,84.571619 285.24149,85.686649 285.24149,87.500519 C 285.24149,88.144069 285.73618,88.570769 286.41942,88.516539 C 287.38685,88.439759 287.63471,89.083219 287.80637,92.117139 C 287.92775,94.262519 288.45727,96.299519 289.06941,96.975919 C 289.86105,97.850679 290.04391,99.099599 289.80399,101.99286 C 289.52639,105.34025 289.19306,106.08843 287.26052,107.70178 C 285.80529,108.91666 284.08851,109.62829 282.29404,109.76044 C 280.20539,109.91427 279.36549,110.33767 278.77098,111.53644 C 278.29433,112.49758 277.81364,112.82448 277.53646,112.376 C 277.20913,111.84637 276.701,111.84573 275.71448,112.3737 C 274.96205,112.77638 273.61118,112.92132 272.71255,112.69578 C 271.81391,112.47023 270.43537,112.62998 269.64912,113.05077 C 267.72898,114.0784 263.25327,112.61314 261.87169,110.50459 C 260.60412,108.57002 259.60431,108.55924 256.32806,110.44481 L 253.73555,111.93687 L 249.563,109.78492 C 246.71023,108.31364 245.03967,107.8117 244.28145,108.19805 C 243.6715,108.50885 242.16347,108.95459 240.93026,109.18859 C 239.69706,109.42259 237.89279,110.23962 236.92077,111.00421 C 235.79087,111.89298 234.60779,112.25742 233.64053,112.01465 C 231.93621,111.5869 226.89074,115.56141 223.83641,119.73773 C 222.34177,121.78142 221.72204,122.10889 219.34917,122.10889 C 217.83496,122.10889 216.62942,121.79912 216.67019,121.4205 C 216.89016,119.37765 216.50897,118.90689 214.88599,119.21714 C 212.60574,119.65304 212.28853,118.88534 213.90157,116.83469 C 216.6408,113.35232 215.22403,113.11667 210.23639,116.22505 C 208.21204,117.48666 207.32482,117.70867 206.46163,117.1696 C 205.59101,116.62589 204.98582,116.79855 203.81262,117.92539 C 202.9763,118.72866 202.17112,119.08299 202.02333,118.71278 C 201.19454,116.63661 200.43342,116.38258 194.51108,116.20558 C 188.58058,116.02833 188.31382,116.082 188.31412,117.45243 C 188.31429,118.24006 187.8512,119.26894 187.28503,119.73881 C 186.43343,120.44559 185.99158,120.34505 184.72661,119.15668 C 183.452,117.95924 182.83869,117.82316 181.04054,118.33887 C 179.85416,118.67912 178.08708,119.58396 177.11369,120.34963 C 176.1403,121.11529 175.00612,121.74698 174.59328,121.75338 C 174.18044,121.75978 173.10209,122.54536 172.19693,123.49911 C 170.63428,125.14566 170.50599,125.17141 169.65609,124.0091 C 168.90409,122.98068 168.54716,122.91853 167.42335,123.62036 C 166.68765,124.07982 165.38008,124.27864 164.51765,124.06218 C 163.41754,123.78607 162.3349,124.18585 160.88979,125.40184 C 158.79221,127.16683 157.09259,127.15724 156.40927,125.37654 C 155.84321,123.90141 153.66728,125.51779 152.61752,128.19322 C 151.92205,129.96571 151.20549,130.52399 148.87168,131.11165 C 147.28445,131.51132 145.24365,131.83832 144.33657,131.83832 C 142.48441,131.83832 141.77765,133.02176 142.3417,135.17869 C 142.62702,136.26978 142.36523,136.72266 141.286,137.00488 C 140.49669,137.21129 139.85089,137.61811 139.85089,137.90893 C 139.85089,138.60713 135.81782,139.99846 135.09279,139.55038 C 134.78214,139.35838 133.73462,139.40041 132.76496,139.64378 C 131.50945,139.95889 131.20991,140.2942 131.72435,140.80865 C 132.88031,141.96461 132.56148,144.51258 131.07484,145.99921 C 130.01477,147.05929 129.19307,147.27545 127.45964,146.95026 L 125.21633,146.5294 L 124.0532,151.46803 C 123.41347,154.18427 122.28981,157.2604 121.55617,158.30387 C 120.04899,160.44755 120.34375,162.12805 122.22695,162.12805 C 123.06426,162.12805 123.82792,162.98279 124.48491,164.65531 C 125.39559,166.97368 125.37689,167.28869 124.25864,168.46654 C 123.3631,169.40981 123.23116,169.9813 123.76142,170.62022 C 124.1584,171.09856 125.03888,172.57986 125.71805,173.912 C 126.93411,176.29723 126.93068,176.3711 125.49292,178.7677 C 124.68992,180.1062 122.7377,182.56122 121.15464,184.22329 L 118.27635,187.24525 L 119.70412,188.76504 C 120.99732,190.1416 121.04488,190.46463 120.20877,192.19268 C 119.25493,194.16403 118.97126,194.21843 113.88625,193.40517 C 112.07699,193.11582 111.61155,193.39143 110.18394,195.59751 C 109.28586,196.98533 107.99714,198.22749 107.32012,198.35787 C 105.12384,198.78084 102.83014,197.84502 102.83014,196.52599 C 102.83014,195.83796 102.37289,194.89555 101.81404,194.43174 C 100.44264,193.29358 95.70465,193.97789 93.45852,195.63853 C 92.09775,196.64458 91.52595,196.75649 90.94172,196.13107 C 90.52593,195.68597 88.86589,195.3499 87.25275,195.38426 C 84.49976,195.4429 84.30843,195.57067 84.13519,197.46605 C 83.68425,202.39962 83.48775,202.66269 80.61584,202.17748 C 79.163203,201.93205 77.584933,201.98023 77.108593,202.28453 C 76.632243,202.58883 74.315293,202.84075 71.959813,202.84435 L 67.677123,202.85089 L 65.901873,207.2374 C 64.925483,209.64997 63.142213,213.32161 61.939033,215.39659 C 60.735863,217.47157 59.751443,219.51104 59.751443,219.92873 C 59.751443,220.34643 59.448543,220.68818 59.078343,220.68818 C 58.708133,220.68818 58.405233,220.44724 58.405233,220.15275 z M 83.3101,187.67003 C 85.34624,187.32391 89.32311,187.03897 92.14757,187.03683 C 97.16204,187.03302 97.34508,186.97349 99.92046,184.50878 C 101.37108,183.12051 104.66375,180.05539 107.2375,177.69741 L 111.91705,173.41017 L 106.59588,177.01241 C 100.63701,181.04635 97.4453,183.97261 97.4453,185.40194 C 97.4453,185.92878 97.1424,186.35982 96.77219,186.35982 C 96.38391,186.35982 96.06739,184.0101 96.02417,180.80671 C 95.98297,177.75249 95.87477,174.19345 95.78374,172.89772 C 95.6927,171.602 95.3765,164.58631 95.08107,157.30731 L 94.54392,144.07276 L 92.15747,144.46002 C 90.84493,144.67302 88.99884,145.25028 88.05505,145.74281 C 87.11126,146.23535 85.83599,146.6402 85.22111,146.64249 C 84.60623,146.64477 82.25731,147.22112 80.00128,147.92328 C 77.714383,148.63504 75.732993,148.93064 75.523293,148.59133 C 75.316413,148.25661 74.862123,142.15424 74.513753,135.03052 C 74.165383,127.9068 73.730633,121.42102 73.547643,120.61768 C 73.181533,119.01046 74.699563,118.35934 84.31976,115.99721 C 93.27029,113.7995 94.92954,112.31828 88.44083,112.31828 C 84.8399,112.31828 80.01586,113.48982 74.559743,115.68935 C 72.893813,116.36094 68.880423,117.613 65.641113,118.4717 C 60.194083,119.91563 59.753153,120.16042 59.774153,121.72874 C 59.804033,123.95991 62.684303,142.40435 64.401083,151.35837 C 65.146393,155.24555 66.358963,162.81798 67.095683,168.18599 C 67.832413,173.554 68.563393,178.55181 68.720083,179.29222 C 68.876783,180.03264 69.226653,182.45581 69.497573,184.67706 L 69.990163,188.71569 L 71.819143,186.5281 C 73.893013,184.0476 74.331343,183.92516 75.936613,185.37791 C 76.978583,186.32088 77.274443,186.25417 79.186863,184.64497 C 81.49613,182.70185 82.10284,180.50894 80.11286,181.29806 C 79.464993,181.55496 77.193263,182.09518 75.064573,182.49854 C 71.549963,183.16451 71.193273,183.39113 71.183913,184.96415 C 71.175793,186.32972 71.035493,186.48267 70.521113,185.68672 C 69.160893,183.58191 69.755153,182.39647 72.372153,181.99424 C 73.760433,181.78087 76.367003,181.11944 78.164543,180.5244 C 80.93138,179.60849 81.52357,179.58588 82.02458,180.37702 C 83.40389,182.55509 81.86767,184.97564 77.756993,187.10127 C 74.652473,188.70661 74.517643,189.37111 77.420443,188.75993 C 78.623613,188.5066 81.27396,188.01615 83.3101,187.67003 z M 93.07012,183.6674 C 92.84132,183.2972 92.97489,182.9943 93.36695,182.9943 C 93.759,182.9943 94.07978,183.2972 94.07978,183.6674 C 94.07978,184.03761 93.9462,184.34051 93.78295,184.34051 C 93.61969,184.34051 93.29892,184.03761 93.07012,183.6674 z M 60.424553,121.74175 C 60.424553,121.37154 60.727443,121.06864 61.097653,121.06864 C 61.467863,121.06864 61.770753,121.37154 61.770753,121.74175 C 61.770753,122.11196 61.467863,122.41485 61.097653,122.41485 C 60.727443,122.41485 60.424553,122.11196 60.424553,121.74175 z M 109.01221,173.67134 L 111.24394,172.08909 L 107.54187,172.51688 C 98.0871,173.60944 97.08743,174.22298 97.73425,178.5363 L 98.18637,181.55128 L 102.48343,178.40244 C 104.8468,176.67057 107.78476,174.54158 109.01221,173.67134 z M 98.91043,172.48452 C 99.33055,170.38747 98.67003,162.79678 98.09818,163.1502 C 97.33795,163.62005 97.34584,173.57083 98.10644,173.57083 C 98.42894,173.57083 98.79073,173.08199 98.91043,172.48452 z M 107.81645,171.22699 C 112.24865,170.16852 112.90148,169.53309 112.9164,166.26294 C 112.92503,164.37041 112.73535,164.08327 111.74877,164.49544 C 111.10091,164.7661 108.22339,165.31784 105.35428,165.72154 L 100.13772,166.45555 L 100.13772,169.34008 C 100.13772,172.04392 100.25367,172.22312 101.98876,172.20064 C 103.00683,172.18746 105.62929,171.74931 107.81645,171.22699 z M 114.62619,167.10394 C 114.92937,162.74397 114.64237,163.25428 113.70434,168.74305 C 113.32412,170.96791 113.33042,172.09015 113.72094,171.69962 C 114.06714,171.35343 114.4745,169.28537 114.62619,167.10394 z M 107.74555,164.41187 C 114.92848,162.80808 114.83404,162.05911 107.5106,162.5485 C 101.07319,162.97868 99.61753,163.43423 100.43802,164.76182 C 101.04031,165.73633 102.02486,165.68918 107.74555,164.41187 z M 113.45553,159.80427 C 113.60903,159.65078 113.52717,159.18953 113.27362,158.77929 C 112.96013,158.27205 110.94636,158.16849 106.98,158.45563 C 99.47244,158.99914 99.98819,159.00046 98.62323,158.43413 C 97.79904,158.09216 97.4453,158.25742 97.4453,158.98441 C 97.4453,159.65319 98.22483,160.1185 99.63289,160.29021 C 102.16966,160.59956 113.04248,160.21733 113.45553,159.80427 z M 99.79446,153.54596 C 99.5524,151.41726 99.20729,149.14553 99.02757,148.49767 C 98.84784,147.84981 98.98798,147.31974 99.33899,147.31974 C 99.69,147.31974 100.29867,149.66719 100.69161,152.5363 L 101.40603,157.75286 L 101.10744,152.42314 C 100.94322,149.49179 100.67196,146.9565 100.50464,146.78918 C 100.33731,146.62186 99.42906,146.67855 98.4863,146.91517 C 96.92121,147.30798 96.77299,147.65147 96.78139,150.86636 C 96.79408,155.72987 97.34432,157.41631 98.91845,157.41631 C 100.123,157.41631 100.19727,157.08816 99.79446,153.54596 z M 103.05539,151.48208 C 102.82176,148.45238 102.38017,145.97353 102.07409,145.97353 C 101.76801,145.97353 101.65024,146.80649 101.81237,147.82457 C 101.97451,148.84264 102.29481,151.44277 102.52416,153.60263 C 103.14409,159.4407 103.54554,157.83821 103.05539,151.48208 z M 106.19566,155.1727 C 106.19566,152.21855 104.81537,145.13602 104.08147,144.32442 C 103.22854,143.38119 103.37293,150.018 104.29195,153.99944 C 105.18958,157.8882 106.19566,158.50826 106.19566,155.1727 z M 113.84866,155.90183 C 114.50881,153.43849 114.32948,145.99073 113.57613,144.58307 C 113.1929,143.86699 112.24187,143.28111 111.46274,143.28111 C 110.68361,143.28111 109.70986,142.83149 109.29884,142.28196 C 108.81753,141.63846 107.99048,141.43255 106.97537,141.70348 C 105.21632,142.17297 105.21537,142.301 106.89701,152.19975 L 107.78323,157.41631 L 110.61301,157.41631 C 112.97862,157.41631 113.50938,157.16788 113.84866,155.90183 z M 88.54626,144.21289 C 91.61125,143.29983 94.34589,142.69302 94.62324,142.86443 C 95.38903,143.33772 93.83335,116.94654 93.01627,115.60326 C 92.58531,114.89476 77.574883,118.45401 76.521263,119.51453 C 76.223773,119.81398 76.321873,126.05848 76.739263,133.39119 L 77.498173,146.7234 L 80.23586,146.2982 C 81.74159,146.06434 85.48127,145.12595 88.54626,144.21289 z M 80.32843,140.66521 C 79.929843,140.02029 82.14529,139.25031 84.31976,139.27802 C 85.26388,139.29005 84.98949,139.58887 83.4011,140.27848 C 80.73322,141.43676 80.80007,141.42835 80.32843,140.66521 z M 79.944583,137.48883 C 79.944583,136.84233 80.78283,136.55006 82.637,136.55006 C 84.23963,136.55006 85.32942,136.86791 85.32942,137.33535 C 85.32942,137.76725 85.1628,137.95402 84.95917,137.75039 C 84.75553,137.54674 83.54394,137.61581 82.26675,137.90387 C 80.47892,138.30709 79.944583,138.21159 79.944583,137.48883 z M 88.02183,137.59944 C 88.02183,137.43619 88.32473,137.11541 88.69494,136.88661 C 89.06515,136.65781 89.36804,136.79138 89.36804,137.18344 C 89.36804,137.57549 89.06515,137.89627 88.69494,137.89627 C 88.32473,137.89627 88.02183,137.7627 88.02183,137.59944 z M 78.354643,132.17405 C 77.760533,130.62582 77.715073,130.6864 79.776303,130.27951 C 84.08666,129.42864 84.31976,129.45395 84.31976,130.77288 C 84.31976,131.55825 83.79287,132.12942 82.97355,132.23224 C 82.23314,132.32516 80.98759,132.60184 80.20568,132.84709 C 79.213643,133.15825 78.654273,132.95486 78.354643,132.17405 z M 87.34873,132.51143 C 87.34873,132.14122 87.65163,131.83832 88.02183,131.83832 C 88.39204,131.83832 88.69494,132.14122 88.69494,132.51143 C 88.69494,132.88164 88.39204,133.18453 88.02183,133.18453 C 87.65163,133.18453 87.34873,132.88164 87.34873,132.51143 z M 86.85792,129.41234 C 87.08159,129.18867 87.66214,129.16476 88.14804,129.3592 C 88.685,129.57407 88.5255,129.73357 87.74137,129.76587 C 87.03181,129.79509 86.63426,129.63601 86.85792,129.41234 z M 78.425833,127.40279 C 77.164803,126.14176 78.245573,125.32014 82.13217,124.58517 C 84.44597,124.14762 87.12922,123.60462 88.09497,123.37851 C 89.37544,123.07871 89.96803,123.27275 90.28363,124.09519 C 90.95165,125.83603 89.93281,126.786 87.34873,126.83168 C 86.053,126.85459 83.62791,127.10508 81.95963,127.38835 C 80.29135,127.6716 78.701153,127.6781 78.425833,127.40279 z M 88.14804,124.64747 C 87.66214,124.45303 87.08159,124.47694 86.85792,124.7006 C 86.63426,124.92428 87.03181,125.08336 87.74137,125.05413 C 88.5255,125.02184 88.685,124.86234 88.14804,124.64747 z M 77.252163,121.06864 C 77.252163,120.23912 77.704263,119.71856 78.430093,119.71233 C 79.077963,119.70678 81.95548,118.97299 84.82459,118.08168 L 90.04115,116.46113 L 90.04115,118.32451 C 90.04115,120.09667 89.79308,120.2424 84.97373,121.30137 C 78.301273,122.76753 77.252163,122.73592 77.252163,121.06864 z M 81.45906,120.62286 C 80.99631,120.43613 80.23906,120.43613 79.776303,120.62286 C 79.313543,120.80959 79.692173,120.96237 80.61768,120.96237 C 81.5432,120.96237 81.92182,120.80959 81.45906,120.62286 z M 88.32473,118.96769 C 89.26833,118.0949 87.4013,118.32363 84.65631,119.41711 L 82.30045,120.35558 L 84.99286,119.95737 C 86.47369,119.73835 87.97303,119.29299 88.32473,118.96769 z M 99.36583,145.37572 C 100.04737,144.94385 100.09858,144.46568 99.56922,143.47657 C 99.1801,142.7495 98.98299,141.19649 99.1312,140.02544 C 99.42324,137.71784 99.41055,137.70097 97.8369,138.30484 C 97.04815,138.60751 96.77219,139.65426 96.77219,142.34347 C 96.77219,146.00852 97.33284,146.66397 99.36583,145.37572 z M 76.270853,139.75168 C 76.013263,136.69987 75.674343,134.07476 75.517683,133.9181 C 75.084933,133.48535 75.191753,139.91389 75.664883,142.77628 C 76.401443,147.23247 76.753813,145.47368 76.270853,139.75168 z M 117.32956,143.90943 C 117.99489,142.83291 117.24985,142.42698 115.58091,142.95668 C 114.41981,143.3252 114.29838,143.55706 115.02536,144.01749 C 116.25909,144.79886 116.79541,144.77371 117.32956,143.90943 z M 103.47467,142.30588 C 103.91982,141.76951 105.39567,140.97568 106.75433,140.54181 C 108.113,140.10794 109.51238,139.48665 109.86408,139.16117 C 111.21197,137.91373 114.92178,138.53126 116.41807,140.25214 C 118.50233,142.64925 120.11809,142.40087 121.33148,139.49683 C 121.89176,138.15589 122.35017,136.48045 122.35017,135.77362 C 122.35017,135.0668 122.72879,134.39179 123.19155,134.27359 C 123.65431,134.15539 125.54742,133.52689 127.39846,132.87694 C 129.24949,132.22697 132.73281,131.16681 135.13916,130.52102 C 140.24754,129.15007 149.82206,125.30327 151.3244,124.01819 C 153.14259,122.46294 160.9188,119.2305 164.75576,118.43497 C 169.3305,117.48649 170.30815,116.90363 169.7526,115.45591 C 169.01875,113.54352 166.47326,113.41775 163.30472,115.13733 C 158.68275,117.64568 143.55585,123.08453 141.18498,123.09044 C 140.63634,123.09182 136.47095,124.9092 131.92857,127.12907 C 127.38619,129.34895 122.84273,131.17262 121.832,131.18168 C 120.82127,131.19072 118.66914,131.50365 117.04949,131.87707 C 113.81215,132.62345 111.78414,131.7832 109.34405,128.6845 C 107.73653,126.64309 106.19566,126.67395 106.19566,128.74755 C 106.19566,129.93536 107.00273,130.87909 109.21597,132.27929 C 110.91074,133.35148 112.16623,134.63409 112.07666,135.2018 C 111.96296,135.92248 112.64721,136.27384 114.45529,136.42325 C 115.85131,136.53862 116.81786,136.91724 116.60315,137.26463 C 116.01,138.22437 112.83298,138.01897 111.6335,136.94333 C 110.70527,136.11096 109.97574,136.30357 105.86677,138.4659 C 103.2547,139.84048 101.06251,141.46165 100.93741,142.11124 C 100.6622,143.5403 102.34317,143.66925 103.47467,142.30588 z M 113.88131,141.52633 C 115.38478,140.9494 115.20231,140.13961 113.46656,139.6857 C 111.99978,139.30214 110.23429,140.20802 110.23429,141.34421 C 110.23429,142.02346 112.31502,142.12737 113.88131,141.52633 z M 105.52256,137.14554 C 106.72434,136.15005 106.8529,135.86574 105.97233,136.15085 C 105.29419,136.37041 104.30977,136.55006 103.78474,136.55006 C 103.25971,136.55006 102.83014,137.0044 102.83014,137.55972 C 102.83014,138.91586 103.51199,138.81097 105.52256,137.14554 z M 98.05131,136.38178 C 98.01441,135.91902 97.7417,134.78316 97.4453,133.85764 C 96.96434,132.35584 96.89917,132.44633 96.83929,134.69902 C 96.80239,136.0873 97.07509,137.22316 97.4453,137.22316 C 97.81551,137.22316 98.08821,136.84454 98.05131,136.38178 z M 100.39013,133.94178 C 100.15361,132.75917 99.81979,131.93189 99.6483,132.10337 C 99.47681,132.27486 99.5456,133.36717 99.80117,134.53074 C 100.40747,137.29124 100.95127,136.74745 100.39013,133.94178 z M 110.23429,134.60816 C 110.23429,133.62318 107.03196,131.83832 105.26474,131.83832 C 100.28581,131.83832 100.06861,134.36138 105.01773,134.70761 C 106.96132,134.84358 108.93015,135.01086 109.39291,135.07934 C 109.85567,135.14782 110.23429,134.93578 110.23429,134.60816 z M 98.3028,126.62176 C 98.4629,124.67817 98.37079,123.08796 98.0981,123.08796 C 97.23412,123.08796 96.79456,126.01937 97.24042,128.80782 C 97.73305,131.88874 97.89667,131.55205 98.3028,126.62176 z M 104.84945,129.55702 C 104.84945,128.67252 105.40301,127.26522 106.07958,126.42968 L 107.30972,124.91053 L 110.10138,127.8696 L 112.89304,130.82867 L 112.90988,127.26089 L 112.92671,123.69311 L 109.39291,124.02016 C 107.44932,124.20004 104.76525,124.36678 103.42831,124.39069 C 100.81953,124.43735 100.81511,124.45232 101.87414,129.65073 C 102.3136,131.80784 104.84945,131.72797 104.84945,129.55702 z M 100.80052,128.30452 C 100.78424,124.85087 99.68867,123.81044 99.30426,126.88358 C 98.95786,129.65292 99.16092,130.49211 100.17744,130.49211 C 100.5258,130.49211 100.80618,129.5077 100.80052,128.30452 z M 114.94602,125.85346 L 114.94602,121.21482 L 112.16958,120.1039 C 110.64254,119.49291 109.25921,119.12693 109.09551,119.29063 C 108.93182,119.45433 109.87831,119.94484 111.19885,120.38066 C 113.12013,121.01474 113.61411,121.53243 113.67136,122.97188 C 113.71071,123.96125 113.81035,125.22507 113.89278,125.78038 C 113.97521,126.33569 114.09445,127.623 114.15778,128.64108 C 114.38814,132.34464 114.94602,130.37171 114.94602,125.85346 z M 75.022223,123.92149 C 74.853753,123.27794 74.722023,123.963 74.729493,125.44383 C 74.736963,126.92466 74.874803,127.45119 75.035803,126.61391 C 75.196813,125.77663 75.190693,124.56504 75.022223,123.92149 z M 95.28946,118.75366 C 95.16771,115.58281 94.88843,114.11929 94.528,114.76335 C 93.98261,115.73789 94.56703,123.76106 95.1834,123.76106 C 95.34749,123.76106 95.39522,121.50773 95.28946,118.75366 z M 110.76245,122.65761 L 112.30027,122.24564 L 110.70925,121.42021 C 109.83418,120.96622 107.73903,120.06806 106.05336,119.42429 C 103.12131,118.30453 102.92673,118.3067 101.56311,119.47427 C 100.77914,120.14551 100.13772,121.2332 100.13772,121.89134 C 100.13772,122.92082 100.77234,123.08667 104.68117,123.07877 C 107.18008,123.07372 109.91665,122.88419 110.76245,122.65761 z M 98.76639,117.41144 C 97.94827,116.58981 97.64732,116.94886 97.11031,119.38726 L 96.6659,121.4052 L 98.02891,119.72243 C 98.86952,118.68463 99.15217,117.79889 98.76639,117.41144 z M 102.95634,116.57021 C 102.47045,116.37577 101.88989,116.39968 101.66623,116.62335 C 101.44256,116.84702 101.84011,117.0061 102.54968,116.97687 C 103.3338,116.94458 103.4933,116.78508 102.95634,116.57021 z M 178.73312,113.94585 C 179.58394,113.38836 180.12498,112.68131 179.93543,112.37461 C 179.5429,111.73949 183.39628,110.99049 187.11297,110.97948 C 188.48831,110.9754 191.06293,110.47612 192.83435,109.86996 C 195.02165,109.12149 198.8061,108.71831 204.62838,108.6135 C 213.87917,108.44695 215.25341,107.98742 214.72753,105.23646 C 214.20746,102.5159 213.21929,102.59369 213.21929,105.35519 C 213.21929,107.70152 213.13582,107.81154 212.12353,106.79925 C 211.21768,105.8934 211.15794,105.33003 211.77891,103.54873 C 212.19205,102.3636 212.35576,101.11194 212.14273,100.76723 C 211.92969,100.42253 211.3545,97.655519 210.86453,94.618329 C 210.37455,91.581139 209.50563,87.884569 208.9336,86.403739 C 208.36157,84.922909 207.88025,82.726899 207.864,81.523729 C 207.83348,79.263699 206.95888,78.656759 206.01687,80.241909 C 205.72081,80.740089 204.46961,81.343219 203.23641,81.582209 C 202.0032,81.821199 200.22069,82.625189 199.27528,83.368859 C 198.32986,84.112519 197.0299,84.720979 196.38647,84.720979 C 194.6733,84.720979 188.98753,87.361969 188.98753,88.157719 C 188.98753,88.532459 188.72547,88.677099 188.40518,88.479149 C 188.0849,88.281209 187.95495,87.278909 188.11642,86.251829 C 189.18984,79.423859 189.06065,79.085929 185.63848,79.770359 C 183.2527,80.247519 182.60592,81.419319 181.41985,87.413399 C 181.01695,89.449539 179.98023,92.170199 179.11602,93.459309 C 177.07269,96.507309 177.12765,96.836869 179.67934,96.836869 C 182.62233,96.836869 184.2806,98.521509 184.25439,101.48465 C 184.21876,105.51279 181.49218,107.63319 178.03721,106.31962 C 176.45766,105.71907 176.30144,105.8373 175.90872,107.93071 C 175.60052,109.57357 174.83362,110.57417 173.09762,111.59844 C 171.78462,112.37313 170.43071,112.83413 170.08892,112.62289 C 169.20435,112.0762 169.31701,112.76724 170.47871,115.01372 L 171.48993,116.9692 L 174.33805,115.96432 C 175.90451,115.41164 177.88229,114.50333 178.73312,113.94585 z M 100.13772,115.87627 C 99.58241,115.67036 98.52227,115.22322 97.78185,114.88262 C 96.45718,114.27324 96.45655,114.28008 97.74223,115.31012 C 98.46085,115.88586 99.52099,116.33299 100.09809,116.30377 C 101.00449,116.25787 101.00989,116.19965 100.13772,115.87627 z M 160.44135,113.66212 C 162.62917,112.5502 165.85908,110.35187 167.61892,108.77695 C 171.10404,105.65805 175.91039,103.68363 177.10634,104.87958 C 179.3027,107.07594 183.60269,104.55951 183.60269,101.0778 C 183.60269,99.135679 180.52948,96.948409 179.39488,98.083019 C 178.81273,98.665169 178.81542,98.856179 179.40576,98.856179 C 180.56957,98.856179 181.71946,101.40567 181.23875,102.92023 C 181.0082,103.64667 180.37497,104.24102 179.83158,104.24102 C 179.03979,104.24102 178.99225,103.96324 179.59221,102.84221 C 180.56755,101.01976 179.95874,99.529289 178.23898,99.529289 C 177.48694,99.529289 176.84773,99.150669 176.8185,98.687909 C 176.77901,98.062569 176.68143,98.052859 176.43846,98.650089 C 176.25867,99.092059 175.67335,99.285499 175.13776,99.079979 C 174.42432,98.806199 174.28153,99.041269 174.60371,99.959169 C 175.00246,101.09526 174.94037,101.11563 173.93759,100.17771 C 172.91363,99.219969 172.93148,98.947699 174.17858,96.501579 C 174.91935,95.048599 175.52544,93.473069 175.52544,93.000399 C 175.52544,92.510399 176.17642,92.209919 177.03992,92.301339 C 178.35257,92.440309 178.55441,92.147709 178.55441,90.105819 C 178.55441,87.866319 178.43804,87.748869 176.19854,87.728009 C 173.98813,87.707419 173.78033,87.510229 172.83302,84.534289 C 172.27771,82.789819 171.49103,81.360929 171.08484,81.358989 C 170.67865,81.357039 170.01764,80.673929 169.61591,79.840969 C 169.21418,79.007999 168.865,78.705099 168.83994,79.167859 C 168.76661,80.522339 167.57876,80.134829 167.09074,78.597229 C 166.75472,77.538509 166.23387,77.263339 165.0091,77.497479 C 163.97857,77.694469 163.16087,77.426029 162.79387,76.770229 C 162.07938,75.493499 153.98609,74.684409 153.98609,75.889709 C 153.98609,76.304419 153.53174,76.643719 152.97643,76.643719 C 152.42112,76.643719 151.96677,76.340819 151.96677,75.970609 C 151.96677,74.516599 149.82269,75.406649 148.73822,77.310839 C 147.57368,79.355639 147.33227,79.428369 141.70193,79.430769 C 139.95528,79.431509 139.17779,79.730129 139.17779,80.400239 C 139.17779,80.932849 138.57199,81.887329 137.83158,82.521289 C 137.09116,83.155259 136.48537,84.212429 136.48537,84.870569 C 136.48537,85.528709 136.20166,86.067189 135.85491,86.067189 C 135.50816,86.067189 135.09289,86.900159 134.93208,87.918229 C 134.77129,88.936299 134.71208,88.506839 134.80052,86.963889 C 134.90558,85.130889 134.59386,83.791039 133.90116,83.098339 C 133.0731,82.270279 133.01888,81.860279 133.65352,81.225639 C 134.28816,80.590999 134.46605,80.647869 134.46605,81.485369 C 134.46605,82.946589 135.96288,83.412709 137.02028,82.280769 C 137.51969,81.746149 137.58925,81.355449 137.18501,81.355449 C 136.80021,81.355449 136.48537,80.901109 136.48537,80.345799 C 136.48537,79.790479 136.93971,79.336139 137.49502,79.336139 C 138.16813,79.336139 138.50468,78.663029 138.50468,77.316819 C 138.50468,75.970609 138.84123,75.297509 139.51434,75.297509 C 140.15539,75.297509 140.524,75.942569 140.524,77.064409 C 140.524,78.684349 140.69895,78.796319 142.62745,78.410619 C 143.78435,78.179239 145.14738,77.989929 145.65642,77.989929 C 146.20643,77.989929 146.58194,77.273739 146.58194,76.224749 C 146.58194,74.781519 146.75516,74.603329 147.53167,75.247779 C 148.18092,75.786599 148.61941,75.812679 148.9176,75.330189 C 149.15751,74.942009 149.91648,74.624399 150.60419,74.624399 C 151.29191,74.624399 151.96185,74.302609 152.09295,73.909299 C 152.2612,73.404569 152.88464,73.404569 154.21218,73.909299 C 157.02437,74.978499 158.50025,74.779499 158.89285,73.278189 C 159.10789,72.455889 159.81097,71.931979 160.69948,71.931979 C 161.81723,71.931979 162.06098,72.225259 161.75209,73.198479 C 161.5052,73.976369 161.72357,74.608289 162.31811,74.836429 C 162.94765,75.078009 163.42985,74.635189 163.6972,73.569939 C 164.3184,71.094909 165.68135,71.510969 165.17908,74.022309 C 164.84203,75.707579 164.95732,76.037299 165.77409,75.723879 C 166.36654,75.496529 167.13134,75.886239 167.61613,76.662529 C 168.84392,78.628519 169.46749,78.282119 169.46749,75.634059 C 169.46749,74.338329 169.73703,73.278189 170.06647,73.278189 C 170.9764,73.278189 173.53488,79.134399 174.37518,83.140549 C 175.04227,86.320909 175.27792,86.659119 176.59622,86.328249 C 177.40734,86.124669 178.27336,86.285549 178.5207,86.685749 C 179.32885,87.993369 180.33663,87.510729 179.61471,86.161819 C 179.2463,85.473449 179.12383,83.807509 179.34254,82.459739 C 179.60355,80.851359 179.47863,80.009239 178.97903,80.009239 C 177.86915,80.009239 178.04614,77.340459 179.18501,76.903439 C 179.71695,76.699319 179.99643,76.126449 179.80607,75.630399 C 179.61572,75.134349 180.08919,74.099279 180.85823,73.330239 C 182.67244,71.516019 182.63837,71.435979 180.20394,71.793279 C 178.25142,72.079849 178.17434,72.003179 178.62193,70.219819 C 179.03582,68.570769 178.93854,68.404619 177.81378,68.839479 C 174.05142,70.294079 173.03417,70.118239 171.88499,67.814659 C 171.21924,66.480139 170.93086,64.853639 171.1683,63.772569 C 171.38682,62.777619 171.24499,61.765409 170.85311,61.523209 C 170.46123,61.281019 170.1406,60.040589 170.1406,58.766709 C 170.1406,56.922779 169.87424,56.450569 168.83412,56.450569 C 168.11555,56.450569 167.34043,56.147669 167.11163,55.777469 C 166.3765,54.588009 164.08266,55.012219 164.08266,56.337639 C 164.08266,57.629509 159.75436,59.459419 158.51314,58.692299 C 157.94094,58.338659 155.02907,61.136059 154.52554,62.523139 C 154.41395,62.830559 153.51823,63.281599 152.53506,63.525449 C 151.11662,63.877259 150.6596,63.691879 150.32185,62.627739 C 149.39278,59.700479 147.18305,60.428389 146.34693,63.937119 C 146.03284,65.255159 145.37131,65.813269 143.73523,66.140479 C 142.44518,66.398499 141.44974,66.295419 141.31454,65.889819 C 141.18825,65.510929 140.50436,65.200929 139.7948,65.200929 C 138.86314,65.200929 138.50468,65.674369 138.50468,66.904819 C 138.50468,67.841959 138.05034,68.783059 137.49502,68.996149 C 136.93971,69.209249 136.48537,69.964779 136.48537,70.675119 C 136.48537,71.832069 136.10284,71.931249 132.81424,71.626959 C 128.53985,71.231459 127.78823,71.867179 130.00625,74.001949 C 131.38889,75.332689 131.51604,75.837409 130.96839,77.820839 C 130.62132,79.077859 130.50102,81.623389 130.70106,83.477589 C 131.03755,86.596539 130.91011,86.990099 128.99818,88.736389 C 127.21993,90.360569 127.03789,90.822569 127.69353,92.047629 C 128.1126,92.830669 128.2755,93.471339 128.05552,93.471339 C 127.83554,93.471339 127.85185,93.788949 128.09176,94.177129 C 128.39039,94.660329 128.82498,94.636419 129.46973,94.101319 C 130.75469,93.034899 131.57635,95.115949 130.42031,96.508879 C 129.72934,97.341449 129.82998,97.509969 131.01812,97.509969 C 132.02219,97.509969 132.44674,97.931439 132.44674,98.928199 C 132.44674,99.944889 132.74818,100.23075 133.51145,99.937849 C 134.09704,99.713139 134.80182,99.529289 135.07763,99.529289 C 135.35345,99.529289 135.43934,98.576939 135.2685,97.412959 C 135.02562,95.758099 135.30789,95.027509 136.56301,94.062399 L 138.16813,92.828169 L 136.18247,92.813209 C 134.71438,92.802139 134.39373,92.601319 134.95228,92.042769 C 135.47529,91.519759 136.7076,91.472809 138.95725,91.890219 L 142.20676,92.493129 L 138.96821,94.071929 C 136.53115,95.260009 135.83643,95.922449 136.16111,96.748629 C 136.39841,97.352469 136.84792,99.390419 137.16003,101.27739 C 137.9918,106.30625 139.3321,109.0309 142.22245,111.56867 C 147.66052,116.34335 153.78181,117.04672 160.44135,113.66212 z M 147.16058,112.98343 C 143.36108,110.97589 138.50468,104.38549 138.50468,101.23688 C 138.50468,99.072619 143.7375,94.200299 149.27291,91.210499 C 153.37642,88.994099 154.71857,88.624729 159.88501,88.290019 L 165.79948,87.906829 L 166.94414,91.538079 C 168.28991,95.807369 167.96615,99.034799 165.70295,103.91107 C 163.95122,107.68533 158.92554,113.09672 156.55099,113.76543 C 153.57927,114.6023 149.59683,114.27066 147.16058,112.98343 z M 154.72928,112.99139 C 156.94996,112.99139 162.14364,108.68605 163.80982,105.46401 C 166.01125,101.20692 160.53503,99.306389 154.26824,102.15259 C 151.28218,103.50879 146.58194,107.93609 146.58194,109.39256 C 146.58194,109.89108 146.50621,110.49018 146.41366,110.7239 C 146.13594,111.42518 150.88614,113.70484 151.85355,113.33453 C 152.34659,113.1458 153.64066,112.99139 154.72928,112.99139 z M 148.51865,98.790459 C 150.97043,97.643689 153.50239,96.432099 154.14523,96.098039 C 154.78807,95.763979 155.72554,95.490659 156.2285,95.490659 C 157.89878,95.490659 159.23677,93.251549 158.89403,91.029919 C 158.5824,89.009939 158.48367,88.951439 156.44598,89.579419 C 152.48408,90.800389 144.60522,95.035979 142.80963,96.910169 C 140.91894,98.883629 140.98665,100.8755 142.94441,100.8755 C 143.55847,100.8755 146.06687,99.937229 148.51865,98.790459 z M 141.58306,90.395619 C 140.78565,89.598209 140.69716,89.020649 141.22212,88.039759 C 141.95025,86.679219 144.56262,86.220449 144.56262,87.453119 C 144.56262,87.845179 144.32099,88.016609 144.02565,87.834089 C 143.73032,87.651559 143.08572,87.751269 142.59321,88.055659 C 141.53072,88.712319 142.21006,90.105819 143.59269,90.105819 C 144.12615,90.105819 144.56262,90.408709 144.56262,90.778919 C 144.56262,91.810089 142.76647,91.579029 141.58306,90.395619 z M 149.66766,88.178329 C 149.1722,87.376669 154.84932,82.701659 156.31827,82.701659 C 157.46123,82.701659 156.40759,84.090219 154.99574,84.444569 C 154.07023,84.676859 153.31298,85.169389 153.31298,85.539069 C 153.31298,85.908749 153.76733,86.036869 154.32264,85.823769 C 154.87795,85.610679 155.3323,85.729729 155.3323,86.088309 C 155.3323,86.446899 155.21784,86.740289 155.07794,86.740289 C 154.93805,86.740289 153.74267,87.191929 152.42154,87.743939 C 151.10041,88.295939 149.86116,88.491419 149.66766,88.178329 z M 166.27025,86.929919 C 165.80749,86.763929 165.42887,85.769899 165.42887,84.720979 C 165.42887,83.672059 165.13568,82.712879 164.77733,82.589479 C 164.38123,82.453069 164.36289,81.983379 164.73056,81.391399 C 165.22851,80.589679 165.57741,80.708569 166.70591,82.064509 C 168.78941,84.567909 168.50609,87.731939 166.27025,86.929919 z M 166.8508,83.854359 C 166.3011,83.304649 166.10197,83.379979 166.10197,84.137619 C 166.10197,85.475659 167.00709,86.380779 167.34161,85.377259 C 167.48352,84.951519 167.26266,84.266209 166.8508,83.854359 z M 162.06334,85.394079 C 162.06334,85.023879 162.36624,84.720979 162.73645,84.720979 C 163.10666,84.720979 163.40955,85.023879 163.40955,85.394079 C 163.40955,85.764289 163.10666,86.067189 162.73645,86.067189 C 162.36624,86.067189 162.06334,85.764289 162.06334,85.394079 z M 164.08266,113.28057 C 164.08266,113.09547 163.47686,113.26823 162.73645,113.66449 C 161.99603,114.06075 161.39024,114.53641 161.39024,114.72151 C 161.39024,114.90662 161.99603,114.73385 162.73645,114.3376 C 163.47686,113.94134 164.08266,113.46568 164.08266,113.28057 z M 166.4662,112.2735 C 167.19064,111.10133 166.36556,110.85309 165.44237,111.96546 C 164.91146,112.60517 164.86039,112.99139 165.30672,112.99139 C 165.70041,112.99139 166.22217,112.66834 166.4662,112.2735 z M 286.63947,106.98522 C 287.72162,105.90307 288.61114,104.31286 288.6162,103.45142 C 288.62125,102.58998 288.80707,101.20732 289.02912,100.37885 C 289.32295,99.282569 289.09142,98.757319 288.17855,98.449249 C 284.54483,97.222969 283.33303,96.511249 284.08625,96.045729 C 284.58071,95.740139 283.86576,95.152269 282.2015,94.495979 C 280.72673,93.914409 277.09692,92.231949 274.13526,90.757179 C 268.87347,88.137049 266.92554,87.666699 264.76685,88.495069 C 262.97099,89.184199 263.57481,90.621219 266.305,92.155669 C 267.80992,93.001479 269.38075,94.610249 270.02896,95.969559 C 270.64557,97.262609 271.74602,98.476399 272.47439,98.666879 C 274.01954,99.070939 274.08994,99.637979 272.97709,102.71551 C 272.2907,104.61369 272.3184,105.0907 273.14537,105.61369 C 274.75429,106.63121 274.95297,106.41 275.315,103.19811 C 275.71415,99.656829 276.01491,99.202509 277.56607,99.797749 C 278.5204,100.16396 278.63349,100.85997 278.28321,104.21124 C 277.89283,107.94623 277.95921,108.2077 279.36683,108.47969 C 283.21976,109.22417 284.70591,108.91878 286.63947,106.98522 z M 277.79003,102.72654 C 277.85732,100.09348 276.63561,100.4305 276.11836,103.18769 C 275.60636,105.91689 276.43486,107.91733 277.23304,105.8791 C 277.51336,105.16326 277.76401,103.74461 277.79003,102.72654 z M 271.85276,102.68268 C 272.11859,101.68873 272.07003,100.8755 271.74487,100.8755 C 271.06754,100.8755 269.76008,103.10031 269.76008,104.25286 C 269.76008,105.70234 271.36779,104.49603 271.85276,102.68268 z M 136.48537,103.62297 C 136.48537,103.28304 136.29177,102.5004 136.05515,101.88377 C 135.71195,100.98942 135.50979,100.94424 135.05579,101.66044 C 134.17142,103.05558 134.36431,104.24102 135.47571,104.24102 C 136.03102,104.24102 136.48537,103.96289 136.48537,103.62297 z M 269.84677,101.12872 C 270.85637,99.464799 270.82312,99.192199 269.27203,96.416979 C 268.36653,94.796879 267.2968,93.471339 266.89484,93.471339 C 265.3279,93.471339 263.70214,95.760849 263.70214,97.967509 C 263.70214,99.743129 264.05339,100.36925 265.31952,100.85064 C 266.20907,101.18885 267.13564,101.78714 267.37856,102.18019 C 268.07052,103.29981 268.6894,103.03617 269.84677,101.12872 z M 251.06272,101.09865 C 257.99129,100.7552 259.00183,100.55368 259.35362,99.445299 C 259.57396,98.751079 259.55777,97.564069 259.31764,96.807509 C 259.07751,96.050939 259.26738,93.924579 259.73955,92.082249 C 260.47837,89.199539 260.45533,88.589839 259.57425,87.708769 C 258.72981,86.864329 258.20576,86.825459 256.58284,87.486929 C 255.3738,87.979709 250.07396,88.343139 242.8359,88.429609 C 228.98134,88.595109 225.75186,89.046379 222.9101,91.213899 C 221.58625,92.223649 220.32779,92.670089 219.53362,92.411709 C 218.5871,92.103769 218.69227,92.351609 219.95034,93.393719 C 221.10434,94.349629 221.31585,94.795559 220.62344,94.812889 C 219.72597,94.835359 219.72597,94.910659 220.62344,95.490659 C 221.52092,96.070649 221.52092,96.143709 220.62344,96.148209 C 219.72229,96.152719 217.93103,93.386889 217.93103,91.990939 C 217.93103,91.694539 218.67251,91.452029 219.57875,91.452029 C 220.81686,91.452029 224.28897,88.397729 233.54567,79.165819 C 240.32123,72.408399 248.54432,64.371989 251.81919,61.307129 C 256.76945,56.674339 257.63521,55.568019 256.95333,54.746409 C 256.50224,54.202869 255.7254,53.758149 255.22704,53.758149 C 254.65179,53.758149 254.47526,53.328029 254.7436,52.580219 C 254.97607,51.932349 254.94132,51.604219 254.66638,51.851019 C 254.39144,52.097829 253.5739,51.707159 252.8496,50.982869 C 251.54249,49.675749 251.51792,49.676509 249.539,51.085629 C 248.44245,51.866439 246.56139,53.739499 245.35886,55.247989 C 244.15633,56.756479 241.98024,59.082929 240.5231,60.417879 C 239.06596,61.752829 234.10155,66.328389 229.49107,70.585769 C 222.69836,76.858279 220.77516,78.290739 219.35144,78.138059 C 213.5025,77.510809 209.86962,77.471019 210.22006,78.038039 C 210.43601,78.387469 210.13091,79.155159 209.54205,79.744019 C 208.36286,80.923209 208.63308,84.109209 210.22108,87.749949 C 210.70551,88.860569 211.29123,91.132299 211.52268,92.798239 C 211.75413,94.464169 212.27436,97.213459 212.67874,98.907759 L 213.41398,101.9883 L 228.29321,101.73904 C 236.4768,101.60195 246.72308,101.31377 251.06272,101.09865 z M 263.01873,94.649279 C 263.00132,93.228539 261.8748,91.927039 261.08498,92.415169 C 259.77084,93.227359 260.21081,95.490659 261.68283,95.490659 C 262.42324,95.490659 263.0244,95.112039 263.01873,94.649279 z M 190.94148,71.890999 C 191.71545,69.462099 193.6558,64.171049 195.25339,60.133099 C 198.12974,52.863039 198.18346,52.786099 200.75597,52.251609 C 204.0757,51.561869 204.88358,50.857919 206.88251,46.913209 C 207.78202,45.138129 209.27287,43.191159 210.19553,42.586609 C 213.88886,40.166639 211.15226,38.586519 206.95965,40.718209 C 204.22472,42.108749 204.50526,41.790399 203.37197,44.789429 L 202.3992,47.363649 L 202.79146,44.839509 L 203.18373,42.315369 L 199.74345,42.315369 C 193.53125,42.315369 192.63446,43.870299 194.74595,50.980459 C 195.68648,54.147559 195.68876,54.862399 194.76845,58.028149 C 194.20515,59.965849 192.37757,64.338459 190.70717,67.745069 C 187.0334,75.237329 186.44926,77.250489 187.71849,78.045129 C 188.75983,78.697099 188.79278,78.634179 190.94148,71.890999 z M 260.16834,51.314589 C 261.71145,50.901049 262.20209,49.446789 261.04068,48.728999 C 259.88447,48.014419 257.10582,49.131609 256.76115,50.449629 C 256.4013,51.825719 257.35635,52.068169 260.16834,51.314589 z M 257.25012,48.215339 C 257.65197,47.943359 258.81372,47.716179 259.83179,47.710509 C 260.84986,47.704849 261.68283,47.361999 261.68283,46.948629 C 261.68283,46.494269 262.4046,46.335029 263.508,46.545959 C 264.70798,46.775349 265.59691,46.534199 266.10308,45.841959 C 267.1813,44.367409 269.08698,45.285509 269.08698,47.279509 C 269.08698,49.526049 271.39111,48.916429 272.43618,46.393389 C 273.68725,43.373049 271.7422,38.276739 269.3384,38.276739 C 267.71862,38.276739 260.93524,41.588139 258.33291,43.649219 C 256.92205,44.766639 255.28123,45.680889 254.68664,45.680889 C 253.42763,45.680889 253.31709,46.853799 254.32601,49.507429 C 255.01249,51.312969 255.08116,51.338829 255.78297,50.056069 C 256.18806,49.315659 256.84827,48.487329 257.25012,48.215339 z M 264.37525,48.293859 C 264.37525,47.553449 264.07235,47.134849 263.70214,47.363649 C 263.33193,47.592459 263.02904,48.385449 263.02904,49.125869 C 263.02904,49.866279 263.33193,50.284879 263.70214,50.056069 C 264.07235,49.827269 264.37525,49.034279 264.37525,48.293859 z M 268.41387,48.076479 C 268.41387,47.172809 268.13278,46.259719 267.78923,46.047389 C 267.03,45.578169 266.13928,48.088819 266.72739,49.040389 C 267.49012,50.274519 268.41387,49.746549 268.41387,48.076479 z M 195.09508,39.746169 C 194.55812,37.738329 192.35305,36.823189 192.35305,38.608189 C 192.35305,40.420629 193.65379,42.290559 194.64892,41.908699 C 195.2999,41.658889 195.43347,41.011509 195.09508,39.746169 z M 198.64528,39.066019 C 198.48275,35.583759 197.7891,33.564999 196.75513,33.564999 C 195.20286,33.564999 195.02266,34.537889 195.89487,38.209669 C 196.48303,40.685669 197.00898,41.617749 197.73314,41.467469 C 198.41352,41.326269 198.71387,40.535499 198.64528,39.066019 z M 201.10341,36.257419 C 201.10341,32.517949 200.89507,31.545689 200.09375,31.545689 C 198.99093,31.545689 198.78409,34.016199 199.51613,38.445009 C 200.19776,42.568849 201.10341,41.320679 201.10341,36.257419 z M 205.13976,38.108459 C 205.53725,36.535079 206.30617,34.026049 206.84847,32.532839 C 208.13336,28.994879 208.1115,28.853269 206.28035,28.853269 C 203.30604,28.853269 202.48062,30.188489 202.01527,35.752589 C 201.5975,40.747619 201.63924,40.969159 202.99801,40.969159 C 204.10536,40.969159 204.57579,40.340819 205.13976,38.108459 z M 112.2536,82.365109 C 112.2536,81.809799 112.37265,81.355449 112.51814,81.355449 C 112.66364,81.355449 112.95702,81.809799 113.17012,82.365109 C 113.38321,82.920419 113.26417,83.374769 112.90558,83.374769 C 112.54699,83.374769 112.2536,82.920419 112.2536,82.365109 z M 115.39434,80.445289 C 115.10002,79.019179 115.02306,77.688519 115.22333,77.488259 C 115.83324,76.878339 116.40676,79.105889 116.16104,81.130319 C 115.94531,82.907639 115.89284,82.860759 115.39434,80.445289 z M 136.80589,55.360779 C 137.40528,54.761399 138.06304,54.438349 138.26758,54.642889 C 138.86678,55.242099 137.84163,56.450569 136.73411,56.450569 C 135.85506,56.450569 135.86486,56.301819 136.80589,55.360779 z"
       id="path2659" />
  </g>
</svg>
