<?xml version="1.0" encoding="UTF-8" standalone="no"?>
<!-- Created with Inkscape (http://www.inkscape.org/) -->
<svg
   xmlns:dc="http://purl.org/dc/elements/1.1/"
   xmlns:cc="http://creativecommons.org/ns#"
   xmlns:rdf="http://www.w3.org/1999/02/22-rdf-syntax-ns#"
   xmlns:svg="http://www.w3.org/2000/svg"
   xmlns="http://www.w3.org/2000/svg"
   xmlns:sodipodi="http://sodipodi.sourceforge.net/DTD/sodipodi-0.dtd"
   xmlns:inkscape="http://www.inkscape.org/namespaces/inkscape"
   width="727.7121"
   height="374.5668"
   id="svg2"
   sodipodi:version="0.32"
   inkscape:version="0.46"
   sodipodi:docname="liste2.svg"
   inkscape:output_extension="org.inkscape.output.svg.inkscape"
   version="1.0">
  <defs
     id="defs4">
    <inkscape:perspective
       sodipodi:type="inkscape:persp3d"
       inkscape:vp_x="0 : 526.18109 : 1"
       inkscape:vp_y="0 : 1000 : 0"
       inkscape:vp_z="744.09448 : 526.18109 : 1"
       inkscape:persp3d-origin="372.04724 : 350.78739 : 1"
       id="perspective10" />
  </defs>
  <sodipodi:namedview
     id="base"
     pagecolor="#ffffff"
     bordercolor="#666666"
     borderopacity="1.0"
     inkscape:pageopacity="0.0"
     inkscape:pageshadow="2"
     inkscape:zoom="0.35"
     inkscape:cx="375"
     inkscape:cy="176.86177"
     inkscape:document-units="px"
     inkscape:current-layer="layer1"
     showgrid="false"
     inkscape:window-width="839"
     inkscape:window-height="719"
     inkscape:window-x="50"
     inkscape:window-y="25" />
  <metadata
     id="metadata7">
    <rdf:RDF>
      <cc:Work
         rdf:about="">
        <dc:format>image/svg+xml</dc:format>
        <dc:type
           rdf:resource="http://purl.org/dc/dcmitype/StillImage" />
      </cc:Work>
    </rdf:RDF>
  </metadata>
  <g
     inkscape:label="Calque 1"
     inkscape:groupmode="layer"
     id="layer1"
     transform="translate(-14.592622,-84.617381)">
    <text
       xml:space="preserve"
       style="font-size:63.39775085px;font-style:normal;font-variant:normal;font-weight:normal;font-stretch:normal;fill:#000049;fill-opacity:1;stroke:none;stroke-width:1px;stroke-linecap:butt;stroke-linejoin:miter;stroke-opacity:1;font-family:Domestic Manners;-inkscape-font-specification:Domestic Manners"
       x="9.5777607"
       y="135.91136"
       id="text2383"><tspan
         sodipodi:role="line"
         id="tspan2385"
         x="9.5777607"
         y="135.91136">Donner à manger au chat</tspan><tspan
         sodipodi:role="line"
         x="9.5777607"
         y="215.15855"
         id="tspan2387">Changer la litière</tspan><tspan
         sodipodi:role="line"
         x="9.5777607"
         y="294.40573"
         id="tspan2389">Prendre une douche</tspan><tspan
         sodipodi:role="line"
         x="9.5777607"
         y="373.65292"
         id="tspan2391">Ranger ma chambre</tspan><tspan
         sodipodi:role="line"
         x="9.5777607"
         y="452.90012"
         id="tspan2393">Faire une ballade à vélo</tspan></text>
    <path
       style="fill:#000049;fill-opacity:1;fill-rule:nonzero;stroke:none;stroke-width:1px;stroke-linecap:butt;stroke-linejoin:miter;stroke-opacity:1"
       id="path2399"
       d="M 615.9923,348.78058 C 614.49696,350.64388 612.3171,352.33753 610.02329,353.97492 C 597.59464,361.39216 596.23929,359.32419 567.3687,367.31815 C 566.15354,367.18666 565.78454,366.33751 564.88294,366.04635 C 564.65729,365.97348 564.50851,366.25812 564.2517,366.29709 C 563.83734,366.13749 563.42298,365.97789 563.00862,365.81829 C 560.18257,365.16873 557.89322,364.98814 555.43231,363.97321 C 553.83607,363.43164 552.22397,363.35145 550.37544,363.30242 C 548.14548,363.24974 549.39413,363.24747 548.56068,363.89822 C 548.17835,364.19674 547.29489,364.21417 546.66152,364.37167 C 544.02886,365.24108 541.5079,364.49394 538.77787,364.11013 C 534.03483,363.40084 529.3503,362.64351 524.46996,362.15157 C 521.42919,362.08847 519.21431,360.96373 516.39985,360.53804 C 514.79779,360.47421 513.20148,360.41516 511.59588,360.46896 C 511.27617,360.63931 510.54445,360.33266 510.21301,360.49376 C 509.97111,360.61134 510.11498,360.85643 509.8656,360.96999 C 508.90608,361.40689 506.23964,361.39708 505.09418,361.47464 C 501.88889,361.97281 498.30285,361.54717 495.26595,362.22354 C 492.0886,362.87363 488.54807,363.16772 485.12686,363.2834 C 482.58838,363.42403 480.03593,363.37795 477.48894,363.34173 C 473.94419,363.388 470.47835,363.38192 467.0167,362.97968 C 463.15232,362.57978 459.27933,362.10414 455.33848,361.93816 C 452.90833,362.02713 450.36335,362.74622 448.01711,363.25874 C 444.47231,363.22472 442.49005,363.26737 439.22703,363.98452 C 436.16552,364.53303 432.97159,364.65449 429.76094,364.76464 C 429.35087,364.77854 428.92845,364.85837 428.53073,364.80632 C 427.42925,364.66218 426.50089,364.27685 425.41706,364.10219 C 423.76036,363.83522 422.03674,363.68432 420.32331,363.5497 C 418.37524,363.43188 416.41207,363.29688 414.44472,363.32165 C 414.53055,363.54233 414.88017,363.77736 414.70222,363.98369 C 414.54695,364.16372 411.30315,364.67278 410.26322,364.90508 C 394.36441,367.941 458.92408,347.99799 442.87685,355.93826 C 422.48634,333.71366 417.28283,367.22863 401.62247,367.36998 C 400.09408,367.38377 398.10297,366.93105 396.6587,366.68366 C 394.23975,366.17545 391.7339,366.41793 389.37787,365.82937 C 387.10335,364.96297 384.73927,364.91075 382.00089,364.80662 C 381.32374,365.06685 380.17685,364.53101 379.46812,364.76188 C 379.16833,364.85954 379.3055,365.12145 379.09577,365.26673 C 378.9019,365.40103 378.57578,365.47156 378.30575,365.56709 C 378.03261,365.6637 377.74672,365.75091 377.46721,365.84282 C 389.17692,362.451 400.88664,359.05918 412.59635,355.66736 C 399.58186,360.32084 408.19754,357.27474 373.67322,366.98891 C 373.64858,366.99585 370.51436,367.38247 370.41351,367.41121 C 369.99466,367.5306 369.74636,367.76014 369.41278,367.9346 C 368.97234,368.05094 368.53189,368.16727 368.09145,368.2836 C 365.49253,368.82691 363.10283,369.55751 360.38112,369.96217 C 357.19124,369.73159 354.03512,369.40914 350.84572,369.17773 C 347.17154,369.21748 343.77705,368.90171 340.24824,368.42723 C 337.19411,368.05214 334.13806,367.70204 330.99167,367.64665 C 328.43725,367.61867 325.88299,367.63987 323.32828,367.61844 C 319.14362,367.37564 314.74563,367.97853 310.74656,367.27586 C 306.63394,366.74178 303.44335,365.46395 300.62288,363.92938 C 299.55208,363.50549 297.66311,363.15321 297.66273,363.15663 C 297.63313,363.42412 297.68557,364.04629 298.15714,363.92104 C 310.49318,360.64459 322.32032,356.90617 334.40191,353.39874 C 334.13361,353.34448 333.49502,353.3172 333.38966,353.5424 C 329.361,362.1533 342.78114,352.07755 295.08555,366.09161 C 289.2158,367.48845 283.27391,368.76849 277.19394,369.91634 C 274.06315,370.63944 270.7033,370.54141 267.35955,370.55597 C 265.82132,370.23425 263.37289,370.90549 261.90117,370.55255 C 260.04614,370.10769 261.19657,369.79737 260.28518,370.1046 C 260.10453,371.34296 261.19164,370.64471 257.5608,370.51586 C 256.48213,370.6832 254.86072,370.30562 253.82098,370.54384 C 251.6439,371.04264 254.80392,370.98401 251.74382,371.19407 C 250.8476,371.25559 249.9352,371.21528 249.03089,371.22588 C 240.16493,370.65478 231.12351,371.02633 222.311,370.29678 C 217.9289,369.62596 217.49151,369.53618 213.81764,370.36018 C 204.1921,376.79134 259.99913,357.3424 248.44483,360.58885 C 227.91418,366.35742 223.19824,370.49262 206.96232,371.86861 C 204.20197,371.93821 201.43615,372.00288 198.67124,371.97681 C 195.55578,372.15004 193.01019,371.80808 190.13343,371.27158 C 187.5856,370.86482 185.03373,370.55461 182.36394,370.51846 C 177.24904,369.48495 171.76418,368.95546 166.68176,367.87838 C 163.8693,367.26721 161.35812,365.96645 158.77011,367.29862 C 158.48571,367.33974 158.20765,367.44977 157.91691,367.422 C 157.26087,367.35933 156.70113,367.13966 156.06344,367.04009 C 153.35978,366.61792 150.35875,366.54113 147.55977,366.38283 C 146.19392,366.55312 144.05611,365.93585 142.73159,366.22371 C 142.40314,366.29508 141.82255,366.75856 142.13691,366.67264 C 179.40756,356.48737 191.79789,356.28661 177.46922,356.57338 C 172.91033,358.57728 170.91657,361.55446 166.99968,363.8592 C 146.82936,371.00659 135.36173,375.84413 114.12096,376.23364 C 108.96011,376.34247 104.02869,376.34113 99.063245,375.62555 C 95.567351,375.22827 92.317935,374.91807 89.097471,374.13419 C 86.73911,373.62574 84.318087,373.41107 81.774446,373.37662 C 81.380693,373.37318 80.971438,373.42134 80.593187,373.3663 C 79.486559,373.20525 78.513766,372.85547 77.409459,372.69045 C 75.715405,372.4373 73.951868,372.28693 72.216952,372.12503 C 68.746171,372.26405 66.002964,371.48273 62.812464,371.01186 C 60.152998,370.62373 57.377167,370.52832 54.622634,370.50148 C 53.174471,370.29636 51.339123,370.74674 49.922156,370.5097 C 48.94229,370.34578 48.120579,369.9996 47.18044,369.78488 C 43.438997,368.51759 38.90977,367.70544 35.671051,366.1106 C 33.215072,364.7176 31.758704,362.98551 29.768555,361.42664 C 28.229053,360.13862 25.865601,359.20489 23.486976,358.3317 C 23.338807,358.30944 20.931119,357.45555 20.78547,357.53924 C 20.544195,357.67789 20.576249,358.17291 20.902106,358.08852 C 58.800423,348.27279 69.443582,351.67973 57.068572,347.84169 C 56.847991,347.82009 56.358388,347.7834 56.205039,347.92042 C 55.79336,348.28824 56.369965,348.76258 56.559093,349.17369 C 44.094163,352.64022 31.629233,356.10675 19.164304,359.57328 C 18.686869,359.25984 18.209434,358.94639 17.731999,358.63294 L 53.886061,347.32263 C 53.724737,347.14624 53.563413,346.96985 53.402089,346.79345 C 41.250804,350.24283 28.797044,353.4363 16.948234,357.14159 C 16.44056,357.30035 17.573734,357.68767 18.095729,357.83424 C 18.991784,358.08586 16.823434,356.32082 17.848494,356.29251 C 17.812034,346.57205 47.610681,341.09663 59.259327,347.04927 C 61.878371,348.17829 64.499549,349.28685 66.220579,350.82455 C 67.803872,352.26595 69.403972,353.72213 71.551957,354.97243 C 74.672712,356.29085 78.378749,357.30701 82.262711,357.92099 C 84.416683,358.23194 86.814518,357.88903 89.070557,358.12373 C 91.988753,358.30744 94.87622,358.61274 97.657268,359.10163 C 100.69315,359.61741 103.73651,359.76807 106.89025,360.05251 C 109.99233,360.46589 113.05745,361.00167 116.27254,361.06973 C 119.05808,361.3141 121.66665,361.81412 124.24697,362.39017 C 127.26114,362.97014 130.58235,363.11296 133.6419,363.64732 C 138.26704,364.12747 143.06245,363.87014 147.74765,363.7944 C 165.61968,362.93167 185.08691,355.03098 128.49622,371.79907 C 133.3842,369.97421 135.74566,367.44625 138.06437,364.67472 C 145.61222,355.37112 165.7187,352.67403 181.90888,354.20214 C 185.43906,354.4868 189.115,355.00865 192.48056,354.27871 C 195.74535,354.51989 198.33614,355.55489 201.28965,356.22185 C 206.30316,357.13479 211.52059,357.91931 216.83172,358.20982 C 219.62046,358.43942 222.24206,358.96824 224.96821,359.33379 C 227.55977,359.62888 230.2417,359.41628 232.88859,359.45587 C 235.46914,359.39593 238.09586,359.39 240.56705,358.95999 C 242.12072,358.68896 241.43886,358.84379 242.94309,358.42791 C 243.30346,358.32827 244.376,358.02169 244.02031,358.12548 C 232.34556,361.53226 197.46141,371.8705 208.98576,368.33692 C 221.23263,364.5818 233.70194,361.01128 246.18837,357.46071 C 246.58741,357.34724 247.09763,357.4005 247.55226,357.3704 C 250.6075,357.20405 253.17219,358.12462 256.17383,358.32932 C 264.79085,358.92543 273.69035,359.13491 282.33069,358.62519 C 285.53827,358.10031 288.30769,357.863 291.67769,357.94791 C 294.61111,357.71142 292.97338,356.99505 295.44643,357.9926 C 296.54126,358.39948 299.62079,357.88808 301.43596,358.03215 C 304.4617,357.93798 307.31472,357.55118 310.1183,356.97156 C 316.22453,355.82365 322.14824,354.4363 327.82211,352.82105 C 316.35672,356.20551 304.77197,359.49001 293.42594,362.97445 C 292.91059,363.13272 294.97532,363.30014 295.23519,363.02627 C 295.49737,362.74998 294.64146,361.99174 295.06413,361.69277 C 324.08687,353.13893 323.10901,346.20956 336.81342,352.94729 C 339.00794,354.27365 341.90942,354.94848 345.31579,355.17949 C 349.36562,355.17946 353.41837,355.26595 357.46697,355.16341 C 360.12353,355.14386 362.78467,355.14955 365.42201,355.33532 C 368.59028,355.57082 371.6092,356.12059 374.74729,356.4389 C 378.32245,356.7941 381.96357,356.61788 385.5493,356.94832 C 388.1957,357.20049 391.03506,357.56619 393.50968,356.85872 C 395.98426,356.1943 398.60156,355.74427 400.95848,354.96911 C 402.33018,354.57043 403.70146,354.47012 405.10797,354.11863 C 421.00406,350.14615 357.28218,367.14085 373.2371,363.44582 C 385.67879,359.79848 398.09605,356.13003 410.56218,352.50379 C 410.87585,352.41254 412.30212,352.15991 412.63094,352.16981 C 413.84107,352.20621 415.15073,352.66187 416.43206,352.56655 C 419.25492,352.80703 421.76688,353.26138 424.3168,353.89129 C 426.78871,353.95873 429.1761,354.2123 431.52114,354.60483 C 433.91276,354.75454 435.83126,354.17024 437.94456,353.64779 C 426.50244,356.99243 415.06032,360.33708 403.6182,363.68173 C 417.74437,360.78385 429.12349,354.57835 443.6335,351.62594 C 444.29355,351.47936 447.57676,350.54056 447.82268,350.5436 C 448.34176,350.55004 448.75964,350.76851 449.22812,350.88097 C 451.09113,351.092 452.97875,351.24503 454.84233,351.4551 C 457.79775,351.79418 460.6996,352.45218 463.71869,352.12484 C 466.74715,351.93494 469.66891,351.51164 472.55156,351.01464 C 475.51325,350.69544 478.71372,350.87939 481.44845,350.12542 C 484.27909,349.69349 486.96573,349.29994 489.92946,349.70842 C 493.65984,350.10439 497.33734,350.63776 501.13121,350.87658 C 504.63283,350.92718 508.13177,350.83452 511.6349,350.87234 C 514.08497,350.82965 516.53527,350.77838 518.96479,350.60274 C 522.28058,350.27948 525.51904,349.86202 528.76675,349.40469 C 532.0568,349.28241 535.33637,349.09744 538.54478,348.69501 C 541.20204,348.27208 543.28854,347.62617 546.10698,347.97373 C 548.012,348.08503 549.90544,348.31967 551.6742,348.69348 C 554.07845,349.3093 556.22818,350.04365 559.02406,350.16652 C 563.73726,350.85134 568.4173,351.64116 573.26916,352.03693 C 575.93075,352.1914 577.57192,351.73405 579.80154,351.09443 C 582.16652,350.53328 582.77833,350.72631 585.18724,351.05124 C 587.4054,351.36629 589.40029,351.89046 591.24172,352.59087 C 593.43082,353.28347 596.27782,353.41219 598.46169,354.15733 C 600.16588,354.27775 601.81419,355.59056 601.38778,354.48763 C 589.39189,357.90599 577.396,361.32434 565.40012,364.7427 C 566.5392,364.44155 568.05197,364.12201 568.98429,363.67351 C 569.8957,363.23505 570.32154,362.5809 571.2411,362.14668 C 574.11192,360.96142 575.58966,359.34012 577.60989,357.83334 L 615.9923,348.78058 z" />
  </g>
</svg>
