<?xml version="1.0" encoding="UTF-8" standalone="no"?>
<!-- Created with Inkscape (http://www.inkscape.org/) -->
<svg
   xmlns:dc="http://purl.org/dc/elements/1.1/"
   xmlns:cc="http://creativecommons.org/ns#"
   xmlns:rdf="http://www.w3.org/1999/02/22-rdf-syntax-ns#"
   xmlns:svg="http://www.w3.org/2000/svg"
   xmlns="http://www.w3.org/2000/svg"
   xmlns:sodipodi="http://sodipodi.sourceforge.net/DTD/sodipodi-0.dtd"
   xmlns:inkscape="http://www.inkscape.org/namespaces/inkscape"
   width="375.41986"
   height="384.75516"
   id="svg4625"
   sodipodi:version="0.32"
   inkscape:version="0.46"
   version="1.0"
   sodipodi:docname="ouroboros.svg"
   inkscape:output_extension="org.inkscape.output.svg.inkscape">
  <defs
     id="defs4627">
    <inkscape:perspective
       sodipodi:type="inkscape:persp3d"
       inkscape:vp_x="0 : 526.18109 : 1"
       inkscape:vp_y="0 : 1000 : 0"
       inkscape:vp_z="744.09448 : 526.18109 : 1"
       inkscape:persp3d-origin="372.04724 : 350.78739 : 1"
       id="perspective4633" />
    <inkscape:perspective
       id="perspective4730"
       inkscape:persp3d-origin="372.04724 : 350.78739 : 1"
       inkscape:vp_z="744.09448 : 526.18109 : 1"
       inkscape:vp_y="0 : 1000 : 0"
       inkscape:vp_x="0 : 526.18109 : 1"
       sodipodi:type="inkscape:persp3d" />
  </defs>
  <sodipodi:namedview
     id="base"
     pagecolor="#ffffff"
     bordercolor="#666666"
     borderopacity="1.0"
     inkscape:pageopacity="0.0"
     inkscape:pageshadow="2"
     inkscape:zoom="0.7"
     inkscape:cx="349.2718"
     inkscape:cy="154.12111"
     inkscape:document-units="px"
     inkscape:current-layer="layer1"
     showgrid="false"
     inkscape:window-width="640"
     inkscape:window-height="675"
     inkscape:window-x="176"
     inkscape:window-y="98" />
  <metadata
     id="metadata4630">
    <rdf:RDF>
      <cc:Work
         rdf:about="">
        <dc:format>image/svg+xml</dc:format>
        <dc:type
           rdf:resource="http://purl.org/dc/dcmitype/StillImage" />
      </cc:Work>
    </rdf:RDF>
  </metadata>
  <g
     inkscape:label="Calque 1"
     inkscape:groupmode="layer"
     id="layer1"
     transform="translate(-152.86255,-448.23462)">
    <g
       id="g4747">
      <path
         sodipodi:nodetypes="csssssssssssssccccssszsssssc"
         id="path4738"
         d="M 340.92227,450.30156 C 314.07039,452.32186 308.98132,458.43193 285.32077,466.05894 C 256.42237,475.37437 225.75091,490.08866 208.47433,507.6435 C 173.92117,542.75319 154.05663,588.71999 154.05663,642.25 C 154.05663,695.78001 172.91101,744.26438 207.46417,779.36626 C 242.01734,814.46813 289.7439,832.1469 342.4375,832.14689 C 395.1311,832.14688 439.32994,812.44782 473.89092,777.34595 C 508.4519,742.24407 525.79886,697.29523 525.79886,643.76523 C 525.79885,630.38273 526.1352,618.67248 523.06923,606.57095 C 520.00327,594.46942 518.58577,580.46138 513.05779,569.55436 C 507.5298,558.64733 503.44716,548.31594 496.06108,538.51695 C 488.675,528.71796 480.51085,519.45137 471.87061,510.67395 C 463.23037,501.89653 452.90519,494.2135 441.73275,487.50652 C 430.56032,480.79954 416.98482,479.13833 406.00628,472.21567 C 393.47194,464.31197 379.91786,471.40812 377.79849,458.0304 C 363.95567,456.40451 349.63912,452.21738 340.92227,450.30156 z M 338.8961,480.61326 C 349.87393,480.61326 364.64954,478.65304 373.51565,471.61154 C 383.897,473.66142 398.47037,476.69095 408.03359,480.60954 C 417.5968,484.52813 430.23107,493.3764 438.75452,498.98253 C 447.27796,504.58866 454.72104,513.51866 461.98307,520.63117 C 491.03122,549.0812 507.08122,575.80135 507.08122,643.75936 C 507.08122,711.71737 454.82971,797.45694 341.45737,801.26296 C 297.57077,802.73628 254.70625,782.45815 226.41573,753.75558 C 198.1252,725.053 180.8125,685.02409 180.8125,639.71875 C 180.8125,594.4134 198.37774,554.63703 226.9208,526.18699 C 241.19234,511.96198 258.6448,501.54963 277.14535,492.73136 C 325.3768,469.7419 316.94043,480.61326 338.8961,480.61326 z"
         style="opacity:1;fill:#00ff00;fill-opacity:1;fill-rule:nonzero;stroke:none;stroke-width:1.72099996;stroke-linecap:square;stroke-linejoin:miter;marker:none;marker-start:none;marker-mid:none;marker-end:none;stroke-miterlimit:4;stroke-dasharray:6.884, 3.442, 1.721, 3.442;stroke-dashoffset:0;stroke-opacity:1;visibility:visible;display:inline;overflow:visible;enable-background:accumulate" />
      <path
         id="path4745"
         d="M 341.41188,459.76919 C 340.70471,460.77283 341.18067,462.75301 339.60466,463.13111 C 337.81322,463.72126 336.4504,461.06143 334.7433,462.13674 C 333.41588,463.83607 335.10386,466.46304 337.09506,466.68242 C 339.54908,467.16284 343.25297,466.50141 343.75575,463.56516 C 343.90654,462.09094 343.15941,460.52738 342.00377,459.65871 C 341.80647,459.69553 341.60918,459.73236 341.41188,459.76919 z"
         style="opacity:1;fill:#ffff00;fill-opacity:1;fill-rule:nonzero;stroke:none;stroke-width:1.72099996;stroke-linecap:square;stroke-linejoin:miter;marker:none;marker-start:none;marker-mid:none;marker-end:none;stroke-miterlimit:4;stroke-dasharray:6.884, 3.442, 1.721, 3.442;stroke-dashoffset:0;stroke-opacity:1;visibility:visible;display:inline;overflow:visible;enable-background:accumulate" />
      <path
         id="path4736"
         d="M 319.07143,832.52366 C 312.77733,831.69276 296.02692,827.98776 295.07143,827.21516 C 294.52143,826.77036 291.82143,826.07626 289.07143,825.67266 C 286.32143,825.26906 280.02143,823.38366 275.07143,821.48286 C 270.12143,819.58206 263.97657,817.39036 261.41619,816.61246 C 258.8558,815.83456 255.7058,814.08566 254.41619,812.72596 C 253.12657,811.36636 251.33889,810.24606 250.44355,810.23656 C 247.44303,810.20476 242.09799,807.41096 239.18089,804.34986 C 237.59109,802.68146 234.89109,801.01426 233.18089,800.64486 C 231.47069,800.27546 228.22444,798.27976 225.96701,796.20986 C 223.70957,794.14006 220.94181,792.15426 219.81642,791.79706 C 218.69103,791.43986 217.50444,790.08856 217.17955,788.79406 C 216.82834,787.39476 215.58811,786.18936 214.1206,785.82106 C 211.27618,785.10716 198.33729,772.00556 189.82436,761.21936 C 185.06956,755.19476 175.57143,740.71746 175.57143,739.49456 C 175.57143,738.85216 174.04262,735.71486 172.17408,732.52286 C 170.30553,729.33096 168.26218,724.69433 167.6333,722.21933 C 167.00442,719.74433 165.13876,714.7162 163.48739,711.04571 C 161.83602,707.37522 160.0335,701.56913 159.48178,698.1433 C 158.93007,694.71747 157.96979,690.9706 157.34783,689.81692 C 155.26756,685.95823 152.15466,651.10913 153.00685,641.21933 C 153.3149,637.64433 153.80981,629.38933 154.10665,622.87488 C 154.40349,616.36044 155.25783,609.2556 156.0052,607.08636 C 156.75256,604.91712 157.15339,602.33676 156.89594,601.35224 C 156.63848,600.36772 157.18452,596.67255 158.10938,593.14076 C 159.03423,589.60897 159.97233,585.36933 160.19404,583.71933 C 161.16543,576.4902 161.72156,574.70945 163.91559,571.80284 C 165.19575,570.10691 166.86024,565.90506 167.61444,562.46539 C 168.51468,558.35975 169.9451,555.16107 171.77858,553.15367 C 173.31465,551.47189 174.57143,549.20132 174.57143,548.10795 C 174.57143,545.26266 176.9086,541.17975 180.48215,537.78224 C 182.18126,536.16684 183.57143,533.95752 183.57143,532.87265 C 183.57143,531.78778 185.93393,528.3609 188.82143,525.25735 C 191.70893,522.15381 196.44203,517.05063 199.33942,513.91694 C 202.23681,510.78326 205.22986,508.21933 205.99064,508.21933 C 206.75142,508.21933 208.29925,506.65095 209.43025,504.73403 C 211.32945,501.51513 221.10821,494.21933 223.52339,494.21933 C 224.09981,494.21933 224.57143,493.53319 224.57143,492.69458 C 224.57143,491.85597 225.75901,490.71831 227.21049,490.16646 C 228.66198,489.6146 231.17151,488.05074 232.78722,486.69121 C 234.40293,485.33168 236.36535,484.21933 237.14816,484.21933 C 237.93096,484.21933 238.57143,483.87549 238.57143,483.45523 C 238.57143,483.03498 240.25893,481.88727 242.32143,480.90478 C 246.99277,478.67954 249.95002,476.97994 251.75048,475.4857 C 253.88738,473.71222 265.28463,468.21933 266.82751,468.21933 C 267.58006,468.21933 270.05856,467.31933 272.33529,466.21933 C 274.61203,465.11933 277.38072,464.21933 278.48794,464.21933 C 279.59516,464.21933 280.95091,463.37878 281.50073,462.35143 C 282.70519,460.10087 285.99345,459.3235 298.86566,458.24624 C 306.94669,457.56994 309.35924,456.96375 312.65804,454.78071 C 317.65646,451.47292 330.16024,448.25491 338.09307,448.23468 C 345.0983,448.21682 356.78345,451.19625 359.55882,453.70792 C 361.14532,455.14368 362.01968,455.25872 364.57508,454.3679 C 371.20379,452.05712 380.18776,456.55607 380.75827,462.47205 C 381.04121,465.40597 381.35237,465.68911 383.98276,465.40619 C 389.32063,464.83205 400.50172,467.29123 403.35977,469.66798 C 404.85118,470.90824 407.19643,472.17026 408.57143,472.47247 C 416.15437,474.13912 421.79323,476.13088 422.86171,477.52009 C 423.52706,478.38514 426.99643,480.05291 430.57143,481.22623 C 434.14643,482.39955 438.76028,484.70029 440.82443,486.33897 C 442.88859,487.97766 445.82587,489.85861 447.35172,490.51887 C 454.1114,493.44385 460.61993,498.47737 470.96513,508.78082 C 483.17505,520.94148 493.44067,532.1823 495.04051,535.14331 C 495.60752,536.19273 497.27466,537.99485 498.74527,539.14801 C 500.23633,540.31721 502.1427,543.42319 503.05488,546.16951 C 503.95455,548.87816 506.01382,552.75934 507.63104,554.79434 C 509.24825,556.82934 510.57143,559.12176 510.57143,559.88862 C 510.57143,560.65547 512.14505,564.52669 514.06836,568.49131 C 515.99168,572.45594 518.04661,578.40414 518.63487,581.70953 C 519.22314,585.01492 520.11109,588.47923 520.60811,589.40799 C 522.3933,592.74396 525.67461,606.92627 527.1584,617.71933 C 528.28397,625.90664 528.5165,633.32191 528.06782,646.71933 C 527.52833,662.82807 525.13298,689.5017 524.07166,691.21896 C 523.84792,691.58098 522.49543,696.34167 521.06613,701.79826 C 518.35272,712.15717 513.74894,725.35977 512.55044,726.21933 C 512.16701,726.49433 511.23205,728.51936 510.47275,730.71936 C 509.71345,732.91936 507.17504,737.50596 504.83182,740.91196 C 502.48861,744.31786 500.57143,747.41336 500.57143,747.79076 C 500.57143,748.54816 495.44136,754.69326 490.04832,760.39576 C 488.13603,762.41776 486.57143,764.50496 486.57143,765.03396 C 486.57143,765.83766 482.52397,770.54216 476.1851,777.10646 C 473.6235,779.75906 459.56834,792.74276 455.22426,796.46936 C 452.81999,798.53186 449.95928,800.21936 448.86713,800.21936 C 447.77498,800.21936 446.07719,801.10796 445.09426,802.19406 C 443.32242,804.15196 435.82207,808.21936 433.98355,808.21936 C 433.45751,808.21936 431.46209,809.50566 429.54927,811.07796 C 427.63646,812.65016 424.94643,814.28096 423.57143,814.70196 C 422.19643,815.12296 417.31573,817.43656 412.72543,819.84336 C 408.13513,822.25016 403.35763,824.21936 402.10878,824.21936 C 400.85993,824.21936 397.64063,825.07656 394.95478,826.12426 C 390.43974,827.88546 379.17278,830.37456 367.07143,832.28426 C 362.04666,833.07726 324.67664,833.26356 319.07143,832.52366 z M 329.75893,823.53626 C 329.03705,823.24736 328.17456,823.28286 327.84226,823.61516 C 327.50997,823.94746 328.1006,824.18376 329.15476,824.14036 C 330.31971,824.09236 330.55666,823.85546 329.75893,823.53626 z M 319.57143,822.21936 C 319.57143,821.66936 319.12143,821.21936 318.57143,821.21936 C 318.02143,821.21936 317.57143,821.66936 317.57143,822.21936 C 317.57143,822.76936 318.02143,823.21936 318.57143,823.21936 C 319.12143,823.21936 319.57143,822.76936 319.57143,822.21936 z M 338.58508,821.46936 C 338.59259,821.05686 338.87008,819.70686 339.20172,818.46936 C 339.69788,816.61786 339.38547,816.19836 337.43806,816.10106 C 335.44228,816.00126 335.53827,815.88276 338.05062,815.34476 C 340.44671,814.83176 341.0734,814.13986 341.2525,811.80966 C 341.37498,810.21626 341.68789,808.35816 341.94787,807.68076 C 342.20785,807.00326 341.75398,805.49726 340.93929,804.33416 C 339.67199,802.52476 338.4912,802.22946 332.76473,802.28966 C 324.16972,802.37986 323.09381,802.92156 322.97325,807.21936 C 322.91925,809.14436 321.90675,812.71636 320.72325,815.15716 C 319.53975,817.59796 318.57143,819.68436 318.57143,819.79366 C 318.57143,819.90296 319.94107,820.19336 321.61508,820.43906 C 323.69315,820.74406 324.95248,820.38346 325.58467,819.30256 C 326.4129,817.88636 326.51382,817.89736 326.54102,819.40596 C 326.56166,820.55076 327.61556,821.22216 329.82143,821.49596 C 335.77776,822.23506 338.5713,822.22666 338.58508,821.46936 z M 329.32143,817.43316 C 327.80893,817.24246 326.57143,816.66636 326.57143,816.15286 C 326.57143,815.63946 325.78393,815.19076 324.82143,815.15596 C 323.48062,815.10736 323.59753,814.88106 325.32143,814.18816 C 326.55893,813.69076 327.57143,813.02976 327.57143,812.71936 C 327.57143,812.40886 326.55893,811.75506 325.32143,811.26646 C 323.09828,810.38856 323.70785,810.37366 332.82143,811.08306 C 334.05343,811.17896 334.57143,812.07566 334.57143,814.11236 C 334.57143,817.27836 333.49487,817.95926 329.32143,817.43316 z M 358.08703,821.03706 C 358.26404,820.86006 358.71007,819.51516 359.0782,818.04836 C 359.64413,815.79356 359.38633,815.31276 357.40949,814.93656 C 355.26843,814.52916 355.29996,814.48026 357.7837,814.35546 C 360.39602,814.22436 360.49356,814.01706 360.43041,808.73006 L 360.36484,803.24076 L 356.41392,802.17696 C 351.84906,800.94776 343.24632,801.88426 344.24588,803.50156 C 344.60559,804.08366 344.80288,806.95826 344.68428,809.88956 C 344.55494,813.08646 344.8894,815.21936 345.52004,815.21936 C 346.45946,815.21936 346.96334,813.89856 346.72255,812.06746 C 346.6754,811.70886 348.57094,811.25886 350.93487,811.06746 L 355.23291,810.71936 L 354.31732,814.32436 L 353.40174,817.92946 L 348.79864,817.06946 C 343.895,816.15336 342.6169,816.88256 342.58674,820.61366 C 342.57264,822.35786 343.17367,822.46246 350.16831,821.93346 C 354.34659,821.61746 357.91001,821.21406 358.08703,821.03706 z M 315.2947,818.61686 C 317.30673,817.08216 318.4867,815.44096 318.17047,814.61686 C 317.87552,813.84816 318.0121,813.21936 318.47398,813.21936 C 319.66011,813.21936 320.86422,803.11216 319.80436,802.05226 C 319.32326,801.57116 315.95805,800.90006 312.32611,800.56086 L 305.72259,799.94426 L 304.57283,804.21416 C 303.94046,806.56256 302.89395,809.33816 302.24725,810.38216 C 301.30748,811.89926 301.37256,812.48336 302.57143,813.29156 C 303.89608,814.18456 303.89263,814.26866 302.54188,814.01106 C 301.70062,813.85056 301.02562,814.03746 301.04188,814.42626 C 301.05813,814.81506 300.17143,815.81966 299.07143,816.65866 C 297.18089,818.10056 297.26299,818.15656 300.57143,817.68256 C 303.02083,817.33166 303.48716,817.43656 302.12498,818.03216 C 300.30518,818.82796 300.33772,818.92586 302.62498,819.53766 C 303.97053,819.89756 305.97143,820.15326 307.07143,820.10596 C 308.72018,820.03506 308.63237,819.87936 306.57143,819.21936 C 304.51049,818.55926 304.42268,818.40356 306.07143,818.33266 C 307.17143,818.28536 309.12197,818.52796 310.40596,818.87176 C 312.14962,819.33856 312.40272,819.71096 311.40596,820.34276 C 310.67197,820.80806 310.47895,821.19556 310.97704,821.20406 C 311.47512,821.21246 313.41807,820.04816 315.2947,818.61686 z M 308.07143,815.50626 C 305.29507,814.83846 303.73749,813.21936 305.87143,813.21936 C 306.80643,813.21936 307.57143,812.76936 307.57143,812.21936 C 307.57143,811.66936 307.00893,811.21246 306.32143,811.20406 C 304.3259,811.17956 307.79192,809.25236 309.86324,809.23466 C 312.48711,809.21226 315.74567,812.60166 314.99098,814.56836 C 314.37349,816.17756 312.12772,816.48196 308.07143,815.50626 z M 372.57143,819.49286 C 374.49643,819.15266 376.50298,818.83946 377.03043,818.79686 C 378.38183,818.68756 379.34058,813.22776 379.19515,806.46926 L 379.07143,800.71936 L 375.07143,800.42846 C 372.87143,800.26846 369.27143,800.52166 367.07143,800.99116 L 363.07143,801.84476 L 363.40832,807.28206 C 363.59361,810.27256 364.17996,812.87726 364.71132,813.07036 C 365.24268,813.26336 365.03256,813.93836 364.24437,814.57036 C 363.45619,815.20226 362.5308,816.92876 362.18796,818.40696 C 361.5831,821.01496 361.67597,821.08006 365.31802,820.60296 C 367.38239,820.33256 370.64643,819.83296 372.57143,819.49286 z M 366.98951,812.71936 C 367.04213,809.61856 367.34991,809.21936 369.68772,809.21936 C 371.13907,809.21936 372.88674,809.89436 373.57143,810.71936 C 374.25612,811.54436 374.52039,812.21936 374.15869,812.21936 C 373.797,812.21936 373.98273,813.11936 374.57143,814.21936 C 375.56565,816.07706 375.33192,816.21936 371.28596,816.21936 C 366.9632,816.21936 366.93057,816.19276 366.98951,812.71936 z M 365.32143,806.55706 C 366.00893,806.27966 367.13393,806.27966 367.82143,806.55706 C 368.50893,806.83446 367.94643,807.06146 366.57143,807.06146 C 365.19643,807.06146 364.63393,806.83446 365.32143,806.55706 z M 386.18371,817.30186 C 387.22196,817.44196 389.19643,817.06736 390.57143,816.46936 C 391.94643,815.87136 393.76354,815.17116 394.60945,814.91336 C 396.31681,814.39316 397.29099,807.21936 395.65428,807.21936 C 395.11539,807.21936 393.46058,808.34436 391.97693,809.71936 C 390.49328,811.09436 388.9319,812.21936 388.50719,812.21936 C 388.08249,812.21936 386.94508,812.52246 385.97961,812.89296 C 384.63606,813.40846 384.37201,813.18136 384.85415,811.92496 C 385.20061,811.02206 385.09382,810.04216 384.61682,809.74736 C 382.70705,808.56706 384.42889,805.91046 387.87052,804.72736 C 391.17306,803.59196 391.57347,803.65036 392.11178,805.34646 C 392.81668,807.56746 393.56942,807.67246 396.00683,805.89026 C 397.63278,804.70126 397.69078,804.14756 396.55674,800.64026 C 395.85949,798.48376 395.14167,796.15686 394.9616,795.46936 C 394.57406,793.98966 391.57143,793.76826 391.57143,795.21936 C 391.57143,795.76936 390.68993,796.21936 389.61253,796.21936 C 386.31778,796.21936 380.60046,799.56456 381.06715,801.21936 C 381.99959,804.52546 382.99249,814.04076 382.5802,815.71936 C 382.44511,816.26936 382.39477,817.39436 382.46832,818.21936 C 382.57622,819.42956 382.76568,819.46116 383.44903,818.38316 C 383.91486,817.64826 385.14547,817.16166 386.18371,817.30186 z M 297.33761,813.46936 C 298.29121,811.40686 299.38078,809.48516 299.75887,809.19896 C 300.97749,808.27656 302.57143,803.17266 302.57143,800.19296 C 302.57143,797.56866 302.085,797.15236 297.38993,795.75806 C 289.08785,793.29266 286.85659,793.62886 286.03541,797.46936 C 285.6532,799.25686 284.99752,801.16936 284.57835,801.71936 C 284.15917,802.26936 283.48291,803.84436 283.07554,805.21936 C 282.66817,806.59436 281.64335,808.50686 280.79816,809.46936 C 279.74871,810.66446 279.64639,811.21936 280.47546,811.21936 C 281.14316,811.21936 281.43057,811.63826 281.11414,812.15026 C 280.7977,812.66226 280.99615,813.36376 281.55512,813.70926 C 282.11409,814.05466 282.57143,813.84926 282.57143,813.25266 C 282.57143,812.59486 283.84798,812.82806 285.81496,813.84526 C 288.81797,815.39816 293.0198,816.92946 294.83761,817.13336 C 295.25901,817.18066 296.38401,815.53186 297.33761,813.46936 z M 290.12813,810.28796 C 288.50931,809.97516 287.27181,809.38186 287.37813,808.96936 C 287.48444,808.55686 287.57143,806.92506 287.57143,805.34326 L 287.57143,802.46716 L 292.0828,804.08946 C 294.56406,804.98176 296.16434,805.85506 295.63898,806.03016 C 295.11362,806.20526 294.90398,806.92236 295.17312,807.62376 C 295.92557,809.58456 293.39765,810.91956 290.12813,810.28796 z M 402.90462,811.72926 C 404.46288,810.91656 407.52013,809.77166 409.69852,809.18506 C 414.26278,807.95606 415.48614,805.71106 414.85659,799.71936 C 413.79707,789.63546 408.74207,786.26096 401.65082,790.90376 C 397.73933,793.46466 397.66422,793.62366 398.24096,798.12086 C 398.56531,800.64996 399.11761,803.04206 399.4683,803.43656 C 400.29781,804.36966 404.57143,803.25256 404.57143,802.10266 C 404.57143,801.61686 406.15358,801.21936 408.08731,801.21936 C 411.38497,801.21936 411.58888,801.40726 411.37254,804.24636 C 411.18629,806.69066 410.55758,807.42886 408.10666,808.08066 C 404.90472,808.93226 403.36514,807.92046 404.27094,805.55996 C 404.82145,804.12536 402.7909,803.77196 400.96567,804.98466 C 399.64516,805.86206 398.13394,813.22206 399.27612,813.21316 C 399.71354,813.20976 401.34637,812.54206 402.90462,811.72926 z M 278.14389,809.21936 C 278.19101,809.21936 279.29694,806.85686 280.60153,803.96936 C 281.90611,801.08186 283.55118,798.01646 284.25724,797.15736 C 285.34594,795.83276 284.97356,795.05526 281.80621,792.03996 C 278.63353,789.01946 273.21045,786.21936 270.5335,786.21936 C 269.78786,786.21936 268.06938,793.01316 268.42789,794.54366 C 268.53409,794.99706 268.15455,795.07976 267.58446,794.72736 C 266.98895,794.35936 266.27971,795.42796 265.9175,797.23896 C 265.57075,798.97276 264.67604,800.62566 263.92924,800.91226 C 263.18244,801.19886 262.57143,802.06016 262.57143,802.82636 C 262.57143,803.59246 262.034,804.21936 261.37715,804.21936 C 260.7203,804.21936 261.70772,805.34436 263.57143,806.71936 C 265.43514,808.09436 267.74601,809.21936 268.70669,809.21936 C 269.66738,809.21936 270.71102,809.63616 271.0259,810.14566 C 271.37721,810.71406 272.84629,810.71406 274.82831,810.14566 C 276.60477,809.63616 278.09678,809.21936 278.14389,809.21936 z M 265.32143,806.64736 C 261.44421,804.54396 261.88334,803.81806 265.82143,805.82086 C 269.59095,807.73786 270.25808,808.23476 268.9881,808.17926 C 268.48393,808.15726 266.83393,807.46786 265.32143,806.64736 z M 274.32143,805.46106 C 272.80893,804.52336 271.57143,803.41036 271.57143,802.98766 C 271.57143,802.56506 270.8806,802.21936 270.03625,802.21936 C 268.81918,802.21936 268.71935,801.81146 269.55447,800.25096 C 270.36791,798.73106 271.1163,798.47056 272.83966,799.10746 C 274.06713,799.56106 275.60346,799.74446 276.25373,799.51496 C 276.90399,799.28556 277.96138,800.07946 278.60349,801.27926 C 279.51031,802.97366 279.50046,803.29346 278.55939,802.71186 C 276.89942,801.68596 275.41718,804.32856 276.75108,805.93576 C 278.14981,807.62116 277.64691,807.52286 274.32143,805.46106 z M 423.07143,803.69326 C 425.27143,802.33826 427.85893,801.22726 428.82143,801.22446 C 430.1912,801.22046 430.57143,800.36306 430.57143,797.27836 C 430.57143,795.11076 430.11409,793.05466 429.55512,792.70926 C 428.99615,792.36376 428.78546,791.68206 429.08693,791.19426 C 429.3884,790.70646 428.94482,788.65536 428.10119,786.63636 C 426.57289,782.97856 426.54893,782.96706 421.49471,783.45266 C 418.70477,783.72076 415.72235,784.63986 414.86711,785.49506 C 413.07727,787.28496 413.68968,791.19476 416.14436,793.64936 C 417.00782,794.51286 417.26356,795.21936 416.71266,795.21936 C 415.35451,795.21936 417.13629,801.32566 418.80316,802.38366 C 419.8029,803.01826 419.80677,803.19196 418.82143,803.20406 C 418.13393,803.21246 417.57143,803.89436 417.57143,804.71936 C 417.57143,806.73616 418.37401,806.58646 423.07143,803.69326 z M 419.75273,796.84166 C 419.56347,794.03146 420.0009,793.38496 423.08739,791.91306 L 426.63989,790.21906 L 426.31988,792.60856 C 425.96539,795.25566 424.09693,797.86776 421.60324,799.20226 C 420.26412,799.91896 419.93139,799.49456 419.75273,796.84166 z M 259.28519,798.27816 C 258.20591,796.89206 258.27377,796.87836 259.89765,798.15506 C 261.4846,799.40266 261.84289,799.40266 262.63233,798.15506 C 263.13199,797.36536 263.5477,795.93186 263.55612,794.96936 C 263.56454,794.00686 263.99111,793.21936 264.50404,793.21936 C 265.01698,793.21936 265.65627,792.43186 265.9247,791.46936 C 266.19312,790.50686 266.69401,788.73756 267.03779,787.53766 C 267.56118,785.71076 266.68844,784.69426 261.67201,781.28766 C 258.37705,779.05006 255.0349,777.21936 254.24501,777.21936 C 253.37744,777.21936 252.36025,779.00086 251.67575,781.71936 C 251.05253,784.19436 250.09911,786.21936 249.55703,786.21936 C 249.01495,786.21936 248.57143,786.83366 248.57143,787.58446 C 248.57143,788.33526 247.69277,790.06666 246.61886,791.43186 C 245.08714,793.37916 244.92549,794.18896 245.86886,795.18916 C 246.84098,796.21976 246.59234,796.23846 244.57143,795.28656 C 242.24242,794.18956 242.2012,794.21316 243.96875,795.63216 C 245.01228,796.46986 246.20539,796.94556 246.62011,796.68926 C 247.03483,796.43296 249.33103,797.34196 251.72279,798.70926 C 254.11454,800.07656 255.62143,801.20756 255.07143,801.22256 C 254.52143,801.23766 254.68924,801.64126 255.44434,802.11966 C 256.32183,802.67546 257.48151,802.42056 258.65809,801.41306 C 260.1472,800.13806 260.26702,799.53906 259.28519,798.27816 z M 254.23073,794.76096 C 252.8651,793.72616 252.59362,792.76656 253.17886,791.04276 C 253.61271,789.76486 253.87256,788.36396 253.75631,787.92956 C 253.64006,787.49526 255.0134,788.16876 256.80819,789.42626 C 258.60297,790.68366 260.25617,791.82386 260.48197,791.95986 C 261.01361,792.27996 257.4493,796.22936 256.66644,796.18756 C 256.33919,796.17006 255.24312,795.52806 254.23073,794.76096 z M 251.20712,799.71316 C 247.58108,797.82206 246.48712,797.84096 249.01256,799.75116 C 250.08018,800.55866 251.65518,801.21656 252.51256,801.21316 C 253.36994,801.20976 252.78249,800.53476 251.20712,799.71316 z M 347.32054,799.71866 C 355.70754,799.48326 363.44046,798.82456 364.50479,798.25496 C 365.56913,797.68536 368.96036,797.21936 372.04087,797.21936 C 375.1781,797.21936 378.61604,796.59376 379.85661,795.79726 C 381.07476,795.01506 384.24081,794.05926 386.89227,793.67306 C 389.54373,793.28696 392.91873,791.96876 394.39227,790.74376 C 398.50729,787.32276 401.11012,786.21936 405.06433,786.21936 C 407.55843,786.21936 409.83987,785.30956 412.38007,783.30186 C 414.41032,781.69736 418.09643,779.80106 420.57143,779.08796 C 423.04643,778.37486 425.67288,777.20596 426.40799,776.49026 C 429.63055,773.35296 434.39482,770.21936 435.94214,770.21936 C 436.8672,770.21936 439.64158,768.20176 442.10744,765.73596 C 444.5733,763.27006 447.68186,760.97876 449.01534,760.64406 C 450.49851,760.27176 451.83229,758.90976 452.45062,757.13606 C 453.07338,755.34956 455.20991,753.18036 458.01641,751.48526 C 460.52167,749.97196 462.57143,748.21926 462.57143,747.59026 C 462.57143,746.96126 464.86359,744.03296 467.66511,741.08296 C 470.46663,738.13296 472.85904,735.13286 472.98158,734.41596 C 473.10411,733.69916 475.01865,731.22416 477.23611,728.91596 C 479.45358,726.60783 481.56767,723.49008 481.9341,721.98767 C 482.30052,720.48526 483.97848,717.68639 485.66288,715.76796 C 487.78997,713.34534 488.53372,711.67588 488.09781,710.30244 C 487.64936,708.88951 488.30139,707.58436 490.38173,705.73077 C 492.92027,703.46892 493.45779,701.98885 494.57736,694.17795 C 495.28361,689.25071 496.19611,685.21933 496.60515,685.21933 C 497.01418,685.21933 497.6612,683.53183 498.04296,681.46933 C 498.42473,679.40683 499.34143,676.36933 500.08007,674.71933 C 503.47445,667.13688 504.88732,639.4465 503.26905,612.21933 C 502.37299,597.14327 501.00988,589.92802 498.35713,586.21933 C 497.37361,584.84433 495.93955,580.79433 495.17031,577.21933 C 493.72714,570.51223 490.0145,561.22219 488.77464,561.21558 C 488.38787,561.21352 487.1943,559.07602 486.12225,556.46558 C 485.0502,553.85514 483.38222,550.86793 482.41563,549.82733 C 481.44904,548.78673 479.74553,545.99374 478.63006,543.62068 C 477.51459,541.24762 475.68237,538.81389 474.55847,538.21239 C 473.43456,537.61089 471.80383,535.34139 470.93463,533.16905 C 470.06543,530.9967 468.93155,529.21933 468.41488,529.21933 C 467.3789,529.21933 462.65332,524.15212 462.60303,522.98732 C 462.58565,522.58471 460.02954,519.88471 456.92279,516.98732 C 453.81605,514.08993 450.3313,510.67394 449.17891,509.39625 C 448.02653,508.11855 445.39831,506.12594 443.33843,504.96822 C 441.27856,503.81051 439.34834,502.09179 439.04906,501.14885 C 438.74978,500.20592 437.22275,498.90333 435.65566,498.25422 C 434.08856,497.60511 431.54433,495.75671 430.00182,494.14667 C 428.4593,492.53663 426.69053,491.21933 426.0712,491.21933 C 425.45188,491.21933 421.92043,489.39503 418.22355,487.16534 C 414.52667,484.93565 408.48008,482.27765 404.78669,481.25869 C 390.71011,477.37512 385.03593,475.66989 384.01398,475.01595 C 383.43238,474.64379 380.59238,474.02569 377.70287,473.64238 C 372.75999,472.98668 372.26057,473.12739 369.26032,476.02106 C 364.96469,480.16408 362.76189,480.85666 349.73949,482.15853 C 341.34806,482.99744 335.77443,482.98127 327.32143,482.09351 C 312.96547,480.58579 310.17585,480.5887 304.07143,482.11775 C 301.32143,482.80658 297.49643,483.62072 295.57143,483.92696 C 293.64643,484.2332 290.82068,485.53136 289.29199,486.81175 C 287.7633,488.09215 284.8383,489.45332 282.79199,489.83657 C 280.74568,490.21983 276.88343,492.03773 274.20922,493.87636 C 271.535,495.71499 268.55938,497.21933 267.59672,497.21933 C 266.63407,497.21933 264.17007,498.55154 262.12118,500.1798 C 260.07228,501.80805 257.42291,503.44596 256.23367,503.8196 C 255.04444,504.19323 252.29212,506.22043 250.11741,508.32449 C 247.94269,510.42854 244.92559,512.42191 243.41274,512.75419 C 241.89988,513.08646 240.38863,514.21992 240.0544,515.27298 C 239.37666,517.40835 231.50775,524.21933 229.71844,524.21933 C 229.08758,524.21933 228.57143,524.59548 228.57143,525.05522 C 228.57143,526.70791 221.09034,535.45174 218.9946,536.24854 C 217.70464,536.73898 216.61034,538.2748 216.24333,540.10986 C 215.62768,543.18809 213.90238,545.23753 209.16669,548.51601 C 207.62918,549.58043 206.57143,551.26269 206.57143,552.64357 C 206.57143,553.92555 205.89643,555.53464 205.07143,556.21933 C 204.24643,556.90402 203.57143,558.00568 203.57143,558.66746 C 203.57143,559.32924 202.44643,560.92758 201.07143,562.21933 C 199.69643,563.51108 198.57143,565.33284 198.57143,566.26769 C 198.57143,568.4419 193.69408,577.21933 192.48593,577.21933 C 191.98296,577.21933 191.56328,578.90683 191.55332,580.96933 C 191.54248,583.21197 190.35726,586.85607 188.60472,590.0351 C 186.17413,594.44408 185.85728,595.75261 186.74729,597.70595 C 187.62088,599.62327 187.42544,600.61561 185.69588,603.04455 C 183.95433,605.49034 183.57143,607.4743 183.57143,614.05227 C 183.57143,619.8557 183.15581,622.49209 182.06969,623.57822 C 180.91735,624.73055 180.80102,625.69299 181.56969,627.71474 C 183.24341,632.11697 182.82962,641.31005 180.89404,642.72538 C 179.32681,643.87137 179.33157,644.19409 180.96661,647.63968 C 181.92908,649.66794 182.61573,652.99061 182.49249,655.02338 C 182.36925,657.05615 182.83335,660.74106 183.52383,663.21206 C 184.21431,665.68307 184.57198,669.86181 184.31866,672.49817 C 183.9837,675.98418 184.39945,678.38575 185.843,681.30342 C 186.93471,683.50996 188.05373,687.31871 188.32973,689.76732 C 188.60572,692.21593 189.15575,694.21933 189.55201,694.21933 C 190.73619,694.21933 196.57143,704.20109 196.57143,706.22676 C 196.57143,707.25775 196.96608,708.3452 197.44843,708.64331 C 197.93079,708.94143 198.81614,711.13409 199.41589,713.51591 C 200.01564,715.89772 202.02823,719.84287 203.88832,722.28291 C 205.7484,724.72294 207.97968,728.09496 208.84671,729.77626 C 209.71373,731.45756 213.10698,735.55056 216.38725,738.87186 C 219.66752,742.19306 223.53153,746.77996 224.97395,749.06486 C 226.41636,751.34986 228.11515,753.21936 228.74904,753.21936 C 229.38293,753.21936 232.6721,755.80686 236.05831,758.96936 C 244.80558,767.13866 253.27195,773.44406 259.07143,776.10846 C 261.82143,777.37186 265.42143,779.62676 267.07143,781.11936 C 268.72143,782.61196 272.27397,784.38576 274.96595,785.06106 C 279.39923,786.17326 285.16859,789.32856 286.64841,791.45026 C 286.96575,791.90516 288.54075,792.18446 290.14841,792.07076 C 293.2096,791.85416 300.20984,793.79716 302.28047,795.43806 C 302.94544,795.96506 304.74544,796.14026 306.28047,795.82746 C 308.17424,795.44156 311.16093,796.19876 315.57143,798.18276 C 320.83193,800.54916 323.02489,801.01516 327.07143,800.62676 C 329.82143,800.36276 338.93353,799.95416 347.32054,799.71866 z M 442.0031,793.24526 C 444.77418,792.19176 445.20166,789.66636 443.92091,781.91586 C 443.43733,778.98946 442.92806,778.25226 441.71239,778.71876 C 440.84339,779.05216 440.43475,779.02266 440.80429,778.65316 C 441.17384,778.28356 440.8628,777.36786 440.1131,776.61816 C 439.36339,775.86846 438.51908,774.68446 438.23685,773.98716 C 437.86776,773.07526 437.49176,773.03246 436.89756,773.83456 C 436.44319,774.44796 435.11828,775.24686 433.95331,775.61006 C 432.78835,775.97326 431.09481,777.08846 430.18988,778.08846 C 428.66397,779.77456 428.66355,780.27486 430.18414,784.98316 C 431.34959,788.59176 432.23591,789.90156 433.24918,789.51276 C 434.2765,789.11856 434.48795,788.09336 434.00622,785.84256 C 433.63859,784.12476 433.69135,783.05776 434.12346,783.47146 C 434.55558,783.88516 435.71189,783.49716 436.69305,782.60926 C 438.35729,781.10316 438.52165,781.17276 439.14273,783.64736 C 439.90651,786.69056 437.40044,790.21936 434.47546,790.21936 C 431.80477,790.21936 431.0126,792.33756 433.10978,793.87106 C 434.12393,794.61256 434.41768,795.21936 433.76256,795.21936 C 433.10744,795.21936 432.57143,796.17276 432.57143,797.33806 C 432.57143,799.39936 432.66429,799.38586 436.0031,796.83926 C 437.89051,795.39966 440.59051,793.78236 442.0031,793.24526 z M 236.55137,790.69516 C 235.85565,789.85686 235.07765,789.37976 234.82248,789.63496 C 234.31808,790.13936 231.87435,787.87746 229.54137,784.74676 C 228.07825,782.78336 228.08361,782.78336 230.69523,784.74676 C 232.13832,785.83166 234.94885,788.00876 236.94085,789.58466 L 240.56266,792.45006 L 243.99179,788.59646 C 246.7466,785.50066 247.1899,784.45706 246.24617,783.28916 C 245.32768,782.15256 245.34867,782.00206 246.34239,782.59936 C 247.20618,783.11856 248.09338,782.21436 249.11177,779.77706 C 250.52447,776.39596 250.48253,776.01806 248.37866,773.17246 C 246.34752,770.42516 241.52192,767.21936 239.41779,767.21936 C 238.95229,767.21936 238.57143,767.81016 238.57143,768.53226 C 238.57143,769.25436 237.22966,771.13066 235.58972,772.70176 C 233.29203,774.90316 232.86365,775.86646 233.7224,776.90126 C 234.52798,777.87186 235.19397,777.94756 236.12575,777.17426 C 238.57431,775.14216 243.18377,779.45996 241.96273,782.64196 C 241.04253,785.03996 238.98785,785.15106 235.452,782.99396 C 232.57161,781.23676 232.34001,780.83656 233.88667,780.28946 C 235.57818,779.69116 235.55118,779.51356 233.49057,777.68336 C 231.91042,776.27996 231.15443,776.07616 230.842,776.96936 C 230.60152,777.65686 229.74071,778.21936 228.92908,778.21936 C 228.06827,778.21936 227.7507,778.70036 228.16692,779.37386 C 228.63148,780.12556 228.4386,780.25526 227.61414,779.74576 C 226.36102,778.97126 224.60206,780.70776 224.60206,782.71936 C 224.60206,783.26936 224.98891,783.10876 225.46174,782.36256 C 226.06103,781.41676 226.52861,781.34106 227.00545,782.11256 C 227.38166,782.72126 227.34421,783.21936 226.92224,783.21936 C 226.50026,783.21936 228.1424,785.24436 230.57143,787.71936 C 233.00046,790.19436 235.62425,792.21936 236.40208,792.21936 C 237.55576,792.21936 237.58327,791.93856 236.55137,790.69516 z M 453.46968,784.42736 C 455.31927,783.30256 457.40329,782.60136 458.10085,782.86896 C 458.7984,783.13666 459.62711,782.93826 459.94242,782.42806 C 460.25773,781.91786 459.29075,781.63146 457.79357,781.79146 L 455.07143,782.08256 L 457.73341,780.13166 C 460.39497,778.18106 460.39513,778.18006 458.77086,773.95006 C 457.87737,771.62316 456.85935,769.49436 456.50859,769.21936 C 456.15782,768.94436 455.35855,767.74586 454.73241,766.55616 C 453.08869,763.43286 449.05878,764.21106 445.63414,768.31326 C 443.68778,770.64466 443.09406,772.13246 443.68664,773.19326 C 444.1555,774.03256 444.93143,776.29436 445.41092,778.21936 C 445.96011,780.42416 446.79872,781.60036 447.67708,781.39786 C 448.79424,781.14036 448.82293,781.32926 447.82143,782.34786 C 446.45642,783.73626 446.14292,787.45746 447.29398,788.60856 C 447.69139,789.00596 448.48684,788.68786 449.06167,787.90176 C 449.63649,787.11566 451.6201,785.55216 453.46968,784.42736 z M 448.83498,778.10656 C 447.87938,775.57486 448.001,775.05976 449.77903,774.10826 C 450.90156,773.50746 452.89319,772.89816 454.20487,772.75416 C 456.07993,772.54826 456.35561,772.77446 455.49449,773.81206 C 454.89211,774.53786 454.64532,775.52986 454.94607,776.01646 C 455.24683,776.50316 454.24167,777.82636 452.7124,778.95696 L 449.93191,781.01266 L 448.83498,778.10656 z M 223.97594,777.06486 C 223.54051,776.36026 223.70093,776.18136 224.38755,776.60566 C 226.69037,778.02886 236.57143,770.38246 236.57143,767.17716 C 236.57143,765.00336 232.51301,759.31396 229.36167,757.06996 L 226.29292,754.88486 L 223.68217,758.06106 C 222.24627,759.80806 220.57567,761.23326 219.96974,761.22836 C 219.36382,761.22336 217.49167,762.53466 215.80941,764.14236 C 214.12716,765.74996 212.48542,766.79996 212.1611,766.47566 C 211.83678,766.15136 211.57143,766.63596 211.57143,767.55266 C 211.57143,768.46936 211.12143,769.21936 210.57143,769.21936 C 210.02143,769.21936 209.57143,768.69436 209.57143,768.05266 C 209.57143,767.41096 209.27437,767.18306 208.9113,767.54616 C 207.80801,768.64946 215.489,775.38636 218.18796,775.68266 C 219.57608,775.83506 221.22023,776.46816 221.84162,777.08956 C 223.31949,778.56736 224.89332,778.54916 223.97594,777.06486 z M 219.07143,773.21936 C 218.73151,772.66936 218.92995,772.21936 219.51241,772.21936 C 220.09487,772.21936 220.57143,772.66936 220.57143,773.21936 C 220.57143,773.76936 220.37299,774.21936 220.13045,774.21936 C 219.88791,774.21936 219.41135,773.76936 219.07143,773.21936 z M 213.44387,770.46936 C 212.2,768.88326 212.23537,768.84786 213.82143,770.09176 C 214.78393,770.84666 215.57143,771.63416 215.57143,771.84176 C 215.57143,772.66476 214.75024,772.13506 213.44387,770.46936 z M 220.37068,770.28016 C 217.44732,768.63926 216.75656,763.71406 219.66823,765.27156 C 220.56351,765.75046 221.66184,765.73746 222.16823,765.24206 C 222.69548,764.72626 224.23931,765.37006 225.87719,766.78886 C 227.42036,768.12566 228.15972,769.21936 227.52021,769.21936 C 226.88069,769.21936 226.5733,769.78186 226.83712,770.46936 C 227.49739,772.18996 223.56847,772.07496 220.37068,770.28016 z M 467.40017,775.21936 C 468.04436,775.21936 468.57143,774.54436 468.57143,773.71936 C 468.57143,772.89436 468.90893,772.20516 469.32143,772.18786 C 469.73393,772.17066 470.87997,771.04556 471.86818,769.68776 C 473.61304,767.29046 473.59859,767.08306 471.36818,762.50826 C 467.73805,755.06236 467.28175,754.40836 464.98776,753.36316 C 463.29946,752.59396 462.14326,752.85506 459.7421,754.54786 C 456.11643,757.10396 453.70429,761.02626 455.138,762.03436 C 455.67378,762.41106 456.70233,763.84436 457.42368,765.21936 C 462.43715,774.77586 463.31982,776.82496 462.80633,777.71566 C 462.48805,778.26766 463.12793,777.93186 464.22828,776.96936 C 465.32863,776.00686 466.75598,775.21936 467.40017,775.21936 z M 462.57143,773.96426 C 462.57143,773.68926 463.24643,772.90406 464.07143,772.21936 C 464.89643,771.53466 465.57143,771.19946 465.57143,771.47446 C 465.57143,771.74946 464.89643,772.53466 464.07143,773.21936 C 463.24643,773.90406 462.57143,774.23926 462.57143,773.96426 z M 462.6102,767.29176 C 461.33011,764.89986 462.18224,762.49796 464.80976,761.09176 C 466.25664,760.31746 466.62406,760.32516 466.13309,761.11956 C 465.74987,761.73966 466.13343,762.21936 467.01241,762.21936 C 467.86987,762.21936 468.57832,763.00686 468.58674,763.96936 C 468.59983,765.46486 468.743,765.50126 469.57143,764.21936 C 470.10459,763.39436 470.5408,763.16936 470.5408,763.71936 C 470.5408,765.29366 469.25698,766.82226 466.88717,768.06966 C 464.01129,769.58336 463.81779,769.54816 462.6102,767.29176 z M 473.57143,772.66026 C 473.57143,772.41776 473.12143,772.21936 472.57143,772.21936 C 472.02143,772.21936 471.57143,772.69586 471.57143,773.27836 C 471.57143,773.86076 472.02143,774.05926 472.57143,773.71936 C 473.12143,773.37936 473.57143,772.90286 473.57143,772.66026 z M 485.57143,754.98566 C 485.57143,754.35836 484.13404,755.16686 482.37724,756.78226 L 479.18305,759.71936 L 481.87724,756.39256 C 484.57236,753.06476 485.47654,750.54186 483.54665,751.73466 C 482.98303,752.08296 482.64553,751.94906 482.79665,751.43706 C 482.94778,750.92506 481.49643,748.33236 479.57143,745.67556 C 477.64643,743.01876 475.77118,740.40046 475.4042,739.85706 C 475.03121,739.30486 473.5578,740.27046 472.06305,742.04696 C 470.59239,743.79466 468.969,744.96506 468.4555,744.64766 C 467.94201,744.33036 467.62863,744.44166 467.75911,744.89496 C 467.88958,745.34836 467.40377,746.78996 466.67954,748.09856 C 465.47923,750.26736 465.6152,750.67906 468.21659,752.75336 C 469.78621,754.00496 471.3662,754.84616 471.72768,754.62276 C 472.08916,754.39936 472.15761,755.08576 471.87981,756.14806 C 471.57184,757.32576 472.42426,759.39496 474.06382,761.44976 L 476.75293,764.81996 L 481.16218,760.47306 C 483.58727,758.08226 485.57143,755.61296 485.57143,754.98566 z M 476.4881,757.12436 C 475.90603,754.29556 476.11012,751.86486 477.03603,750.59866 C 478.02079,749.25186 478.32192,749.37626 479.30623,751.53666 C 480.25893,753.62756 480.13053,754.30836 478.50625,755.77836 C 477.4421,756.74136 476.53393,757.34706 476.4881,757.12436 z M 208.97594,763.06486 C 208.54395,762.36586 208.70059,762.18116 209.3729,762.59666 C 210.58994,763.34876 216.79883,761.05006 219.07177,759.00566 C 219.85841,758.29816 221.19264,757.13906 222.03673,756.42986 C 224.59678,754.27896 223.79605,751.62516 218.8764,745.95576 L 214.18137,740.54526 L 209.19268,744.32106 C 206.44891,746.39776 203.94045,748.01186 203.61834,747.90806 C 203.29622,747.80426 201.85104,748.64696 200.40682,749.78086 C 197.27838,752.23696 197.7205,753.52346 203.90813,759.96936 C 207.70963,763.92946 210.60236,765.69646 208.97594,763.06486 z M 206.11361,756.57596 C 203.41691,753.34986 202.91857,752.33476 204.42815,753.14266 C 205.60696,753.77356 206.57143,753.87196 206.57143,753.36146 C 206.57143,751.22456 209.7263,751.47876 212.53487,753.84206 C 215.66553,756.47626 215.62429,756.71996 211.50296,759.93786 C 210.19284,760.96076 209.32778,760.42116 206.11361,756.57596 z M 488.23786,750.79246 C 487.60096,749.13266 489.86649,746.88436 491.07376,747.97796 C 491.52384,748.38576 491.60555,748.21696 491.25534,747.60296 C 490.90513,746.98896 491.50798,745.68176 492.59501,744.69796 C 494.94802,742.56856 495.14151,739.93736 493.07143,738.21936 C 492.24643,737.53466 491.57143,736.32796 491.57143,735.53786 C 491.57143,734.74776 491.21691,734.32036 490.78362,734.58816 C 490.35032,734.85596 489.42205,733.77886 488.7208,732.19466 C 487.41801,729.25146 484.42137,727.57596 482.53986,728.73886 C 481.96265,729.09556 480.32444,731.23446 478.89938,733.49186 L 476.30837,737.59626 L 478.99566,739.90786 C 480.47367,741.17916 481.39286,742.21936 481.0383,742.21936 C 480.48394,742.21936 481.58759,743.75636 486.52639,749.86276 C 487.03504,750.49166 487.17826,751.27916 486.84465,751.61276 C 486.51105,751.94636 486.81124,752.21936 487.51175,752.21936 C 488.21226,752.21936 488.53901,751.57726 488.23786,750.79246 z M 487.10047,744.31086 C 486.68442,742.99996 485.8354,742.28776 485.04862,742.58966 C 484.16761,742.92776 484.40908,741.91396 485.75148,739.63876 L 487.79645,736.17276 L 489.63087,738.28786 C 490.6398,739.45116 491.93917,740.11006 492.51836,739.75216 C 494.30142,738.65016 493.69921,739.80196 490.69081,743.24766 C 487.86748,746.48136 487.79607,746.50246 487.10047,744.31086 z M 195.93849,746.96936 C 195.34758,745.98576 195.51987,745.98836 196.74679,746.98166 C 198.01242,748.00626 198.52711,747.97766 199.47977,746.82976 C 200.1253,746.05196 201.76001,745.13786 203.11245,744.79836 C 204.46489,744.45896 205.57143,743.71326 205.57143,743.14126 C 205.57143,742.56926 205.97221,742.34896 206.46205,742.65176 C 206.95188,742.95446 208.11435,742.03966 209.04531,740.61886 C 210.48805,738.41696 210.55215,737.58696 209.47947,734.99736 C 208.78731,733.32626 206.98503,730.60586 205.4744,728.95196 L 202.72781,725.94482 L 198.92178,729.08206 C 196.82846,730.80756 194.73613,732.21936 194.27216,732.21936 C 193.80819,732.21936 192.75357,732.89436 191.92857,733.71936 C 191.10357,734.54436 189.33572,735.21936 188,735.21936 C 186.66429,735.21936 185.57143,735.49656 185.57143,735.83536 C 185.57143,736.17416 187.13678,738.58376 189.04999,741.19016 C 190.9632,743.79646 192.2007,746.29136 191.79999,746.73446 C 191.39928,747.17746 191.60284,747.23546 192.25233,746.86336 C 192.90183,746.49116 193.71588,746.64406 194.06135,747.20306 C 194.40681,747.76196 195.13946,748.21936 195.68946,748.21936 C 196.23946,748.21936 196.35153,747.65686 195.93849,746.96936 z M 196.07143,743.45886 C 192.07092,740.50046 192.07578,736.21936 196.07964,736.21936 C 197.61977,736.21936 199.02033,737.31496 200.34059,739.55266 C 201.51112,741.53656 201.85473,742.90526 201.18937,742.93356 C 200.5745,742.95966 199.39643,743.25496 198.57143,743.58976 C 197.74643,743.92446 196.62143,743.86556 196.07143,743.45886 z M 499.60347,733.96936 C 501.64297,730.65946 501.87859,727.00647 500.07143,726.71432 C 499.52143,726.62541 499.40893,726.74016 499.82143,726.96933 C 501.26635,727.77206 500.5559,729.42736 499.01949,728.83776 C 498.16593,728.51026 497.66309,728.57456 497.90208,728.98076 C 498.14107,729.38696 497.904,730.84436 497.37526,732.21936 L 496.41392,734.71936 L 495.1499,731.71936 C 494.24795,729.57866 494.16989,727.88976 494.8774,725.82327 C 495.64969,723.56751 495.48002,722.20507 494.11,719.66109 C 492.46248,716.60183 488.14781,713.95181 489.17572,716.63051 C 489.42578,717.28216 488.5424,718.83742 487.21265,720.08666 C 483.43462,723.63594 485.24174,728.29896 490.18499,727.75636 C 491.46688,727.61556 492.27552,727.88906 491.98195,728.36406 C 491.34528,729.39426 495.57657,737.21936 496.77027,737.21936 C 497.22708,737.21936 498.50201,735.75686 499.60347,733.96936 z M 186.19625,730.52856 C 187.07828,732.09156 187.58162,732.17176 189.89434,731.11806 C 191.36674,730.44716 192.57143,729.53466 192.57143,729.09016 C 192.57143,728.64576 193.24643,728.54116 194.07143,728.85766 C 194.89643,729.17426 195.57143,728.98516 195.57143,728.43746 C 195.57143,727.88966 196.35893,727.50406 197.32143,727.58046 C 198.82561,727.69986 199.05783,726.84111 198.97459,721.46731 C 198.90448,716.94064 198.37877,714.66392 197.06961,713.21731 C 195.03075,710.9644 192.54708,710.64368 190.785,712.40576 C 190.13246,713.0583 188.57996,713.7466 187.335,713.93532 C 186.09004,714.12404 183.87075,714.80869 182.40326,715.45678 C 179.85543,716.58196 179.80021,716.76106 181.17894,719.42722 C 181.97305,720.96288 182.39779,722.21933 182.12279,722.21933 C 181.84779,722.21933 180.93269,720.88481 180.08923,719.25374 C 178.51375,716.2071 176.24539,716.02065 175.1602,718.84859 C 174.81196,719.7561 175.01571,720.06278 175.69002,719.64604 C 176.41991,719.19494 176.56265,719.67162 176.11758,721.07392 C 175.75012,722.2317 175.94839,723.97555 176.5582,724.94915 C 177.49872,726.45077 177.57305,726.34004 177.04819,724.21933 C 176.61678,722.47626 177.22503,723.00611 179.05712,725.96933 C 180.50234,728.30686 182.10928,730.21936 182.62811,730.21936 C 183.14694,730.21936 183.51814,730.55686 183.45301,730.96936 C 183.10461,733.17586 183.8707,733.36366 184.47302,731.21936 C 185.11372,728.93836 185.26472,728.87786 186.19625,730.52856 z M 185.81305,727.37306 C 185.12094,726.94291 184.44594,724.81983 184.31305,722.65514 C 184.1126,719.38987 184.36958,718.76939 185.82143,719.01317 C 186.78393,719.17478 187.57311,718.72478 187.57517,718.01317 C 187.57722,717.30156 188.50418,718.23704 189.63508,720.09201 C 190.87101,722.11928 191.40456,724.11386 190.97258,725.09201 C 190.57731,725.98704 190.35074,727.133 190.4691,727.63856 C 190.58745,728.14416 190.02765,728.01296 189.2251,727.34686 C 188.31082,726.58808 187.63625,726.5129 187.41868,727.14556 C 187.22769,727.70086 186.50516,727.80326 185.81305,727.37306 z M 498.07143,724.21933 C 497.73151,723.66933 497.25495,723.21933 497.01241,723.21933 C 496.76987,723.21933 496.57143,723.66933 496.57143,724.21933 C 496.57143,724.76933 497.04799,725.21933 497.63045,725.21933 C 498.21291,725.21933 498.41135,724.76933 498.07143,724.21933 z M 506.90926,716.36483 C 507.69479,714.0848 508.01172,712.21933 507.61354,712.21933 C 507.21536,712.21933 504.74579,710.19433 502.12561,707.71933 C 499.50542,705.24433 496.99111,703.21933 496.53825,703.21933 C 496.08539,703.21933 495.16135,705.69268 494.48484,708.71566 C 493.37315,713.6832 493.43234,714.40815 495.10003,716.25093 C 496.11489,717.37234 497.5595,718.05415 498.31027,717.76605 C 499.06104,717.47795 499.40449,717.68043 499.07349,718.21599 C 498.74249,718.75156 499.50662,720.24724 500.77155,721.53973 C 502.88739,723.70165 503.16784,723.75449 504.27622,722.20001 C 504.93886,721.27068 506.12373,718.64485 506.90926,716.36483 z M 501.25703,717.1651 C 499.86162,715.53539 499.78453,714.85097 500.8112,713.207 C 502.12675,711.10048 504.57143,710.49672 504.57143,712.27835 C 504.57143,712.86081 505.02143,713.05925 505.57143,712.71933 C 507.03383,711.81551 506.80283,712.79049 504.7578,716.15327 C 502.97368,719.08702 502.91672,719.10348 501.25703,717.1651 z M 180.57143,713.25071 C 180.57143,712.71798 181.25216,712.54332 182.08416,712.86259 C 182.91617,713.18186 184.32716,712.83702 185.2197,712.09628 C 186.11224,711.35553 187.51843,710.74269 188.34456,710.7344 C 192.71279,710.69057 192.40614,699.6515 187.95568,696.73545 C 185.8836,695.37776 185.16349,695.313 183.89009,696.36983 C 182.43855,697.5745 181.40336,697.75922 174.25404,698.08927 C 171.85192,698.20016 171.52106,698.55097 172.00931,700.46933 L 172.58197,702.71933 L 171.42389,700.46933 C 170.39607,698.47242 167.90188,697.08263 168.7381,698.97278 C 168.92143,699.38718 170.42143,702.98163 172.07143,706.96046 C 174.76243,713.44955 175.35468,714.19595 177.82143,714.20701 C 179.33393,714.21378 180.57143,713.78345 180.57143,713.25071 z M 175.57143,706.80112 C 175.57143,706.0211 175.29829,704.6711 174.96444,703.80112 C 174.5066,702.60801 174.99805,702.21933 176.96444,702.21933 C 178.39828,702.21933 179.60798,701.65683 179.65265,700.96933 C 179.69732,700.28183 180.34344,701.06933 181.08846,702.71933 C 182.27337,705.34352 182.23925,705.87592 180.81612,706.96933 C 178.62583,708.65215 175.57143,708.55419 175.57143,706.80112 z M 171.53599,708.46933 C 171.51651,708.05683 170.8133,706.59433 169.97332,705.21933 L 168.44609,702.71933 L 168.9951,705.21933 C 169.29706,706.59433 169.55027,708.05683 169.55778,708.46933 C 169.56528,708.88183 170.02143,709.21933 170.57143,709.21933 C 171.12143,709.21933 171.55548,708.88183 171.53599,708.46933 z M 511.31826,703.96933 C 511.91434,701.63183 512.71764,698.70683 513.10337,697.46933 C 513.49287,696.21973 513.38111,695.21933 512.85201,695.21933 C 512.32804,695.21933 511.15055,697.91254 510.23538,701.20423 C 508.31157,708.1238 508.30023,708.21933 509.40295,708.21933 C 509.86029,708.21933 510.72218,706.30683 511.31826,703.96933 z M 508.34226,704.40683 C 508.55997,703.75371 508.0256,703.21933 507.15476,703.21933 C 506.28393,703.21933 505.56454,702.65683 505.55612,701.96933 C 505.54591,701.136 505.21768,701.21933 504.57143,702.21933 C 503.22524,704.30241 503.4638,702.39391 505.07143,698.21933 C 505.81274,696.29433 506.45351,695.28183 506.49535,695.96933 C 506.58635,697.46445 509.19346,697.63991 510.07696,696.21038 C 510.41992,695.65546 510.38945,694.22134 510.00926,693.02344 C 509.33169,690.88861 509.28924,690.88383 507.86714,692.78239 C 506.45758,694.66422 506.42562,694.66513 506.74386,692.81453 C 506.9786,691.4495 506.12667,690.51801 503.73751,689.52742 C 500.62724,688.23784 500.36786,688.28176 499.87088,690.18222 C 499.57789,691.30263 498.86565,692.21933 498.28813,692.21933 C 497.71061,692.21933 497.49157,692.4728 497.80136,692.78259 C 498.11116,693.09239 498.02643,694.55489 497.61307,696.03259 C 496.97807,698.30266 497.40832,699.22977 500.38737,702.01074 C 502.32659,703.82101 504.5347,705.06367 505.29427,704.77219 C 506.13672,704.44891 506.40577,704.67835 505.98417,705.36052 C 505.57569,706.02146 505.83561,706.29794 506.61973,706.03656 C 507.34942,705.79333 508.12456,705.05995 508.34226,704.40683 z M 179.66801,694.09729 C 180.30011,693.09933 180.54503,693.06404 180.55612,693.96933 C 180.5772,695.69031 183.05952,695.54107 184.56392,693.72838 C 185.54584,692.54524 185.54726,690.89101 184.5708,685.71596 C 183.89401,682.12916 183.04298,679.01076 182.67961,678.78619 C 182.31624,678.56161 179.44325,678.97661 176.29518,679.7084 C 173.14712,680.44019 170.57143,680.63917 170.57143,680.15057 C 170.57143,679.66197 169.45501,679.77088 168.09049,680.3926 C 166.32058,681.19903 165.73096,682.12433 166.0332,683.62116 C 166.26621,684.77515 166.96885,688.04572 167.59463,690.88908 L 168.73241,696.05884 L 173.76382,695.76705 C 176.66831,695.59861 179.16418,694.89275 179.66801,694.09729 z M 169.66847,688.63035 C 169.07123,686.47929 168.58696,684.04433 168.59232,683.21933 C 168.60097,681.886 168.71147,681.886 169.58674,683.21933 C 170.46202,684.55266 170.68084,684.55266 171.55612,683.21933 C 172.21458,682.21628 172.54588,682.13345 172.55612,682.96933 C 172.56454,683.65683 173.27494,684.21933 174.13479,684.21933 C 175.29619,684.21933 175.61758,685.05494 175.38479,687.46933 C 175.17574,689.63744 174.6026,690.61854 173.66307,690.41654 C 172.88847,690.25001 171.91713,690.65997 171.50454,691.32757 C 171.0375,692.08325 170.34451,691.06523 169.66847,688.63035 z M 516.24171,687.45066 C 517.51984,683.78101 518.06505,678.39238 517.05613,679.40129 C 516.56286,679.89457 513.57143,690.65389 513.57143,691.93479 C 513.57143,693.37093 515.03674,690.91027 516.24171,687.45066 z M 512.57143,688.7673 C 512.57143,688.0336 511.88844,687.17122 511.05367,686.85089 C 510.08966,686.48096 509.6179,685.19255 509.76062,683.31947 C 509.95214,680.80606 510.25323,680.51385 511.79905,681.34115 C 514.06866,682.55581 515.57143,681.68705 515.57143,679.16031 C 515.57143,677.49105 513.80294,676.64544 512.03496,677.46933 C 511.73989,677.60683 511.12645,677.11738 510.67175,676.38166 C 510.21705,675.64594 508.32097,674.97094 506.45823,674.88166 L 503.07143,674.71933 L 502.56068,680.45491 C 502.06196,686.05552 502.11761,686.21408 504.92555,687.19293 C 506.50714,687.74428 508.31198,687.90362 508.9363,687.54703 C 509.56062,687.19044 509.73783,687.26692 509.33011,687.717 C 508.38835,688.75655 510.49745,691.38309 511.68474,690.6493 C 512.17242,690.3479 512.57143,689.501 512.57143,688.7673 z M 180.40341,676.30925 C 182.09684,675.40295 182.3427,674.57689 181.84435,671.46792 C 181.51386,669.40619 180.65606,666.30432 179.93812,664.57487 C 178.6334,661.43189 178.6292,661.43044 170.9974,661.46895 L 163.36202,661.50747 L 163.75273,668.42213 C 164.15872,675.60709 165.38961,677.64836 168.82043,676.82621 C 169.78239,676.5957 170.78328,676.75309 171.04464,677.17597 C 171.69357,678.22597 177.89513,677.65164 180.40341,676.30925 z M 165.65038,671.80266 C 165.60696,670.7485 165.8433,670.15787 166.1756,670.49016 C 166.50789,670.82246 166.54341,671.68495 166.25454,672.40683 C 165.93532,673.20456 165.69836,672.96761 165.65038,671.80266 z M 168.25893,672.5735 C 167.8808,672.19537 167.57143,670.386 167.57143,668.55266 C 167.57143,665.66377 167.90476,665.21933 170.07143,665.21933 C 172.07143,665.21933 172.57143,665.71933 172.57143,667.71933 C 172.57143,669.09433 172.12143,670.21933 171.57143,670.21933 C 171.02143,670.21933 170.68393,670.72558 170.82143,671.34433 C 171.11615,672.67056 169.25077,673.56533 168.25893,672.5735 z M 519.57143,667.6559 C 519.57143,665.83071 519.05915,664.02075 518.43302,663.63379 C 517.61537,663.12846 517.49246,663.98486 517.9968,666.67321 C 518.47462,669.22024 518.35909,670.20613 517.63521,669.75875 C 517.00768,669.37091 516.57143,669.9959 516.57143,671.28276 C 516.57143,673.10845 516.81606,673.26119 518.07143,672.21933 C 518.89643,671.53464 519.57143,669.4811 519.57143,667.6559 z M 161.6935,669.54433 C 160.82195,668.04556 160.62681,668.00236 160.60184,669.30266 C 160.56949,670.98674 161.62103,672.50306 162.32976,671.79433 C 162.56351,671.56058 162.27719,670.54808 161.6935,669.54433 z M 511.57311,668.71933 C 511.93072,666.62062 512.7277,665.62734 514.22592,665.41314 C 516.69261,665.06047 518.02348,661.60677 515.99295,660.82759 C 515.24634,660.54109 514.35139,660.76634 514.00418,661.32815 C 513.6071,661.97064 512.72134,661.75998 511.61677,660.76036 C 509.13484,658.51425 506.7799,659.80842 505.59654,664.06882 C 503.7314,670.78382 504.36541,672.50173 508.52926,672.01524 C 510.46871,671.78864 511.18167,671.01664 511.57311,668.71933 z M 515.57143,670.71933 C 515.57143,669.89433 514.89643,669.21933 514.07143,669.21933 C 513.24643,669.21933 512.57143,669.89433 512.57143,670.71933 C 512.57143,671.54433 513.24643,672.21933 514.07143,672.21933 C 514.89643,672.21933 515.57143,671.54433 515.57143,670.71933 z M 519.83631,654.16047 L 519.15014,648.71933 L 518.48608,653.21933 C 518.10082,655.83005 518.24909,658.25428 518.83923,658.9935 C 520.39965,660.94811 520.58127,660.0678 519.83631,654.16047 z M 175.82143,658.30266 C 178.25671,658.22887 178.56272,657.84739 178.49535,654.96933 C 178.45351,653.18183 177.86932,650.19915 177.19715,648.34115 C 176.05558,645.18565 175.66504,644.95494 171.27245,644.84115 C 166.52241,644.7181 164.6888,646.48703 168.35894,647.65189 C 169.68004,648.07119 170.17537,649.32815 170.2573,652.46927 C 170.31827,654.8068 170.1514,656.15683 169.88646,655.46933 C 169.62153,654.78183 168.54226,654.21933 167.4881,654.21933 C 165.83153,654.21933 165.57143,653.47295 165.57143,648.71933 C 165.57143,643.96245 165.31202,643.21933 163.6515,643.21933 C 161.92902,643.21933 161.76438,643.86209 162.05064,649.46933 C 162.51494,658.56416 162.52002,658.60407 163.13469,657.9894 C 163.44449,657.6796 164.89712,657.74684 166.36276,658.13881 C 167.82839,658.53078 169.93742,658.74675 171.04949,658.61874 C 172.16156,658.49073 174.30893,658.3485 175.82143,658.30266 z M 516.57143,657.07957 C 516.57143,656.45271 515.82768,655.39597 514.91865,654.73128 C 513.07493,653.38311 513.86672,651.21933 516.20377,651.21933 C 518.43538,651.21933 517.4349,647.98222 515.07143,647.55559 C 509.86652,646.61603 509.12231,646.78973 507.94312,649.21933 C 507.27577,650.59433 506.96694,652.93252 507.25684,654.4153 C 507.6947,656.65489 508.40074,657.1766 511.42768,657.4972 C 513.43174,657.70946 515.40893,657.95877 515.82143,658.05123 C 516.23393,658.14368 516.57143,657.70644 516.57143,657.07957 z M 160.26076,644.46933 C 160.00923,643.50683 159.80343,644.29433 159.80343,646.21933 C 159.80343,648.14433 160.00923,648.93183 160.26076,647.96933 C 160.51228,647.00683 160.51228,645.43183 160.26076,644.46933 z M 520.64845,644.46933 C 520.6908,643.50683 520.93334,640.8639 521.18743,638.59616 C 521.58153,635.07865 521.34988,634.39466 519.61041,633.93977 C 518.02133,633.52422 517.57481,633.88237 517.58674,635.56295 C 517.59923,637.32178 517.78077,637.44279 518.57143,636.21933 C 519.2933,635.10231 519.54471,635.66855 519.55612,638.43711 C 519.57017,641.84901 519.39055,642.08797 517.37293,641.3416 C 515.03369,640.47626 513.67124,638.21933 515.4881,638.21933 C 516.08393,638.21933 516.5398,636.98183 516.50114,635.46933 C 516.43886,633.03249 516.33299,632.94708 515.57143,634.71933 C 514.73408,636.66796 514.7102,636.66453 514.64172,634.58596 C 514.57534,632.57121 511.38494,630.73915 510.12933,631.99476 C 509.82249,632.30161 509.57143,635.17766 509.57143,638.386 C 509.57143,642.79833 509.92245,644.21933 511.01241,644.21933 C 511.80495,644.21933 512.73151,643.76933 513.07143,643.21933 C 514.00237,641.71304 516.57143,642.01888 516.57143,643.636 C 516.57143,644.92582 517.88277,645.93631 519.82143,646.14038 C 520.23393,646.1838 520.60609,645.43183 520.64845,644.46933 z M 177.62466,639.13523 C 178.00145,637.71397 178.08636,634.22647 177.81335,631.38523 C 177.34183,626.47804 177.1731,626.21933 174.4442,626.21933 C 172.39904,626.21933 171.55317,626.72349 171.50804,627.96933 C 171.45948,629.31014 171.23319,629.19323 170.54027,627.46933 C 170.04285,626.23183 169.05888,625.1849 168.35365,625.14282 C 167.64843,625.10074 166.28393,624.91556 165.32143,624.7313 C 164.09863,624.49722 163.56076,625.04747 163.53599,626.55781 C 163.50215,628.62219 163.43633,628.60698 162.07143,626.21933 C 160.68055,623.78624 160.64135,623.84646 160.60687,628.46933 C 160.58738,631.08183 160.91328,633.21933 161.3311,633.21933 C 161.74891,633.21933 162.08641,634.67058 162.0811,636.44432 C 162.07027,640.05452 165.05076,641.69189 165.87111,638.52642 C 166.24167,637.09654 166.36364,637.189 166.45543,638.96933 C 166.57852,641.3568 169.05944,642.07514 169.90915,639.96933 C 170.20115,639.24568 170.44678,639.4829 170.49248,640.53269 C 170.55451,641.9575 171.25369,642.2789 173.75551,642.03269 C 176.20849,641.79128 177.0969,641.12599 177.62466,639.13523 z M 168.30988,637.09284 C 165.93299,635.76266 165.88049,629.93956 168.24951,630.39601 C 170.05915,630.74468 171.74508,635.32033 170.69184,637.02451 C 170.26532,637.71463 169.46213,637.73766 168.30988,637.09284 z M 163.65038,631.80266 C 163.60696,630.7485 163.8433,630.15787 164.1756,630.49016 C 164.50789,630.82246 164.54341,631.68495 164.25454,632.40683 C 163.93532,633.20456 163.69836,632.96761 163.65038,631.80266 z M 521.07887,628.46933 C 520.97195,626.95683 520.81404,624.2672 520.72795,622.49238 C 520.54429,618.70588 516.30279,615.08797 514.34388,617.04688 C 513.54634,617.84442 512.84655,617.86262 511.93903,617.10945 C 509.77338,615.31212 508.57143,617.11593 508.57143,622.16334 C 508.57143,626.20756 508.9764,627.25466 511.07143,628.62737 C 513.41386,630.16219 513.5724,630.15368 513.58674,628.49238 C 513.59868,627.10983 513.79227,627.01956 514.46569,628.08248 C 515.19483,629.23335 515.41375,629.23335 515.87143,628.08248 C 516.24939,627.13207 516.43744,627.24921 516.49248,628.46933 C 516.5359,629.43183 517.02143,630.21933 517.57143,630.21933 C 519.13813,630.21933 518.74207,627.06459 517.017,625.80319 C 515.18672,624.46485 516.05971,621.21933 518.24998,621.21933 C 519.15614,621.21933 519.64507,622.07722 519.5323,623.46933 C 519.18286,627.78334 519.57746,631.21933 520.42234,631.21933 C 520.89035,631.21933 521.18578,629.98183 521.07887,628.46933 z M 513.72932,623.21933 C 513.72932,621.84433 513.9563,621.28183 514.23371,621.96933 C 514.51112,622.65683 514.51112,623.78183 514.23371,624.46933 C 513.9563,625.15683 513.72932,624.59433 513.72932,623.21933 z M 179.25918,620.34984 C 179.62541,618.90306 179.95799,615.91933 179.99824,613.71933 L 180.07143,609.71933 L 174.19877,609.48998 C 170.96881,609.36383 167.72485,608.76162 166.98997,608.15173 C 165.13391,606.61133 164.14461,610.8874 165.01469,616.68952 C 165.65496,620.95912 165.86602,621.18742 170.37631,622.48909 C 176.28164,624.19337 178.41639,623.67926 179.25918,620.34984 z M 171.73953,620.58596 C 171.64708,619.96261 170.67143,619.21724 169.57143,618.92958 C 167.17722,618.30348 166.726,612.75773 168.99832,611.88576 C 171.24709,611.02283 172.73653,613.73241 172.30406,617.89954 C 172.08603,620.00043 171.83199,621.20931 171.73953,620.58596 z M 163.26076,611.46933 C 163.00923,610.50683 162.80343,611.29433 162.80343,613.21933 C 162.80343,615.14433 163.00923,615.93183 163.26076,614.96933 C 163.51228,614.00683 163.51228,612.43183 163.26076,611.46933 z M 518.81629,605.71933 C 518.06264,602.10401 517.68223,601.71375 514.86072,601.66131 C 513.14378,601.6294 511.00723,600.99597 510.11283,600.25369 C 507.35106,597.96162 506.07072,600.37688 507.14873,605.84523 C 508.1488,610.91818 510.2143,612.95804 513.18551,611.80706 C 514.91677,611.1364 514.93597,610.97669 513.41966,609.85949 C 512.2879,609.02564 511.93661,607.75986 512.30381,605.83896 C 512.66689,603.93961 513.09441,603.44749 513.62937,604.31308 C 514.26817,605.34669 514.72007,605.34086 515.99521,604.28258 C 517.38083,603.13262 517.57143,603.41247 517.57143,606.59689 C 517.57143,608.58923 517.12143,610.21933 516.57143,610.21933 C 516.02143,610.21933 515.57143,610.89433 515.57143,611.71933 C 515.57143,613.53564 517.20657,613.7105 517.90915,611.96933 C 518.19647,611.25727 518.51199,611.58003 518.64231,612.71933 C 518.8211,614.28231 518.95621,614.17306 519.26062,612.21933 C 519.47486,610.84433 519.27491,607.91933 518.81629,605.71933 z M 182.26499,603.13268 C 182.92144,601.25534 183.48394,598.54479 183.51499,597.10923 C 183.56786,594.66399 183.21506,594.46236 177.92898,593.91678 C 174.82563,593.59649 171.81063,592.85853 171.22898,592.27688 C 169.22444,590.27234 166.97881,591.20384 165.77232,594.54033 C 164.05751,599.28255 164.31221,602.65343 166.08808,598.71933 L 167.4423,595.71933 L 167.25686,600.184 L 167.07143,604.64868 L 171.91918,605.36509 C 174.58545,605.75911 176.97862,606.29319 177.23736,606.55192 C 178.59898,607.91355 181.21547,606.13409 182.26499,603.13268 z M 169.21211,602.36392 C 169.02122,602.0094 169.30716,600.14433 169.84752,598.21933 C 170.38788,596.29433 171.03525,595.28463 171.28612,595.97556 C 171.53699,596.66649 172.0628,597.03368 172.45459,596.79154 C 174.03609,595.81412 175.66523,597.99735 175.08319,600.31419 C 174.66551,601.97681 173.71955,602.76397 172.01908,602.86392 C 170.66613,602.94345 169.403,602.71845 169.21211,602.36392 z M 516.16819,594.0009 C 514.63543,588.08911 513.72861,586.95613 510.95421,587.48649 C 509.64368,587.73701 508.57143,587.55439 508.57143,587.08066 C 508.57143,586.60693 507.44643,586.21933 506.07143,586.21933 C 503.79452,586.21933 503.5728,586.59858 503.58674,590.46933 C 503.60768,596.28126 504.65134,597.65335 508.47021,596.88957 C 510.24211,596.53519 511.57143,596.68726 511.57143,597.24433 C 511.57143,597.78058 512.02143,598.21933 512.57143,598.21933 C 514.25899,598.21933 513.6825,595.75892 511.57143,593.95136 C 510.47143,593.00951 509.57832,591.447 509.58674,590.47912 C 509.59898,589.07321 509.7797,588.99988 510.48547,590.11448 C 511.19206,591.23038 511.44395,591.13031 511.74394,589.61448 C 511.97412,588.45139 512.82191,589.94093 513.93868,593.47058 C 516.01816,600.04294 517.84755,600.47809 516.16819,594.0009 z M 184.9387,588.78156 C 185.75669,587.53315 186.74504,584.81086 187.13503,582.73202 L 187.8441,578.95231 L 184.70777,579.41263 C 182.98278,579.6658 181.57143,579.57638 181.57143,579.21392 C 181.57143,578.20766 174.37731,576.22127 173.25192,576.9168 C 172.66206,577.28135 172.58298,577.00966 173.05612,576.24411 C 173.58477,575.38873 173.38591,575.11262 172.46063,575.41729 C 171.69657,575.66887 170.21697,578.23172 169.17262,581.1125 C 167.40864,585.97841 167.39089,586.46736 168.92262,587.9991 C 170.28809,589.36456 170.57406,589.39627 170.58674,588.18362 C 170.59896,587.01524 170.77075,586.98537 171.43685,588.03581 C 171.89599,588.75988 172.90159,589.47941 173.67154,589.63477 C 174.44148,589.79013 175.74643,590.17456 176.57143,590.48906 C 181.47975,592.36016 182.76588,592.0977 184.9387,588.78156 z M 175.14361,586.54683 C 174.27805,584.29122 175.42851,581.21933 177.13882,581.21933 C 177.92675,581.21933 178.57143,581.69589 178.57143,582.27835 C 178.57143,582.86081 179.02143,583.05925 179.57143,582.71933 C 180.90874,581.89283 180.7785,583.26165 179.28599,585.71933 C 177.74375,588.25891 175.93895,588.61945 175.14361,586.54683 z M 169.57143,583.27835 C 169.57143,582.76081 170.01628,582.06243 170.55998,581.72641 C 171.12684,581.37607 171.29448,581.77747 170.95299,582.66739 C 170.2882,584.39981 169.57143,584.71678 169.57143,583.27835 z M 508.77509,582.4712 C 511.20762,582.05259 511.41834,581.69072 510.87637,578.86263 C 509.55159,571.94975 508.78396,570.92682 505.42527,571.59856 C 503.71816,571.93998 501.47768,572.21933 500.44643,572.21933 C 498.03667,572.21933 498.08188,573.85838 500.65189,579.66832 C 502.27772,583.34379 503.09719,584.21475 504.40189,583.65401 C 505.32014,583.25937 507.28808,582.7271 508.77509,582.4712 z M 504.78362,579.7857 C 503.15941,576.22093 503.24754,575.53729 505.40405,574.97335 C 506.72487,574.62795 507.53843,575.29356 508.31719,577.35672 C 509.16901,579.61345 509.11625,580.21933 508.0679,580.21933 C 507.33651,580.21933 506.57108,580.72037 506.36696,581.33275 C 506.16283,581.94513 505.45033,581.24896 504.78362,579.7857 z M 192.77185,570.1768 C 194.28781,567.24305 195.39805,564.71262 195.23906,564.55363 C 195.08007,564.39464 194.07731,564.12886 193.01071,563.96301 C 191.94411,563.79716 190.48738,563.29711 189.77354,562.85179 C 189.0597,562.40646 187.82221,562.29286 187.02354,562.59933 C 186.22488,562.90581 185.57143,562.72068 185.57143,562.18795 C 185.57143,561.65521 184.93393,561.21933 184.15476,561.21933 C 183.3756,561.21933 182.4756,560.65683 182.15476,559.96933 C 181.74953,559.10098 181.40776,559.05768 181.03537,559.82752 C 180.74053,560.43702 179.81875,561.78702 178.98696,562.82752 C 177.76258,564.35911 177.78348,564.0828 179.09676,561.3764 C 179.98894,559.53779 180.46072,557.77529 180.14517,557.45973 C 179.43549,556.75006 179.55942,556.56484 176.28171,563.23368 C 173.74999,568.38473 172.34183,574.70912 174.47742,571.3372 C 175.16564,570.25055 175.49666,570.40839 176.02578,572.07551 C 176.81445,574.56038 184.92894,577.36547 188.04349,576.22991 C 189.12813,575.83445 191.25589,573.11055 192.77185,570.1768 z M 180.95085,569.76571 C 180.35114,568.20287 183.13045,563.50868 184.34069,564.04036 C 185.979,564.76011 186.59102,567.3142 185.57852,569.20608 C 184.3229,571.55223 181.75555,571.8627 180.95085,569.76571 z M 175.60206,568.71933 C 175.60206,568.16933 176.03827,567.04433 176.57143,566.21933 C 177.10459,565.39433 177.5408,565.16933 177.5408,565.71933 C 177.5408,566.26933 177.10459,567.39433 176.57143,568.21933 C 176.03827,569.04433 175.60206,569.26933 175.60206,568.71933 z M 504.90704,569.1336 C 506.09133,569.11704 506.546,568.59545 506.18843,567.66363 C 505.8836,566.86927 506.18258,566.19081 506.85281,566.15594 C 507.52305,566.12108 507.0119,565.66818 505.71691,565.1495 C 504.23744,564.55693 503.57083,563.66328 503.92324,562.74492 C 504.2317,561.94107 503.94124,560.94449 503.27776,560.53029 C 501.25766,559.26916 498.57143,559.16515 498.57143,560.34805 C 498.57143,561.11635 498.10762,561.07929 497.08326,560.22915 C 494.86753,558.39026 494.18801,561.08168 495.57114,566.21826 C 496.65978,570.26116 496.82969,570.40187 499.88791,569.79304 C 501.63885,569.44447 503.89746,569.14772 504.90704,569.1336 z M 500.14286,565.6479 C 498.0361,563.54115 498.16371,562.6479 500.57143,562.6479 C 501.67143,562.6479 502.57143,562.96467 502.57143,563.35183 C 502.57143,563.73899 502.84457,564.76756 503.17842,565.63754 C 503.95898,567.67166 502.17271,567.67776 500.14286,565.6479 z M 200.10317,556.56493 C 202.73024,551.1954 202.7791,550.84435 201.0732,549.59696 C 200.08517,548.8745 198.89308,548.52054 198.42411,548.81038 C 197.95513,549.10022 197.57143,548.89656 197.57143,548.3578 C 197.57143,547.81904 196.22143,547.08173 194.57143,546.71933 C 192.92143,546.35693 191.57143,545.69432 191.57143,545.24686 C 191.57143,544.79941 190.83336,544.15008 189.93127,543.80392 C 188.07964,543.09338 186.01855,545.46636 183.3902,551.33482 C 181.48987,555.57778 181.4879,555.57463 188.5753,559.62546 C 195.42723,563.5417 196.87822,563.15648 200.10317,556.56493 z M 191.92983,555.98396 C 192.41686,554.49494 192.22523,554.41859 190.57991,555.44611 C 187.80753,557.17748 187.07525,555.7656 189.22316,552.83022 C 191.50816,549.70748 192.77127,549.13733 194.14543,550.60838 C 194.90474,551.42123 194.65881,552.60093 193.28557,554.73308 C 192.22773,556.37552 191.61765,556.93841 191.92983,555.98396 z M 184.58674,551.02835 C 184.57832,550.09831 185.02143,549.05925 185.57143,548.71933 C 186.83703,547.93715 186.83703,549.26096 185.57143,551.21933 C 184.73603,552.51202 184.59994,552.48562 184.58674,551.02835 z M 500.64371,556.21933 C 502.03689,556.21933 496.24624,548.30054 494.82143,548.25728 C 494.13393,548.23641 493.57143,548.69589 493.57143,549.27835 C 493.57143,549.86081 493.16204,550.08435 492.66167,549.7751 C 491.49222,549.05234 488.57143,550.16005 488.57143,551.32632 C 488.57143,554.08662 494.97108,557.50561 498.40322,556.57892 C 499.1357,556.38115 500.14392,556.21933 500.64371,556.21933 z M 494.22209,553.75136 C 493.3493,551.4769 495.02458,551.11404 496.37975,553.28401 C 497.35903,554.85209 497.32244,555.21933 496.18689,555.21933 C 495.41608,555.21933 494.53192,554.55874 494.22209,553.75136 z M 182.05801,550.59721 C 182.89039,548.60504 183.55257,546.69254 183.52951,546.34721 C 183.47592,545.54444 179.66935,552.46725 179.61335,553.46933 C 179.51182,555.28592 180.66503,553.93107 182.05801,550.59721 z M 207.10661,546.60432 C 208.46226,545.71606 209.57143,544.50757 209.57143,543.91877 C 209.57143,543.32997 210.54987,541.80673 211.74574,540.53378 L 213.92006,538.21933 L 211.83554,538.21933 C 210.68906,538.21933 207.48962,536.43179 204.72567,534.24702 L 199.70032,530.27471 L 197.55432,533.74702 C 195.49558,537.07812 194.56985,537.65087 191.82143,537.29398 C 191.13393,537.2047 190.57143,537.51596 190.57143,537.98566 C 190.57143,539.13659 196.73681,545.38728 197.30832,544.81577 C 197.55698,544.56711 199.1804,545.22951 200.91593,546.28776 C 204.70663,548.59917 204.10875,548.5686 207.10661,546.60432 z M 200.57143,542.21354 C 200.57143,541.4367 199.63406,541.16537 198.01775,541.47434 L 195.46407,541.96251 L 197.51775,539.77647 C 198.64728,538.57415 199.62363,536.71943 199.68743,535.65488 C 199.78817,533.97403 199.86361,533.94961 200.26076,535.46933 C 200.51228,536.43183 201.33352,537.21933 202.08574,537.21933 C 204.3535,537.21933 204.49367,538.59713 202.47903,541.08511 C 201.42985,542.38079 200.57143,542.88859 200.57143,542.21354 z M 490.42221,547.1215 C 494.02576,545.8653 494.28307,544.65222 491.62252,541.46273 C 490.35927,539.94833 488.97238,539.34831 487.40579,539.63842 C 486.12189,539.87618 484.50893,540.10415 483.82143,540.14502 C 482.03768,540.25106 482.27746,542.93883 484.32143,545.7498 C 486.3638,548.55857 486.32492,548.54983 490.42221,547.1215 z M 486.96444,543.63754 C 487.29829,542.76756 487.58574,541.53006 487.60323,540.88754 C 487.63797,539.61162 490.57143,543.09331 490.57143,544.41046 C 490.57143,544.85534 489.62329,545.21933 488.46444,545.21933 C 486.95399,545.21933 486.5293,544.77149 486.96444,543.63754 z M 484.22635,536.6762 C 484.97119,534.73518 484.23011,533.98043 481.43591,533.83431 C 479.22221,533.71855 477.41703,531.21933 479.54711,531.21933 C 480.17847,531.21933 480.36728,530.66018 479.9692,529.96933 C 479.57305,529.28183 480.4957,529.84433 482.01954,531.21933 C 483.54337,532.59433 485.20129,534.61933 485.70379,535.71933 C 486.4042,537.25256 486.47865,537.01918 486.02277,534.71933 C 485.69571,533.06933 484.25767,530.77724 482.82713,529.62581 C 480.54258,527.78698 479.76859,527.66738 476.46516,528.64277 C 474.39661,529.25354 472.38027,530.07716 471.98439,530.47304 C 471.58851,530.86891 472.79615,532.76899 474.66802,534.69542 C 478.34195,538.47644 483.15296,539.47343 484.22635,536.6762 z M 196.95452,532.03017 C 196.64912,531.53602 196.94309,530.47643 197.60779,529.67553 C 199.85512,526.96765 197.30924,528.19706 194.42969,531.21023 C 191.50668,534.26888 191.05699,535.37156 192.24724,536.56181 C 193.16533,537.4799 197.65274,533.15991 196.95452,532.03017 z M 215.63717,535.18415 C 216.70101,534.6148 217.57143,533.5965 217.57143,532.92127 C 217.57143,532.24605 218.54266,531.24938 219.72972,530.70646 C 220.91678,530.16354 222.53712,528.72121 223.33048,527.50128 C 224.72061,525.36371 224.57362,525.19508 219.27915,522.85361 C 216.25756,521.51732 213.33076,519.6117 212.77516,518.6189 C 211.881,517.02112 211.56279,516.98066 210.00449,518.26657 C 208.37574,519.61061 208.33371,519.55095 209.44289,517.46933 C 211.09623,514.36649 209.56498,514.65389 205.60455,518.18976 C 203.11402,520.41331 202.54506,521.48263 203.34176,522.44259 C 204.10739,523.36512 204.00832,524.26894 202.98875,525.66329 C 200.99235,528.39353 201.13711,528.76552 205.10757,531.10815 C 208.3356,533.01273 208.69981,533.04835 209.28748,531.5169 C 209.64469,530.58605 209.40603,529.6642 208.75134,529.44597 C 205.58902,528.39186 209.08225,522.44651 212.82143,522.51882 C 214.96564,522.56029 215.20646,526.44742 213.16954,528.1379 C 211.07613,529.87529 210.20124,534.36839 211.76344,535.35916 C 213.42045,536.41006 213.33972,536.41371 215.63717,535.18415 z M 205.11414,522.28843 C 204.7977,521.77643 204.92115,521.12123 205.38845,520.83242 C 205.85576,520.54361 206.2381,520.96251 206.2381,521.76332 C 206.2381,523.44949 205.92276,523.59681 205.11414,522.28843 z M 475.07604,526.20481 C 475.4277,525.09682 476.13302,524.44838 476.64343,524.76383 C 478.93677,526.18119 477.23317,522.94774 473.96436,519.67893 L 470.3573,516.07187 L 467.96436,518.31991 C 466.64825,519.55634 465.57143,520.88612 465.57143,521.27499 C 465.57143,522.47472 471.877,528.21933 473.19388,528.21933 C 473.87741,528.21933 474.72438,527.3128 475.07604,526.20481 z M 470.64532,522.80836 C 469.8087,521.80029 469.78624,521.2046 470.56668,520.72227 C 471.89312,519.90248 474.77005,522.08894 474.0014,523.33264 C 473.20891,524.61492 471.9861,524.4239 470.64532,522.80836 z M 202.57143,522.94487 C 202.57143,520.92851 200.04985,523.06306 199.79203,525.29766 C 199.52146,527.6428 199.56097,527.65798 201.04203,525.7782 C 201.8832,524.71058 202.57143,523.43558 202.57143,522.94487 z M 228.55022,521.7303 C 230.13393,520.91133 231.7096,519.35935 232.05171,518.28145 C 232.39383,517.20355 233.57631,516.03517 234.67945,515.68505 C 237.25472,514.86769 236.75925,512.02702 233.81559,510.7322 C 232.5813,510.18928 231.57143,509.15022 231.57143,508.42319 C 231.57143,507.69615 231.12143,507.37941 230.57143,507.71933 C 230.02143,508.05925 229.57143,507.78581 229.57143,507.11168 C 229.57143,506.43755 229.2608,506.19662 228.88115,506.57628 C 228.5015,506.95593 227.63805,506.01843 226.96237,504.49294 C 226.0518,502.43714 225.71285,502.19992 225.65265,503.57632 C 225.59908,504.80104 225.06071,505.23733 224.07143,504.8577 C 223.0991,504.48459 222.56604,504.88668 222.55612,506.00072 C 222.54547,507.19585 222.30517,507.34849 221.7672,506.50186 C 220.795,504.97183 215.228,508.12401 213.63043,511.10909 C 212.76145,512.73279 213.01968,513.59996 215.01248,515.75022 C 216.36036,517.20461 217.65374,518.91764 217.88665,519.55695 C 218.19923,520.41495 218.89546,520.37267 220.54542,519.39551 C 222.17338,518.43137 222.57492,518.40466 222.0233,519.29721 C 221.57673,520.01977 222.02264,521.07609 223.10978,521.87103 C 225.37058,523.52417 225.06603,523.53204 228.55022,521.7303 z M 220.30686,514.96933 C 219.89101,513.7639 223.91698,509.21933 225.40071,509.21933 C 225.80014,509.21933 226.89755,510.11933 227.8394,511.21933 C 229.14415,512.74317 229.22622,513.21933 228.18409,513.21933 C 227.43182,513.21933 226.25612,513.89433 225.57143,514.71933 C 224.06018,516.54027 220.90058,516.69032 220.30686,514.96933 z M 466.57143,513.28765 C 466.57143,510.91621 466.52361,510.89975 465.09043,512.7782 C 463.83711,514.42092 463.46293,514.49608 462.65642,513.26708 C 461.5737,511.61718 462.23995,509.89643 463.62907,510.75496 C 464.13477,511.06749 464.27538,510.61142 463.94155,509.74147 C 463.25053,507.94068 460.01895,508.51928 457.57143,510.88201 C 456.2454,512.1621 456.47125,512.65826 459.51872,515.15995 C 462.33589,517.47258 463.29553,517.78407 464.76872,516.86405 C 465.76021,516.24485 466.57143,514.63547 466.57143,513.28765 z M 247.57022,505.72079 C 248.87939,504.14333 246.54435,499.81039 243.5099,498.1864 C 242.53183,497.66296 241.21146,495.65865 240.57574,493.73238 C 239.52451,490.54714 239.22304,490.33397 237.24565,491.37767 C 233.08566,493.57339 228.26451,498.97713 228.92646,500.70215 C 229.28364,501.63295 230.0612,502.03467 230.71888,501.6282 C 231.36483,501.22898 231.61292,501.34318 231.27776,501.88547 C 230.36606,503.36063 234.27972,509.17587 236.81551,510.11392 C 239.14543,510.97581 245.29305,508.46461 247.57022,505.72079 z M 235.32143,505.42082 C 234.23117,505.20393 233.57143,504.15783 233.57143,502.64601 C 233.57143,501.31133 233.90893,500.31493 234.32143,500.43178 C 234.73393,500.54863 236.05268,500.09952 237.25198,499.43377 C 239.01528,498.45492 239.71008,498.50084 240.88294,499.67369 C 241.68066,500.47141 242.67098,500.80802 243.08366,500.42171 C 243.49634,500.0354 243.28057,500.6295 242.60417,501.74194 C 241.12251,504.17874 237.71933,505.89786 235.32143,505.42082 z M 236.07698,494.2132 C 237.07552,493.10983 238.09883,492.4134 238.35101,492.66558 C 238.89264,493.2072 236.04207,496.21933 234.98787,496.21933 C 234.58834,496.21933 235.07844,495.31657 236.07698,494.2132 z M 457.45653,507.82641 C 458.99665,506.97273 459.43949,506.25582 458.70653,505.80283 C 458.08222,505.41699 457.57143,505.57785 457.57143,506.16031 C 457.57143,506.74277 457.07329,507.21933 456.46444,507.21933 C 455.8556,507.21933 455.61094,506.55874 455.92077,505.75136 C 456.23059,504.94397 456.05374,504.01741 455.52776,503.69234 C 455.00178,503.36727 454.57143,503.57785 454.57143,504.16031 C 454.57143,504.74277 453.89643,505.21933 453.07143,505.21933 C 451.26324,505.21933 451.13822,506.38612 452.77143,508.01933 C 454.24115,509.48905 454.47429,509.47945 457.45653,507.82641 z M 220.69899,502.46933 C 221.9685,500.85058 221.92144,500.82935 220.07143,502.18636 C 218.97143,502.99323 217.88393,503.78073 217.65476,503.93636 C 217.4256,504.092 217.708,504.21933 218.28232,504.21933 C 218.85664,504.21933 219.94414,503.43183 220.69899,502.46933 z M 450.00633,503.24408 C 451.41714,502.70769 452.57143,501.52759 452.57143,500.62164 C 452.57143,499.22159 452.33014,499.1747 450.96322,500.30914 C 449.60347,501.43763 449.16157,501.3793 448.10297,499.93158 C 446.9022,498.28943 442.57143,497.4856 442.57143,498.90488 C 442.57143,499.55083 446.62042,504.21933 447.18064,504.21933 C 447.32397,504.21933 448.59553,503.78047 450.00633,503.24408 z M 256.21602,499.69425 L 261.55359,497.16918 L 256.9151,491.44425 C 251.58029,484.85992 251.09235,484.55338 248.84585,486.37479 C 247.67655,487.32283 247.40897,487.35071 247.93849,486.46933 C 248.3701,485.75092 248.18703,485.21933 247.508,485.21933 C 246.67542,485.21933 246.73181,484.72482 247.69899,483.54468 C 248.89345,482.0872 248.71482,482.10212 246.32143,483.65969 C 243.16741,485.71228 242.79357,486.42225 245.32143,485.55883 C 246.40182,485.18981 245.93583,486.05986 244.10356,487.8327 C 241.70089,490.15744 241.45228,490.76529 242.79813,491.02447 C 243.72719,491.20339 244.23035,491.94461 243.93869,492.70466 C 243.65164,493.45268 244.31752,494.96542 245.41842,496.06632 C 246.51931,497.16721 247.91994,499.002 248.53092,500.14364 C 249.91576,502.73123 249.77954,502.7392 256.21602,499.69425 z M 246.93306,495.71933 C 246.01691,493.33188 247.27097,491.33284 250.13594,490.61378 C 254.13685,489.60962 255.22826,492.13957 252.01491,494.96933 C 249.02767,497.59996 247.72831,497.79173 246.93306,495.71933 z M 442.86426,496.96933 C 446.11031,495.46182 446.17681,495.07849 443.48403,493.39682 C 441.5843,492.21042 441.4555,492.2787 442.05142,494.15627 C 442.43371,495.36078 442.26201,496.21933 441.63882,496.21933 C 441.05175,496.21933 440.57143,495.76933 440.57143,495.21933 C 440.57143,494.66933 439.89643,494.21933 439.07143,494.21933 C 437.54902,494.21933 437.02017,496.33473 438.2381,497.55266 C 439.16398,498.47855 439.78246,498.40056 442.86426,496.96933 z M 269.90218,492.30836 L 275.43603,489.39739 L 272.57812,484.89093 C 271.00627,482.41238 269.57423,479.10982 269.39582,477.5519 C 269.1262,475.1976 268.65291,474.76639 266.59269,474.99807 C 265.22938,475.15138 263.65438,475.76445 263.09269,476.36046 C 262.36705,477.13044 262.75898,477.23584 264.44666,476.72459 C 266.15734,476.20637 266.61644,476.33749 266.08756,477.19322 C 265.67193,477.86573 264.34882,478.12929 263.03887,477.80052 C 261.43403,477.39773 259.8166,477.98359 257.76307,479.71153 C 254.92555,482.09914 254.8542,482.3563 256.05777,485.85728 C 256.74865,487.8669 258.28597,490.03137 259.47404,490.66721 C 260.6621,491.30304 261.32004,492.13738 260.93613,492.5213 C 260.55221,492.90522 260.9881,493.21933 261.90476,493.21933 C 262.82143,493.21933 263.57143,493.66933 263.57143,494.21933 C 263.57143,495.61067 263.6957,495.57316 269.90218,492.30836 z M 261.68533,486.49618 C 260.53625,485.26608 260.53816,484.83074 261.69755,483.70757 C 262.45318,482.97555 263.95512,482.22873 265.03518,482.04798 C 267.88858,481.57044 268.11144,484.63548 265.35465,486.4418 C 263.3342,487.76565 262.87752,487.77242 261.68533,486.49618 z M 265.01256,479.7745 C 266.08018,478.91915 267.39268,478.21933 267.92923,478.21933 C 269.19977,478.21933 268.63246,478.68123 265.57143,480.13904 C 263.21416,481.26169 263.18225,481.24087 265.01256,479.7745 z M 438.07143,492.21933 C 439.06692,491.11933 439.62347,490.21933 439.30821,490.21933 C 438.99294,490.21933 437.94938,489.91786 436.98917,489.54939 C 435.8685,489.11935 435.48162,489.265 435.90876,489.95613 C 436.33617,490.64769 435.82807,490.8377 434.48828,490.48733 C 432.94414,490.08353 432.7417,489.73213 433.70887,489.13439 C 435.89233,487.78494 432.05906,486.88799 429.64041,488.18241 C 427.57732,489.28654 427.58512,489.32767 430.31227,491.72782 C 433.69281,494.703 435.7082,494.83067 438.07143,492.21933 z M 287.31804,482.0974 C 286.57753,481.68299 284.8973,479.05011 283.58418,476.24654 C 282.01578,472.89795 280.72854,471.3288 279.83212,471.67279 C 279.08161,471.96079 278.71655,471.79354 279.02087,471.30113 C 279.3252,470.80873 278.63553,470.65131 277.48828,470.95133 C 275.90255,471.366 275.72237,471.69966 276.7369,472.34276 C 277.68408,472.94317 277.3458,473.22752 275.57143,473.32244 C 274.19643,473.39599 272.73393,473.40288 272.32143,473.33775 C 271.90893,473.27262 271.57143,474.57827 271.57143,476.2392 C 271.57143,479.42897 275.56992,486.68912 277.77069,487.49535 C 279.76309,488.22524 288.96812,483.02083 287.31804,482.0974 z M 276.21652,479.70176 C 274.97574,478.79448 274.60107,477.70131 275.04812,476.29277 C 275.69915,474.24156 277.57143,473.37561 277.57143,475.12571 C 277.57143,475.62422 278.47143,475.79674 279.57143,475.50908 C 281.09837,475.10978 281.57143,475.4784 281.57143,477.06752 C 281.57143,479.93665 278.56221,481.41698 276.21652,479.70176 z M 426.57143,487.41933 C 426.57143,486.97933 426.03893,486.08683 425.3881,485.436 C 424.73726,484.78516 424.45869,483.99874 424.76905,483.68838 C 425.07941,483.37802 426.06191,483.85266 426.95238,484.74314 C 428.30368,486.09444 428.57143,486.12001 428.57143,484.89775 C 428.57143,483.54564 426.58357,482.21933 424.55703,482.21933 C 423.40498,482.21933 422.28927,485.95377 423.0659,487.21038 C 423.8049,488.40611 426.57143,488.57101 426.57143,487.41933 z M 252.57143,483.66172 C 252.57143,482.48949 250.5977,482.48275 249.62759,483.65167 C 248.67122,484.80401 248.83342,484.96358 250.51428,484.52402 C 251.64571,484.22815 252.57143,483.84011 252.57143,483.66172 z M 421.57143,482.79191 C 421.57143,481.04076 416.67391,477.03796 415.45389,477.79197 C 413.94322,478.72562 414.48583,482.07009 416.32143,483.13923 C 418.86466,484.62052 421.57143,484.44145 421.57143,482.79191 z M 298.3518,480.77229 C 298.64472,480.47938 298.15309,478.54763 297.25929,476.47953 C 296.3655,474.41142 295.50758,471.36933 295.35282,469.71933 C 295.13097,467.35408 294.64827,466.78421 293.07143,467.02595 C 289.5232,467.56994 284.74353,470.19258 284.96514,471.47394 C 285.61326,475.22145 287.9357,480.33534 289.39644,481.23143 C 290.99531,482.21226 297.23156,481.89253 298.3518,480.77229 z M 287.02397,474.0698 C 286.25612,471.65051 286.32552,471.57014 289.97263,470.65477 C 292.03973,470.13596 292.66685,470.25592 292.16157,471.07349 C 291.74503,471.74745 292.09542,472.21933 293.01241,472.21933 C 294.6612,472.21933 295.13552,473.75267 293.75136,474.60813 C 293.30032,474.88689 291.74505,475.33007 290.2952,475.59297 C 288.2907,475.95646 287.50695,475.59153 287.02397,474.0698 z M 412.34666,477.77414 C 412.12688,475.11865 409.47193,473.90958 405.90746,474.84171 C 403.43388,475.48856 403.80312,478.85362 406.42406,479.54977 C 410.92661,480.74569 412.55225,480.25831 412.34666,477.77414 z M 406.57143,476.21933 C 406.57143,475.66933 407.02143,475.21933 407.57143,475.21933 C 408.12143,475.21933 408.57143,475.66933 408.57143,476.21933 C 408.57143,476.76933 408.12143,477.21933 407.57143,477.21933 C 407.02143,477.21933 406.57143,476.76933 406.57143,476.21933 z M 305.24783,476.96933 C 304.94162,475.73183 304.17771,472.58183 303.55027,469.96933 C 302.68081,466.34913 301.95302,465.21933 300.49045,465.21933 C 299.41903,465.21933 298.57143,465.90793 298.57143,466.77835 C 298.57143,467.70214 299.04183,468.04664 299.72594,467.62384 C 300.43373,467.1864 300.6093,467.34904 300.17969,468.04415 C 299.79428,468.66777 300.0021,470.15553 300.64152,471.35029 C 301.63443,473.20557 301.56821,473.43207 300.18776,472.90235 C 298.27434,472.1681 298.14964,473.19949 299.73195,476.67228 C 301.30587,480.12667 306.09289,480.38447 305.24783,476.96933 z M 341.40381,475.87756 C 343.23662,475.7672 344.95557,476.03186 345.22369,476.46569 C 345.49181,476.89952 349.39224,476.97709 353.89131,476.63806 C 368.40766,475.54418 374.63893,472.82536 363.08021,472.62876 C 357.79723,472.53891 351.57143,470.68678 351.57143,469.205 C 351.57143,468.78057 352.35893,468.1238 353.32143,467.74551 C 355.75006,466.791 370.5291,464.10796 373.56829,464.06983 C 376.14134,464.03754 377.52937,462.74249 377.55612,460.34914 C 377.56822,459.26579 376.26304,459.11333 371.32143,459.62086 C 358.38071,460.94994 356.57143,461.00446 356.57143,460.06535 C 356.57143,459.53512 356.12143,459.37941 355.57143,459.71933 C 355.02143,460.05925 354.57143,459.83425 354.57143,459.21933 C 354.57143,458.60441 354.15986,458.35566 353.65684,458.66654 C 353.15382,458.97743 352.56882,458.71149 352.35684,458.07556 C 352.08138,457.24919 351.12983,457.19809 349.02143,457.89645 C 346.78161,458.63834 345.99627,459.57722 345.75921,461.79645 C 345.58749,463.40403 344.71399,465.28183 343.81808,465.96933 C 341.59911,467.67213 336.47927,467.54351 333.87519,465.71954 C 332.6975,464.89465 330.98861,464.50575 330.07766,464.85531 C 328.84848,465.32699 328.50521,465.00743 328.74641,463.61598 C 329.06682,461.76769 334.00757,459.38469 338.07143,459.11838 C 339.68134,459.01289 339.74105,458.90024 338.37759,458.54082 C 337.44597,458.29524 335.08347,458.53617 333.12759,459.07621 C 329.43178,460.09668 328.53057,459.32806 331.01009,457.27024 C 331.93414,456.50334 335.20609,456.19127 340.15744,456.3978 C 345.24073,456.60982 348.00064,456.33557 348.26105,455.59254 C 348.82095,453.99497 345.99016,453.07018 339.13266,452.61038 C 335.08596,452.33904 332.94031,452.61156 332.39797,453.46575 C 331.76309,454.4657 331.59896,454.46643 331.58674,453.46933 C 331.57832,452.78183 331.07329,452.21933 330.46444,452.21933 C 329.8489,452.21933 329.63709,452.94805 329.98733,453.86077 C 330.46969,455.11777 330.31436,455.25087 329.32414,454.42906 C 328.37438,453.64083 326.75742,454.00153 323.23399,455.78762 C 320.5956,457.12506 317.67968,458.22622 316.75417,458.23464 C 313.50543,458.26421 312.33045,459.94966 312.14014,464.85326 C 311.86066,472.05461 313.39796,473.79202 320.84469,474.69087 C 324.2694,475.10424 328.26691,475.50321 329.72805,475.57747 C 331.1892,475.65173 332.13172,476.12177 331.82256,476.62201 C 331.49483,477.15228 332.68044,477.22853 334.66594,476.80486 C 336.53896,476.4052 339.571,475.98791 341.40381,475.87756 z M 401.57143,474.93857 C 401.57143,474.23415 400.14974,473.12118 398.41212,472.4653 C 395.70105,471.44198 395.07237,471.51729 393.98096,472.99606 C 392.86015,474.51467 393.0869,474.79277 395.89026,475.33769 C 400.99664,476.33027 401.57143,476.28989 401.57143,474.93857 z M 391.57143,472.29076 C 391.57143,471.78004 392.25633,470.67729 393.09342,469.8402 C 394.45607,468.47754 394.24748,468.24918 391.10095,467.65889 C 387.26513,466.93929 384.57143,467.57009 384.57143,469.18795 C 384.57143,470.51016 387.25876,470.53425 388.07143,469.21933 C 388.41135,468.66933 389.14505,468.21933 389.70188,468.21933 C 390.2587,468.21933 390.03929,468.89433 389.21429,469.71933 C 388.38929,470.54433 387.23214,471.21933 386.64286,471.21933 C 386.05357,471.21933 385.57143,471.66933 385.57143,472.21933 C 385.57143,472.76933 386.92143,473.21933 388.57143,473.21933 C 390.22143,473.21933 391.57143,472.80147 391.57143,472.29076 z M 380.86118,469.21933 C 380.51292,467.88757 379.45831,467.19377 377.7048,467.14282 C 376.25645,467.10074 374.28572,466.91582 373.3254,466.73189 C 372.36508,466.54795 371.28222,466.87827 370.91903,467.46592 C 370.49452,468.15279 371.0288,468.33299 372.41506,467.97047 C 373.86868,467.59034 374.57143,467.8649 374.57143,468.81295 C 374.57143,470.55421 377.23257,470.68031 377.87167,468.96933 C 378.18856,468.12097 378.57102,468.28163 379.06199,469.46933 C 380.05897,471.88109 381.50471,471.6802 380.86118,469.21933 z M 369.06135,467.20302 C 368.71589,466.64405 368.01433,466.4456 367.50233,466.76204 C 366.11529,467.61928 366.37392,468.21933 368.13045,468.21933 C 368.98791,468.21933 369.40681,467.76199 369.06135,467.20302 z M 342.52798,464.77169 C 343.38994,463.73309 343.43313,462.81478 342.68083,461.52169 C 341.68264,459.80594 341.63079,459.80494 341.60184,461.50072 C 341.56221,463.82249 338.95793,464.78499 337.03453,463.18871 C 335.20234,461.66813 334.29575,462.33734 335.15488,464.5762 C 335.94298,466.62995 340.87718,466.76078 342.52798,464.77169 z"
         style="fill:#000000" />
    </g>
  </g>
</svg>
