<?xml version="1.0" encoding="UTF-8" standalone="no"?>
<!-- Generator: Adobe Illustrator 12.0.0, SVG Export Plug-In . SVG Version: 6.00 Build 51448)  -->
<svg
   xmlns:dc="http://purl.org/dc/elements/1.1/"
   xmlns:cc="http://web.resource.org/cc/"
   xmlns:rdf="http://www.w3.org/1999/02/22-rdf-syntax-ns#"
   xmlns:svg="http://www.w3.org/2000/svg"
   xmlns="http://www.w3.org/2000/svg"
   xmlns:sodipodi="http://sodipodi.sourceforge.net/DTD/sodipodi-0.dtd"
   xmlns:inkscape="http://www.inkscape.org/namespaces/inkscape"
   version="1.1"
   baseProfile="basic"
   id="svg2"
   sodipodi:version="0.32"
   inkscape:version="0.44.1"
   sodipodi:docbase="C:\temp\webdesign"
   sodipodi:docname="pos3b.svg"
   width="1000"
   height="1000"
   viewBox="0 0 1000 1000"
   overflow="visible"
   enable-background="new 0 0 1000 1000"
   xml:space="preserve"><metadata
   id="metadata3938"><rdf:RDF><cc:Work
       rdf:about=""><dc:format>image/svg+xml</dc:format><dc:type
         rdf:resource="http://purl.org/dc/dcmitype/StillImage" /></cc:Work></rdf:RDF></metadata><defs
   id="defs3936"><clipPath
     clipPathUnits="userSpaceOnUse"
     id="clipPath3258"><path
       style="fill:none;fill-rule:evenodd;stroke:#ff8080;stroke-width:1.95373595px;stroke-linecap:butt;stroke-linejoin:miter;stroke-opacity:1"
       d="M 421.4698,2077.5749 L -117.4919,2567.3045 C -359.45429,2251.6693 -372.95691,1923.3419 -117.4919,1580.0719 L 421.4698,2077.5749 z "
       id="path3256"
       sodipodi:nodetypes="cccc" /></clipPath><clipPath
     clipPathUnits="userSpaceOnUse"
     id="clipPath3261"><path
       style="fill:none;fill-rule:evenodd;stroke:#ff8080;stroke-width:1.95373595px;stroke-linecap:butt;stroke-linejoin:miter;stroke-opacity:1"
       d="M 421.4698,2077.5749 L -117.4919,2567.3045 C -359.45429,2251.6693 -372.95691,1923.3419 -117.4919,1580.0719 L 421.4698,2077.5749 z "
       id="path3263"
       sodipodi:nodetypes="cccc" /></clipPath><clipPath
     clipPathUnits="userSpaceOnUse"
     id="clipPath3265"><path
       style="fill:none;fill-rule:evenodd;stroke:#ff8080;stroke-width:1.95373595px;stroke-linecap:butt;stroke-linejoin:miter;stroke-opacity:1"
       d="M 421.4698,2077.5749 L -117.4919,2567.3045 C -359.45429,2251.6693 -372.95691,1923.3419 -117.4919,1580.0719 L 421.4698,2077.5749 z "
       id="path3267"
       sodipodi:nodetypes="cccc" /></clipPath><clipPath
     clipPathUnits="userSpaceOnUse"
     id="clipPath3269"><path
       style="fill:none;fill-rule:evenodd;stroke:#ff8080;stroke-width:1.95373595px;stroke-linecap:butt;stroke-linejoin:miter;stroke-opacity:1"
       d="M 421.4698,2077.5749 L -117.4919,2567.3045 C -359.45429,2251.6693 -372.95691,1923.3419 -117.4919,1580.0719 L 421.4698,2077.5749 z "
       id="path3271"
       sodipodi:nodetypes="cccc" /></clipPath><clipPath
     clipPathUnits="userSpaceOnUse"
     id="clipPath3273"><path
       style="fill:none;fill-rule:evenodd;stroke:#ff8080;stroke-width:1.95373595px;stroke-linecap:butt;stroke-linejoin:miter;stroke-opacity:1"
       d="M 421.4698,2077.5749 L -117.4919,2567.3045 C -359.45429,2251.6693 -372.95691,1923.3419 -117.4919,1580.0719 L 421.4698,2077.5749 z "
       id="path3275"
       sodipodi:nodetypes="cccc" /></clipPath><clipPath
     clipPathUnits="userSpaceOnUse"
     id="clipPath3277"><path
       style="fill:none;fill-rule:evenodd;stroke:#ff8080;stroke-width:1.95373595px;stroke-linecap:butt;stroke-linejoin:miter;stroke-opacity:1"
       d="M 421.4698,2077.5749 L -117.4919,2567.3045 C -359.45429,2251.6693 -372.95691,1923.3419 -117.4919,1580.0719 L 421.4698,2077.5749 z "
       id="path3279"
       sodipodi:nodetypes="cccc" /></clipPath><clipPath
     clipPathUnits="userSpaceOnUse"
     id="clipPath3281"><path
       style="fill:none;fill-rule:evenodd;stroke:#ff8080;stroke-width:1.95373595px;stroke-linecap:butt;stroke-linejoin:miter;stroke-opacity:1"
       d="M 421.4698,2077.5749 L -117.4919,2567.3045 C -359.45429,2251.6693 -372.95691,1923.3419 -117.4919,1580.0719 L 421.4698,2077.5749 z "
       id="path3283"
       sodipodi:nodetypes="cccc" /></clipPath><clipPath
     clipPathUnits="userSpaceOnUse"
     id="clipPath3285"><path
       style="fill:none;fill-rule:evenodd;stroke:#ff8080;stroke-width:1.95373595px;stroke-linecap:butt;stroke-linejoin:miter;stroke-opacity:1"
       d="M 421.4698,2077.5749 L -117.4919,2567.3045 C -359.45429,2251.6693 -372.95691,1923.3419 -117.4919,1580.0719 L 421.4698,2077.5749 z "
       id="path3287"
       sodipodi:nodetypes="cccc" /></clipPath><clipPath
     clipPathUnits="userSpaceOnUse"
     id="clipPath3289"><path
       style="fill:none;fill-rule:evenodd;stroke:#ff8080;stroke-width:1.95373595px;stroke-linecap:butt;stroke-linejoin:miter;stroke-opacity:1"
       d="M 421.4698,2077.5749 L -117.4919,2567.3045 C -359.45429,2251.6693 -372.95691,1923.3419 -117.4919,1580.0719 L 421.4698,2077.5749 z "
       id="path3291"
       sodipodi:nodetypes="cccc" /></clipPath><clipPath
     clipPathUnits="userSpaceOnUse"
     id="clipPath3293"><path
       style="fill:none;fill-rule:evenodd;stroke:#ff8080;stroke-width:1.95373595px;stroke-linecap:butt;stroke-linejoin:miter;stroke-opacity:1"
       d="M 421.4698,2077.5749 L -117.4919,2567.3045 C -359.45429,2251.6693 -372.95691,1923.3419 -117.4919,1580.0719 L 421.4698,2077.5749 z "
       id="path3295"
       sodipodi:nodetypes="cccc" /></clipPath><clipPath
     clipPathUnits="userSpaceOnUse"
     id="clipPath3297"><path
       style="fill:none;fill-rule:evenodd;stroke:#ff8080;stroke-width:1.95373595px;stroke-linecap:butt;stroke-linejoin:miter;stroke-opacity:1"
       d="M 421.4698,2077.5749 L -117.4919,2567.3045 C -359.45429,2251.6693 -372.95691,1923.3419 -117.4919,1580.0719 L 421.4698,2077.5749 z "
       id="path3299"
       sodipodi:nodetypes="cccc" /></clipPath><clipPath
     clipPathUnits="userSpaceOnUse"
     id="clipPath3301"><path
       style="fill:none;fill-rule:evenodd;stroke:#ff8080;stroke-width:1.95373595px;stroke-linecap:butt;stroke-linejoin:miter;stroke-opacity:1"
       d="M 421.4698,2077.5749 L -117.4919,2567.3045 C -359.45429,2251.6693 -372.95691,1923.3419 -117.4919,1580.0719 L 421.4698,2077.5749 z "
       id="path3303"
       sodipodi:nodetypes="cccc" /></clipPath><clipPath
     clipPathUnits="userSpaceOnUse"
     id="clipPath3305"><path
       style="fill:none;fill-rule:evenodd;stroke:#ff8080;stroke-width:1.95373595px;stroke-linecap:butt;stroke-linejoin:miter;stroke-opacity:1"
       d="M 421.4698,2077.5749 L -117.4919,2567.3045 C -359.45429,2251.6693 -372.95691,1923.3419 -117.4919,1580.0719 L 421.4698,2077.5749 z "
       id="path3307"
       sodipodi:nodetypes="cccc" /></clipPath><clipPath
     clipPathUnits="userSpaceOnUse"
     id="clipPath3309"><path
       style="fill:none;fill-rule:evenodd;stroke:#ff8080;stroke-width:1.95373595px;stroke-linecap:butt;stroke-linejoin:miter;stroke-opacity:1"
       d="M 421.4698,2077.5749 L -117.4919,2567.3045 C -359.45429,2251.6693 -372.95691,1923.3419 -117.4919,1580.0719 L 421.4698,2077.5749 z "
       id="path3311"
       sodipodi:nodetypes="cccc" /></clipPath><clipPath
     clipPathUnits="userSpaceOnUse"
     id="clipPath3313"><path
       style="fill:none;fill-rule:evenodd;stroke:#ff8080;stroke-width:1.95373595px;stroke-linecap:butt;stroke-linejoin:miter;stroke-opacity:1"
       d="M 421.4698,2077.5749 L -117.4919,2567.3045 C -359.45429,2251.6693 -372.95691,1923.3419 -117.4919,1580.0719 L 421.4698,2077.5749 z "
       id="path3315"
       sodipodi:nodetypes="cccc" /></clipPath><clipPath
     clipPathUnits="userSpaceOnUse"
     id="clipPath3317"><path
       style="fill:none;fill-rule:evenodd;stroke:#ff8080;stroke-width:1.95373595px;stroke-linecap:butt;stroke-linejoin:miter;stroke-opacity:1"
       d="M 421.4698,2077.5749 L -117.4919,2567.3045 C -359.45429,2251.6693 -372.95691,1923.3419 -117.4919,1580.0719 L 421.4698,2077.5749 z "
       id="path3319"
       sodipodi:nodetypes="cccc" /></clipPath><clipPath
     clipPathUnits="userSpaceOnUse"
     id="clipPath3321"><path
       style="fill:none;fill-rule:evenodd;stroke:#ff8080;stroke-width:1.95373595px;stroke-linecap:butt;stroke-linejoin:miter;stroke-opacity:1"
       d="M 421.4698,2077.5749 L -117.4919,2567.3045 C -359.45429,2251.6693 -372.95691,1923.3419 -117.4919,1580.0719 L 421.4698,2077.5749 z "
       id="path3323"
       sodipodi:nodetypes="cccc" /></clipPath><clipPath
     clipPathUnits="userSpaceOnUse"
     id="clipPath3325"><path
       style="fill:none;fill-rule:evenodd;stroke:#ff8080;stroke-width:1.95373595px;stroke-linecap:butt;stroke-linejoin:miter;stroke-opacity:1"
       d="M 421.4698,2077.5749 L -117.4919,2567.3045 C -359.45429,2251.6693 -372.95691,1923.3419 -117.4919,1580.0719 L 421.4698,2077.5749 z "
       id="path3327"
       sodipodi:nodetypes="cccc" /></clipPath><clipPath
     clipPathUnits="userSpaceOnUse"
     id="clipPath3329"><path
       style="fill:none;fill-rule:evenodd;stroke:#ff8080;stroke-width:1.95373595px;stroke-linecap:butt;stroke-linejoin:miter;stroke-opacity:1"
       d="M 421.4698,2077.5749 L -117.4919,2567.3045 C -359.45429,2251.6693 -372.95691,1923.3419 -117.4919,1580.0719 L 421.4698,2077.5749 z "
       id="path3331"
       sodipodi:nodetypes="cccc" /></clipPath><clipPath
     clipPathUnits="userSpaceOnUse"
     id="clipPath3333"><path
       style="fill:none;fill-rule:evenodd;stroke:#ff8080;stroke-width:1.95373595px;stroke-linecap:butt;stroke-linejoin:miter;stroke-opacity:1"
       d="M 421.4698,2077.5749 L -117.4919,2567.3045 C -359.45429,2251.6693 -372.95691,1923.3419 -117.4919,1580.0719 L 421.4698,2077.5749 z "
       id="path3335"
       sodipodi:nodetypes="cccc" /></clipPath><clipPath
     clipPathUnits="userSpaceOnUse"
     id="clipPath3337"><path
       style="fill:none;fill-rule:evenodd;stroke:#ff8080;stroke-width:1.95373595px;stroke-linecap:butt;stroke-linejoin:miter;stroke-opacity:1"
       d="M 421.4698,2077.5749 L -117.4919,2567.3045 C -359.45429,2251.6693 -372.95691,1923.3419 -117.4919,1580.0719 L 421.4698,2077.5749 z "
       id="path3339"
       sodipodi:nodetypes="cccc" /></clipPath><clipPath
     clipPathUnits="userSpaceOnUse"
     id="clipPath3341"><path
       style="fill:none;fill-rule:evenodd;stroke:#ff8080;stroke-width:1.95373595px;stroke-linecap:butt;stroke-linejoin:miter;stroke-opacity:1"
       d="M 421.4698,2077.5749 L -117.4919,2567.3045 C -359.45429,2251.6693 -372.95691,1923.3419 -117.4919,1580.0719 L 421.4698,2077.5749 z "
       id="path3343"
       sodipodi:nodetypes="cccc" /></clipPath><clipPath
     clipPathUnits="userSpaceOnUse"
     id="clipPath3345"><path
       style="fill:none;fill-rule:evenodd;stroke:#ff8080;stroke-width:1.95373595px;stroke-linecap:butt;stroke-linejoin:miter;stroke-opacity:1"
       d="M 421.4698,2077.5749 L -117.4919,2567.3045 C -359.45429,2251.6693 -372.95691,1923.3419 -117.4919,1580.0719 L 421.4698,2077.5749 z "
       id="path3347"
       sodipodi:nodetypes="cccc" /></clipPath><clipPath
     clipPathUnits="userSpaceOnUse"
     id="clipPath3349"><path
       style="fill:none;fill-rule:evenodd;stroke:#ff8080;stroke-width:1.95373595px;stroke-linecap:butt;stroke-linejoin:miter;stroke-opacity:1"
       d="M 421.4698,2077.5749 L -117.4919,2567.3045 C -359.45429,2251.6693 -372.95691,1923.3419 -117.4919,1580.0719 L 421.4698,2077.5749 z "
       id="path3351"
       sodipodi:nodetypes="cccc" /></clipPath><clipPath
     clipPathUnits="userSpaceOnUse"
     id="clipPath3353"><path
       style="fill:none;fill-rule:evenodd;stroke:#ff8080;stroke-width:1.95373595px;stroke-linecap:butt;stroke-linejoin:miter;stroke-opacity:1"
       d="M 421.4698,2077.5749 L -117.4919,2567.3045 C -359.45429,2251.6693 -372.95691,1923.3419 -117.4919,1580.0719 L 421.4698,2077.5749 z "
       id="path3355"
       sodipodi:nodetypes="cccc" /></clipPath><clipPath
     clipPathUnits="userSpaceOnUse"
     id="clipPath3357"><path
       style="fill:none;fill-rule:evenodd;stroke:#ff8080;stroke-width:1.95373595px;stroke-linecap:butt;stroke-linejoin:miter;stroke-opacity:1"
       d="M 421.4698,2077.5749 L -117.4919,2567.3045 C -359.45429,2251.6693 -372.95691,1923.3419 -117.4919,1580.0719 L 421.4698,2077.5749 z "
       id="path3359"
       sodipodi:nodetypes="cccc" /></clipPath><clipPath
     clipPathUnits="userSpaceOnUse"
     id="clipPath3361"><path
       style="fill:none;fill-rule:evenodd;stroke:#ff8080;stroke-width:1.95373595px;stroke-linecap:butt;stroke-linejoin:miter;stroke-opacity:1"
       d="M 421.4698,2077.5749 L -117.4919,2567.3045 C -359.45429,2251.6693 -372.95691,1923.3419 -117.4919,1580.0719 L 421.4698,2077.5749 z "
       id="path3363"
       sodipodi:nodetypes="cccc" /></clipPath><clipPath
     clipPathUnits="userSpaceOnUse"
     id="clipPath3365"><path
       style="fill:none;fill-rule:evenodd;stroke:#ff8080;stroke-width:1.95373595px;stroke-linecap:butt;stroke-linejoin:miter;stroke-opacity:1"
       d="M 421.4698,2077.5749 L -117.4919,2567.3045 C -359.45429,2251.6693 -372.95691,1923.3419 -117.4919,1580.0719 L 421.4698,2077.5749 z "
       id="path3367"
       sodipodi:nodetypes="cccc" /></clipPath><clipPath
     clipPathUnits="userSpaceOnUse"
     id="clipPath3369"><path
       style="fill:none;fill-rule:evenodd;stroke:#ff8080;stroke-width:1.95373595px;stroke-linecap:butt;stroke-linejoin:miter;stroke-opacity:1"
       d="M 421.4698,2077.5749 L -117.4919,2567.3045 C -359.45429,2251.6693 -372.95691,1923.3419 -117.4919,1580.0719 L 421.4698,2077.5749 z "
       id="path3371"
       sodipodi:nodetypes="cccc" /></clipPath></defs><sodipodi:namedview
   inkscape:window-height="1174"
   inkscape:window-width="1600"
   inkscape:pageshadow="2"
   inkscape:pageopacity="1"
   guidetolerance="10.0"
   gridtolerance="10.0"
   objecttolerance="10.0"
   borderopacity="1.0"
   bordercolor="#666666"
   pagecolor="white"
   id="base"
   inkscape:zoom="0.754"
   inkscape:cx="500"
   inkscape:cy="500"
   inkscape:window-x="-4"
   inkscape:window-y="-4"
   inkscape:current-layer="g5065" />
<g
   transform="matrix(0,0.601669,-0.601669,0,1748.537,307.2085)"
   style="opacity:0.65"
   id="g3373"><path
     style="fill:none;fill-rule:evenodd;stroke:#ff8080;stroke-width:3.67396617px;stroke-linecap:butt;stroke-linejoin:miter;stroke-opacity:1"
     d="M 379.12553,2704.0207 L -312.44467,2115.9708 L -306.68394,2116.4748"
     id="path3040"
     clip-path="url(#clipPath3369)" /><path
     id="path3042"
     d="M 381.82366,2673.1809 L -309.74653,2085.131 L -303.9858,2085.635"
     style="fill:none;fill-rule:evenodd;stroke:#ff8080;stroke-width:3.67396617px;stroke-linecap:butt;stroke-linejoin:miter;stroke-opacity:1"
     clip-path="url(#clipPath3365)" /><path
     style="fill:none;fill-rule:evenodd;stroke:#ff8080;stroke-width:3.67396617px;stroke-linecap:butt;stroke-linejoin:miter;stroke-opacity:1"
     d="M 384.52181,2642.341 L -307.04839,2054.2911 L -301.28766,2054.7951"
     id="path3044"
     clip-path="url(#clipPath3361)" /><path
     id="path3046"
     d="M 387.21994,2611.5011 L -304.35024,2023.4512 L -298.58951,2023.9552"
     style="fill:none;fill-rule:evenodd;stroke:#ff8080;stroke-width:3.67396617px;stroke-linecap:butt;stroke-linejoin:miter;stroke-opacity:1"
     clip-path="url(#clipPath3357)" /><path
     style="fill:none;fill-rule:evenodd;stroke:#ff8080;stroke-width:3.67396617px;stroke-linecap:butt;stroke-linejoin:miter;stroke-opacity:1"
     d="M 389.91808,2580.6612 L -301.6521,1992.6113 L -295.89137,1993.1153"
     id="path3048"
     clip-path="url(#clipPath3353)" /><path
     id="path3050"
     d="M 392.61622,2549.8214 L -298.95397,1961.7714 L -293.19323,1962.2754"
     style="fill:none;fill-rule:evenodd;stroke:#ff8080;stroke-width:3.67396617px;stroke-linecap:butt;stroke-linejoin:miter;stroke-opacity:1"
     clip-path="url(#clipPath3349)" /><path
     id="path3052"
     d="M 395.31437,2518.9814 L -296.25582,1930.9315 L -290.49508,1931.4355"
     style="fill:none;fill-rule:evenodd;stroke:#ff8080;stroke-width:3.67396617px;stroke-linecap:butt;stroke-linejoin:miter;stroke-opacity:1"
     clip-path="url(#clipPath3345)" /><path
     style="fill:none;fill-rule:evenodd;stroke:#ff8080;stroke-width:3.67396617px;stroke-linecap:butt;stroke-linejoin:miter;stroke-opacity:1"
     d="M 398.01251,2488.1415 L -293.55768,1900.0916 L -287.79694,1900.5956"
     id="path3054"
     clip-path="url(#clipPath3341)" /><path
     id="path3056"
     d="M 400.71064,2457.3017 L -290.85954,1869.2517 L -285.0988,1869.7557"
     style="fill:none;fill-rule:evenodd;stroke:#ff8080;stroke-width:3.67396617px;stroke-linecap:butt;stroke-linejoin:miter;stroke-opacity:1"
     clip-path="url(#clipPath3337)" /><path
     style="fill:none;fill-rule:evenodd;stroke:#ff8080;stroke-width:3.67396617px;stroke-linecap:butt;stroke-linejoin:miter;stroke-opacity:1"
     d="M 403.40877,2426.4619 L -288.1614,1838.4119 L -282.40067,1838.9159"
     id="path3058"
     clip-path="url(#clipPath3333)" /><path
     id="path3060"
     d="M 406.10691,2395.622 L -285.46326,1807.572 L -279.70253,1808.076"
     style="fill:none;fill-rule:evenodd;stroke:#ff8080;stroke-width:3.67396617px;stroke-linecap:butt;stroke-linejoin:miter;stroke-opacity:1"
     clip-path="url(#clipPath3329)" /><path
     style="fill:none;fill-rule:evenodd;stroke:#ff8080;stroke-width:3.67396617px;stroke-linecap:butt;stroke-linejoin:miter;stroke-opacity:1"
     d="M 357.54039,2950.7399 L -334.0298,2362.69 L -328.26906,2363.194"
     id="path3068"
     clip-path="url(#clipPath3325)" /><path
     id="path3070"
     d="M 360.23853,2919.9001 L -331.33166,2331.8501 L -325.57092,2332.3541"
     style="fill:none;fill-rule:evenodd;stroke:#ff8080;stroke-width:3.67396617px;stroke-linecap:butt;stroke-linejoin:miter;stroke-opacity:1"
     clip-path="url(#clipPath3321)" /><path
     style="fill:none;fill-rule:evenodd;stroke:#ff8080;stroke-width:3.67396617px;stroke-linecap:butt;stroke-linejoin:miter;stroke-opacity:1"
     d="M 362.93668,2889.0601 L -328.63351,2301.0102 L -322.87277,2301.5142"
     id="path3072"
     clip-path="url(#clipPath3317)" /><path
     style="fill:none;fill-rule:evenodd;stroke:#ff8080;stroke-width:3.67396617px;stroke-linecap:butt;stroke-linejoin:miter;stroke-opacity:1"
     d="M 365.63482,2858.2202 L -325.93537,2270.1703 L -320.17464,2270.6743"
     id="path3074"
     clip-path="url(#clipPath3313)" /><path
     id="path3076"
     d="M 368.33296,2827.3803 L -323.23723,2239.3304 L -317.4765,2239.8344"
     style="fill:none;fill-rule:evenodd;stroke:#ff8080;stroke-width:3.67396617px;stroke-linecap:butt;stroke-linejoin:miter;stroke-opacity:1"
     clip-path="url(#clipPath3309)" /><path
     style="fill:none;fill-rule:evenodd;stroke:#ff8080;stroke-width:3.67396617px;stroke-linecap:butt;stroke-linejoin:miter;stroke-opacity:1"
     d="M 371.03109,2796.5405 L -320.5391,2208.4906 L -314.77836,2208.9946"
     id="path3078"
     clip-path="url(#clipPath3305)" /><path
     id="path3080"
     d="M 373.72923,2765.7006 L -317.84096,2177.6507 L -312.08022,2178.1547"
     style="fill:none;fill-rule:evenodd;stroke:#ff8080;stroke-width:3.67396617px;stroke-linecap:butt;stroke-linejoin:miter;stroke-opacity:1"
     clip-path="url(#clipPath3301)" /><path
     style="fill:none;fill-rule:evenodd;stroke:#ff8080;stroke-width:3.67396617px;stroke-linecap:butt;stroke-linejoin:miter;stroke-opacity:1"
     d="M 376.42738,2734.8607 L -315.14281,2146.8107 L -309.38207,2147.3147"
     id="path3082"
     clip-path="url(#clipPath3297)" /><path
     style="fill:none;fill-rule:evenodd;stroke:#ff8080;stroke-width:3.67396617px;stroke-linecap:butt;stroke-linejoin:miter;stroke-opacity:1"
     d="M 408.80505,2364.7821 L -282.76511,1776.732 L -277.00438,1777.236"
     id="path3106"
     clip-path="url(#clipPath3293)" /><path
     id="path3108"
     d="M 411.5032,2333.9421 L -280.06697,1745.8921 L -274.30623,1746.3961"
     style="fill:none;fill-rule:evenodd;stroke:#ff8080;stroke-width:3.67396617px;stroke-linecap:butt;stroke-linejoin:miter;stroke-opacity:1"
     clip-path="url(#clipPath3289)" /><path
     style="fill:none;fill-rule:evenodd;stroke:#ff8080;stroke-width:3.67396617px;stroke-linecap:butt;stroke-linejoin:miter;stroke-opacity:1"
     d="M 414.20134,2303.1023 L -277.36884,1715.0523 L -271.6081,1715.5563"
     id="path3110"
     clip-path="url(#clipPath3285)" /><path
     id="path3112"
     d="M 416.89948,2272.2624 L -274.67071,1684.2125 L -268.90997,1684.7165"
     style="fill:none;fill-rule:evenodd;stroke:#ff8080;stroke-width:3.67396617px;stroke-linecap:butt;stroke-linejoin:miter;stroke-opacity:1"
     clip-path="url(#clipPath3281)" /><path
     style="fill:none;fill-rule:evenodd;stroke:#ff8080;stroke-width:3.67396617px;stroke-linecap:butt;stroke-linejoin:miter;stroke-opacity:1"
     d="M 419.59762,2241.4225 L -271.97257,1653.3726 L -266.21184,1653.8766"
     id="path3114"
     clip-path="url(#clipPath3277)" /><path
     id="path3116"
     d="M 422.29577,2210.5826 L -269.27442,1622.5327 L -263.51369,1623.0367"
     style="fill:none;fill-rule:evenodd;stroke:#ff8080;stroke-width:3.67396617px;stroke-linecap:butt;stroke-linejoin:miter;stroke-opacity:1"
     clip-path="url(#clipPath3273)" /><path
     id="path3118"
     d="M 424.99389,2179.7428 L -266.57628,1591.6928 L -260.81555,1592.1968"
     style="fill:none;fill-rule:evenodd;stroke:#ff8080;stroke-width:3.67396617px;stroke-linecap:butt;stroke-linejoin:miter;stroke-opacity:1"
     clip-path="url(#clipPath3269)" /><path
     style="fill:none;fill-rule:evenodd;stroke:#ff8080;stroke-width:3.67396617px;stroke-linecap:butt;stroke-linejoin:miter;stroke-opacity:1"
     d="M 427.69204,2148.9028 L -263.87814,1560.8529 L -258.11741,1561.3569"
     id="path3120"
     clip-path="url(#clipPath3265)" /><path
     id="path3122"
     d="M 430.39019,2118.0629 L -261.18,1530.013 L -255.41926,1530.517"
     style="fill:none;fill-rule:evenodd;stroke:#ff8080;stroke-width:3.67396617px;stroke-linecap:butt;stroke-linejoin:miter;stroke-opacity:1"
     clip-path="url(#clipPath3261)" /><path
     style="fill:none;fill-rule:evenodd;stroke:#ff8080;stroke-width:3.67396617px;stroke-linecap:butt;stroke-linejoin:miter;stroke-opacity:1"
     d="M 433.08833,2087.223 L -258.48186,1499.1731 L -252.72112,1499.6771"
     id="path3124"
     clip-path="url(#clipPath3258)" /></g><path
   sodipodi:nodetypes="cccc"
   id="path2149"
   d="M 498.53671,560.00011 L 203.88161,235.72358 C 393.78951,90.142322 591.33392,82.018212 797.86883,235.72358 L 498.53671,560.00011 z "
   style="opacity:0.65;fill:none;fill-rule:evenodd;stroke:#ff8080;stroke-width:1.1755023px;stroke-linecap:butt;stroke-linejoin:miter;stroke-opacity:1" /><g
   id="g4637">
	<g
   id="g3651"
   transform="matrix(0.51184,0,0,0.51184,171.3137,42.01527)">
		<path
   id="path1872"
   sodipodi:nodetypes="cccccc"
   fill="#FFFFFF"
   stroke="#000000"
   stroke-width="4"
   stroke-linejoin="round"
   d="    M567.578,668.249c70.38,33.79,108.252,15.571,147.781,0c3.331-81.833,8.826-173.201,0-255.036    c-32.983-90.35-64.426-163.99-78.658-166.845c-19.989,29.366-41.37,67.077-73.888,171.612    C558.254,498.329,559.429,581.544,567.578,668.249z" />
		
			
	</g>
	<g
   id="g4576"
   transform="matrix(-0.51184,0,0,-0.51184,534.642,908.4335)">
		<path
   id="path4578"
   sodipodi:nodetypes="cccccc"
   fill="#FFFFFF"
   stroke="#000000"
   stroke-width="4"
   stroke-linejoin="round"
   d="    M-2.871,281.754c70.376,33.79,108.248,15.573,147.775,0c3.334-81.832,8.828-173.199,0-255.035    C111.926-63.63,80.481-137.273,66.251-140.127C46.261-110.757,24.879-73.048-7.64,31.485    C-12.197,111.836-11.025,195.053-2.871,281.754z" />
		
			
	</g>
</g>
<g
   id="g4645"
   transform="matrix(0.707107,-0.707107,0.707107,0.707107,-232.6496,388.783)">
	<g
   id="g4647"
   transform="matrix(0.51184,0,0,0.51184,171.3137,42.01527)">
		<path
   id="path4649"
   sodipodi:nodetypes="cccccc"
   fill="#FFFFFF"
   stroke="#000000"
   stroke-width="4"
   stroke-linejoin="round"
   d="    M347.392,813.334c70.38,33.786,108.25,15.568,147.779-0.001c3.334-81.834,8.828-173.202,0.001-255.036    c-32.981-90.351-64.424-163.99-78.656-166.846c-19.991,29.368-41.371,67.078-73.891,171.613    C338.068,643.414,339.24,726.629,347.392,813.334z" />
		
			
	</g>
	<g
   id="g4653"
   transform="matrix(-0.51184,0,0,-0.51184,534.642,908.4335)">
		<path
   id="path4655"
   sodipodi:nodetypes="cccccc"
   fill="#FFFFFF"
   stroke="#000000"
   stroke-width="4"
   stroke-linejoin="round"
   d="    M217.316,136.67c70.376,33.787,108.251,15.572,147.775,0.003c3.332-81.835,8.829-173.205,0-255.038    c-32.981-90.351-64.423-163.988-78.656-166.846c-19.989,29.368-41.369,67.078-73.886,171.611    C207.988-33.246,209.165,49.968,217.316,136.67z" />
		
			
	</g>
</g>
<g
   id="g4659"
   transform="matrix(0,-1,1,0,-122.2465,828.2023)">
	<g
   id="g4661"
   transform="matrix(0.51184,0,0,0.51184,171.3137,42.01527)">
		<path
   id="path4663"
   sodipodi:nodetypes="cccccc"
   fill="#FFFFFF"
   stroke="#000000"
   stroke-width="4"
   stroke-linejoin="round"
   d="    M89.108,760.227c70.376,33.79,108.245,15.57,147.778,0c3.331-81.833,8.826-173.201,0-255.034    c-32.985-90.352-64.424-163.992-78.657-166.847c-19.991,29.368-41.372,67.078-73.891,171.614    C79.782,590.308,80.957,673.523,89.108,760.227z" />
		
			
	</g>
	<g
   id="g4667"
   transform="matrix(-0.51184,0,0,-0.51184,534.642,908.4335)">
		<path
   id="path4669"
   sodipodi:nodetypes="cccccc"
   fill="#FFFFFF"
   stroke="#000000"
   stroke-width="4"
   stroke-linejoin="round"
   d="    M475.602,189.775c70.376,33.79,108.249,15.569,147.774,0c3.335-81.836,8.83-173.203,0-255.035    c-32.977-90.349-64.424-163.988-78.653-166.846c-19.991,29.367-41.368,67.08-73.891,171.616    C466.276,19.857,467.451,103.07,475.602,189.775z" />
		
			
	</g>
</g>
<g
   id="g4673"
   transform="matrix(-0.707107,-0.707107,0.707107,-0.707107,266.5365,1060.852)">
	<g
   id="g4675"
   transform="matrix(0.51184,0,0,0.51184,171.3137,42.01527)">
		<path
   id="path4677"
   sodipodi:nodetypes="cccccc"
   fill="#FFFFFF"
   stroke="#000000"
   stroke-width="4"
   stroke-linejoin="round"
   d="    M-55.978,540.041c70.376,33.787,108.249,15.568,147.778-0.001c3.333-81.836,8.829-173.201,0.002-255.034    c-32.983-90.353-64.426-163.991-78.656-166.846c-19.99,29.369-41.372,67.076-73.888,171.613    C-65.302,370.122-64.13,453.334-55.978,540.041z" />
		
			
	</g>
	<g
   id="g4681"
   transform="matrix(-0.51184,0,0,-0.51184,534.642,908.4335)">
		<path
   id="path4683"
   sodipodi:nodetypes="cccccc"
   fill="#FFFFFF"
   stroke="#000000"
   stroke-width="4"
   stroke-linejoin="round"
   d="    M620.685,409.961c70.38,33.791,108.249,15.57,147.779,0.001c3.334-81.834,8.827-173.201,0.001-255.037    C735.48,64.577,704.037-9.061,689.806-11.917c-19.99,29.366-41.371,67.077-73.889,171.613    C611.361,240.043,612.534,323.259,620.685,409.961z" />
		
			
	</g>
</g>
<g
   id="g3877">
	<path
   d="M497.252,120.358l-52.108-48.97l22.142,2.003V26.507h59.934v46.884l22.674-2.336L497.252,120.358z"
   id="path3879" />
</g>
<path
   fill="none"
   stroke="#000000"
   stroke-width="4"
   d="M836.867,572.928c0,46.109-45.521,83.422-101.775,83.422"
   id="path3881" />
<path
   fill="none"
   stroke="#000000"
   stroke-width="4"
   d="M743.434,799.838c0,46.111-45.521,83.422-101.775,83.422"
   id="path3883" />
<path
   fill="none"
   stroke="#000000"
   stroke-width="4"
   d="M743.434,339.343c0,46.111-45.521,83.423-101.775,83.423"
   id="path3885" />
<path
   fill="none"
   stroke="#000000"
   stroke-width="4"
   d="M161.142,572.928c0,46.109,45.521,83.422,101.776,83.422"
   id="path3887" />
<path
   fill="none"
   stroke="#000000"
   stroke-width="4"
   d="M254.576,801.506c0,46.111,45.521,83.422,101.776,83.422"
   id="path3889" />
<path
   fill="none"
   stroke="#000000"
   stroke-width="4"
   d="M254.576,342.68c0,46.111,45.521,83.423,101.776,83.423"
   id="path3891" />
<path
   fill="none"
   stroke="#000000"
   stroke-width="4"
   d="M486.509,910.949c36.301,28.434,93.747,15.605,128.434-28.684"
   id="path3893" />
<path
   fill="none"
   stroke="#000000"
   stroke-width="4"
   d="M497.427,230.894c0,0-8.567,3.635-8.567,16.875  c0,13.239,8.825,16.529,8.825,16.529s8.829,5.277,8.829,18.259c0,12.981-8.568,17.134-8.568,17.134s-8.827,3.894-8.827,16.875  c0,12.98,8.566,16.529,8.566,16.529s8.049,5.797,8.049,17.999c0,12.201-8.049,16.615-8.049,16.615"
   id="path3895" />
<g
   id="g3897">
	<path
   d="M495.651,431.268c-0.721,0.961-3.244,4.324-5.486,6.647c-4.205,4.364-8.089,5.646-11.933,5.646   c-4.165,0-8.689-2.803-8.689-8.89c0-4.044,2.803-7.888,7.248-7.888c2.403,0,3.043,1.602,3.043,2.242   c0,1.281-1.041,1.962-2.122,1.962c-0.961,0-1.442-0.601-1.842-1.001c-0.681-0.681-1.161-0.761-1.642-0.761   c-0.841,0.04-3.083,1.562-3.083,4.604c0,5.006,4.685,6.567,7.809,6.567c6.807,0,11.732-5.326,17.178-12.413   c4.125-5.406,7.729-9.931,9.57-11.492c1.962-1.683,3.964-2.804,7.247-2.804c2.724,0,4.605,1.041,4.605,2.283   c0,0.48-0.4,0.921-1.001,0.921c-0.721,0-1.121-0.36-1.521-0.921c-0.36-0.481-0.961-0.802-1.481-0.802   c-0.842,0-1.282,0.802-1.923,2.764l-5.886,18.38c-0.32,1.001-0.521,1.802-0.521,2.282c0,0.561,0.36,1.041,1.121,1.041h1.441   c0.24,0,0.32,0.12,0.32,0.28l-0.12,1.001c-0.04,0.24-0.08,0.32-0.521,0.32c-0.48,0-2.082-0.12-5.566-0.12   c-3.243,0-4.484,0.12-5.125,0.12c-0.36,0-0.4-0.16-0.36-0.4l0.12-0.881c0.04-0.16,0.08-0.32,0.36-0.32h0.881   c1.361,0,2.402-0.28,3.042-2.162l2.122-6.207H495.651z M507.584,417.974c0.16-0.561,0-0.881-0.24-0.881   c-0.2,0-0.641,0.24-1.161,0.721c-1.521,1.401-6.847,8.369-9.33,12.013h6.607L507.584,417.974z"
   id="path3899" />
</g>
<g
   id="g3901">
	<path
   d="M495.012,492.117c0.32-1.201,0-1.521-2.243-1.521c-6.767,0-12.854,4.564-12.813,8.849c0,1.882,1.321,2.443,2.122,2.443   c0.48,0,1.001-0.44,1.321-1.001c0.32-0.561,1.082-1.042,1.882-1.042c1.081,0,1.842,0.721,1.842,2.163   c0,1.481-1.722,2.402-3.203,2.402c-3.684,0-5.606-2.643-5.606-5.446c0-3.443,2.002-6.646,5.406-8.288   c3.604-1.763,7.688-1.723,14.496-1.723c3.003,0,7.688,0.28,9.97,1.522c2.483,1.321,2.764,3.283,2.764,4.524   c0,2.723-2.563,6.046-7.929,7.368v0.08c2.643,0.721,5.365,2.963,5.365,6.206c0,2.042-1.121,4.726-4.044,6.087   c-1.521,0.681-3.083,1.161-7.648,1.161c-1.722,0-3.484-0.12-5.846-0.12c-1.842,0-3.724,0.12-5.566,0.12c-0.28,0-0.4-0.08-0.36-0.32   l0.16-0.961c0.04-0.2,0.12-0.32,0.36-0.32h1.201c1.722,0,2.523-0.641,2.963-2.322L495.012,492.117z M493.931,512.778   c-0.24,0.881,0.681,1.722,2.963,1.722c3.043,0,6.687-1.321,6.687-6.327c0-3.684-3.523-5.445-7.007-5.405L493.931,512.778z    M496.934,501.286c0.801,0.16,1.441,0.2,2.483,0.2c5.405,0,6.927-3.524,6.927-5.926c0-3.724-3.003-5.085-4.805-5.085   c-0.601,0-1.281,0-1.802,0.16L496.934,501.286z"
   id="path3903" />
</g>
<g
   id="g3905">
	<path
   d="M493.189,598.133c2.643,0,5.206-2.523,6.247-4.565c0.36-0.761,0.761-1.882,0.881-2.683c0.24-0.721,0.64-1.041,1.081-1.041   c0.761,0,0.881,0.561,0.881,1.241c0,1.722-4.044,9.29-10.691,9.29c-3.684,0-8.449-2.482-8.449-11.132   c0-6.007,2.283-14.056,6.728-19.941c4.365-5.807,7.768-6.287,9.37-6.287c4.043,0,7.007,3.364,7.007,7.008   c0,1.521-0.801,2.803-2.122,2.803c-0.922,0-1.963-0.761-1.963-2.362c0-0.961,0.32-1.922,0.32-2.402c0-0.761-0.12-1.441-0.44-2.042   c-0.561-1.001-1.521-1.603-2.962-1.603c-2.123,0-4.525,2.724-6.407,6.768c-2.883,6.167-4.725,14.776-4.725,19.661   C487.943,594.929,489.345,598.133,493.189,598.133z"
   id="path3907" />
</g>
<g
   id="g3909">
	<path
   d="M492.109,641.323c0.28-1.001-0.4-1.321-2.643-1.321c-6.487,0-12.173,5.085-12.173,8.729c0,1.923,1.361,2.724,2.242,2.724   c0.641,0,0.961-0.32,1.081-0.761c0.24-0.842,0.961-1.723,2.203-1.723c0.961,0,1.602,0.801,1.602,1.923   c0,1.562-1.602,2.803-3.644,2.803c-2.563,0-5.085-1.722-5.085-5.526c0-3.443,1.922-6.606,5.085-8.168   c3.404-1.723,7.168-1.723,14.576-1.723c5.245,0,11.452,0.32,14.575,3.044c2.363,2.082,3.524,4.284,3.524,7.968   c0,3.685-1.201,7.448-4.285,10.411c-3.604,3.484-9.049,5.526-16.938,5.526c-1.562,0-3.083-0.12-4.245-0.12   c-1.642,0-3.324,0.12-4.965,0.12c-0.28,0-0.36-0.12-0.32-0.44l0.24-0.881c0.04-0.16,0.12-0.28,0.4-0.28h0.921   c1.441,0,2.523-0.601,3.124-3.003L492.109,641.323z M491.788,661.545c-0.4,1.602,0.24,2.122,1.562,2.122   c3.844,0,8.008-1.321,10.531-3.725c3.363-3.243,4.805-7.007,4.845-11.132c-0.04-5.445-3.563-8.929-9.69-8.929   c-1.602,0-1.922,0.16-2.162,1.201L491.788,661.545z"
   id="path3911" />
</g>
<g
   id="g3913">
	<path
   d="M484.401,733.284c0-3.804,3.164-6.366,6.127-7.928c-1.362-1.242-2.243-3.044-2.243-5.366c0-4.324,4.125-7.929,9.45-7.929   c4.485,0,6.847,2.483,6.847,6.247c0,1.401-0.521,2.042-1.321,2.042c-0.961,0-1.121-0.761-0.681-1.642   c0.681-1.241-1.001-3.684-4.405-3.684c-3.684,0-5.926,3.363-5.926,6.166c0,0.921,0.04,2.082,0.801,3.003   c1.081-0.601,2.723-1.041,4.285-1.041c2.482,0,3.564,1.241,3.564,2.563c0,1.401-1.322,2.683-3.924,2.683   c-1.481,0-3.444-0.641-4.845-1.642c-0.561,0.36-2.923,2.162-2.923,6.246c0,1.843,1.602,4.605,4.885,4.605   c4.285,0,6.848-3.004,7.608-5.206c0.16-0.44,0.32-0.681,0.761-0.681c0.4,0,1.001,0.681,0.801,1.161   c-0.521,1.481-1.521,2.924-2.442,3.965c-2.403,2.643-5.526,3.523-8.209,3.523C487.604,740.372,484.401,737.449,484.401,733.284z    M496.774,724.596c-0.761,0-1.922,0.36-3.003,0.961c0.841,0.761,2.002,1.401,3.043,1.401c1.281,0,1.842-0.561,1.842-1.201   C498.656,725.036,497.895,724.596,496.774,724.596z"
   id="path3915" />
</g>
<g
   id="g3917">
</g>
<line
   stroke="#000000"
   x1="336.33"
   y1="576.264"
   x2="464.801"
   y2="576.264"
   id="line3919" />
<line
   stroke="#000000"
   x1="528.203"
   y1="576.264"
   x2="656.674"
   y2="576.264"
   id="line3921" />
<line
   fill="none"
   stroke="#000000"
   x1="464.801"
   y1="495.344"
   x2="383.047"
   y2="453.632"
   id="line3923" />
<line
   fill="none"
   stroke="#000000"
   x1="531.54"
   y1="492.841"
   x2="606.619"
   y2="453.632"
   id="line3925" />
<line
   fill="none"
   stroke="#000000"
   x1="466.47"
   y1="661.356"
   x2="389.721"
   y2="696.393"
   id="line3927" />
<line
   fill="none"
   stroke="#000000"
   x1="529.871"
   y1="661.356"
   x2="606.619"
   y2="696.393"
   id="line3929" />
<path
   fill="none"
   stroke="#000000"
   d="M466.47,1093.486"
   id="path3931" />
<path
   fill="none"
   stroke="#000000"
   d="M466.47,165.824"
   id="path3933" />
<g
   id="g5059"
   transform="matrix(0,-1,1,0,612.1483,722.1481)">
	
	<g
   id="g5065"
   transform="matrix(-0.51184,0,0,-0.51184,534.642,908.4335)">
		<g
   id="g3404"
   transform="translate(20.72929,-1489.918)"
   style="opacity:0.65" />
		
			
	<path
   sodipodi:type="arc"
   style="fill:black;fill-opacity:0;stroke:black;stroke-width:2;stroke-linejoin:round;stroke-miterlimit:4;stroke-dasharray:none;stroke-opacity:1"
   id="path2113"
   sodipodi:cx="69.397751"
   sodipodi:cy="293.83102"
   sodipodi:rx="4.6890368"
   sodipodi:ry="4.6890368"
   d="M 74.086788 293.83102 A 4.6890368 4.6890368 0 1 1  64.708714,293.83102 A 4.6890368 4.6890368 0 1 1  74.086788 293.83102 z"
   transform="matrix(0,-3.252387,3.252387,0,-641.8825,2671.188)" /><path
   sodipodi:type="arc"
   style="fill:black;fill-opacity:0;stroke:black;stroke-width:2;stroke-linejoin:round;stroke-miterlimit:4;stroke-dasharray:none;stroke-opacity:1"
   id="path2115"
   sodipodi:cx="69.397751"
   sodipodi:cy="293.83102"
   sodipodi:rx="4.6890368"
   sodipodi:ry="4.6890368"
   d="M 74.086788 293.83102 A 4.6890368 4.6890368 0 1 1  64.708714,293.83102 A 4.6890368 4.6890368 0 1 1  74.086788 293.83102 z"
   transform="matrix(0,-3.252387,3.252387,0,-193.5163,2851.146)" /><path
   sodipodi:type="arc"
   style="fill:black;fill-opacity:0;stroke:black;stroke-width:2;stroke-linejoin:round;stroke-miterlimit:4;stroke-dasharray:none;stroke-opacity:1"
   id="path2117"
   sodipodi:cx="69.397751"
   sodipodi:cy="293.83102"
   sodipodi:rx="4.6890368"
   sodipodi:ry="4.6890368"
   d="M 74.086788 293.83102 A 4.6890368 4.6890368 0 1 1  64.708714,293.83102 A 4.6890368 4.6890368 0 1 1  74.086788 293.83102 z"
   transform="matrix(0,-3.252387,3.252387,0,248.3453,2671.189)" /><path
   sodipodi:type="arc"
   style="fill:black;fill-opacity:0;stroke:black;stroke-width:2;stroke-linejoin:round;stroke-miterlimit:4;stroke-dasharray:none;stroke-opacity:1"
   id="path2119"
   sodipodi:cx="69.397751"
   sodipodi:cy="293.83102"
   sodipodi:rx="4.6890368"
   sodipodi:ry="4.6890368"
   d="M 74.086788 293.83102 A 4.6890368 4.6890368 0 1 1  64.708714,293.83102 A 4.6890368 4.6890368 0 1 1  74.086788 293.83102 z"
   transform="matrix(0,-3.252387,3.252387,0,434.402,2219.369)" /><path
   sodipodi:type="arc"
   style="fill:black;fill-opacity:0;stroke:black;stroke-width:2;stroke-linejoin:round;stroke-miterlimit:4;stroke-dasharray:none;stroke-opacity:1"
   id="path2121"
   sodipodi:cx="69.397751"
   sodipodi:cy="293.83102"
   sodipodi:rx="4.6890368"
   sodipodi:ry="4.6890368"
   d="M 74.086788 293.83102 A 4.6890368 4.6890368 0 1 1  64.708714,293.83102 A 4.6890368 4.6890368 0 1 1  74.086788 293.83102 z"
   transform="matrix(0,-3.252387,3.252387,0,245.2952,1780.557)" /><path
   sodipodi:type="arc"
   style="fill:black;fill-opacity:0;stroke:black;stroke-width:2;stroke-linejoin:round;stroke-miterlimit:4;stroke-dasharray:none;stroke-opacity:1"
   id="path2123"
   sodipodi:cx="69.397751"
   sodipodi:cy="293.83102"
   sodipodi:rx="4.6890368"
   sodipodi:ry="4.6890368"
   d="M 74.086788 293.83102 A 4.6890368 4.6890368 0 1 1  64.708714,293.83102 A 4.6890368 4.6890368 0 1 1  74.086788 293.83102 z"
   transform="matrix(0,-3.252387,3.252387,0,-193.5163,1597.55)" /><path
   sodipodi:type="arc"
   style="fill:black;fill-opacity:0;stroke:black;stroke-width:2;stroke-linejoin:round;stroke-miterlimit:4;stroke-dasharray:none;stroke-opacity:1"
   id="path2125"
   sodipodi:cx="69.397751"
   sodipodi:cy="293.83102"
   sodipodi:rx="4.6890368"
   sodipodi:ry="4.6890368"
   d="M 74.086788 293.83102 A 4.6890368 4.6890368 0 1 1  64.708714,293.83102 A 4.6890368 4.6890368 0 1 1  74.086788 293.83102 z"
   transform="matrix(0,-3.252387,3.252387,0,-647.983,1777.912)" /><path
   sodipodi:type="arc"
   style="fill:black;fill-opacity:0;stroke:black;stroke-width:2;stroke-linejoin:round;stroke-miterlimit:4;stroke-dasharray:none;stroke-opacity:1"
   id="path2127"
   sodipodi:cx="69.397751"
   sodipodi:cy="293.83102"
   sodipodi:rx="4.6890368"
   sodipodi:ry="4.6890368"
   d="M 74.086788 293.83102 A 4.6890368 4.6890368 0 1 1  64.708714,293.83102 A 4.6890368 4.6890368 0 1 1  74.086788 293.83102 z"
   transform="matrix(0,-3.252387,3.252387,0,-843.5946,2222.824)" /></g>
</g></svg>