<?xml version="1.0" encoding="UTF-8" standalone="no"?>
<svg
   xmlns:dc="http://purl.org/dc/elements/1.1/"
   xmlns:cc="http://web.resource.org/cc/"
   xmlns:rdf="http://www.w3.org/1999/02/22-rdf-syntax-ns#"
   xmlns:svg="http://www.w3.org/2000/svg"
   xmlns="http://www.w3.org/2000/svg"
   xmlns:sodipodi="http://sodipodi.sourceforge.net/DTD/sodipodi-0.dtd"
   xmlns:inkscape="http://www.inkscape.org/namespaces/inkscape"
   enable-background="new 0 0 55 55"
   height="55px"
   version="1.1"
   viewBox="0 0 55 55"
   width="55px"
   x="0px"
   xml:space="preserve"
   y="0px"
   id="svg2"
   sodipodi:version="0.32"
   inkscape:version="0.45.1"
   sodipodi:docname="python-shell.svg"
   sodipodi:docbase="/home/chema"
   inkscape:output_extension="org.inkscape.output.svg.inkscape"><metadata
     id="metadata14"><rdf:RDF><cc:Work
         rdf:about=""><dc:format>image/svg+xml</dc:format><dc:type
           rdf:resource="http://purl.org/dc/dcmitype/StillImage" /></cc:Work></rdf:RDF></metadata><defs
     id="defs12" /><sodipodi:namedview
     inkscape:window-height="627"
     inkscape:window-width="910"
     inkscape:pageshadow="2"
     inkscape:pageopacity="0.0"
     guidetolerance="10.0"
     gridtolerance="10.0"
     objecttolerance="10.0"
     borderopacity="1.0"
     bordercolor="#666666"
     pagecolor="#ffffff"
     id="base"
     inkscape:zoom="8.7767442"
     inkscape:cx="33.396584"
     inkscape:cy="20.523054"
     inkscape:window-x="0"
     inkscape:window-y="25"
     inkscape:current-layer="svg2" /><g
     id="g4561"
     transform="translate(3.7599364,-43.63805)"><path
       sodipodi:nodetypes="czccccccccccccscsczzccz"
       d="M 27.63065,73.855549 C 29.327829,74.220095 28.81243,76.818454 30.379527,77.282042 C 31.912124,77.735424 32.707938,76.156951 34.698663,76.11583 C 36.522108,76.696926 36.841614,79.494377 39.195458,79.376445 C 40.756919,79.767443 43.272393,78.998786 43.543529,81.264387 C 43.44086,83.519619 44.829079,85.044352 46.816264,85.703451 C 47.636826,87.486058 45.183989,89.321643 44.59346,90.792847 C 44.97935,92.859401 41.987203,93.546518 40.415198,92.786284 C 38.845409,91.081719 36.349758,90.936342 34.621738,92.599476 C 33.02002,93.941313 30.806445,92.903437 29.234875,92.023417 C 27.493828,91.037792 25.72289,89.407517 23.551663,90.110347 C 20.987829,90.903301 18.617093,92.557846 15.821336,92.440218 C 13.950647,92.569104 12.429965,91.420095 11.094741,90.27903 C 8.9750945,88.352031 6.4006027,90.094876 4.042623,89.625706 C 2.6999984,89.269176 1.6678005,88.265342 1.277604,87.298206 C 1.1052026,86.870895 0.077171634,86.783703 -0.11393737,83.940117 C -0.11393737,83.940117 -0.44514597,84.938984 -0.20358297,84.08436 C 0.084887434,83.063784 3.3753003,81.962981 2.5402403,79.956374 C 1.763621,77.225243 5.9344907,79.31115 7.6122965,78.108945 C 9.2901023,76.90674 8.2932108,76.595038 9.8695325,75.20047 C 11.501102,73.757024 13.520433,77.093079 15.385714,76.114566 C 16.616823,74.229205 19.437428,73.910255 21.192653,75.237505 C 23.386982,76.793559 26.042211,73.51436 27.63065,73.855549 z "
       style="fill:#ffffff;fill-rule:evenodd;stroke:#000000;stroke-width:1px;stroke-linecap:butt;stroke-linejoin:miter;stroke-opacity:1"
       id="path2509" /><g
       style="fill:#008080;stroke:none"
       id="g2610"><path
         sodipodi:nodetypes="ccccc"
         id="path2594"
         style="fill:#008080;fill-rule:evenodd;stroke:none;stroke-width:1px;stroke-linecap:butt;stroke-linejoin:miter;stroke-opacity:1"
         d="M 21.085378,90.772198 L 22.921218,89.974636 L 23.082351,75.683869 L 18.409524,73.911415 L 21.085378,90.772198 z " /><path
         sodipodi:nodetypes="ccccc"
         id="path2596"
         style="fill:#008080;fill-rule:evenodd;stroke:none;stroke-width:1px;stroke-linecap:butt;stroke-linejoin:miter;stroke-opacity:1"
         d="M 18.832885,91.750439 L 17.586283,92.264836 L 9.8695325,75.20047 L 14.381227,76.006131 L 18.832885,91.750439 z " /><path
         sodipodi:nodetypes="ccccc"
         id="path2598"
         style="fill:#008080;fill-rule:evenodd;stroke:none;stroke-width:1px;stroke-linecap:butt;stroke-linejoin:miter;stroke-opacity:1"
         d="M 30.272676,92.179932 L 30.888169,92.73956 L 44.351762,83.740464 L 42.84293,80.053978 L 30.272676,92.179932 z " /><path
         sodipodi:nodetypes="ccccc"
         id="path2600"
         style="fill:#008080;fill-rule:evenodd;stroke:none;stroke-width:1px;stroke-linecap:butt;stroke-linejoin:miter;stroke-opacity:1"
         d="M 25.173711,90.100022 L 26.775306,90.434552 L 30.535241,76.762055 L 27.594043,74.072548 L 25.173711,90.100022 z " /><path
         sodipodi:nodetypes="ccccc"
         id="path2602"
         style="fill:#008080;fill-rule:evenodd;stroke:none;stroke-width:1px;stroke-linecap:butt;stroke-linejoin:miter;stroke-opacity:1"
         d="M 10.514061,89.380082 L 13.330684,91.573927 L 2.3926866,82.003182 L -0.037707966,84.329701 L 10.514061,89.380082 z " /><path
         sodipodi:nodetypes="cccc"
         id="path2604"
         style="fill:#008080;fill-rule:evenodd;stroke:none;stroke-width:1px;stroke-linecap:butt;stroke-linejoin:miter;stroke-opacity:1"
         d="M 36.393603,91.547263 L 44.4657,90.669135 L 46.75729,85.929566 L 36.393603,91.547263 z " /><path
         sodipodi:nodetypes="ccccc"
         id="path2606"
         style="fill:#008080;fill-rule:evenodd;stroke:none;stroke-width:1px;stroke-linecap:butt;stroke-linejoin:miter;stroke-opacity:1"
         d="M 29.851617,92.029679 L 28.256494,91.346051 L 34.978803,75.736618 L 37.941178,78.812931 L 29.851617,92.029679 z " /><path
         sodipodi:nodetypes="ccccc"
         id="path2608"
         style="fill:#008080;fill-rule:evenodd;stroke:none;stroke-width:1px;stroke-linecap:butt;stroke-linejoin:miter;stroke-opacity:1"
         d="M 14.959586,92.564198 L 16.065183,92.599364 L 7.2919979,78.129306 L 2.7830831,78.431206 C 6.9938335,83.256141 10.748835,87.739263 14.959586,92.564198 z " /></g><path
       d="M 18.409524,73.911415 C 19.301475,79.531676 20.193427,85.151937 21.085378,90.772198 M 23.082351,75.683869 C 23.02864,80.447458 22.974929,85.211047 22.921218,89.974636"
       style="fill:none;fill-rule:evenodd;stroke:#000000;stroke-width:1px;stroke-linecap:butt;stroke-linejoin:miter;stroke-opacity:1"
       id="path2251" /><path
       d="M 14.381227,76.006131 C 15.865113,81.254233 17.348999,86.502336 18.832885,91.750439 M 9.8695325,75.20047 C 12.213908,80.736676 15.241908,86.728631 17.586283,92.264836"
       style="fill:none;fill-rule:evenodd;stroke:#000000;stroke-width:1px;stroke-linecap:butt;stroke-linejoin:miter;stroke-opacity:1"
       id="path2257" /><path
       id="path2265"
       d="M 0.68501403,86.963101 C 2.8334397,87.768761 4.9818654,88.574421 7.1302905,89.380082"
       style="fill:none;fill-rule:evenodd;stroke:#000000;stroke-width:1px;stroke-linecap:butt;stroke-linejoin:miter;stroke-opacity:1" /><path
       d="M 42.84293,80.053978 C 38.311033,84.2099 34.804573,88.02401 30.272676,92.179932 M 44.351762,83.740464 C 39.863898,86.740162 35.376033,89.739861 30.888169,92.73956"
       style="fill:none;fill-rule:evenodd;stroke:#000000;stroke-width:1px;stroke-linecap:butt;stroke-linejoin:miter;stroke-opacity:1"
       id="path2267" /><path
       id="path2277"
       d="M 15.831414,92.763852 C 17.401227,94.552024 20.413228,95.50548 22.421456,93.878449 C 23.711507,93.527051 24.365454,91.257978 24.734102,90.916309 C 25.362454,93.170377 27.679088,95.406903 30.15212,94.724913 C 30.966955,94.402247 31.692397,93.819204 32.589133,93.730641"
       style="fill:none;fill-rule:evenodd;stroke:#000000;stroke-width:1px;stroke-linecap:butt;stroke-linejoin:miter;stroke-opacity:1" /><path
       id="path2279"
       d="M 24.693669,91.152531 C 25.022049,92.638804 24.801467,94.167006 24.693669,95.664224"
       style="fill:none;fill-rule:evenodd;stroke:#000000;stroke-width:1px;stroke-linecap:butt;stroke-linejoin:miter;stroke-opacity:1" /><path
       id="path2281"
       d="M 29.205361,95.180828 C 26.131377,96.380776 22.526985,96.181563 19.537448,94.858567"
       style="fill:none;fill-rule:evenodd;stroke:#000000;stroke-width:1px;stroke-linecap:butt;stroke-linejoin:miter;stroke-opacity:1" /><path
       d="M 27.594043,74.072548 C 26.787266,79.41504 25.980488,84.757531 25.173711,90.100022 M 30.535241,76.762055 C 29.281929,81.319554 28.028618,85.877053 26.775306,90.434552"
       style="fill:none;fill-rule:evenodd;stroke:#000000;stroke-width:1px;stroke-linecap:butt;stroke-linejoin:miter;stroke-opacity:1"
       id="path2255" /><path
       d="M -0.037707966,84.329701 C 3.4795483,86.013161 6.9968045,87.696621 10.514061,89.380082 M 2.3926866,82.003182 C 6.0386857,85.19343 9.6846845,88.383679 13.330684,91.573927"
       style="fill:none;fill-rule:evenodd;stroke:#000000;stroke-width:1px;stroke-linecap:butt;stroke-linejoin:miter;stroke-opacity:1"
       id="path2263" /><path
       d="M 46.75729,85.929566 C 43.051255,87.433464 39.459159,90.304612 35.753125,91.80851 M 44.4657,90.669135 C 42.102431,90.722845 39.39735,91.232306 37.034081,91.286015"
       style="fill:none;fill-rule:evenodd;stroke:#000000;stroke-width:1px;stroke-linecap:butt;stroke-linejoin:miter;stroke-opacity:1"
       id="path2271" /><path
       d="M 37.941178,78.812931 C 35.244658,83.218514 32.548137,87.624096 29.851617,92.029679 M 34.978803,75.736618 C 32.738033,80.939762 30.497263,86.142907 28.256494,91.346051"
       style="fill:none;fill-rule:evenodd;stroke:#000000;stroke-width:1px;stroke-linecap:butt;stroke-linejoin:miter;stroke-opacity:1"
       id="path2290" /><path
       id="path2302"
       d="M 24.382617,90.320614 C 22.706868,92.648538 19.736592,93.621871 16.976683,93.738739"
       style="fill:none;fill-rule:evenodd;stroke:#000000;stroke-width:1px;stroke-linecap:butt;stroke-linejoin:miter;stroke-opacity:1" /><path
       id="path2304"
       d="M 24.952306,90.548489 C 26.151353,92.959394 29.078894,93.543464 31.483754,93.987196 C 31.775178,94.002788 32.067931,93.9973 32.358241,93.966614"
       style="fill:none;fill-rule:evenodd;stroke:#000000;stroke-width:1px;stroke-linecap:butt;stroke-linejoin:miter;stroke-opacity:1" /><path
       d="M 2.7830831,78.431206 C 6.9938335,83.256141 10.748835,87.739263 14.959586,92.564198 M 7.2919979,78.129306 L 16.065183,92.599364"
       style="fill:none;fill-rule:evenodd;stroke:#000000;stroke-width:1px;stroke-linecap:butt;stroke-linejoin:miter;stroke-opacity:1"
       id="path2261" /><path
       sodipodi:nodetypes="czccccccccccccscsczzccz"
       d="M 27.63065,73.855549 C 29.327829,74.220095 28.81243,76.818454 30.379527,77.282042 C 31.912124,77.735424 32.707938,76.156951 34.698663,76.11583 C 36.522108,76.696926 36.841614,79.494377 39.195458,79.376445 C 40.756919,79.767443 43.272393,78.998786 43.543529,81.264387 C 43.44086,83.519619 44.829079,85.044352 46.816264,85.703451 C 47.636826,87.486058 45.183989,89.321643 44.59346,90.792847 C 44.97935,92.859401 41.987203,93.546518 40.415198,92.786284 C 38.845409,91.081719 36.349758,90.936342 34.621738,92.599476 C 33.02002,93.941313 30.806445,92.903437 29.234875,92.023417 C 27.493828,91.037792 25.72289,89.407517 23.551663,90.110347 C 20.987829,90.903301 18.617093,92.557846 15.821336,92.440218 C 13.950647,92.569104 12.429965,91.420095 11.094741,90.27903 C 8.9750945,88.352031 6.4006027,90.094876 4.042623,89.625706 C 2.6999984,89.269176 1.6678005,88.265342 1.277604,87.298206 C 1.1052026,86.870895 0.077171634,86.783703 -0.11393737,83.940117 C -0.11393737,83.940117 -0.44514597,84.938984 -0.20358297,84.08436 C 0.084887434,83.063784 3.3753003,81.962981 2.5402403,79.956374 C 1.763621,77.225243 5.9344907,79.31115 7.6122965,78.108945 C 9.2901023,76.90674 8.2932108,76.595038 9.8695325,75.20047 C 11.501102,73.757024 13.520433,77.093079 15.385714,76.114566 C 16.616823,74.229205 19.437428,73.910255 21.192653,75.237505 C 23.386982,76.793559 26.042211,73.51436 27.63065,73.855549 z "
       style="fill:none;fill-rule:evenodd;stroke:#000000;stroke-width:1px;stroke-linecap:butt;stroke-linejoin:miter;stroke-opacity:1"
       id="path3589" /></g><g
     display="block"
     id="activity-pippy"
     transform="matrix(0.7225953,0,0,0.9218318,7.6014807,-0.5153583)"
     style="display:block">
	<path
   d="M 28.497,48.507 C 34.485,48.507 43.377,45.669 43.377,37.322 C 43.377,28.037 35.634,27.179 32.423,26.239 C 28.874,25.44 26.51,24.325 26.368,22.784 C 26.125,20.142 27.526,19.113 30.314,19.113 C 30.314,19.113 36.946,22.777 42.58,19.853 C 44.168,19.03 47.012,15.185 47.012,12.533 C 47.012,9.88 37.831,6.814 35.045,6.814 C 32.257,6.814 29.886,10.661 29.886,10.661 C 24.312,10.661 18.737,15.967 18.737,21.273 C 18.737,26.578 24.07,30.728 30.444,31.885 C 33.407,32.354 35.885,34.105 35.322,37.323 C 34.865,39.936 32.327,42.629 26.961,42.629 C 22.709,42.629 13.661,42.41 12.216,38.55 C 11.287,36.064 12.384,33.345 13.778,33.345 L 13.751,33.185 C 12.331,33.027 8.203,33.345 8.203,38.65 C 8.202,45.452 17.347,48.507 28.497,48.507 z "
   id="path5"
   style="fill:#ffffff;stroke:#010101;stroke-width:3.5;stroke-linecap:round;stroke-linejoin:round" />
	<path
   d="M 42.579,19.854 C 39.956,19.567 35.968,17.854 35.112,14.832"
   id="path7"
   style="fill:none;stroke:#010101;stroke-width:3;stroke-linecap:round" />
	<circle
   cx="35.805"
   cy="10.96"
   r="1.676"
   id="circle9"
   sodipodi:cx="35.805"
   sodipodi:cy="10.96"
   sodipodi:rx="1.676"
   sodipodi:ry="1.676"
   style="fill:#010101" />
</g></svg>