<?xml version="1.0" encoding="UTF-8" standalone="no"?>
<!-- Created with Inkscape (http://www.inkscape.org/) -->
<svg
   xmlns:dc="http://purl.org/dc/elements/1.1/"
   xmlns:cc="http://creativecommons.org/ns#"
   xmlns:rdf="http://www.w3.org/1999/02/22-rdf-syntax-ns#"
   xmlns:svg="http://www.w3.org/2000/svg"
   xmlns="http://www.w3.org/2000/svg"
   xmlns:xlink="http://www.w3.org/1999/xlink"
   xmlns:sodipodi="http://sodipodi.sourceforge.net/DTD/sodipodi-0.dtd"
   xmlns:inkscape="http://www.inkscape.org/namespaces/inkscape"
   width="347.19937"
   height="342.9136"
   id="svg2405"
   sodipodi:version="0.32"
   inkscape:version="0.46"
   sodipodi:docname="r+v+b_bis.svg"
   version="1.0"
   inkscape:output_extension="org.inkscape.output.svg.inkscape">
  <sodipodi:namedview
     id="base"
     pagecolor="#ffffff"
     bordercolor="#666666"
     borderopacity="1.0"
     inkscape:pageopacity="0.0"
     inkscape:pageshadow="2"
     inkscape:zoom="1.4"
     inkscape:cx="-515.81756"
     inkscape:cy="3.7823455"
     inkscape:document-units="px"
     inkscape:current-layer="layer1"
     showgrid="false"
     inkscape:window-width="1280"
     inkscape:window-height="751"
     inkscape:window-x="0"
     inkscape:window-y="22" />
  <defs
     id="defs2407">
    <inkscape:perspective
       id="perspective2413"
       inkscape:persp3d-origin="372.04724 : 350.78739 : 1"
       inkscape:vp_z="744.09448 : 526.18109 : 1"
       inkscape:vp_y="0 : 1000 : 0"
       inkscape:vp_x="0 : 526.18109 : 1"
       sodipodi:type="inkscape:persp3d" />
  </defs>
  <metadata
     id="metadata2410">
    <rdf:RDF>
      <cc:Work
         rdf:about="">
        <dc:format>image/svg+xml</dc:format>
        <dc:type
           rdf:resource="http://purl.org/dc/dcmitype/StillImage" />
      </cc:Work>
    </rdf:RDF>
  </metadata>
  <g
     id="layer1"
     inkscape:groupmode="layer"
     inkscape:label="Calque 1"
     transform="translate(-168.51491,-335.21933)">
    <path
       transform="matrix(0.222448,0.8301873,-0.8301873,0.222448,717.45544,536.29521)"
       d="M 494.28571,515.2193 A 162.85715,162.85715 0 1 1 168.57141,515.2193 A 162.85715,162.85715 0 1 1 494.28571,515.2193 z"
       sodipodi:ry="162.85715"
       sodipodi:rx="162.85715"
       sodipodi:cy="515.2193"
       sodipodi:cx="331.42856"
       id="path3187"
       style="opacity:1;fill:#ff0000;fill-opacity:1;fill-rule:nonzero;stroke:none;stroke-width:1.36500001;stroke-linecap:square;stroke-linejoin:miter;marker:none;marker-start:none;marker-mid:none;marker-end:none;stroke-miterlimit:4;stroke-dasharray:none;stroke-dashoffset:0;stroke-opacity:1;visibility:visible;display:inline;overflow:visible;enable-background:accumulate"
       sodipodi:type="arc" />
    <path
       transform="matrix(0.9210526,0,0,0.9210526,13.251772,53.588858)"
       d="M 494.28571,515.2193 A 162.85715,162.85715 0 1 1 168.57141,515.2193 A 162.85715,162.85715 0 1 1 494.28571,515.2193 z"
       sodipodi:ry="162.85715"
       sodipodi:rx="162.85715"
       sodipodi:cy="515.2193"
       sodipodi:cx="331.42856"
       id="path2415"
       style="fill:#ff0000;fill-opacity:1;fill-rule:nonzero;stroke:none;stroke-width:1.36500001;stroke-linecap:square;stroke-linejoin:miter;marker:none;marker-start:none;marker-mid:none;marker-end:none;stroke-miterlimit:4;stroke-dasharray:none;stroke-dashoffset:0;stroke-opacity:1;visibility:visible;display:inline;overflow:visible;enable-background:accumulate"
       sodipodi:type="arc" />
    <path
       transform="matrix(0.9210526,0,0,0.9210526,60.45115,53.588858)"
       d="M 494.28571,515.2193 A 162.85715,162.85715 0 1 1 168.57141,515.2193 A 162.85715,162.85715 0 1 1 494.28571,515.2193 z"
       sodipodi:ry="162.85715"
       sodipodi:rx="162.85715"
       sodipodi:cy="515.2193"
       sodipodi:cx="331.42856"
       id="path3201"
       style="fill:#0000ff;fill-opacity:1;fill-rule:nonzero;stroke:none;stroke-width:1.36500001;stroke-linecap:square;stroke-linejoin:miter;marker:none;marker-start:none;marker-mid:none;marker-end:none;stroke-miterlimit:4;stroke-dasharray:none;stroke-dashoffset:0;stroke-opacity:1;visibility:visible;display:inline;overflow:visible;enable-background:accumulate"
       sodipodi:type="arc" />
    <path
       transform="matrix(0.9210526,0,0,0.9210526,36.851461,10.67525)"
       d="M 494.28571,515.2193 A 162.85715,162.85715 0 1 1 168.57141,515.2193 A 162.85715,162.85715 0 1 1 494.28571,515.2193 z"
       sodipodi:ry="162.85715"
       sodipodi:rx="162.85715"
       sodipodi:cy="515.2193"
       sodipodi:cx="331.42856"
       id="path3203"
       style="opacity:1;fill:#00ff00;fill-opacity:1;fill-rule:nonzero;stroke:none;stroke-width:1.36500001;stroke-linecap:square;stroke-linejoin:miter;marker:none;marker-start:none;marker-mid:none;marker-end:none;stroke-miterlimit:4;stroke-dasharray:none;stroke-dashoffset:0;stroke-opacity:1;visibility:visible;display:inline;overflow:visible;enable-background:accumulate"
       sodipodi:type="arc" />
    <text
       transform="matrix(0.9714621,0.2371946,-0.2371946,0.9714621,208.62861,-489.71636)"
       sodipodi:linespacing="125%"
       id="text3245"
       style="font-size:48px;font-style:normal;font-variant:normal;font-weight:normal;font-stretch:normal;text-align:center;line-height:125%;writing-mode:lr-tb;text-anchor:middle;fill:#000000;fill-opacity:1;stroke:none;stroke-width:1px;stroke-linecap:butt;stroke-linejoin:miter;stroke-opacity:1;font-family:DejaVu Sans;-inkscape-font-specification:DejaVu Sans"
       xml:space="preserve"><textPath
         style="font-size:20px"
         id="textPath3247"
         startOffset="50%"
         xlink:href="#path3187" /></text>
    <path
       style="fill:#ffff00;fill-opacity:1;fill-rule:nonzero;stroke:none;stroke-width:1.36500001;stroke-linecap:square;stroke-linejoin:miter;marker:none;marker-start:none;marker-mid:none;marker-end:none;stroke-miterlimit:4;stroke-dasharray:none;stroke-dashoffset:0;stroke-opacity:1;visibility:visible;display:inline;overflow:visible;enable-background:accumulate"
       d="M 318.5,378.125 C 270.66304,378.125 228.06602,400.55868 200.59375,435.46875 C 195.11466,451.0408 192.125,467.78088 192.125,485.21875 C 192.125,568.01875 259.325,635.21877 342.125,635.21875 C 389.96219,635.21875 432.55899,612.78536 460.03125,577.875 C 465.51034,562.30295 468.5,545.56287 468.5,528.125 C 468.5,445.325 401.30001,378.125 318.5,378.125 z"
       id="path3249" />
    <path
       style="fill:#ff00ff;fill-opacity:1;fill-rule:nonzero;stroke:none;stroke-width:1.36500001;stroke-linecap:square;stroke-linejoin:miter;marker:none;marker-start:none;marker-mid:none;marker-end:none;stroke-miterlimit:4;stroke-dasharray:none;stroke-dashoffset:0;stroke-opacity:1;visibility:visible;display:inline;overflow:visible;enable-background:accumulate"
       d="M 342.125,380 C 270.51979,391.32691 215.71876,453.35087 215.71875,528.125 C 215.71875,602.89949 270.51928,664.95476 342.125,676.28125 C 413.71886,664.94461 468.50001,602.89106 468.5,528.125 C 468.5,453.35931 413.71834,391.33709 342.125,380 z"
       id="path3254" />
    <path
       style="fill:#00ffff;fill-opacity:1;fill-rule:nonzero;stroke:none;stroke-width:1.36500001;stroke-linecap:square;stroke-linejoin:miter;marker:none;marker-start:none;marker-mid:none;marker-end:none;stroke-miterlimit:4;stroke-dasharray:none;stroke-dashoffset:0;stroke-opacity:1;visibility:visible;display:inline;overflow:visible;enable-background:accumulate"
       d="M 365.71875,378.125 C 282.91875,378.125 215.71876,445.325 215.71875,528.125 C 215.71875,545.56287 218.70841,562.30295 224.1875,577.875 C 251.65976,612.78536 294.28781,635.21876 342.125,635.21875 C 424.925,635.21875 492.125,568.01874 492.125,485.21875 C 492.125,467.76014 489.11657,450.99403 483.625,435.40625 C 456.15129,400.52666 413.53135,378.125 365.71875,378.125 z"
       id="path3259" />
    <path
       style="fill:#ffffff;fill-opacity:1;fill-rule:nonzero;stroke:none;stroke-width:1.36500001;stroke-linecap:square;stroke-linejoin:miter;marker:none;marker-start:none;marker-mid:none;marker-end:none;stroke-miterlimit:4;stroke-dasharray:none;stroke-dashoffset:0;stroke-opacity:1;visibility:visible;display:inline;overflow:visible;enable-background:accumulate"
       d="M 342.125,380 C 323.10487,383.00871 305.28047,389.5797 289.34375,399.03125 C 279.03176,405.14696 269.49869,412.4897 260.96875,420.8125 C 260.19872,421.56429 259.44128,422.29443 258.6875,423.0625 C 258.6823,423.06779 258.6927,423.08845 258.6875,423.09375 C 257.93383,423.86193 257.14339,424.62208 256.40625,425.40625 C 256.40117,425.41165 256.41133,425.4321 256.40625,425.4375 C 255.66942,426.22158 254.93877,427.01272 254.21875,427.8125 C 254.21359,427.81823 254.22391,427.83802 254.21875,427.84375 C 253.49891,428.64357 252.76525,429.43477 252.0625,430.25 C 250.64147,431.89747 249.28693,433.57254 247.9375,435.28125 C 247.2652,436.13279 246.59159,436.97745 245.9375,437.84375 C 245.27833,438.71624 244.6404,439.58156 244,440.46875 C 243.36441,441.34953 242.74181,442.23003 242.125,443.125 C 240.2693,445.81584 238.52425,448.56103 236.84375,451.375 C 236.28504,452.31078 235.72626,453.23869 235.1875,454.1875 C 233.56629,457.0407 232.06048,459.94037 230.625,462.90625 C 230.14781,463.89239 229.67483,464.87699 229.21875,465.875 C 226.93353,470.87203 224.92149,476.00819 223.1875,481.28125 C 222.8413,482.33423 222.51086,483.37439 222.1875,484.4375 C 221.86104,485.50985 221.55291,486.57388 221.25,487.65625 C 220.94977,488.7292 220.6518,489.79251 220.375,490.875 C 217.32536,502.7896 215.71875,515.26272 215.71875,528.125 C 215.71875,529.21487 215.72677,530.2907 215.75,531.375 C 215.75889,531.79309 215.76894,532.20775 215.78125,532.625 C 215.80101,533.29095 215.8153,533.96126 215.84375,534.625 C 215.85043,534.78142 215.86784,534.93745 215.875,535.09375 C 215.91733,536.01438 215.97233,536.92753 216.03125,537.84375 C 216.10022,538.91623 216.18978,539.99628 216.28125,541.0625 C 216.37272,542.12872 216.48002,543.19026 216.59375,544.25 C 216.635,544.63562 216.67457,545.02151 216.71875,545.40625 C 216.79638,546.08047 216.88219,546.76603 216.96875,547.4375 C 217.10449,548.49053 217.24874,549.51642 217.40625,550.5625 C 217.56376,551.60858 217.72721,552.64859 217.90625,553.6875 C 218.05341,554.54351 218.21338,555.39901 218.375,556.25 C 218.51857,557.00456 218.65767,557.74947 218.8125,558.5 C 218.8426,558.64619 218.87572,558.79146 218.90625,558.9375 C 218.972,559.2514 219.02604,559.56182 219.09375,559.875 C 219.25413,560.61833 219.42239,561.35455 219.59375,562.09375 C 219.71268,562.60591 219.84459,563.11486 219.96875,563.625 C 220.37284,565.28525 220.7912,566.95552 221.25,568.59375 C 221.28793,568.7292 221.3367,568.86471 221.375,569 C 221.63974,569.93585 221.90513,570.88416 222.1875,571.8125 C 222.50582,572.85769 222.84715,573.90206 223.1875,574.9375 C 223.19061,574.94698 223.18438,574.95928 223.1875,574.96875 C 223.50748,575.94157 223.84832,576.91103 224.1875,577.875 C 224.93065,578.81937 225.70361,579.76159 226.46875,580.6875 C 226.96446,581.28733 227.46395,581.8768 227.96875,582.46875 C 228.3106,582.86963 228.62277,583.29028 228.96875,583.6875 C 229.3133,584.08305 229.68264,584.45186 230.03125,584.84375 C 230.78151,585.68717 231.54367,586.51751 232.3125,587.34375 C 233.23037,588.33013 234.14993,589.31988 235.09375,590.28125 C 235.13495,590.32322 235.1775,590.36433 235.21875,590.40625 C 236.02471,591.22545 236.8318,592.01189 237.65625,592.8125 C 237.92638,593.07482 238.19666,593.33345 238.46875,593.59375 C 238.53256,593.6548 238.59234,593.72031 238.65625,593.78125 C 240.39128,595.4353 242.1562,597.05476 243.96875,598.625 C 244.06997,598.71269 244.17979,598.78757 244.28125,598.875 C 245.16174,599.6337 246.03939,600.38657 246.9375,601.125 C 247.37706,601.48646 247.83753,601.83096 248.28125,602.1875 C 248.98374,602.75191 249.69347,603.32306 250.40625,603.875 C 250.77589,604.16127 251.15888,604.43587 251.53125,604.71875 C 252.06364,605.12313 252.58708,605.5401 253.125,605.9375 C 253.66389,606.33571 254.20563,606.73387 254.75,607.125 C 255.33194,607.54299 255.91188,607.96517 256.5,608.375 C 256.96707,608.70058 257.43532,609.02337 257.90625,609.34375 C 258.36214,609.65382 258.82179,609.94484 259.28125,610.25 C 259.84513,610.62464 260.39956,611.00782 260.96875,611.375 C 261.07152,611.44126 261.17831,611.49648 261.28125,611.5625 C 261.58218,611.75559 261.8851,611.934 262.1875,612.125 C 262.90895,612.58054 263.64532,613.05649 264.375,613.5 C 264.41491,613.52425 264.46006,613.53828 264.5,613.5625 C 265.69202,614.2853 266.91157,614.99727 268.125,615.6875 C 268.96129,616.16309 269.81004,616.63387 270.65625,617.09375 C 271.22989,617.40551 271.79688,617.72679 272.375,618.03125 C 273.41513,618.57901 274.47689,619.10114 275.53125,619.625 C 276.18472,619.94962 276.84117,620.27842 277.5,620.59375 C 278.29052,620.97216 279.07691,621.35386 279.875,621.71875 C 280.05352,621.80036 280.22735,621.88782 280.40625,621.96875 C 281.31924,622.38182 282.23365,622.76104 283.15625,623.15625 C 284.27365,623.6349 285.4001,624.11042 286.53125,624.5625 C 286.70899,624.63354 286.88442,624.71087 287.0625,624.78125 C 287.09297,624.7933 287.12577,624.80047 287.15625,624.8125 C 287.34284,624.8861 287.53179,624.95838 287.71875,625.03125 C 288.66813,625.40138 289.60386,625.77378 290.5625,626.125 C 290.71693,626.18159 290.87658,626.22516 291.03125,626.28125 C 292.36036,626.76328 293.68498,627.21105 295.03125,627.65625 C 296.37752,628.10145 297.73093,628.52973 299.09375,628.9375 C 300.23035,629.27758 301.38353,629.62385 302.53125,629.9375 C 302.95697,630.05384 303.38528,630.16858 303.8125,630.28125 C 304.09238,630.35506 304.37573,630.42777 304.65625,630.5 C 305.56024,630.73276 306.46451,630.94002 307.375,631.15625 C 308.60289,631.44786 309.8544,631.70757 311.09375,631.96875 C 311.3233,632.01712 311.55132,632.07768 311.78125,632.125 C 313.04311,632.38457 314.32057,632.64738 315.59375,632.875 C 315.67638,632.88978 315.76107,632.89161 315.84375,632.90625 C 317.14629,633.13685 318.43612,633.36579 319.75,633.5625 C 319.87569,633.58133 319.9992,633.60648 320.125,633.625 C 321.08794,633.76668 322.06247,633.87673 323.03125,634 C 323.96871,634.11928 324.90099,634.21063 325.84375,634.3125 C 326.68499,634.4034 327.52967,634.51684 328.375,634.59375 C 328.63468,634.61738 328.89619,634.63395 329.15625,634.65625 C 330.0898,634.73631 331.03041,634.81215 331.96875,634.875 C 332.60316,634.9175 333.23846,634.96543 333.875,635 C 334.47821,635.03274 335.08242,635.03692 335.6875,635.0625 C 336.54128,635.0986 337.3926,635.1345 338.25,635.15625 C 339.53594,635.18887 340.83125,635.21875 342.125,635.21875 C 343.41875,635.21875 344.71406,635.18887 346,635.15625 C 346.8574,635.1345 347.70872,635.0986 348.5625,635.0625 C 349.16661,635.03693 349.77276,635.03271 350.375,635 C 351.01328,634.96535 351.64511,634.91762 352.28125,634.875 C 353.21951,634.81215 354.1603,634.73631 355.09375,634.65625 C 355.3529,634.63402 355.61623,634.61729 355.875,634.59375 C 356.72081,634.51678 357.56456,634.40348 358.40625,634.3125 C 359.34901,634.21063 360.28129,634.11928 361.21875,634 C 362.31315,633.86075 363.41307,633.72523 364.5,633.5625 C 367.18137,633.16068 369.8358,632.66702 372.46875,632.125 C 372.69876,632.07769 372.92662,632.01712 373.15625,631.96875 C 374.3953,631.70757 375.64743,631.44786 376.875,631.15625 C 378.06892,630.87264 379.25482,630.59326 380.4375,630.28125 C 380.84409,630.17402 381.25101,630.04805 381.65625,629.9375 C 382.82158,629.61941 383.97116,629.28285 385.125,628.9375 C 386.4874,628.52973 387.84167,628.10145 389.1875,627.65625 C 390.53333,627.21105 391.8901,626.76328 393.21875,626.28125 C 394.52548,625.80718 395.80421,625.32161 397.09375,624.8125 C 397.11539,624.80396 397.13462,624.7898 397.15625,624.78125 C 399.60874,623.81167 402.05026,622.7808 404.4375,621.6875 C 405.21513,621.33159 405.97956,620.9625 406.75,620.59375 C 407.40939,620.27799 408.06473,619.95008 408.71875,619.625 C 409.95171,619.01216 411.16155,618.39551 412.375,617.75 C 412.43683,617.71714 412.50072,617.6892 412.5625,617.65625 C 413.75466,617.01992 414.95229,616.35483 416.125,615.6875 C 418.45225,614.36318 420.72129,613.0057 422.96875,611.5625 C 423.06402,611.50133 423.15488,611.43638 423.25,611.375 C 424.16745,610.7837 425.06516,610.20437 425.96875,609.59375 C 426.11631,609.49396 426.25906,609.38155 426.40625,609.28125 C 426.85234,608.97747 427.30737,608.68345 427.75,608.375 C 428.33799,607.96498 428.91819,607.54319 429.5,607.125 C 429.95449,606.79854 430.39307,606.45639 430.84375,606.125 C 431.72834,605.47411 432.59908,604.82595 433.46875,604.15625 C 434.56869,603.30923 435.67448,602.43905 436.75,601.5625 C 439.97657,598.93285 443.09775,596.16577 446.09375,593.28125 C 447.09242,592.31974 448.05941,591.36361 449.03125,590.375 C 450.97493,588.39778 452.88599,586.36324 454.71875,584.28125 C 455.63513,583.24025 456.5185,582.19128 457.40625,581.125 C 458.294,580.05872 459.17274,578.96595 460.03125,577.875 C 460.37043,576.91103 460.71127,575.94157 461.03125,574.96875 C 461.37801,573.91453 461.70733,572.84558 462.03125,571.78125 C 462.31315,570.85421 462.57942,569.93453 462.84375,569 C 463.12675,568.0004 463.39356,566.97667 463.65625,565.96875 C 463.84326,565.25123 464.04214,564.53413 464.21875,563.8125 C 464.61445,562.19315 464.9699,560.57693 465.3125,558.9375 C 465.34327,558.7906 465.37591,558.64705 465.40625,558.5 C 465.56014,557.75237 465.70104,557.00163 465.84375,556.25 C 466.00497,555.40263 466.16561,554.53984 466.3125,553.6875 C 466.49154,552.64859 466.65499,551.60858 466.8125,550.5625 C 466.97001,549.51642 467.11426,548.49053 467.25,547.4375 C 467.38574,546.38447 467.51127,545.30974 467.625,544.25 C 467.73873,543.19026 467.84603,542.12872 467.9375,541.0625 C 468.02897,539.99628 468.11853,538.91623 468.1875,537.84375 C 468.22632,537.24006 468.24962,536.63687 468.28125,536.03125 C 468.34017,534.89838 468.40389,533.76435 468.4375,532.625 C 468.48195,531.12676 468.5,529.634 468.5,528.125 C 468.5,507.09715 464.16565,487.07394 456.34375,468.90625 C 455.48007,466.89991 454.5726,464.89757 453.625,462.9375 C 453.61897,462.92504 453.59978,462.91871 453.59375,462.90625 C 453.1167,461.92018 452.65411,460.94267 452.15625,459.96875 C 451.16055,458.02132 450.10845,456.11582 449.03125,454.21875 C 447.95402,452.32125 446.84391,450.43859 445.6875,448.59375 C 444.53109,446.74891 443.32703,444.94611 442.09375,443.15625 C 436.5441,435.10398 430.22717,427.62217 423.25,420.8125 C 420.92428,418.54261 418.53119,416.33494 416.0625,414.21875 C 413.58278,412.09311 411.05356,410.05641 408.4375,408.09375 C 407.58118,407.45069 406.71413,406.81252 405.84375,406.1875 C 405.83203,406.17909 405.82422,406.16465 405.8125,406.15625 C 404.93012,405.52299 404.05278,404.92694 403.15625,404.3125 C 397.77706,400.62718 392.1645,397.28402 386.3125,394.3125 C 386.30016,394.30623 386.2936,394.28751 386.28125,394.28125 C 372.63676,387.35762 357.77189,382.47775 342.125,380 z"
       id="path3271" />
    <path
       transform="matrix(0.9210526,0,0,0.9210526,-476.69171,12.103821)"
       d="M 494.28571,515.2193 A 162.85715,162.85715 0 1 1 168.57141,515.2193 A 162.85715,162.85715 0 1 1 494.28571,515.2193 z"
       sodipodi:ry="162.85715"
       sodipodi:rx="162.85715"
       sodipodi:cy="515.2193"
       sodipodi:cx="331.42856"
       id="path3279"
       style="fill:#ff0000;fill-opacity:1;fill-rule:nonzero;stroke:none;stroke-width:1.36500001;stroke-linecap:square;stroke-linejoin:miter;marker:none;marker-start:none;marker-mid:none;marker-end:none;stroke-miterlimit:4;stroke-dasharray:none;stroke-dashoffset:0;stroke-opacity:1;visibility:visible;display:inline;overflow:visible;enable-background:accumulate"
       sodipodi:type="arc" />
    <text
       transform="matrix(-0.4855368,-0.8742162,0.8742162,-0.4855368,-798.69827,1245.0176)"
       sodipodi:linespacing="125%"
       id="text3281"
       style="font-size:48px;font-style:normal;font-variant:normal;font-weight:normal;font-stretch:normal;text-align:center;line-height:125%;writing-mode:lr-tb;text-anchor:middle;fill:#000000;fill-opacity:1;stroke:none;stroke-width:1px;stroke-linecap:butt;stroke-linejoin:miter;stroke-opacity:1;font-family:DejaVu Sans;-inkscape-font-specification:DejaVu Sans"
       xml:space="preserve"><textPath
         id="textPath3283"
         startOffset="50%"
         xlink:href="#path3187"><tspan
   id="tspan3285"
   style="font-size:20px">Ponctualité</tspan></textPath></text>
    <path
       transform="matrix(0.9210526,0,0,0.9210526,-313.83456,-422.18189)"
       d="M 494.28571,515.2193 A 162.85715,162.85715 0 1 1 168.57141,515.2193 A 162.85715,162.85715 0 1 1 494.28571,515.2193 z"
       sodipodi:ry="162.85715"
       sodipodi:rx="162.85715"
       sodipodi:cy="515.2193"
       sodipodi:cx="331.42856"
       id="path3347"
       style="opacity:1;fill:#00ff00;fill-opacity:1;fill-rule:nonzero;stroke:none;stroke-width:1.36500001;stroke-linecap:square;stroke-linejoin:miter;marker:none;marker-start:none;marker-mid:none;marker-end:none;stroke-miterlimit:4;stroke-dasharray:none;stroke-dashoffset:0;stroke-opacity:1;visibility:visible;display:inline;overflow:visible;enable-background:accumulate"
       sodipodi:type="arc" />
    <text
       transform="matrix(0.9714621,0.2371946,-0.2371946,0.9714621,-142.05741,-922.5735)"
       sodipodi:linespacing="125%"
       id="text3349"
       style="font-size:48px;font-style:normal;font-variant:normal;font-weight:normal;font-stretch:normal;text-align:center;line-height:125%;writing-mode:lr-tb;text-anchor:middle;fill:#000000;fill-opacity:1;stroke:none;stroke-width:1px;stroke-linecap:butt;stroke-linejoin:miter;stroke-opacity:1;font-family:DejaVu Sans;-inkscape-font-specification:DejaVu Sans"
       xml:space="preserve"><textPath
         style="font-size:20px"
         id="textPath3351"
         startOffset="50%"
         xlink:href="#path3187">Qualité</textPath></text>
    <path
       transform="matrix(0.9210526,0,0,0.9210526,219.02259,-360.75331)"
       d="M 494.28571,515.2193 A 162.85715,162.85715 0 1 1 168.57141,515.2193 A 162.85715,162.85715 0 1 1 494.28571,515.2193 z"
       sodipodi:ry="162.85715"
       sodipodi:rx="162.85715"
       sodipodi:cy="515.2193"
       sodipodi:cx="331.42856"
       id="path3393"
       style="fill:#0000ff;fill-opacity:1;fill-rule:nonzero;stroke:none;stroke-width:1.36500001;stroke-linecap:square;stroke-linejoin:miter;marker:none;marker-start:none;marker-mid:none;marker-end:none;stroke-miterlimit:4;stroke-dasharray:none;stroke-dashoffset:0;stroke-opacity:1;visibility:visible;display:inline;overflow:visible;enable-background:accumulate"
       sodipodi:type="arc" />
    <text
       transform="matrix(-0.8435655,0.5370262,-0.5370262,-0.8435655,1317.1525,690.35429)"
       sodipodi:linespacing="125%"
       id="text3395"
       style="font-size:48px;font-style:normal;font-variant:normal;font-weight:normal;font-stretch:normal;text-align:center;line-height:125%;writing-mode:lr-tb;text-anchor:middle;fill:#000000;fill-opacity:1;stroke:none;stroke-width:1px;stroke-linecap:butt;stroke-linejoin:miter;stroke-opacity:1;font-family:DejaVu Sans;-inkscape-font-specification:DejaVu Sans"
       xml:space="preserve"><textPath
         style="font-size:20px"
         id="textPath3397"
         startOffset="50%"
         xlink:href="#path3187">Économies</textPath></text>
    <path
       transform="matrix(0.9210526,0,0,0.9210526,-569.92011,494.9892)"
       d="M 494.28571,515.2193 A 162.85715,162.85715 0 1 1 168.57141,515.2193 A 162.85715,162.85715 0 1 1 494.28571,515.2193 z"
       sodipodi:ry="162.85715"
       sodipodi:rx="162.85715"
       sodipodi:cy="515.2193"
       sodipodi:cx="331.42856"
       id="path3419"
       style="fill:#ff0000;fill-opacity:1;fill-rule:nonzero;stroke:none;stroke-width:1.36500001;stroke-linecap:square;stroke-linejoin:miter;marker:none;marker-start:none;marker-mid:none;marker-end:none;stroke-miterlimit:4;stroke-dasharray:none;stroke-dashoffset:0;stroke-opacity:1;visibility:visible;display:inline;overflow:visible;enable-background:accumulate"
       sodipodi:type="arc" />
    <text
       transform="matrix(-0.4855368,-0.8742162,0.8742162,-0.4855368,-891.92667,1727.9029)"
       sodipodi:linespacing="125%"
       id="text3421"
       style="font-size:48px;font-style:normal;font-variant:normal;font-weight:normal;font-stretch:normal;text-align:center;line-height:125%;writing-mode:lr-tb;text-anchor:middle;fill:#000000;fill-opacity:1;stroke:none;stroke-width:1px;stroke-linecap:butt;stroke-linejoin:miter;stroke-opacity:1;font-family:DejaVu Sans;-inkscape-font-specification:DejaVu Sans"
       xml:space="preserve"><textPath
         id="textPath3423"
         startOffset="50%"
         xlink:href="#path3187"><tspan
   id="tspan3425"
   style="font-size:20px">Ponctualité</tspan></textPath></text>
    <path
       transform="matrix(0.9210526,0,0,0.9210526,-546.32042,452.07559)"
       d="M 494.28571,515.2193 A 162.85715,162.85715 0 1 1 168.57141,515.2193 A 162.85715,162.85715 0 1 1 494.28571,515.2193 z"
       sodipodi:ry="162.85715"
       sodipodi:rx="162.85715"
       sodipodi:cy="515.2193"
       sodipodi:cx="331.42856"
       id="path3427"
       style="opacity:1;fill:#00ff00;fill-opacity:1;fill-rule:nonzero;stroke:none;stroke-width:1.36500001;stroke-linecap:square;stroke-linejoin:miter;marker:none;marker-start:none;marker-mid:none;marker-end:none;stroke-miterlimit:4;stroke-dasharray:none;stroke-dashoffset:0;stroke-opacity:1;visibility:visible;display:inline;overflow:visible;enable-background:accumulate"
       sodipodi:type="arc" />
    <text
       transform="matrix(0.9714621,0.2371946,-0.2371946,0.9714621,-374.54327,-48.316014)"
       sodipodi:linespacing="125%"
       id="text3429"
       style="font-size:48px;font-style:normal;font-variant:normal;font-weight:normal;font-stretch:normal;text-align:center;line-height:125%;writing-mode:lr-tb;text-anchor:middle;fill:#000000;fill-opacity:1;stroke:none;stroke-width:1px;stroke-linecap:butt;stroke-linejoin:miter;stroke-opacity:1;font-family:DejaVu Sans;-inkscape-font-specification:DejaVu Sans"
       xml:space="preserve"><textPath
         style="font-size:20px"
         id="textPath3431"
         startOffset="50%"
         xlink:href="#path3187">Qualité</textPath></text>
    <path
       style="fill:#ffff00;fill-opacity:1;fill-rule:nonzero;stroke:none;stroke-width:1.36500001;stroke-linecap:square;stroke-linejoin:miter;marker:none;marker-start:none;marker-mid:none;marker-end:none;stroke-miterlimit:4;stroke-dasharray:none;stroke-dashoffset:0;stroke-opacity:1;visibility:visible;display:inline;overflow:visible;enable-background:accumulate"
       d="M -264.67188,819.52535 C -312.50884,819.52535 -355.10586,841.95903 -382.57813,876.8691 C -388.05722,892.44115 -391.04688,909.18123 -391.04688,926.6191 C -391.04688,1009.4191 -323.84688,1076.6191 -241.04688,1076.6191 C -193.20969,1076.6191 -150.61289,1054.1857 -123.14063,1019.2753 C -117.66154,1003.7033 -114.67188,986.96322 -114.67188,969.52535 C -114.67188,886.72535 -181.87187,819.52535 -264.67188,819.52535 z"
       id="path3433" />
    <g
       id="g3534"
       transform="translate(-993.99013,-711.14739)">
      <path
         id="path3455"
         transform="translate(-414.65697,776.61967)"
         d="M 684.1875,510.28125 C 664.10883,535.79621 652.12499,567.9747 652.125,602.9375 C 652.125,685.7375 719.32497,752.9375 802.125,752.9375 C 810.15392,752.9375 818.03131,752.31059 825.71875,751.09375 C 770.81954,742.40986 725.83198,703.91072 707.8125,652.71875 C 687.71769,627.19837 675.71876,595.0096 675.71875,560.03125 C 675.71875,542.59345 678.70843,525.85336 684.1875,510.28125 z M 952.0625,599.4375 C 952.0891,600.59935 952.09375,601.76929 952.09375,602.9375 C 952.09375,603.94927 952.08247,604.96173 952.0625,605.96875 C 952.08577,604.96106 952.125,603.94962 952.125,602.9375 C 952.125,601.76892 952.09126,600.60057 952.0625,599.4375 z M 847.8125,745.8125 C 847.00304,746.07151 846.19037,746.34819 845.375,746.59375 C 846.19468,746.34694 846.9988,746.07291 847.8125,745.8125 z"
         style="fill:#ff0000;fill-opacity:1;fill-rule:nonzero;stroke:none;stroke-width:1.36500001;stroke-linecap:square;stroke-linejoin:miter;marker:none;marker-start:none;marker-mid:none;marker-end:none;stroke-miterlimit:4;stroke-dasharray:none;stroke-dashoffset:0;stroke-opacity:1;visibility:visible;display:inline;overflow:visible;enable-background:accumulate" />
      <path
         id="path3463"
         transform="translate(-414.65697,776.61967)"
         d="M 859.46875,453.28125 C 860.40665,453.34402 861.34813,453.42005 862.28125,453.5 C 861.34754,453.41992 860.40725,453.34412 859.46875,453.28125 z M 900.40625,461.875 C 901.71302,462.34848 902.99163,462.83526 904.28125,463.34375 C 902.9935,462.83567 901.71111,462.34817 900.40625,461.875 z M 908.25,464.96875 C 909.46957,465.49067 910.67229,466.04068 911.875,466.59375 C 910.67296,466.04086 909.46888,465.49052 908.25,464.96875 z M 967.21875,510.25 C 972.70409,525.82992 975.71877,542.58303 975.71875,560.03125 C 975.71875,595.0186 963.72914,627.2265 943.625,652.75 C 925.605,703.92463 880.5992,742.40364 825.71875,751.09375 C 833.40416,752.30942 841.28699,752.9375 849.3125,752.9375 C 932.1125,752.9375 999.31251,685.7375 999.3125,602.9375 C 999.3125,567.95914 987.31356,535.77038 967.21875,510.25 z M 714.21875,668.15625 C 714.95519,669.67838 715.71416,671.16327 716.5,672.65625 C 715.71677,671.16804 714.95289,669.67341 714.21875,668.15625 z M 751.78125,716.875 C 752.59338,717.57091 753.42297,718.25879 754.25,718.9375 C 753.41158,718.24956 752.60436,717.5806 751.78125,716.875 z"
         style="fill:#0000ff;fill-opacity:1;fill-rule:nonzero;stroke:none;stroke-width:1.36500001;stroke-linecap:square;stroke-linejoin:miter;marker:none;marker-start:none;marker-mid:none;marker-end:none;stroke-miterlimit:4;stroke-dasharray:none;stroke-dashoffset:0;stroke-opacity:1;visibility:visible;display:inline;overflow:visible;enable-background:accumulate" />
      <path
         id="path3465"
         transform="translate(-414.65697,776.61967)"
         d="M 825.71875,410.03125 C 760.35662,410.03125 704.72472,451.91273 684.1875,510.28125 C 711.65977,475.37125 754.25681,452.9375 802.09375,452.9375 C 810.12769,452.9375 818.02568,453.56308 825.71875,454.78125 C 833.40416,453.56558 841.28699,452.9375 849.3125,452.9375 C 897.1251,452.9375 939.74506,475.33916 967.21875,510.21875 C 946.66437,451.88181 891.05828,410.03125 825.71875,410.03125 z M 684.1875,510.28125 C 683.84435,511.25652 683.51093,512.23439 683.1875,513.21875 C 683.51037,512.23648 683.84506,511.25451 684.1875,510.28125 z M 682.15625,516.4375 C 681.88221,517.34032 681.63237,518.24633 681.375,519.15625 C 681.63117,518.25141 681.88364,517.33534 682.15625,516.4375 z M 680.5625,522.15625 C 680.11401,523.87776 679.70073,525.59881 679.3125,527.34375 C 679.69959,525.60636 680.11572,523.87046 680.5625,522.15625 z M 971.625,525.15625 C 971.86802,526.17355 972.09029,527.19355 972.3125,528.21875 C 972.09106,527.19458 971.86726,526.17253 971.625,525.15625 z M 677.90625,534.4375 C 677.54784,536.51884 677.24034,538.6091 676.96875,540.71875 C 677.24024,538.6127 677.54817,536.51532 677.90625,534.4375 z M 676,550.75 C 675.94337,551.67598 675.91472,552.60082 675.875,553.53125 C 675.91455,552.60844 675.94378,551.66841 676,550.75 z M 675.71875,560.03125 C 675.71875,561.32358 675.7487,562.62172 675.78125,563.90625 C 675.74863,562.62031 675.71875,561.325 675.71875,560.03125 z M 675.78125,563.90625 C 675.81176,565.11016 675.84748,566.30327 675.90625,567.5 C 675.84757,566.30478 675.81175,565.10864 675.78125,563.90625 z M 678.15625,587.03125 C 678.3519,588.1055 678.56282,589.18384 678.78125,590.25 C 678.56315,589.18505 678.35163,588.10427 678.15625,587.03125 z M 682.6875,605.3125 C 682.98623,606.25598 683.3082,607.18968 683.625,608.125 C 683.30868,607.19086 682.9858,606.25478 682.6875,605.3125 z M 683.625,608.125 C 684.0192,609.28884 684.42194,610.4429 684.84375,611.59375 C 684.42296,610.44522 684.0183,609.28646 683.625,608.125 z M 690.53125,625.03125 C 691.05686,626.12128 691.60524,627.20604 692.15625,628.28125 C 691.60387,627.20329 691.0581,626.12411 690.53125,625.03125 z M 692.15625,628.28125 C 692.70718,629.3563 693.26782,630.44016 693.84375,631.5 C 693.26624,630.43733 692.70863,629.35921 692.15625,628.28125 z M 697.9375,638.5625 C 698.41058,639.33017 698.88856,640.08531 699.375,640.84375 C 698.89095,640.08896 698.40832,639.32643 697.9375,638.5625 z M 699.375,640.84375 C 700.00506,641.8261 700.6291,642.8147 701.28125,643.78125 C 700.62885,642.81427 700.00528,641.82656 699.375,640.84375 z"
         style="opacity:1;fill:#00ff00;fill-opacity:1;fill-rule:nonzero;stroke:none;stroke-width:1.36500001;stroke-linecap:square;stroke-linejoin:miter;marker:none;marker-start:none;marker-mid:none;marker-end:none;stroke-miterlimit:4;stroke-dasharray:none;stroke-dashoffset:0;stroke-opacity:1;visibility:visible;display:inline;overflow:visible;enable-background:accumulate" />
      <path
         id="path3475"
         transform="translate(-414.65697,776.61967)"
         d="M 802.09375,452.9375 C 754.25681,452.9375 711.65977,475.37125 684.1875,510.28125 C 678.70843,525.85336 675.71875,542.59345 675.71875,560.03125 C 675.71876,594.9939 687.70274,627.17259 707.78125,652.6875 C 702.30216,637.1154 699.31252,620.37527 699.3125,602.9375 C 699.31251,528.17144 754.1249,466.11789 825.71875,454.78125 C 818.02568,453.56308 810.12769,452.9375 802.09375,452.9375 z M 710.40625,655.90625 C 711.30103,656.98127 712.20106,658.04443 713.125,659.09375 C 712.2085,658.05276 711.29406,656.97252 710.40625,655.90625 z M 715.96875,662.21875 C 716.77909,663.08868 717.60694,663.93078 718.4375,664.78125 C 717.60795,663.93186 716.77813,663.08754 715.96875,662.21875 z M 721.75,668.09375 C 722.7523,669.05838 723.75251,670.00077 724.78125,670.9375 C 723.75606,670.00371 722.74893,669.05526 721.75,668.09375 z M 741.09375,683.84375 C 742.15357,684.56986 743.23336,685.26938 744.3125,685.96875 C 743.2316,685.26828 742.15527,684.57104 741.09375,683.84375 z M 756.3125,693 C 757.23711,693.48405 758.15794,693.9723 759.09375,694.4375 C 758.16029,693.97349 757.23482,693.48276 756.3125,693 z M 762.90625,696.25 C 764.08061,696.79283 765.24699,697.33064 766.4375,697.84375 C 765.24917,697.33154 764.07849,696.79183 762.90625,696.25 z M 775.59375,701.4375 C 776.60626,701.79673 777.63389,702.13079 778.65625,702.46875 C 777.63486,702.13098 776.6053,701.79651 775.59375,701.4375 z M 778.65625,702.46875 C 780.00063,702.91315 781.35787,703.34292 782.71875,703.75 C 781.35593,703.34223 780.00252,702.91395 778.65625,702.46875 z M 782.71875,703.75 C 783.78533,704.06905 784.86111,704.39171 785.9375,704.6875 C 784.85573,704.39028 783.79062,704.07071 782.71875,703.75 z M 844.8125,708.8125 C 843.87504,708.93178 842.94276,709.02313 842,709.125 C 842.94062,709.02332 843.87718,708.93151 844.8125,708.8125 z M 812.84375,709.46875 C 813.75039,709.54601 814.65135,709.62646 815.5625,709.6875 C 814.65525,709.62673 813.74653,709.54561 812.84375,709.46875 z M 832.15625,709.875 C 831.30247,709.9111 830.45115,709.947 829.59375,709.96875 C 830.45047,709.94697 831.30316,709.91111 832.15625,709.875 z"
         style="fill:#ffff00;fill-opacity:1;fill-rule:nonzero;stroke:none;stroke-width:1.36500001;stroke-linecap:square;stroke-linejoin:miter;marker:none;marker-start:none;marker-mid:none;marker-end:none;stroke-miterlimit:4;stroke-dasharray:none;stroke-dashoffset:0;stroke-opacity:1;visibility:visible;display:inline;overflow:visible;enable-background:accumulate" />
      <path
         id="path3526"
         transform="translate(-414.65697,776.61967)"
         d="M 849.3125,452.9375 C 840.11258,452.9375 831.11896,453.78655 822.375,455.375 C 823.48548,455.17341 824.59992,454.98948 825.71875,454.8125 C 897.31209,466.1496 952.09377,528.17177 952.09375,602.9375 C 952.09375,620.4013 949.11878,637.15769 943.625,652.75 C 963.72914,627.2265 975.71875,595.0186 975.71875,560.03125 C 975.71877,542.57263 972.71032,525.80655 967.21875,510.21875 C 939.74506,475.33916 897.1251,452.9375 849.3125,452.9375 z M 822.375,455.375 C 820.15775,455.77779 817.96348,456.21952 815.78125,456.71875 C 817.96707,456.21886 820.15404,455.77818 822.375,455.375 z M 815.46875,456.78125 C 811.20387,457.76655 806.99243,458.94051 802.875,460.28125 C 806.99288,458.94089 811.20338,457.76626 815.46875,456.78125 z M 802.875,460.28125 C 801.82674,460.62259 800.788,460.98007 799.75,461.34375 C 800.79391,460.978 801.82071,460.62442 802.875,460.28125 z M 799.75,461.34375 C 797.65143,462.07901 795.58612,462.8627 793.53125,463.6875 C 795.57582,462.8674 797.66217,462.07526 799.75,461.34375 z M 793.53125,463.6875 C 789.43638,465.33113 785.4386,467.1398 781.53125,469.125 C 785.43345,467.14431 789.44211,465.3277 793.53125,463.6875 z M 778.625,470.625 C 777.65834,471.143 776.70386,471.68032 775.75,472.21875 C 776.70044,471.68275 777.66186,471.14073 778.625,470.625 z M 772.90625,473.875 C 771.03743,474.98462 769.19044,476.12517 767.375,477.3125 C 769.18424,476.13021 771.04402,474.98015 772.90625,473.875 z M 767.375,477.3125 C 766.47371,477.90196 765.57521,478.51681 764.6875,479.125 C 765.58425,478.51083 766.46439,477.90756 767.375,477.3125 z M 758.84375,483.3125 C 757.28353,484.49474 755.76174,485.6965 754.25,486.9375 C 755.75435,485.70356 757.29142,484.48827 758.84375,483.3125 z M 749.09375,491.34375 C 748.36033,492.003 747.65776,492.70162 746.9375,493.375 C 747.65902,492.7007 748.35903,492.00387 749.09375,491.34375 z M 742.28125,497.90625 C 741.5249,498.67702 740.77095,499.46313 740.03125,500.25 C 740.77347,499.46067 741.52227,498.67937 742.28125,497.90625 z M 720.4375,526.1875 C 719.87339,527.13209 719.32504,528.07338 718.78125,529.03125 C 719.32001,528.08267 719.87879,527.12305 720.4375,526.1875 z M 710.21875,546.75 C 709.8542,547.65102 709.50369,548.55915 709.15625,549.46875 C 709.50188,548.56426 709.8562,547.646 710.21875,546.75 z M 699.84375,590.4375 C 699.78711,591.12285 699.73488,591.81208 699.6875,592.5 C 699.73489,591.81083 699.78706,591.12408 699.84375,590.4375 z M 699.5625,611.46875 C 699.59841,612.10549 699.64365,612.74041 699.6875,613.375 C 699.6441,612.74379 699.59806,612.10208 699.5625,611.46875 z"
         style="opacity:1;fill:#00ffff;fill-opacity:1;fill-rule:nonzero;stroke:none;stroke-width:1.36500001;stroke-linecap:square;stroke-linejoin:miter;marker:none;marker-start:none;marker-mid:none;marker-end:none;stroke-miterlimit:4;stroke-dasharray:none;stroke-dashoffset:0;stroke-opacity:1;visibility:visible;display:inline;overflow:visible;enable-background:accumulate" />
      <path
         id="path3528"
         d="M 330.65553,1271.4945 C 330.12456,1272.0055 329.61645,1272.5383 329.09303,1273.057 C 329.61891,1272.5356 330.12203,1272.0082 330.65553,1271.4945 z M 302.78053,1308.0883 C 302.23406,1309.0937 301.71075,1310.1004 301.18678,1311.1195 C 301.7125,1310.0967 302.23215,1309.0973 302.78053,1308.0883 z M 292.56178,1331.4633 C 292.21738,1332.4802 291.88482,1333.4992 291.56178,1334.5258 C 291.88424,1333.5011 292.21804,1332.4784 292.56178,1331.4633 z M 286.40553,1356.7445 C 286.21679,1357.9795 286.03266,1359.2186 285.87428,1360.4633 C 286.03212,1359.2227 286.21754,1357.9754 286.40553,1356.7445 z M 285.40553,1364.4945 C 285.32051,1365.3465 285.25746,1366.2009 285.18678,1367.057 C 285.25712,1366.2059 285.32102,1365.3416 285.40553,1364.4945 z M 284.81178,1372.5883 C 284.70591,1374.8989 284.65553,1377.2203 284.65553,1379.557 C 284.65553,1377.222 284.70605,1374.8973 284.81178,1372.5883 z M 284.68678,1383.057 C 284.72538,1384.7423 284.8117,1386.4171 284.90553,1388.0883 C 284.81134,1386.418 284.72565,1384.7415 284.68678,1383.057 z M 285.21803,1392.4945 C 285.30904,1393.5572 285.41745,1394.6257 285.53053,1395.682 C 285.4168,1394.6223 285.3095,1393.5607 285.21803,1392.4945 z M 285.90553,1398.8383 C 286.0412,1399.8939 286.1855,1400.9459 286.34303,1401.9945 C 286.18552,1400.9484 286.04127,1399.8913 285.90553,1398.8383 z M 288.24928,1412.2133 C 288.41009,1412.9366 288.57806,1413.6502 288.74928,1414.3695 C 288.5789,1413.6546 288.40939,1412.9321 288.24928,1412.2133 z M 288.74928,1414.3695 C 288.99122,1415.386 289.23675,1416.3924 289.49928,1417.4008 C 289.23659,1416.3929 288.99143,1415.3855 288.74928,1414.3695 z M 293.12428,1429.307 C 311.13503,1480.5176 356.14925,1519.0273 411.06178,1527.7133 C 465.9328,1519.0247 510.94185,1480.531 528.96803,1429.3695 C 501.49433,1464.2492 458.87444,1486.6508 411.06178,1486.6508 C 363.22459,1486.6508 320.59656,1464.2173 293.12428,1429.307 z"
         style="fill:#ff00ff;fill-opacity:1;fill-rule:nonzero;stroke:none;stroke-width:1.36500001;stroke-linecap:square;stroke-linejoin:miter;marker:none;marker-start:none;marker-mid:none;marker-end:none;stroke-miterlimit:4;stroke-dasharray:none;stroke-dashoffset:0;stroke-opacity:1;visibility:visible;display:inline;overflow:visible;enable-background:accumulate" />
    </g>
    <path
       style="fill:#ffffff;fill-opacity:1;fill-rule:nonzero;stroke:none;stroke-width:1.36500001;stroke-linecap:square;stroke-linejoin:miter;marker:none;marker-start:none;marker-mid:none;marker-end:none;stroke-miterlimit:4;stroke-dasharray:none;stroke-dashoffset:0;stroke-opacity:1;visibility:visible;display:inline;overflow:visible;enable-background:accumulate"
       d="M 950.3408,317.66206 C 931.32067,320.67077 913.49627,327.24176 897.55955,336.69331 C 887.24756,342.80902 877.71449,350.15176 869.18455,358.47456 C 868.41452,359.22635 867.65708,359.95649 866.9033,360.72456 C 866.8981,360.72985 866.9085,360.75051 866.9033,360.75581 C 866.14963,361.52399 865.35919,362.28414 864.62205,363.06831 C 864.61697,363.07371 864.62713,363.09416 864.62205,363.09956 C 863.88522,363.88364 863.15457,364.67478 862.43455,365.47456 C 862.42939,365.48029 862.43971,365.50008 862.43455,365.50581 C 861.71471,366.30563 860.98105,367.09683 860.2783,367.91206 C 858.85727,369.55953 857.50273,371.2346 856.1533,372.94331 C 855.481,373.79485 854.80739,374.63951 854.1533,375.50581 C 853.49413,376.3783 852.8562,377.24362 852.2158,378.13081 C 851.58021,379.01159 850.95761,379.89209 850.3408,380.78706 C 848.4851,383.4779 846.74005,386.22309 845.05955,389.03706 C 844.50084,389.97284 843.94206,390.90075 843.4033,391.84956 C 841.78209,394.70276 840.27628,397.60243 838.8408,400.56831 C 838.36361,401.55445 837.89063,402.53905 837.43455,403.53706 C 835.14933,408.53409 833.13729,413.67025 831.4033,418.94331 C 831.0571,419.99629 830.72666,421.03645 830.4033,422.09956 C 830.07684,423.17191 829.76871,424.23594 829.4658,425.31831 C 829.16557,426.39126 828.8676,427.45457 828.5908,428.53706 C 825.54116,440.45166 823.93455,452.92478 823.93455,465.78706 C 823.93455,466.87693 823.94257,467.95276 823.9658,469.03706 C 823.97469,469.45515 823.98474,469.86981 823.99705,470.28706 C 824.01681,470.95301 824.0311,471.62332 824.05955,472.28706 C 824.06623,472.44348 824.08364,472.59951 824.0908,472.75581 C 824.13313,473.67644 824.18813,474.58959 824.24705,475.50581 C 824.31602,476.57829 824.40558,477.65834 824.49705,478.72456 C 824.58852,479.79078 824.69582,480.85232 824.80955,481.91206 C 824.8508,482.29768 824.89037,482.68357 824.93455,483.06831 C 825.01218,483.74253 825.09799,484.42809 825.18455,485.09956 C 825.32029,486.15259 825.46454,487.17848 825.62205,488.22456 C 825.77956,489.27064 825.94301,490.31065 826.12205,491.34956 C 826.26921,492.20557 826.42918,493.06107 826.5908,493.91206 C 826.73437,494.66662 826.87347,495.41153 827.0283,496.16206 C 827.0584,496.30825 827.09152,496.45352 827.12205,496.59956 C 827.1878,496.91346 827.24184,497.22388 827.30955,497.53706 C 827.46993,498.28039 827.63819,499.01661 827.80955,499.75581 C 827.92848,500.26797 828.06039,500.77692 828.18455,501.28706 C 828.58864,502.94731 829.007,504.61758 829.4658,506.25581 C 829.50373,506.39126 829.5525,506.52677 829.5908,506.66206 C 829.85554,507.59791 830.12093,508.54622 830.4033,509.47456 C 830.72162,510.51975 831.06295,511.56412 831.4033,512.59956 C 831.40641,512.60904 831.40018,512.62134 831.4033,512.63081 C 831.72328,513.60363 832.06412,514.57309 832.4033,515.53706 C 833.14645,516.48143 833.91941,517.42365 834.68455,518.34956 C 835.18026,518.94939 835.67975,519.53886 836.18455,520.13081 C 836.5264,520.53169 836.83857,520.95234 837.18455,521.34956 C 837.5291,521.74511 837.89844,522.11392 838.24705,522.50581 C 838.99731,523.34923 839.75947,524.17957 840.5283,525.00581 C 841.44617,525.99219 842.36573,526.98194 843.30955,527.94331 C 843.35075,527.98528 843.3933,528.02639 843.43455,528.06831 C 844.24051,528.88751 845.0476,529.67395 845.87205,530.47456 C 846.14218,530.73688 846.41246,530.99551 846.68455,531.25581 C 846.74836,531.31686 846.80814,531.38237 846.87205,531.44331 C 848.60708,533.09736 850.372,534.71682 852.18455,536.28706 C 852.28577,536.37475 852.39559,536.44963 852.49705,536.53706 C 853.37754,537.29576 854.25519,538.04863 855.1533,538.78706 C 855.59286,539.14852 856.05333,539.49302 856.49705,539.84956 C 857.19954,540.41397 857.90927,540.98512 858.62205,541.53706 C 858.99169,541.82333 859.37468,542.09793 859.74705,542.38081 C 860.27944,542.78519 860.80288,543.20216 861.3408,543.59956 C 861.87969,543.99777 862.42143,544.39593 862.9658,544.78706 C 863.54774,545.20505 864.12768,545.62723 864.7158,546.03706 C 865.18287,546.36264 865.65112,546.68543 866.12205,547.00581 C 866.57794,547.31588 867.03759,547.6069 867.49705,547.91206 C 868.06093,548.2867 868.61536,548.66988 869.18455,549.03706 C 869.28732,549.10332 869.39411,549.15854 869.49705,549.22456 C 869.79798,549.41765 870.1009,549.59606 870.4033,549.78706 C 871.12475,550.2426 871.86112,550.71855 872.5908,551.16206 C 872.63071,551.18631 872.67586,551.20034 872.7158,551.22456 C 873.90782,551.94736 875.12737,552.65933 876.3408,553.34956 C 877.17709,553.82515 878.02584,554.29593 878.87205,554.75581 C 879.44569,555.06757 880.01268,555.38885 880.5908,555.69331 C 881.63093,556.24107 882.69269,556.7632 883.74705,557.28706 C 884.40052,557.61168 885.05697,557.94048 885.7158,558.25581 C 886.50632,558.63422 887.29271,559.01592 888.0908,559.38081 C 888.26932,559.46242 888.44315,559.54988 888.62205,559.63081 C 889.53504,560.04388 890.44945,560.4231 891.37205,560.81831 C 892.48945,561.29696 893.6159,561.77248 894.74705,562.22456 C 894.92479,562.2956 895.10022,562.37293 895.2783,562.44331 C 895.30877,562.45536 895.34157,562.46253 895.37205,562.47456 C 895.55864,562.54816 895.74759,562.62044 895.93455,562.69331 C 896.88393,563.06344 897.81966,563.43584 898.7783,563.78706 C 898.93273,563.84365 899.09238,563.88722 899.24705,563.94331 C 900.57616,564.42534 901.90078,564.87311 903.24705,565.31831 C 904.59332,565.76351 905.94673,566.19179 907.30955,566.59956 C 908.44615,566.93964 909.59933,567.28591 910.74705,567.59956 C 911.17277,567.7159 911.60108,567.83064 912.0283,567.94331 C 912.30818,568.01712 912.59153,568.08983 912.87205,568.16206 C 913.77604,568.39482 914.68031,568.60208 915.5908,568.81831 C 916.81869,569.10992 918.0702,569.36963 919.30955,569.63081 C 919.5391,569.67918 919.76712,569.73974 919.99705,569.78706 C 921.25891,570.04663 922.53637,570.30944 923.80955,570.53706 C 923.89218,570.55184 923.97687,570.55367 924.05955,570.56831 C 925.36209,570.79891 926.65192,571.02785 927.9658,571.22456 C 928.09149,571.24339 928.215,571.26854 928.3408,571.28706 C 929.30374,571.42874 930.27827,571.53879 931.24705,571.66206 C 932.18451,571.78134 933.11679,571.87269 934.05955,571.97456 C 934.90079,572.06546 935.74547,572.1789 936.5908,572.25581 C 936.85048,572.27944 937.11199,572.29601 937.37205,572.31831 C 938.3056,572.39837 939.24621,572.47421 940.18455,572.53706 C 940.81896,572.57956 941.45426,572.62749 942.0908,572.66206 C 942.69401,572.6948 943.29822,572.69898 943.9033,572.72456 C 944.75708,572.76066 945.6084,572.79656 946.4658,572.81831 C 947.75174,572.85093 949.04705,572.88081 950.3408,572.88081 C 951.63455,572.88081 952.92986,572.85093 954.2158,572.81831 C 955.0732,572.79656 955.92452,572.76066 956.7783,572.72456 C 957.38241,572.69899 957.98856,572.69477 958.5908,572.66206 C 959.22908,572.62741 959.86091,572.57968 960.49705,572.53706 C 961.43531,572.47421 962.3761,572.39837 963.30955,572.31831 C 963.5687,572.29608 963.83203,572.27935 964.0908,572.25581 C 964.93661,572.17884 965.78036,572.06554 966.62205,571.97456 C 967.56481,571.87269 968.49709,571.78134 969.43455,571.66206 C 970.52895,571.52281 971.62887,571.38729 972.7158,571.22456 C 975.39717,570.82274 978.0516,570.32908 980.68455,569.78706 C 980.91456,569.73975 981.14242,569.67918 981.37205,569.63081 C 982.6111,569.36963 983.86323,569.10992 985.0908,568.81831 C 986.28472,568.5347 987.47062,568.25532 988.6533,567.94331 C 989.05989,567.83608 989.46681,567.71011 989.87205,567.59956 C 991.03738,567.28147 992.18696,566.94491 993.3408,566.59956 C 994.7032,566.19179 996.05747,565.76351 997.4033,565.31831 C 998.74913,564.87311 1000.1059,564.42534 1001.4345,563.94331 C 1002.7413,563.46924 1004.02,562.98367 1005.3095,562.47456 C 1005.3312,562.46602 1005.3504,562.45186 1005.372,562.44331 C 1007.8245,561.47373 1010.2661,560.44286 1012.6533,559.34956 C 1013.4309,558.99365 1014.1954,558.62456 1014.9658,558.25581 C 1015.6252,557.94005 1016.2805,557.61214 1016.9345,557.28706 C 1018.1675,556.67422 1019.3773,556.05757 1020.5908,555.41206 C 1020.6526,555.3792 1020.7165,555.35126 1020.7783,555.31831 C 1021.9705,554.68198 1023.1681,554.01689 1024.3408,553.34956 C 1026.668,552.02524 1028.9371,550.66776 1031.1845,549.22456 C 1031.2798,549.16339 1031.3707,549.09844 1031.4658,549.03706 C 1032.3832,548.44576 1033.281,547.86643 1034.1845,547.25581 C 1034.3321,547.15602 1034.4749,547.04361 1034.622,546.94331 C 1035.0681,546.63953 1035.5232,546.34551 1035.9658,546.03706 C 1036.5538,545.62704 1037.134,545.20525 1037.7158,544.78706 C 1038.1703,544.4606 1038.6089,544.11845 1039.0595,543.78706 C 1039.9441,543.13617 1040.8149,542.48801 1041.6845,541.81831 C 1042.7845,540.97129 1043.8903,540.10111 1044.9658,539.22456 C 1048.1924,536.59491 1051.3135,533.82783 1054.3095,530.94331 C 1055.3082,529.9818 1056.2752,529.02567 1057.247,528.03706 C 1059.1907,526.05984 1061.1018,524.0253 1062.9345,521.94331 C 1063.8509,520.90231 1064.7343,519.85334 1065.622,518.78706 C 1066.5098,517.72078 1067.3885,516.62801 1068.247,515.53706 C 1068.5862,514.57309 1068.9271,513.60363 1069.247,512.63081 C 1069.5938,511.57659 1069.9231,510.50764 1070.247,509.44331 C 1070.5289,508.51627 1070.7952,507.59659 1071.0595,506.66206 C 1071.3425,505.66246 1071.6094,504.63873 1071.872,503.63081 C 1072.0591,502.91329 1072.2579,502.19619 1072.4345,501.47456 C 1072.8302,499.85521 1073.1857,498.23899 1073.5283,496.59956 C 1073.5591,496.45266 1073.5917,496.30911 1073.622,496.16206 C 1073.7759,495.41443 1073.9168,494.66369 1074.0595,493.91206 C 1074.2208,493.06469 1074.3814,492.2019 1074.5283,491.34956 C 1074.7073,490.31065 1074.8708,489.27064 1075.0283,488.22456 C 1075.1858,487.17848 1075.3301,486.15259 1075.4658,485.09956 C 1075.6015,484.04653 1075.7271,482.9718 1075.8408,481.91206 C 1075.9545,480.85232 1076.0618,479.79078 1076.1533,478.72456 C 1076.2448,477.65834 1076.3343,476.57829 1076.4033,475.50581 C 1076.4421,474.90212 1076.4654,474.29893 1076.497,473.69331 C 1076.556,472.56044 1076.6197,471.42641 1076.6533,470.28706 C 1076.6977,468.78882 1076.7158,467.29606 1076.7158,465.78706 C 1076.7158,444.75921 1072.3814,424.736 1064.5595,406.56831 C 1063.6959,404.56197 1062.7884,402.55963 1061.8408,400.59956 C 1061.8348,400.5871 1061.8156,400.58077 1061.8095,400.56831 C 1061.3325,399.58224 1060.8699,398.60473 1060.372,397.63081 C 1059.3763,395.68338 1058.3242,393.77788 1057.247,391.88081 C 1056.1698,389.98331 1055.0597,388.10065 1053.9033,386.25581 C 1052.7469,384.41097 1051.5428,382.60817 1050.3095,380.81831 C 1044.7599,372.76604 1038.443,365.28423 1031.4658,358.47456 C 1029.1401,356.20467 1026.747,353.997 1024.2783,351.88081 C 1021.7986,349.75517 1019.2694,347.71847 1016.6533,345.75581 C 1015.797,345.11275 1014.9299,344.47458 1014.0595,343.84956 C 1014.0478,343.84115 1014.04,343.82671 1014.0283,343.81831 C 1013.1459,343.18505 1012.2686,342.589 1011.372,341.97456 C 1005.9929,338.28924 1000.3803,334.94608 994.5283,331.97456 C 994.51596,331.96829 994.5094,331.94957 994.49705,331.94331 C 980.85256,325.01968 965.98769,320.13981 950.3408,317.66206 z"
       id="path3609" />
  </g>
</svg>
