<?xml version="1.0" encoding="UTF-8" standalone="no"?>
<!-- Created with Inkscape (http://www.inkscape.org/) -->
<svg
   xmlns:dc="http://purl.org/dc/elements/1.1/"
   xmlns:cc="http://creativecommons.org/ns#"
   xmlns:rdf="http://www.w3.org/1999/02/22-rdf-syntax-ns#"
   xmlns:svg="http://www.w3.org/2000/svg"
   xmlns="http://www.w3.org/2000/svg"
   xmlns:sodipodi="http://sodipodi.sourceforge.net/DTD/sodipodi-0.dtd"
   xmlns:inkscape="http://www.inkscape.org/namespaces/inkscape"
   width="297.93777"
   height="592.53699"
   id="svg7588"
   sodipodi:version="0.32"
   inkscape:version="0.46"
   version="1.0"
   sodipodi:docname="sem.svg"
   inkscape:output_extension="org.inkscape.output.svg.inkscape">
  <defs
     id="defs7590">
    <inkscape:perspective
       sodipodi:type="inkscape:persp3d"
       inkscape:vp_x="0 : 526.18109 : 1"
       inkscape:vp_y="0 : 1000 : 0"
       inkscape:vp_z="744.09448 : 526.18109 : 1"
       inkscape:persp3d-origin="372.04724 : 350.78739 : 1"
       id="perspective7596" />
    <inkscape:perspective
       id="perspective7659"
       inkscape:persp3d-origin="372.04724 : 350.78739 : 1"
       inkscape:vp_z="744.09448 : 526.18109 : 1"
       inkscape:vp_y="0 : 1000 : 0"
       inkscape:vp_x="0 : 526.18109 : 1"
       sodipodi:type="inkscape:persp3d" />
  </defs>
  <sodipodi:namedview
     id="base"
     pagecolor="#ffffff"
     bordercolor="#666666"
     borderopacity="1.0"
     inkscape:pageopacity="0.0"
     inkscape:pageshadow="2"
     inkscape:zoom="0.49497475"
     inkscape:cx="328.69684"
     inkscape:cy="180.72216"
     inkscape:document-units="px"
     inkscape:current-layer="layer1"
     showgrid="false"
     inkscape:window-width="640"
     inkscape:window-height="675"
     inkscape:window-x="482"
     inkscape:window-y="45" />
  <metadata
     id="metadata7593">
    <rdf:RDF>
      <cc:Work
         rdf:about="">
        <dc:format>image/svg+xml</dc:format>
        <dc:type
           rdf:resource="http://purl.org/dc/dcmitype/StillImage" />
      </cc:Work>
    </rdf:RDF>
  </metadata>
  <g
     inkscape:label="Calque 1"
     inkscape:groupmode="layer"
     id="layer1"
     transform="translate(-228.14287,-213.27695)">
    <g
       id="g7708">
      <path
         style="fill:#a2a19d"
         d="M 378.64287,805.5522 C 366.83163,804.37966 347.33723,799.963 343.75299,797.64754 C 342.59242,796.8978 339.32482,795.37775 336.49165,794.26966 C 327.55456,790.77425 312.93891,782.16167 304.64287,775.5021 C 290.33667,764.01793 273.84326,742.23341 267.44941,726.37693 C 255.04217,695.60748 254.18894,663.99049 264.93147,633.0724 C 268.43122,622.99976 270.03934,619.72545 275.45376,611.6479 C 292.17918,586.69594 315.63449,572.21888 345.79306,568.23316 C 350.24562,567.64472 370.08853,567.26418 391.64287,567.35387 C 428.07708,567.50549 429.82829,567.42708 434.14287,565.45084 C 446.50983,559.7863 455.2521,542.92932 453.81334,527.52195 C 453.07953,519.66381 451.32157,515.45834 446.57368,510.203 C 438.03463,500.75128 430.63185,498.73529 398.64287,497.15005 C 368.63016,495.66275 359.32615,494.65642 347.64287,491.63385 C 324.75759,485.71323 307.68005,469.11995 302.63419,447.90147 C 298.52151,430.60712 300.09686,410.49174 306.64104,396.7386 C 313.85496,381.57794 328.88952,368.62493 338.83591,369.00114 C 341.14661,369.08854 345.16356,368.43813 347.76247,367.55578 C 354.99866,365.09903 377.36642,362.1936 389.64287,362.11579 C 403.74617,362.0264 421.52612,360.65762 423.28079,359.52619 C 424.02993,359.04313 426.19604,358.18961 428.09435,357.62947 C 432.50759,356.32726 440.44418,345.22885 442.20196,337.9016 C 443.59022,332.11469 442.91683,321.93602 440.81256,316.89978 C 438.52861,311.43352 433.05337,305.99826 427.24179,303.42811 C 417.04227,298.91739 404.91884,298.518 352.64287,300.97052 C 339.98791,301.56423 332.20585,301.5588 331.4529,300.95574 C 330.79842,300.43154 330.12342,299.02284 329.9529,297.82528 C 329.6677,295.82227 329.16238,295.67382 323.64287,295.97163 C 320.34287,296.14969 307.29287,296.6254 294.64287,297.02877 C 263.35862,298.02633 256.34115,296.51103 247.41896,286.8316 C 242.6823,281.69293 239.91637,276.60594 238.33161,270.1185 C 236.99008,264.62673 234.79489,244.99747 234.97992,240.1479 C 235.05337,238.2229 234.68302,235.7479 234.15693,234.6479 C 232.73917,231.68355 228.14287,219.03687 228.14287,218.10027 C 228.14287,215.80731 231.71787,214.26466 238.50567,213.62859 C 249.73157,212.57664 251.57495,213.67296 248.93756,219.8328 C 247.86796,222.33092 247.49031,225.29657 247.11467,234.1479 C 246.91958,238.74477 249.01266,261.58013 250.13943,267.1479 C 252.82347,280.4106 257.43405,284.78591 269.81951,285.82371 C 275.89602,286.33287 302.0528,285.15897 321.83929,283.48909 C 328.66076,282.91339 329.05152,282.74634 329.33929,280.28292 C 329.84652,275.94076 335.23702,275.41608 376.32055,275.71003 C 416.0477,275.99427 424.30258,276.74387 436.14287,281.14233 C 455.20355,288.22303 458.02901,290.48807 464.21689,303.6479 C 467.16353,309.91455 470.1342,324.30179 470.13968,332.33252 C 470.15287,351.68391 458.22507,372.79835 442.42081,381.40011 C 432.00352,387.06991 413.52155,390.24703 380.04685,392.12242 C 356.32881,393.4512 347.54471,395.89991 340.21979,403.22482 C 328.42109,415.02352 328.68569,437.83812 340.75719,449.56181 C 348.88053,457.4511 354.20932,458.51931 393.64287,460.16329 C 440.7333,462.1265 455.33386,466.27291 471.17748,482.18234 C 484.49354,495.55372 491.14994,512.02161 491.13532,531.55786 C 491.1187,553.74713 486.43992,568.46591 474.65907,583.38971 C 463.91022,597.00618 446.64111,606.36308 425.26772,610.15135 C 421.58768,610.80361 404.46621,611.38922 384.76772,611.5366 C 343.1713,611.84779 339.81482,612.44695 326.87658,621.8706 C 318.1808,628.20422 307.6536,644.24862 305.04238,655.1479 C 302.89473,664.11217 303.39572,683.19291 306.02579,692.60283 C 317.22132,732.6584 359.14022,754.96533 405.48518,745.52964 C 412.5183,744.09772 423.17003,739.28935 430.53664,734.22099 C 438.37939,728.82503 447.79193,717.75485 452.09359,708.86764 C 461.52695,689.37834 462.75113,674.73722 457.941,638.93256 C 456.86958,630.95732 456.92362,630.04765 458.57743,628.22021 C 460.81982,625.7424 464.6375,624.46931 473.64287,623.19629 C 477.49287,622.65205 486.65899,621.29352 494.01203,620.17733 C 510.62734,617.65514 520.80704,617.52395 524.04273,619.79031 C 526.25567,621.34031 526.35402,621.86078 525.79068,629.04031 C 525.46237,633.22449 524.7279,643.8479 524.15852,652.6479 C 521.7216,690.31162 516.31202,715.05345 506.08707,735.30135 C 498.58484,750.15762 482.87435,768.925 469.31004,779.23435 C 461.94723,784.83034 446.47686,792.95267 437.14287,796.12292 C 433.56787,797.33716 429.51787,798.91645 428.14287,799.63245 C 421.17456,803.26107 391.41462,806.82009 378.64287,805.5522 z M 242.9137,241.3354 C 243.13481,240.67207 242.38995,240.1479 241.2262,240.1479 C 239.14888,240.1479 238.52627,241.19797 239.83037,242.50207 C 240.75684,243.42854 242.42659,242.79674 242.9137,241.3354 z"
         id="path7679" />
      <path
         style="fill:#8d8975"
         d="M 376.25084,804.16977 C 372.18522,803.70695 367.01022,802.87342 364.75084,802.31748 C 362.49145,801.76153 357.94287,800.77371 354.64287,800.12232 C 351.34287,799.47093 347.06787,798.14853 345.14287,797.18365 C 343.21787,796.21878 335.92824,792.66238 328.94369,789.28054 C 308.69841,779.478 296.06345,768.81531 282.49867,750.08544 C 274.26087,738.71092 269.97732,730.62519 265.82988,718.62105 C 260.15048,702.18289 258.71164,693.6159 258.78042,676.6479 C 258.91877,642.51847 269.27979,615.91828 290.38969,595.49637 C 301.6183,584.63372 311.63411,578.47608 325.00135,574.21742 C 341.5795,568.93579 342.85817,568.82217 387.64287,568.65129 C 427.47649,568.49931 429.8776,568.38647 434.19368,566.46381 C 449.96789,559.43695 458.89008,538.12913 453.56569,520.19995 C 452.34827,516.10045 450.58044,513.46367 445.81569,508.64049 C 435.72664,498.42774 432.6128,497.75576 383.14287,495.11544 C 347.40978,493.20829 332.09256,488.0837 317.20864,473.05622 C 300.48283,456.16908 296.18416,420.5427 307.9313,396.16764 C 314.02937,383.51427 330.99009,368.69508 337.13997,370.64698 C 338.15139,370.96799 342.95331,370.14397 347.8109,368.81583 C 361.77047,364.99904 370.05481,363.99718 394.64287,363.15221 C 426.54715,362.05583 431.3049,360.49983 438.43421,348.83046 C 443.21762,341.00088 444.49253,335.83811 443.81434,327.0435 C 442.75251,313.27397 436.53599,305.15486 423.90578,301.04184 C 417.07985,298.81899 415.28912,298.68485 394.14287,298.81235 C 381.76787,298.88697 363.09287,299.34875 352.64287,299.83853 C 342.19287,300.32831 333.10658,300.56019 332.45113,300.35383 C 331.79567,300.14747 331.12067,298.77922 330.95113,297.31327 C 330.67253,294.90434 330.25802,294.65627 326.64287,294.73486 C 324.44287,294.78269 310.49287,295.17313 295.64287,295.6025 C 265.74106,296.46707 260.68275,295.87304 253.0795,290.60398 C 243.46641,283.94211 239.19979,274.17767 237.14982,254.1479 C 235.93226,242.25148 235.9018,239.48131 237.00192,240.6979 C 238.11159,241.92505 240.1384,252.43507 240.15818,257.06468 C 240.1666,259.03545 240.64281,261.3229 241.21641,262.1479 C 241.96717,263.2277 242.14534,261.54691 241.85242,256.1479 C 241.53308,250.26186 241.86215,247.70385 243.38158,244.26093 C 245.57693,239.28645 244.90377,238.19005 239.63778,238.16321 C 236.8812,238.14917 236.43197,237.63104 234.20555,231.8979 C 232.87063,228.4604 231.74792,224.18672 231.71065,222.40084 C 231.67337,220.61496 231.30537,219.15246 230.89287,219.15084 C 229.55945,219.14561 230.09836,216.37896 231.5406,215.82552 C 234.40644,214.72579 246.69221,214.09131 247.99612,214.9757 C 249.05088,215.6911 249.09826,216.36274 248.21093,218.02073 C 247.5848,219.19067 246.63833,220.1479 246.10769,220.1479 C 244.81465,220.1479 244.88475,223.48728 246.24023,226.46224 C 247.09957,228.34828 246.98453,229.55341 245.70988,232.01832 C 244.55109,234.25916 244.3629,235.69052 245.05663,236.98676 C 245.59259,237.9882 246.51019,244.32517 247.09576,251.06891 C 248.73967,270.00123 250.59506,276.8847 255.25727,281.34805 C 260.03288,285.91997 264.21963,287.13517 275.22027,287.14232 C 285.48901,287.149 328.02742,284.33728 329.26928,283.56978 C 329.74975,283.27283 330.14287,282.18298 330.14287,281.1479 C 330.14287,280.11282 330.50155,279.04426 330.93995,278.77331 C 332.4703,277.8275 354.86624,277.08817 384.14287,277.01698 C 417.37535,276.93617 426.30653,277.9659 438.56901,283.29209 C 442.45963,284.98198 447.15624,286.92783 449.00592,287.6162 C 457.35777,290.72441 464.22903,301.87013 467.18082,317.09732 C 469.53823,329.25834 469.62786,334.66899 467.63196,344.33252 C 465.60933,354.12546 460.84713,363.30389 453.99354,370.61853 C 441.60149,383.84422 428.88386,387.8267 391.64287,390.14341 C 363.405,391.90005 356.32494,392.89056 349.64287,396.01926 C 341.25476,399.94678 337.66964,403.30769 334.23918,410.45964 C 330.58073,418.08693 329.60226,425.19379 331.15906,432.83143 C 334.17556,447.63038 343.54329,456.70667 358.2721,459.10094 C 361.77603,459.67052 376.56787,460.58939 391.14287,461.14287 C 434.76818,462.79952 452.75536,467.102 467.43371,479.39141 C 477.49308,487.81359 486.74953,504.48293 489.20871,518.6046 C 490.70863,527.21774 489.88969,547.29904 487.69804,555.6479 C 481.63211,578.75549 463.10448,598.06282 440.15368,605.19309 C 425.32381,609.80037 420.83568,610.24674 389.64287,610.21663 C 356.88826,610.18501 345.48852,611.13031 337.37775,614.55063 C 325.55618,619.53579 315.31076,630.06966 308.10464,644.6479 C 304.86176,651.20836 303.94961,654.40234 303.03551,662.3979 C 299.93494,689.51857 309.4187,713.86469 329.44555,730.19612 C 355.72226,751.62416 398.06994,755.10981 426.13207,738.15442 C 445.99043,726.15583 458.47069,705.82057 461.32262,680.81518 C 462.45833,670.85735 461.48301,653.06116 459.01716,638.74893 C 457.6463,630.79219 458.33211,628.687 462.88375,626.87992 C 469.30341,624.3312 474.61899,623.81174 476.09395,625.58895 C 477.71025,627.53648 479.5426,627.63197 478.813,625.73066 C 478.1099,623.89842 479.26315,623.50617 489.30505,622.16202 C 493.89085,621.5482 499.8147,620.61891 502.46916,620.09694 C 505.12362,619.57497 510.56638,619.1479 514.56417,619.1479 C 525.49759,619.1479 525.71826,619.55036 524.28802,636.88197 C 523.66322,644.45323 522.65829,657.1729 522.05484,665.1479 C 519.34869,700.91165 511.85189,726.00337 497.40583,747.6479 C 478.53825,775.9172 452.69849,792.92252 415.27885,801.69622 C 403.59324,804.43612 387.53251,805.45403 376.25084,804.16977 z M 477.9849,532.38968 C 477.99514,523.20028 476.76969,521.77563 476.05658,530.1479 C 475.4043,537.80605 475.62855,539.5838 477.12978,538.65599 C 477.59658,538.36749 477.98138,535.54765 477.9849,532.38968 z M 249.61038,281.23556 C 247.66933,278.53377 245.37778,274.25877 244.51804,271.73556 C 243.65829,269.21235 242.72209,267.1479 242.43758,267.1479 C 241.26774,267.1479 243.46136,274.93988 245.7325,278.8518 C 247.71349,282.26397 251.50965,286.1479 252.86371,286.1479 C 253.01542,286.1479 251.55142,283.93735 249.61038,281.23556 z"
         id="path7677" />
      <path
         style="fill:#6f6d6a"
         d="M 374.14287,803.43042 C 364.99854,802.39212 349.98541,798.71503 343.65854,795.96404 C 320.09781,785.71962 303.27044,774.61623 292.73095,762.35993 C 274.97092,741.70691 267.0707,726.3554 261.48721,701.6479 C 255.24786,674.03818 260.69847,638.45738 274.70036,615.39437 C 287.89272,593.66477 307.07952,579.21821 331.64287,572.51992 L 341.64287,569.79298 L 386.64287,569.22044 C 430.34618,568.6644 431.75813,568.58544 435.64287,566.48042 C 447.38424,560.11813 455.14287,545.83896 455.14287,530.59213 C 455.14287,522.12706 453.37265,516.48844 448.96989,510.92949 C 441.02839,500.90254 432.29825,497.65317 409.35702,496.18554 C 400.71424,495.63263 385.99287,494.69678 376.64287,494.10589 C 351.65587,492.52677 340.33558,489.57663 327.89152,481.40097 C 310.23417,469.80022 301.80574,452.04668 301.89768,426.6479 C 301.94151,414.53871 304.0196,405.08769 308.74197,395.52045 C 315.1086,382.62204 328.9735,370.65666 337.18029,370.97823 C 339.27964,371.0605 343.84254,370.26721 347.32007,369.21538 C 357.23567,366.21627 373.94337,364.25952 395.14287,363.61454 C 415.60365,362.99204 421.64313,362.16701 429.2804,358.95114 C 433.16879,357.31382 434.55851,355.92008 437.88347,350.32314 C 443.5214,340.83276 444.44376,337.32443 443.96017,327.20964 C 443.49138,317.40458 441.07181,311.92673 434.76305,306.38757 C 426.17102,298.84366 405.01175,295.78657 376.79614,298.01252 C 368.46184,298.67002 354.90361,299.30696 346.66673,299.42794 L 331.69058,299.6479 L 331.14583,296.6479 C 330.61874,293.74515 330.43968,293.65611 325.62198,293.90111 C 284.50807,295.99195 272.25357,296.14368 265.15211,294.64984 C 257.98843,293.14292 252.62433,290.63787 250.13284,287.63582 C 248.52703,285.70093 249.59291,285.74144 252.62888,287.73069 C 253.95749,288.60123 255.83994,289.1603 256.81211,288.97308 C 258.21709,288.70251 257.6928,287.81368 254.25631,284.64029 C 246.84513,277.79652 243.50903,268.57592 242.95121,253.39433 C 242.7832,248.82175 243.14138,246.72082 244.2837,245.5785 C 245.70006,244.16214 245.91151,244.88629 246.54768,253.33206 C 247.28701,263.14745 249.52414,273.8234 251.78934,278.34621 C 254.99702,284.75079 263.00742,288.07839 275.32568,288.12345 C 286.3387,288.16374 327.46674,285.04494 329.37251,284.025 C 330.34621,283.50389 331.14287,282.19337 331.14287,281.11272 C 331.14287,278.63192 328.9931,278.80316 374.14287,277.68749 C 404.37356,276.94048 417.48015,277.58013 429.14287,280.3717 C 435.07675,281.79202 453.09883,289.82577 455.6568,292.19088 C 460.13101,296.32777 464.9454,307.40659 467.06732,318.44866 C 469.54978,331.36689 469.58611,333.0006 467.61196,342.94006 C 465.40633,354.045 460.01138,364.3593 452.51333,371.80629 C 440.12695,384.10832 425.60794,387.99763 384.07554,390.1392 C 356.80174,391.54555 346.58706,394.48631 338.71674,403.19781 C 332.46161,410.1215 330.69392,415.16789 330.67761,426.1479 C 330.6655,434.30321 331.03158,436.43583 333.26389,441.21448 C 338.23966,451.86597 347.49101,458.22801 360.6723,460.06288 C 364.50612,460.59656 379.56787,461.53775 394.14287,462.15442 C 423.9084,463.4138 435.18787,464.85121 447.33447,468.93293 C 463.34537,474.3132 474.98268,484.7561 482.67686,500.6479 C 488.54611,512.77044 490.60406,523.26007 489.83421,537.12988 C 487.80823,573.63063 468.60551,597.43328 433.64287,606.78162 C 423.91507,609.38265 422.59492,609.47455 385.14287,610.15765 C 358.86296,610.63699 345.37325,611.25853 342.64287,612.11586 C 332.54086,615.28785 322.99293,621.89552 316.7065,630.06521 C 305.90679,644.10024 301.92447,655.63682 302.00735,672.6479 C 302.18693,709.50907 327.21409,739.10697 365.02855,747.17872 C 379.70312,750.31111 398.93718,749.70498 410.64287,745.74128 C 421.56297,742.04358 431.30009,736.10253 439.64287,728.0471 C 450.27918,717.77712 456.99326,705.19682 460.67856,688.63208 C 462.09144,682.28146 462.31132,677.84657 461.86306,664.7409 C 461.56032,655.88975 460.58624,644.64792 459.69842,639.75905 C 458.242,631.73911 458.23528,630.70327 459.62964,629.16251 C 462.84381,625.6109 474.67639,623.76871 475.78124,626.6479 C 476.59867,628.77809 479.23604,628.50762 479.83097,626.23259 C 480.44609,623.88037 480.90523,623.76526 500.3701,621.08355 C 524.6361,617.74037 526.05305,618.47787 524.28618,633.53146 C 523.69767,638.5455 522.95217,647.5979 522.6295,653.6479 C 520.40569,695.3449 512.92571,723.33303 497.80703,746.52713 C 490.90618,757.11397 475.29491,773.4104 465.69984,780.04346 C 451.95826,789.54301 433.1648,797.3702 413.68286,801.70772 C 404.89162,803.66504 400.24144,804.11623 390.18286,803.98786 C 383.28587,803.89984 376.06787,803.64899 374.14287,803.43042 z M 282.92881,635.8979 C 283.54695,634.6604 284.73086,631.26142 285.55971,628.3446 C 286.49005,625.07069 288.58107,621.32092 291.02409,618.5455 C 295.05694,613.96394 297.65056,608.5797 296.24355,607.71012 C 295.81462,607.44503 293.62579,609.15654 291.37949,611.51347 C 285.50118,617.68129 277.50524,638.1479 280.97389,638.1479 C 281.43095,638.1479 282.31066,637.1354 282.92881,635.8979 z M 507.14287,627.1479 C 507.14287,626.5979 506.49443,626.1479 505.70189,626.1479 C 504.90935,626.1479 503.98279,626.5979 503.64287,627.1479 C 503.30295,627.6979 503.95139,628.1479 505.08385,628.1479 C 506.21631,628.1479 507.14287,627.6979 507.14287,627.1479 z M 477.63919,543.44318 C 481.12169,527.65835 478.09857,507.89746 471.25968,501.74291 C 468.71843,499.45596 468.49424,500.9929 470.73657,505.32909 C 474.36061,512.33722 475.70236,532.80742 473.60874,549.1479 C 472.98907,553.9843 473.08051,554.46692 474.36655,553.1479 C 475.17092,552.3229 476.64361,547.95578 477.63919,543.44318 z M 238.39505,255.6479 C 238.38395,253.4479 238.57966,252.43015 238.82995,253.38624 C 239.08024,254.34233 239.08932,256.14233 238.85013,257.38624 C 238.61094,258.63015 238.40615,257.8479 238.39505,255.6479 z M 235.70091,234.8979 C 234.92563,233.1104 233.5984,229.3979 232.7515,226.6479 C 231.40088,222.26226 231.39176,221.51148 232.67727,220.53766 C 234.55951,219.1118 234.54563,218.1479 232.64287,218.1479 C 231.81787,218.1479 231.14287,217.75415 231.14287,217.2729 C 231.14287,216.08396 236.26369,215.1479 242.76787,215.1479 C 246.90894,215.1479 248.14287,215.49663 248.14287,216.66695 C 248.14287,217.76751 247.48718,218.02144 245.76283,217.58865 C 243.42635,217.00223 243.40088,217.07053 244.37174,221.3196 C 245.32692,225.50008 245.45472,228.82029 244.90398,235.1479 C 244.6641,237.90397 244.33664,238.1479 240.87669,238.1479 C 237.58348,238.1479 236.93349,237.73975 235.70091,234.8979 z"
         id="path7675" />
      <path
         style="fill:#4e4c4a"
         d="M 375.83155,803.16223 C 372.08532,802.68871 366.91032,801.82961 364.33155,801.2531 C 361.75278,800.6766 357.39287,799.70987 354.64287,799.10482 C 348.68563,797.7941 343.79264,795.7142 327.02507,787.3651 C 307.9338,777.85897 296.9697,768.19384 281.40278,747.1479 C 272.65784,735.32504 265.42744,718.20046 261.54695,700.12105 C 258.86566,687.62881 259.06032,664.96852 261.96497,651.45949 C 266.82959,628.83497 274.99573,612.46236 288.35714,598.5448 C 300.30724,586.0973 311.95785,578.96801 328.30533,574.09952 C 341.50372,570.16887 345.78235,569.85847 388.64287,569.72225 L 430.64287,569.58877 L 435.68302,566.95783 C 448.66596,560.18077 457.15352,543.78629 455.83529,528.03192 C 455.53082,524.39313 454.63999,519.89313 453.85567,518.03192 C 451.40631,512.21955 444.73611,504.78292 439.34098,501.84945 C 431.94996,497.83076 423.42135,496.39628 399.64287,495.17236 C 369.86222,493.6395 358.85166,492.52456 349.14287,490.05869 C 325.72469,484.11088 309.6168,468.85399 304.63419,447.90147 C 300.44447,430.28314 302.09332,410.36516 308.91494,396.19035 C 314.87692,383.80182 330.54035,370.13155 336.87508,371.78812 C 337.97627,372.07609 342.10633,371.35003 346.05299,370.17467 C 358.36,366.50948 369.82862,365.07319 394.14287,364.15206 C 407.06787,363.66241 419.65035,362.76255 422.10393,362.15238 C 429.02029,360.43238 435.58527,356.42314 437.35676,352.83746 C 438.22344,351.0832 440.21737,347.1729 441.78771,344.1479 C 444.32195,339.2661 444.63868,337.6363 444.60556,329.6479 C 444.56076,318.84074 442.50995,313.44893 435.97283,306.95154 C 432.662,303.66084 429.87761,302.07621 424.14287,300.21897 C 417.39384,298.03324 414.48057,297.74607 395.04775,297.3509 C 381.33121,297.07197 372.75274,297.28632 371.53426,297.93844 C 370.47915,298.50311 361.29696,299.10167 351.12938,299.26857 L 332.64287,299.57203 L 332.33322,296.40967 L 332.02357,293.24731 L 317.33322,293.64034 C 309.25353,293.8565 296.07919,294.3382 288.05692,294.71077 C 272.82777,295.41804 260.65189,294.16411 256.67036,291.47843 C 254.79563,290.21385 254.83281,290.1479 257.42036,290.1479 C 259.24068,290.1479 260.14287,289.6217 260.14287,288.56 C 260.14287,287.29458 260.90444,287.08312 263.89287,287.51875 C 274.15973,289.01539 283.14636,289.26015 291.942,288.28273 C 297.27748,287.68981 308.28037,286.68385 316.39287,286.04726 C 330.70864,284.92389 331.14287,284.82317 331.14287,282.62585 C 331.14287,281.38066 331.79439,280.11187 332.59069,279.8063 C 334.67,279.00839 383.25543,277.60252 398.64287,277.89501 C 421.6399,278.33214 430.05081,280.08073 447.26268,288.00285 C 454.80965,291.47649 458.27579,295.09471 462.25015,303.6479 C 465.23169,310.06442 468.14553,324.4546 468.12231,332.6479 C 468.08443,346.01541 462.49906,360.42299 453.67279,369.92071 C 441.10961,383.43965 426.27203,387.51716 380.14287,390.12744 C 360.04319,391.26481 354.08304,392.42283 346.17421,396.72736 C 326.75201,407.29825 323.72247,435.76909 340.30868,451.85006 C 348.94865,460.22683 354.53066,461.4243 393.14287,463.18424 C 414.88717,464.17534 419.67385,464.68142 425.64287,466.62038 C 429.49287,467.871 434.66787,469.20919 437.14287,469.59412 C 439.61787,469.97905 442.48672,470.53434 443.5181,470.82808 C 444.72927,471.17304 445.15102,470.97011 444.70908,470.25503 C 443.77805,468.74859 444.93774,468.85867 450.70653,470.82429 C 460.56948,474.18494 468.24338,479.84696 474.85436,488.64125 C 484.93878,502.05612 489.14287,514.87821 489.14287,532.21989 C 489.14287,557.0613 482.29689,574.35546 466.68047,588.96384 C 458.9058,596.23667 450.41208,601.1016 439.59869,604.47543 C 425.38394,608.91049 420.35504,609.39526 389.64287,609.29096 C 353.67209,609.1688 345.16167,610.00617 335.37732,614.63033 C 320.85977,621.49144 307.07714,638.77703 303.07071,655.1479 C 300.8913,664.05328 301.3761,683.12278 304.02263,692.59131 C 309.9236,713.70333 324.29121,730.78714 344.64287,740.89081 C 362.38661,749.69977 387.89672,752.45857 406.70775,747.60284 C 425.641,742.71556 445.25088,727.52724 453.03036,711.72487 C 463.43052,690.59916 465.2403,671.32964 459.91938,638.3746 C 458.82691,631.6084 458.88188,630.96444 460.70782,629.13851 C 461.78735,628.05897 464.88034,626.7629 467.58114,626.25833 C 472.0984,625.41442 472.758,625.55346 475.81724,627.99442 C 477.6463,629.45384 479.14282,630.9854 479.14284,631.3979 C 479.14286,631.8104 479.56277,632.1479 480.07599,632.1479 C 480.5892,632.1479 480.9695,630.75503 480.9211,629.05264 C 480.8727,627.35025 481.43568,625.58497 482.17218,625.12978 C 482.90868,624.6746 487.36588,623.79788 492.07707,623.18152 C 496.78826,622.56515 502.52964,621.63044 504.83569,621.10438 C 510.97281,619.70436 520.4516,619.92195 522.62719,621.51278 C 524.67089,623.00716 524.60881,624.49065 520.61301,669.6479 C 518.37139,694.98092 514.04404,713.04386 505.81041,731.43598 C 499.07615,746.47883 483.10231,766.15912 468.64287,777.22762 C 444.76446,795.5062 404.42999,806.77701 375.83155,803.16223 z M 439.11166,756.16382 C 446.6267,752.32994 454.70865,744.60117 459.0171,737.12827 C 461.28627,733.19244 463.14287,729.39184 463.14287,728.6825 C 463.14287,727.97316 463.81787,726.83259 464.64287,726.1479 C 465.46787,725.46321 466.14287,724.25011 466.14287,723.45213 C 466.14287,721.35313 462.73753,722.2986 462.31046,724.51617 C 462.11501,725.53109 460.08484,728.27706 457.79898,730.61834 C 455.51312,732.95962 453.19287,735.37362 452.64287,735.98278 C 449.58381,739.37087 438.15223,748.61264 435.08456,750.17765 C 430.66142,752.43417 428.74003,754.65574 429.49961,756.63517 C 430.30369,758.73058 434.48203,758.52568 439.11166,756.16382 z M 318.2269,741.254 C 316.53068,739.11235 315.14287,736.90276 315.14287,736.34379 C 315.14287,735.78483 313.42273,733.14959 311.32033,730.4877 C 309.21794,727.82581 304.43732,719.7979 300.69674,712.6479 C 296.95615,705.4979 293.35344,698.9729 292.69072,698.1479 C 291.36126,696.49292 289.14287,687.37868 289.14287,683.57161 C 289.14287,682.23857 288.74535,681.1479 288.2595,681.1479 C 286.74935,681.1479 286.3908,684.55079 287.30444,690.21221 C 291.08211,713.62072 294.60352,720.57413 310.85598,736.7172 C 319.78415,745.58528 323.43904,747.83486 318.2269,741.254 z M 469.74704,711.41873 C 469.41475,711.08644 469.1784,711.67707 469.22182,712.73123 C 469.2698,713.89618 469.50676,714.13313 469.82598,713.3354 C 470.11485,712.61353 470.07933,711.75102 469.74704,711.41873 z M 473.73357,704.40526 C 473.04007,703.71177 471.14287,705.12081 471.14287,706.32936 C 471.14287,706.99246 471.71665,706.91659 472.66704,706.12784 C 473.50533,705.43212 473.98527,704.65696 473.73357,704.40526 z M 277.03586,670.5733 C 277.5787,668.60728 277.76495,666.32664 277.44974,665.50522 C 276.8896,664.04551 277.77858,660.74208 284.06177,640.93514 C 285.75638,635.59313 287.14287,630.41502 287.14287,629.42824 C 287.14287,628.44146 289.56806,624.21108 292.53219,620.0274 C 295.49631,615.84372 298.1917,611.57183 298.52193,610.53431 C 298.85216,609.49678 301.17475,607.56078 303.68325,606.23207 C 306.19174,604.90337 309.27426,602.59203 310.53329,601.09576 C 311.79231,599.5995 314.69452,597.19347 316.98265,595.74904 C 321.30404,593.02107 322.49408,590.1479 319.30259,590.1479 C 313.51841,590.1479 297.67784,601.3527 289.68241,611.0997 C 285.07343,616.71837 279.55003,628.72795 278.1292,636.21996 C 277.60958,638.95993 276.77161,641.97711 276.26705,642.92481 C 275.76249,643.87251 274.80518,648.2479 274.13969,652.6479 C 273.47421,657.0479 272.53844,661.65796 272.06021,662.89247 C 271.29201,664.87551 271.56768,669.19992 272.69802,672.8979 C 273.48052,675.4579 276.07036,674.07004 277.03586,670.5733 z M 504.14287,639.20692 C 504.14287,638.68938 503.69287,637.98782 503.14287,637.6479 C 502.59287,637.30798 502.14287,637.73142 502.14287,638.58888 C 502.14287,639.44634 502.59287,640.1479 503.14287,640.1479 C 503.69287,640.1479 504.14287,639.72446 504.14287,639.20692 z M 506.59535,631.02201 C 508.04199,629.30277 509.05971,627.39027 508.85694,626.77201 C 508.29989,625.0735 501.90745,624.86522 499.70963,626.47397 C 497.81704,627.85929 497.82755,627.9537 500.20963,630.96315 C 501.54791,632.6539 502.94037,634.06214 503.30398,634.09257 C 503.66758,634.123 505.1487,632.74125 506.59535,631.02201 z M 463.14287,572.6479 C 463.14287,571.8229 462.46787,571.1479 461.64287,571.1479 C 460.81787,571.1479 460.14287,571.8229 460.14287,572.6479 C 460.14287,573.4729 460.81787,574.1479 461.64287,574.1479 C 462.46787,574.1479 463.14287,573.4729 463.14287,572.6479 z M 473.98591,559.24856 C 477.37439,553.74158 478.3691,550.41311 480.23975,538.32201 C 481.86482,527.81825 480.43454,514.64903 476.80847,506.72864 C 474.38975,501.44547 463.95621,488.95853 461.43085,488.32458 C 459.67421,487.8836 459.80479,489.62243 461.64287,491.1479 C 462.46787,491.83259 463.14287,492.96598 463.14287,493.66655 C 463.14287,494.36712 464.75041,498.32534 466.71518,502.46258 C 473.81685,517.41668 474.99424,538.52328 469.72469,556.41301 C 468.30469,561.23382 467.14287,565.41215 467.14287,565.69819 C 467.14287,567.44696 471.42437,563.4116 473.98591,559.24856 z M 465.12472,551.55825 C 467.26316,545.60409 467.60795,542.91827 467.6165,532.1479 C 467.62561,520.66504 467.4078,519.18002 464.93967,513.8979 C 463.46196,510.7354 461.77816,508.1479 461.1979,508.1479 C 459.78793,508.1479 459.85298,508.85941 461.84416,515.2164 C 463.08714,519.18472 463.5024,523.74586 463.38564,532.1479 C 463.2449,542.27568 462.86778,544.59193 460.22513,551.55938 C 458.57475,555.91069 457.47397,559.87461 457.77895,560.36808 C 459.0887,562.4873 462.7967,558.04028 465.12472,551.55825 z M 334.6301,470.16857 C 334.96299,469.62993 334.75424,468.29025 334.1662,467.19148 C 331.91618,462.98729 326.14287,462.27255 326.14287,466.19818 C 326.14287,469.52103 333.03705,472.74617 334.6301,470.16857 z M 323.14287,461.78604 C 323.14287,461.58702 321.39364,458.02355 319.25569,453.86722 C 315.80765,447.16398 315.22231,444.95055 314.07445,434.27457 C 312.81883,422.59631 313.17814,416.87576 315.7626,407.3979 C 316.85573,403.38911 314.39343,404.99886 312.0604,409.81825 C 310.3108,413.43246 309.69679,416.79853 309.34523,424.70325 C 308.63811,440.60257 312.40896,454.39654 318.96501,459.89293 C 321.39902,461.93353 323.14287,462.72372 323.14287,461.78604 z M 323.14287,439.52314 C 323.14287,438.14444 322.63806,436.07316 322.02106,434.9203 C 320.49653,432.07169 322.58365,417.03711 325.85273,407.31886 C 328.52993,399.36012 328.32544,397.51944 325.17918,401.25624 C 320.36418,406.97499 314.89579,423.32107 316.77853,426.36741 C 317.09603,426.88113 317.71628,430.20816 318.15687,433.7608 C 318.95252,440.17647 320.55719,443.6279 322.25618,442.57787 C 322.74386,442.27647 323.14287,440.90184 323.14287,439.52314 z M 443.64287,366.1479 C 444.42505,364.8823 443.10124,364.8823 441.14287,366.1479 C 439.85018,366.9833 439.87658,367.11939 441.33385,367.13259 C 442.26389,367.14101 443.30295,366.6979 443.64287,366.1479 z M 453.25015,358.49197 C 458.39584,351.01297 460.14287,345.22019 460.14287,335.63717 C 460.14287,330.64432 459.73101,327.1479 459.14287,327.1479 C 458.59287,327.1479 458.14287,328.47575 458.14287,330.09868 C 458.14287,337.65087 454.39675,348.34853 448.32055,358.1479 C 445.64826,362.45763 445.6171,363.1479 448.09483,363.1479 C 449.2926,363.1479 451.28449,361.34897 453.25015,358.49197 z M 449.81205,308.99097 C 448.32983,305.53894 441.22,296.73743 440.4974,297.46004 C 440.27313,297.68431 441.56411,300.11923 443.36625,302.87097 C 445.16839,305.6227 447.49109,309.39822 448.52781,311.26101 C 450.82296,315.385 451.80907,313.64195 449.81205,308.99097 z M 302.64287,291.1479 C 303.0326,290.51731 300.65325,290.1479 296.20189,290.1479 C 292.16254,290.1479 289.14287,290.57568 289.14287,291.1479 C 289.14287,291.71106 291.95653,292.1479 295.58385,292.1479 C 299.12639,292.1479 302.30295,291.6979 302.64287,291.1479 z M 342.6023,289.39304 C 342.94003,288.51292 342.5544,287.13086 341.74535,286.32181 C 340.52368,285.10013 339.7672,285.06087 337.28233,286.09014 C 335.63672,286.77177 333.41043,287.05021 332.33501,286.70888 C 330.09064,285.99655 328.84726,288.05685 330.20488,290.23858 C 330.92922,291.40263 331.44156,291.42493 333.14876,290.36669 C 334.85515,289.30896 335.5782,289.33941 337.29407,290.54125 C 339.64997,292.19139 341.69851,291.74827 342.6023,289.39304 z M 348.69672,289.06077 C 349.72724,287.39335 347.40951,285.48126 346.03,286.86077 C 344.87608,288.01469 345.59828,290.1479 347.14287,290.1479 C 347.62795,290.1479 348.32718,289.65869 348.69672,289.06077 z M 371.64287,287.49527 C 371.64287,285.88211 370.94557,285.69035 366.14287,285.98275 C 363.11787,286.16691 358.7686,286.39191 356.47784,286.48275 C 354.18707,286.57358 352.00451,286.95546 351.6277,287.33137 C 349.90806,289.04691 352.67929,289.6366 361.79675,289.49527 C 370.64996,289.35803 371.64287,289.15635 371.64287,287.49527 z M 250.71338,279.82923 C 246.82951,274.73722 245.09703,268.55877 244.63437,258.1501 C 244.25851,249.69416 244.31806,249.25349 245.17526,254.1479 C 247.44018,267.08012 249.49918,274.91855 251.67658,278.8979 C 254.46952,284.00218 254.13957,284.3212 250.71338,279.82923 z M 236.1111,234.56435 C 232.24349,224.39175 231.83534,222.1452 233.51718,220.28679 C 234.41131,219.29879 235.14287,218.01443 235.14287,217.43266 C 235.14287,216.17657 241.29672,215.04154 242.42689,216.08918 C 242.85811,216.4889 243.58341,219.02814 244.03867,221.73193 C 244.49393,224.43571 245.03944,227.0979 245.25092,227.6479 C 245.4624,228.1979 245.00258,230.5604 244.22909,232.8979 C 243.01015,236.58157 242.44102,237.1479 239.95806,237.1479 C 237.79782,237.1479 236.85182,236.51259 236.1111,234.56435 z"
         id="path7673" />
      <path
         style="fill:#4a463a"
         d="M 375.64287,802.46635 C 373.99287,802.25631 370.39287,801.61799 367.64287,801.04786 C 364.89287,800.47773 360.36293,799.62903 357.57635,799.16187 C 351.31932,798.11289 333.72403,790.6913 321.4307,783.91585 C 298.56757,771.31485 277.22608,745.88536 268.2232,720.51632 C 257.09159,689.14882 256.84472,666.17572 267.29859,634.47376 C 268.96246,629.42798 271.8581,622.91815 273.73334,620.00748 C 275.60858,617.0968 277.14287,614.33125 277.14287,613.8618 C 277.14287,610.71014 291.37303,595.04712 300.40889,588.25309 C 312.02878,579.51612 329.51005,573.07181 346.64287,571.20937 C 351.59287,570.67127 372.29287,570.28056 392.64287,570.34112 C 433.88044,570.46384 433.28941,570.54644 441.95001,563.44973 C 450.60762,556.35547 456.14287,543.78738 456.14287,531.22407 C 456.14287,521.20034 453.97876,515.22367 447.96774,508.64665 C 438.44013,498.22193 432.62752,496.55314 399.14287,494.62912 C 349.87998,491.79848 340.31388,489.64483 324.62815,477.85331 C 309.75518,466.67279 302.67369,450.03467 302.83417,426.6479 C 302.95677,408.7807 308.05119,394.63117 318.32358,383.62673 C 324.6872,376.8096 333.03773,371.66237 336.1376,372.64623 C 337.22835,372.99242 341.83825,372.15252 346.38183,370.77979 C 357.85578,367.3132 374.24964,365.3132 397.14287,364.58711 C 418.06543,363.92351 427.46673,362.23942 433.56132,358.06334 C 435.58558,356.6763 438.14591,353.03357 440.68242,347.93177 C 444.55042,340.15184 444.64287,339.71709 444.64287,329.3069 C 444.64287,319.54958 444.41718,318.26723 441.97498,314.1479 C 438.03359,307.49985 432.39217,302.66166 425.73977,300.22426 C 417.00937,297.0255 395.7439,295.63832 376.64287,297.0216 C 368.39287,297.61906 355.23037,298.36169 347.39287,298.6719 L 333.14287,299.23591 L 333.14287,295.75092 C 333.14287,291.97191 334.65618,290.26121 336.43,292.03503 C 337.84885,293.45388 341.41919,293.47158 342.82404,292.06673 C 344.336,290.55477 366.777,290.59937 368.60681,292.11797 C 369.72079,293.0425 370.34821,292.76415 371.65876,290.76399 C 372.56609,289.37923 373.14994,287.43661 372.95619,286.44707 C 372.6459,284.86223 371.41498,284.64261 362.6234,284.60347 C 357.13411,284.57903 352.08037,284.97163 351.39287,285.47591 C 350.62054,286.04241 349.6652,285.99766 348.89287,285.35879 C 348.18132,284.7702 344.30447,284.4752 339.89287,284.67396 C 332.25027,285.01829 332.14287,284.98935 332.14287,282.58551 C 332.14287,280.50798 332.62295,280.14363 335.39287,280.11902 C 337.18037,280.10314 341.56787,279.91463 345.14287,279.70011 C 348.71787,279.4856 363.34287,279.00524 377.64287,278.63264 C 398.01941,278.10172 406.34646,278.28162 416.14287,279.46441 C 430.47327,281.19463 435.29084,282.6348 447.17462,288.74106 C 454.7185,292.61734 456.09178,293.76085 459.03488,298.61694 C 463.34447,305.72773 464.71812,309.85805 466.81408,322.00758 C 468.42407,331.3401 468.42884,332.58139 466.88819,341.27333 C 464.69491,353.64724 459.96428,363.16005 452.15819,370.89384 C 445.12186,377.86498 438.55054,381.40581 427.64287,384.10343 C 417.66319,386.57154 395.419,389.14508 384.05187,389.14669 C 365.40183,389.14932 350.21753,392.55012 342.14287,398.53297 C 327.1458,409.64492 325.10675,434.08572 337.78716,450.74229 C 339.0828,452.44421 340.14287,454.38035 340.14287,455.04483 C 340.14287,455.70931 342.98892,457.58481 346.46743,459.2126 C 352.22157,461.90528 354.27339,462.2652 369.21743,463.20322 C 400.76305,465.18331 421.56429,467.21225 429.07511,469.04171 C 444.30621,472.75164 447.98193,473.40511 450.31923,472.81848 C 454.48754,471.77231 462.86094,476.56107 470.31195,484.25236 C 486.01721,500.46407 492.32244,524.16565 487.58024,549.16449 C 484.54178,565.18194 479.22562,575.73545 468.77137,586.5034 C 459.5149,596.03763 451.81414,600.3803 435.64287,605.18546 L 424.64287,608.45403 L 385.64287,609.10288 C 348.67589,609.71791 346.30403,609.86927 340.14287,612.00642 C 324.72719,617.35373 310.40325,632.37722 304.31134,649.58789 C 300.93928,659.11453 300.17238,676.18308 302.57374,688.26073 C 305.1824,701.38094 312.3573,715.19165 321.36764,724.43645 C 338.56124,742.07743 358.93608,750.37345 385.14287,750.40381 C 404.73791,750.42651 415.6568,747.27486 430.28728,737.37323 C 444.69406,727.62299 452.94762,716.47689 459.3332,698.1479 L 462.64287,688.6479 L 462.56149,668.1479 C 462.50273,653.34707 462.02805,645.48522 460.85408,639.86869 C 459.00249,631.01033 459.23521,629.73499 462.96473,628.30198 C 469.32071,625.8598 472.0886,625.86271 474.13114,628.31371 C 475.20099,629.59752 476.0913,631.22452 476.1096,631.92928 C 476.16733,634.15292 478.73606,634.32307 482.75691,632.3696 C 485.08701,631.23756 488.62481,630.51494 491.59301,630.56478 C 497.28167,630.6603 497.8677,631.60509 498.04319,640.96364 C 498.09801,643.8873 498.62577,647.18169 499.21599,648.28452 C 499.94735,649.65109 499.97303,651.19636 499.2966,653.13675 C 498.49724,655.4298 498.64428,656.2917 500.05223,657.56587 C 502.00287,659.33118 504.71865,659.64332 505.60794,658.20442 C 505.92864,657.68551 506.84422,651.27301 507.64256,643.95442 C 508.4409,636.63584 509.38642,629.6206 509.74371,628.36502 C 510.17406,626.85267 509.79058,625.41611 508.60756,624.10889 C 507.62539,623.0236 507.09502,621.86242 507.42896,621.52848 C 507.76289,621.19454 510.96892,620.8598 514.55347,620.78461 C 524.23416,620.58154 524.73586,621.3555 523.33816,634.3364 C 522.7275,640.00772 521.9596,649.5979 521.6317,655.6479 C 518.94982,705.13103 507.58428,736.96641 483.17753,763.3598 C 466.08138,781.84752 441.70078,794.64692 411.21342,801.13973 C 402.35557,803.02617 385.09709,803.66983 375.64287,802.46635 z M 392.20254,770.11597 C 393.52149,769.41008 396.68678,769.40453 402.22044,770.09839 C 410.70875,771.16274 414.02182,770.40854 417.08815,766.71384 C 418.52694,764.9802 422.14287,764.57535 422.14287,766.1479 C 422.14287,767.30485 425.45496,767.50248 426.54677,766.41067 C 426.95224,766.00519 430.28974,764.71019 433.96343,763.53289 C 439.19409,761.85663 441.14449,760.6609 442.95553,758.02012 C 444.22749,756.1654 446.92749,753.79245 448.95553,752.7469 C 453.20648,750.55534 462.77278,741.10082 465.96422,735.93696 C 467.16248,733.99814 468.14287,731.39306 468.14287,730.1479 C 468.14287,728.90274 469.04237,726.42855 470.14175,724.64971 C 471.24113,722.87087 473.00785,718.76776 474.06778,715.53168 C 475.12771,712.2956 476.90771,707.90546 478.02335,705.7758 C 480.6092,700.83961 482.54188,691.6833 481.42078,689.68001 C 480.95195,688.84226 480.86063,685.34232 481.21784,681.90236 C 481.69066,677.34915 481.50751,675.26033 480.54452,674.22303 C 479.42193,673.01383 478.93831,673.46791 477.34936,677.22303 C 476.31957,679.65671 474.68972,684.1229 473.72747,687.1479 C 466.5388,709.74661 463.96215,716.6889 462.19918,718.20868 C 461.20339,719.06711 458.27391,722.89211 455.68922,726.70868 C 449.63702,735.6454 439.13525,745.51015 432.14287,748.82675 C 429.11787,750.26155 425.97855,752.38327 425.1666,753.54169 C 421.32994,759.01547 419.3816,759.97989 413.27807,759.42644 C 408.36057,758.98054 406.90418,759.26309 403.56787,761.3103 C 397.26915,765.17529 394.20842,766.25217 392.33572,765.2622 C 390.74015,764.41872 382.3494,764.41498 381.86657,765.25753 C 379.10322,770.07966 379.1024,770.00544 381.924,770.43465 C 387.18119,771.23436 390.29309,771.13787 392.20254,770.11597 z M 360.39287,767.52336 C 363.31118,767.24211 365.14287,767.46707 365.14287,768.10674 C 365.14287,769.65941 367.71869,769.36394 369.14287,767.6479 C 371.60775,764.6779 368.77199,763.42063 359.60834,763.42063 C 354.92454,763.42063 350.85791,763.79996 350.57137,764.2636 C 349.55743,765.90418 352.219,769.33353 353.96956,768.64208 C 354.88988,768.27856 357.78037,767.77514 360.39287,767.52336 z M 347.5215,765.00474 C 348.34494,760.88753 346.78645,759.06918 343.07105,759.81226 C 340.83053,760.26037 340.01182,759.96736 339.45976,758.51982 C 338.56772,756.18081 335.73789,753.26127 330.89287,749.68135 C 328.83037,748.15739 327.14287,746.39197 327.14287,745.75818 C 327.14287,744.46889 323.99574,741.1121 319.99553,738.1347 C 310.79403,731.2859 293.75452,694.78785 291.20791,676.47261 C 289.74209,665.93035 289.62248,653.9283 290.95869,651.46364 C 292.5695,648.49246 292.44657,645.64484 290.64287,644.1479 C 289.44615,643.15471 288.83959,643.15471 287.64287,644.1479 C 286.37588,645.19941 286.14287,644.99458 286.14287,642.82936 C 286.14287,641.41948 286.59287,639.98782 287.14287,639.6479 C 287.69287,639.30798 288.14287,637.04726 288.14287,634.62407 C 288.14287,631.42113 288.62946,629.95785 289.92514,629.26442 C 290.90539,628.73981 292.74842,625.79898 294.02075,622.72924 C 295.29309,619.6595 296.69661,617.1479 297.1397,617.1479 C 297.58279,617.1479 298.85917,615.59903 299.97611,613.70597 C 301.47349,611.16809 302.93498,610.08993 305.5403,609.60116 C 308.02884,609.13431 310.08843,607.69995 312.5052,604.7506 C 314.98449,601.72496 318.60149,599.24885 325.53979,595.82745 C 330.82148,593.22295 335.14287,590.70967 335.14287,590.24239 C 335.14287,588.24924 331.60157,586.74666 326.79188,586.69905 C 323.23592,586.66385 319.44537,587.56463 314.63394,589.58825 C 297.05195,596.983 283.7492,612.39148 276.70847,633.51707 C 275.81594,636.19512 274.66511,639.17209 274.15107,640.13258 C 273.63703,641.09306 272.70624,646.10193 272.08263,651.26341 C 271.45902,656.42488 270.49075,661.20631 269.93093,661.88882 C 269.35846,662.58673 269.18348,664.99343 269.53105,667.38882 C 269.87094,669.73131 270.41867,675.0229 270.74822,679.1479 C 271.07777,683.2729 271.78604,687.47056 272.32214,688.47604 C 272.85825,689.48152 273.06375,690.9117 272.77882,691.65422 C 272.1315,693.34111 276.98541,709.41115 278.41235,710.30538 C 278.98938,710.66699 280.10748,710.71498 280.897,710.41201 C 282.42558,709.82543 282.16057,701.28671 280.06632,683.6479 C 278.90416,673.85959 280.78175,658.32354 284.17535,649.6479 L 285.34884,646.6479 L 286.32842,649.1479 C 286.98394,650.82083 286.94377,653.30598 286.207,656.65982 C 285.60145,659.41638 284.67389,667.7178 284.14576,675.10741 C 283.29046,687.07492 283.40793,689.64153 285.22079,698.59549 C 286.34018,704.12431 288.35558,711.06478 289.69946,714.01874 C 292.53101,720.24274 292.71897,721.9896 290.64287,722.78627 C 289.81787,723.10286 289.14287,724.43873 289.14287,725.75489 C 289.14287,727.78852 289.63144,728.1479 292.39612,728.1479 C 296.81079,728.1479 300.6021,732.28049 301.52478,738.09829 C 301.91298,740.546 302.76657,743.19449 303.42166,743.98382 C 304.07675,744.77315 304.61951,746.13812 304.6278,747.01708 C 304.63609,747.89604 305.54287,748.77301 306.64287,748.9659 C 307.74287,749.1588 309.17371,749.99637 309.82251,750.82717 C 310.6038,751.82761 311.95457,752.149 313.82251,751.77887 C 317.67839,751.01484 323.54842,753.9947 323.96565,756.92792 C 324.4115,760.0624 328.47317,762.53184 332.01704,761.82307 C 334.37561,761.35135 335.39484,761.84816 337.92002,764.7004 C 342.10903,769.43197 346.60754,769.57456 347.5215,765.00474 z M 483.68181,660.08489 C 484.45194,658.83879 481.39654,655.1479 479.59487,655.1479 C 477.79739,655.1479 476.91733,658.17122 478.24806,659.77465 C 479.60141,661.40533 482.75447,661.58535 483.68181,660.08489 z M 481.14287,647.08888 C 481.14287,645.95642 480.69287,645.30798 480.14287,645.6479 C 479.59287,645.98782 479.14287,646.91438 479.14287,647.70692 C 479.14287,648.49946 479.59287,649.1479 480.14287,649.1479 C 480.69287,649.1479 481.14287,648.22134 481.14287,647.08888 z M 343.93079,591.11589 C 344.62874,589.99829 346.50705,588.2889 348.1048,587.31725 C 351.85329,585.03765 350.76127,583.17368 345.36261,582.6366 C 342.43605,582.34545 340.62548,582.74627 339.02951,584.03861 L 336.7946,585.84833 L 339.0503,589.49811 C 341.65383,593.71072 342.1977,593.891 343.93079,591.11589 z M 412.99934,588.43989 C 413.89246,586.84398 414.19212,586.85948 417.56541,588.67612 C 421.1002,590.57973 421.27454,590.5817 425.90925,588.77063 C 428.51274,587.75328 432.18636,586.78939 434.07286,586.62865 C 441.04656,586.03446 453.69911,583.85202 455.47043,582.93778 C 456.47559,582.41899 457.06286,581.38178 456.77548,580.63289 C 456.42993,579.7324 457.73501,578.70527 460.6291,577.60001 C 464.97149,575.94163 465.77269,575.03646 474.97477,561.39259 C 478.47201,556.20726 479.71251,551.79381 481.18236,539.30726 C 482.86483,525.01448 481.52102,513.70366 477.06456,504.6479 C 473.6935,497.79773 463.12417,486.42588 459.24056,485.47054 C 457.81183,485.11908 455.74287,484.27822 454.64287,483.60195 C 451.83019,481.87276 445.42299,480.88564 444.69173,482.06885 C 444.35782,482.60912 445.38303,484.50432 446.96996,486.28041 C 449.7236,489.36227 449.99994,489.44974 453.0246,488.19689 C 455.83377,487.03329 456.4288,487.09669 458.26102,488.75482 C 461.52877,491.7121 462.35363,493.88557 461.09835,496.23109 C 460.2212,497.87005 460.32032,498.6865 461.56317,500.05983 C 463.94045,502.6867 463.64581,504.48743 461.06473,503.10608 C 455.94998,500.36875 455.65079,504.21427 460.05004,516.1479 C 463.9552,526.74124 462.11376,548.50882 456.70732,555.66213 C 455.88185,556.7543 455.19217,558.70814 455.17467,560.004 C 455.13776,562.73886 449.61662,570.1479 447.61554,570.1479 C 446.86795,570.1479 445.66826,570.9557 444.94957,571.94301 C 444.23089,572.93032 441.98237,574.98814 439.95286,576.51594 C 437.92336,578.04374 436.12336,580.24655 435.95286,581.41107 C 435.66237,583.3952 435.03485,583.53214 425.976,583.58814 C 420.65922,583.62101 416.00653,583.95059 415.63669,584.32054 C 415.26686,584.69049 413.42945,584.74411 411.55357,584.4397 C 407.89709,583.84633 407.32617,584.75336 409.17805,588.21364 C 410.45601,590.60152 411.74686,590.67795 412.99934,588.43989 z M 470.33782,535.6479 C 470.31744,533.9979 470.52488,533.20184 470.79881,533.87887 C 471.07273,534.5559 471.0894,535.9059 470.83586,536.87887 C 470.58232,537.85184 470.3582,537.2979 470.33782,535.6479 z M 467.80954,515.48123 C 467.44287,515.11457 467.15655,514.10207 467.17328,513.23123 C 467.19825,511.93093 467.39339,511.97413 468.26494,513.4729 C 469.34172,515.32459 469.02955,516.70125 467.80954,515.48123 z M 407.14287,587.6479 C 407.14287,586.8229 406.49443,586.1479 405.70189,586.1479 C 403.7686,586.1479 402.81106,587.84833 404.38664,588.48354 C 406.56968,589.36366 407.14287,589.18988 407.14287,587.6479 z M 354.14287,586.1479 C 354.14287,585.5979 353.69287,585.1479 353.14287,585.1479 C 352.59287,585.1479 352.14287,585.5979 352.14287,586.1479 C 352.14287,586.6979 352.59287,587.1479 353.14287,587.1479 C 353.69287,587.1479 354.14287,586.6979 354.14287,586.1479 z M 362.64287,586.1922 C 364.48257,585.4424 364.42263,585.31916 361.89511,584.65464 C 358.72293,583.82062 355.72788,584.66741 356.6385,586.14084 C 357.3675,587.32038 359.82324,587.34138 362.64287,586.1922 z M 394.14287,586.1479 C 394.14287,585.5979 393.66631,585.1479 393.08385,585.1479 C 392.50139,585.1479 392.30295,585.5979 392.64287,586.1479 C 392.98279,586.6979 393.45935,587.1479 393.70189,587.1479 C 393.94443,587.1479 394.14287,586.6979 394.14287,586.1479 z M 369.14287,585.1479 C 369.14287,584.5979 368.49443,584.1479 367.70189,584.1479 C 366.90935,584.1479 365.98279,584.5979 365.64287,585.1479 C 365.30295,585.6979 365.95139,586.1479 367.08385,586.1479 C 368.21631,586.1479 369.14287,585.6979 369.14287,585.1479 z M 440.95929,481.3979 C 440.7081,479.21484 440.05838,478.58097 437.80775,478.32326 L 434.97263,477.99863 L 437.24581,481.07326 C 440.06132,484.88145 441.37332,484.99615 440.95929,481.3979 z M 430.64287,479.82063 C 432.56467,478.81153 432.54512,478.74264 430.14287,478.05886 C 427.09644,477.19172 417.14287,476.9274 417.14287,477.71364 C 417.14287,478.0248 417.60333,479.13976 418.16611,480.19133 C 419.03329,481.81166 419.91026,482.00928 423.91611,481.48703 C 426.51583,481.1481 429.54287,480.39821 430.64287,479.82063 z M 380.14287,478.1479 C 380.14287,477.5979 379.69287,477.1479 379.14287,477.1479 C 378.59287,477.1479 378.14287,477.5979 378.14287,478.1479 C 378.14287,478.6979 378.59287,479.1479 379.14287,479.1479 C 379.69287,479.1479 380.14287,478.6979 380.14287,478.1479 z M 406.9137,476.3354 C 407.51366,474.53554 405.4467,474.91375 404.74918,476.73146 C 404.37545,477.70537 404.59894,478.16254 405.32969,477.91896 C 405.98319,477.70113 406.69599,476.98852 406.9137,476.3354 z M 348.88627,474.1479 C 349.0274,474.1479 349.14287,473.70072 349.14287,473.15417 C 349.14287,471.46649 340.9061,466.08827 339.16683,466.6403 C 338.16377,466.95866 336.38802,465.95096 334.58584,464.04069 C 332.96721,462.32497 329.91836,459.81819 327.81062,458.47008 C 324.97122,456.65399 324.16008,455.58228 324.67973,454.33343 C 325.06548,453.40639 325.29844,451.9729 325.19743,451.1479 C 325.09641,450.3229 324.85358,446.9479 324.6578,443.6479 C 324.46201,440.3479 323.99732,434.9479 323.62515,431.6479 C 322.36717,420.49348 327.84726,402.37594 335.2748,393.13336 C 338.72125,388.84471 338.5502,387.18565 334.83607,388.87792 C 332.66997,389.86486 332.54817,389.74649 332.94535,387.04036 C 333.30448,384.59341 333.0288,384.1479 331.15547,384.1479 C 328.66537,384.1479 314.14287,397.95552 314.14287,400.32304 C 314.14287,401.10671 313.74835,402.1754 313.26616,402.6979 C 311.60791,404.49477 308.09697,416.29406 307.53251,421.96708 C 306.79787,429.3505 309.53719,447.26529 312.26125,452.89245 C 314.95261,458.45205 324.62878,469.83069 328.2636,471.71033 C 329.79257,472.50099 332.5284,473.16385 334.34321,473.18334 C 336.15802,473.20282 338.73476,473.82364 340.06929,474.56293 C 341.76416,475.50184 343.42037,475.64191 345.56268,475.0275 C 347.24952,474.54372 348.74514,474.1479 348.88627,474.1479 z M 318.18274,446.69594 C 317.51998,445.89736 317.14464,444.43486 317.34865,443.44594 C 317.61909,442.13503 318.03375,442.52839 318.87921,444.8979 C 320.15603,448.47638 319.99831,448.88357 318.18274,446.69594 z M 409.06414,375.31159 C 412.26073,374.92025 414.66959,374.08971 414.93423,373.28766 C 415.28697,372.21857 414.34061,372.04345 410.51295,372.46952 C 407.83441,372.76767 402.12801,373.21964 397.83208,373.47388 C 390.1113,373.93082 386.08109,375.08215 391.7262,375.21819 C 393.33037,375.25684 395.54287,375.69071 396.64287,376.18234 C 397.74287,376.67396 399.76787,376.82849 401.14287,376.52574 C 402.51787,376.22299 406.08244,375.67662 409.06414,375.31159 z M 430.14287,373.30689 C 439.92876,371.28329 444.5283,368.91953 450.73076,362.72651 C 455.77737,357.68759 457.21806,355.45061 459.15386,349.6479 C 461.60302,342.30636 462.5744,330.4131 461.05192,326.40868 C 460.02756,323.71442 457.62912,323.45878 456.25981,325.8979 C 455.32415,327.56457 455.24526,327.56457 454.60313,325.8979 C 452.81924,321.26777 449.45717,325.74943 450.64781,331.17037 C 451.40292,334.60836 451.92824,334.81886 453.71121,332.3979 C 454.91478,330.76366 455.04355,330.76012 455.65794,332.34448 C 456.53532,334.60703 453.61128,344.54947 450.422,350.1479 C 445.21002,359.29696 441.16678,363.25079 433.40622,366.78739 C 429.35043,368.63567 425.01801,370.1479 423.7786,370.1479 C 422.53919,370.1479 420.65162,370.81435 419.584,371.6289 C 417.89901,372.91447 417.8408,373.24814 419.14287,374.15756 C 419.96787,374.73377 421.76787,374.98747 423.14287,374.72133 C 424.51787,374.45518 427.66787,373.81869 430.14287,373.30689 z M 453.14287,317.68541 C 453.14287,311.68031 449.25947,303.02474 444.48936,298.3979 C 436.49761,290.6462 433.00029,293.82714 440.39287,302.12381 C 442.73037,304.74718 446.21787,310.08176 448.14287,313.97843 C 450.06787,317.8751 451.98037,321.08232 452.39287,321.10559 C 452.80537,321.12886 453.14287,319.58978 453.14287,317.68541 z M 458.74704,317.41873 C 457.73052,316.40222 456.89179,317.93262 457.72582,319.28211 C 458.35585,320.30153 458.5914,320.30232 458.93012,319.28615 C 459.16172,318.59136 459.07933,317.75103 458.74704,317.41873 z M 434.64287,291.1479 C 434.98279,290.5979 434.55935,290.1479 433.70189,290.1479 C 432.84443,290.1479 432.14287,290.5979 432.14287,291.1479 C 432.14287,291.6979 432.56631,292.1479 433.08385,292.1479 C 433.60139,292.1479 434.30295,291.6979 434.64287,291.1479 z M 486.60175,627.08137 C 485.68506,625.59813 486.54715,624.98207 488.494,625.72915 C 489.39456,626.07472 489.88241,626.76032 489.57811,627.25268 C 488.82965,628.46372 487.40543,628.38174 486.60175,627.08137 z M 277.87057,293.42617 C 279.6458,293.20526 282.7958,293.20163 284.87057,293.4181 C 286.94533,293.63458 285.49287,293.81532 281.64287,293.81976 C 277.79287,293.8242 276.09533,293.64708 277.87057,293.42617 z M 310.4139,292.05603 C 313.74629,290.116 311.02313,289.14787 301.83385,289.00569 L 292.64287,288.86347 L 306.64287,287.58738 C 324.3042,285.97756 329.43243,285.87036 328.65564,287.12723 C 328.32275,287.66587 328.51044,288.96619 329.07273,290.01685 C 330.43016,292.55323 328.21794,293.12567 317.14287,293.10384 C 310.82095,293.09138 309.09669,292.82288 310.4139,292.05603 z M 324.64287,289.1479 C 324.98279,288.5979 324.3609,288.1479 323.2609,288.1479 C 322.1609,288.1479 320.98279,288.5979 320.64287,289.1479 C 320.30295,289.6979 320.92484,290.1479 322.02484,290.1479 C 323.12484,290.1479 324.30295,289.6979 324.64287,289.1479 z M 263.2588,289.33836 C 261.8633,288.18637 262.10326,288.08239 265.01787,288.57615 C 266.87412,288.89061 270.92412,289.16158 274.01787,289.17831 C 277.84625,289.199 279.15055,289.49699 278.10148,290.11125 C 275.82953,291.44156 265.13177,290.8845 263.2588,289.33836 z M 246.58731,269.70346 C 246.21083,267.69661 246.12779,265.82964 246.40279,265.55464 C 246.67779,265.27964 247.21083,266.69661 247.58731,268.70346 C 247.9638,270.7103 248.04684,272.57727 247.77184,272.85227 C 247.49684,273.12727 246.9638,271.7103 246.58731,269.70346 z M 237.29442,235.83051 C 236.69308,235.10594 235.35869,231.80653 234.32911,228.49848 L 232.45715,222.48385 L 234.71794,219.85552 C 235.96137,218.40995 238.07943,216.95094 239.42475,216.61329 C 241.94864,215.97983 243.09015,217.63456 243.58772,222.6479 C 243.69689,223.7479 244.10292,225.60096 244.49001,226.76582 C 245.30403,229.21543 244.03942,233.10849 241.65519,235.49272 C 239.65559,237.49232 238.73292,237.56379 237.29442,235.83051 z"
         id="path7671" />
      <path
         style="fill:#413d3a"
         d="M 376.14287,802.4982 C 372.91213,802.13891 365.72117,800.69633 353.9206,798.0402 C 351.32335,797.4556 344.62159,794.96307 339.02781,792.50125 C 312.12734,780.66239 299.73932,770.73707 282.42123,747.1479 C 273.03199,734.35872 266.30863,718.45838 262.13648,699.17576 C 260.13556,689.92798 259.93971,686.94661 260.46139,673.67576 C 260.83306,664.22098 261.80599,655.31025 263.08491,649.6479 C 265.27851,639.93585 270.62691,624.57876 272.66231,622.1479 C 273.3531,621.3229 275.3793,617.7229 277.16498,614.1479 C 280.95334,606.56345 293.52496,593.06141 302.52098,586.91532 C 311.00395,581.11974 321.22882,576.72778 332.45322,574.05831 C 339.81308,572.30794 342.44692,572.02183 342.99762,572.91288 C 343.5628,573.82735 349.12806,573.77233 367.18727,572.67371 C 380.08785,571.88892 399.69802,571.0362 410.76542,570.77879 C 429.77457,570.33666 431.15785,570.17258 435.76542,567.81352 C 449.58948,560.73563 458.67954,542.05917 456.17064,525.88891 C 455.57552,522.05326 454.59211,517.95491 453.98528,516.78146 C 451.54322,512.0591 445.50212,504.98965 441.83496,502.56283 C 433.36123,496.95519 426.02988,495.6047 396.14287,494.14606 C 357.12337,492.2417 343.96668,489.83569 331.24518,482.27799 C 315.95559,473.19461 307.40254,460.86312 304.65906,443.94703 C 301.59528,425.05601 303.30244,408.73832 309.66424,396.10547 C 315.98015,383.56375 328.25291,372.6776 335.75812,372.95975 C 337.62832,373.03006 341.96747,372.19659 345.40067,371.10759 C 355.32649,367.95917 376.01495,365.40037 397.49857,364.66398 C 428.20274,363.61154 434.43226,361.27319 440.80019,348.41006 C 444.55424,340.82693 444.64284,340.39419 444.64137,329.6479 C 444.64008,320.10148 444.33729,318.08084 442.35,314.35664 C 438.34827,306.85735 432.86522,302.47301 423.78056,299.50818 C 416.13539,297.01314 414.31135,296.83443 393.64287,296.55547 C 381.54287,296.39216 371.5711,296.23365 371.48338,296.20322 C 371.39566,296.17279 371.89761,293.97304 372.59882,291.31489 C 373.66328,287.27969 373.64102,286.0377 372.46395,283.79117 C 371.68856,282.31129 371.29551,280.70994 371.5905,280.23263 C 373.37374,277.34729 417.22254,278.45483 429.68118,281.69989 C 438.60147,284.02334 453.26394,291.31463 456.32028,294.9469 C 460.97166,300.47474 464.12843,308.43408 466.33876,320.20699 C 468.40134,331.19295 468.42391,332.01944 466.90623,340.99105 C 464.86284,353.07043 460.62883,361.72851 452.71844,370.0035 C 445.53928,377.51354 438.38521,381.42369 426.87657,384.12768 C 417.26392,386.3862 392.22442,389.14532 381.26358,389.1538 C 370.9798,389.16175 355.02123,391.66577 349.39607,394.15405 C 341.81938,397.50558 336.57296,402.52848 332.94266,409.9065 C 329.90784,416.07427 329.64346,417.37705 329.6502,426.13035 C 329.65693,434.86777 329.92451,436.18069 332.91472,442.1479 C 340.2422,456.77052 340.25347,456.78551 346.06774,459.63709 C 352.27037,462.67915 357.64506,463.3539 390.14287,465.17036 C 413.96833,466.50208 422.02128,467.49393 434.76955,470.66687 C 440.19987,472.01843 447.02772,473.12957 449.94253,473.13607 C 455.84658,473.14925 459.54753,474.73082 465.98556,479.99192 C 483.04548,493.93314 491.8719,519.84589 488.20669,545.22904 C 485.56849,563.49969 479.00895,576.37188 466.15971,588.4932 C 457.82327,596.35738 451.12034,600.40633 441.64287,603.30278 C 425.41545,608.26211 424.2046,608.3836 387.14287,608.77077 C 366.94596,608.98176 349.27197,609.61618 346.14287,610.2425 C 328.59995,613.75385 310.44342,630.71474 304.22554,649.39948 C 296.08547,673.8604 302.2448,703.37026 319.54692,722.80545 C 337.71424,743.21251 368.00817,753.98605 396.64287,750.22335 C 411.31373,748.29555 418.49937,745.66746 429.62353,738.16095 C 454.65919,721.26706 466.27961,693.67056 463.13551,658.57573 C 462.54778,652.01542 461.634,644.20275 461.10489,641.21424 C 459.13128,630.06696 460.42502,627.60935 468.60769,626.96171 C 472.3128,626.66846 472.72064,626.90991 474.83394,630.6479 C 478.55036,637.22145 479.31606,639.509 478.75048,642.34865 C 478.45463,643.83406 478.70928,646.47427 479.31637,648.21577 L 480.42018,651.38215 L 481.84725,647.51502 C 484.57196,640.13153 484.56993,640.06705 481.53535,637.57271 C 479.0855,635.559 478.87241,635.03414 480.14287,634.14288 C 480.96787,633.56411 482.99287,633.37045 484.64287,633.7125 C 486.29287,634.05456 489.44287,634.40496 491.64287,634.49116 C 496.55631,634.68369 497.10823,635.38533 497.12756,641.46364 C 497.13598,644.1123 497.59494,647.12408 498.14747,648.15649 C 498.84336,649.45678 498.78366,650.84217 497.95319,652.66485 C 497.01636,654.72097 497.02276,655.72593 497.98247,657.26267 C 498.65796,658.34429 498.96466,659.62723 498.66404,660.11364 C 497.85732,661.41894 500.30908,666.25909 501.56518,665.84093 C 502.15791,665.64361 502.80183,664.61946 502.99611,663.56503 C 503.19039,662.51061 503.96258,660.95438 504.71209,660.10674 C 505.47187,659.2475 506.53899,654.15913 507.12383,648.60674 C 507.70078,643.12938 508.69109,635.59541 509.32453,631.86459 C 510.19956,626.71091 510.19596,624.80099 509.30956,623.91459 C 507.10666,621.71169 508.15452,621.1479 514.45174,621.1479 C 524.15902,621.1479 524.66432,621.83662 523.32295,633.23936 C 522.71422,638.41406 521.95217,647.5979 521.6295,653.6479 C 518.91023,704.63483 508.18924,735.19948 483.46229,762.45942 C 469.75204,777.57414 454.87624,787.08171 432.73944,794.87793 C 417.0675,800.39733 404.4689,802.81274 391.14287,802.85283 C 384.81787,802.87186 378.06787,802.71228 376.14287,802.4982 z M 414.73038,768.64895 C 418.45744,765.80618 419.37377,765.65064 422.15644,767.38845 C 423.74619,768.38126 424.55751,768.37005 426.21922,767.33229 C 427.36122,766.6191 430.62372,765.77379 433.46922,765.45382 C 440.36576,764.67833 441.39481,764.03411 444.2082,758.73083 C 445.84876,755.63834 447.42835,754.02447 449.19421,753.63662 C 451.8428,753.0549 461.81544,743.35957 466.09028,737.2104 C 467.40462,735.31978 468.81583,732.16978 469.22631,730.2104 C 470.03244,726.3624 474.8956,713.90502 478.94606,705.3125 C 481.2141,700.50116 481.47007,698.68612 481.55201,686.834 C 481.63042,675.49191 481.42174,673.64725 480.02915,673.37232 C 478.98665,673.16651 477.78488,674.38254 476.63407,676.80769 C 474.96647,680.32189 474.30058,682.4313 470.60844,695.89576 C 468.2413,704.52821 463.10595,717.06918 461.59108,717.91695 C 460.81267,718.35256 457.9579,722.12142 455.24715,726.29218 C 448.64538,736.44965 440.16644,743.96583 429.64287,748.98918 C 425.10839,751.15368 420.14287,755.46577 420.14287,757.23904 C 420.14287,758.08707 418.37843,758.26568 413.95945,757.86498 C 408.47362,757.36755 407.1148,757.63808 401.91496,760.26295 C 396.09806,763.19931 395.93759,763.2199 380.62166,762.9948 C 372.13394,762.87006 364.89479,763.06264 364.53467,763.42276 C 364.17455,763.78289 363.11742,763.66946 362.18549,763.17071 C 360.11224,762.06114 350.94265,763.24857 350.46257,764.68879 C 350.27191,765.26078 350.7201,766.55505 351.45856,767.56495 C 352.57284,769.08882 353.17042,769.20352 354.97204,768.23933 C 356.45746,767.44435 357.14287,767.41549 357.14287,768.1479 C 357.14287,768.89626 357.72476,768.90685 359.07713,768.18308 C 361.91028,766.66683 364.25222,766.91519 365.69231,768.88462 C 366.89806,770.53359 367.0592,770.53359 368.88129,768.88462 C 371.3402,766.65934 372.70158,766.69749 376.05542,769.08563 C 379.17594,771.30764 383.80102,771.7536 400.0471,771.39895 C 410.46891,771.17144 411.73381,770.93454 414.73038,768.64895 z M 346.74725,767.3979 C 347.04514,766.4354 347.72741,764.83225 348.2634,763.83535 C 349.72512,761.1167 348.38499,758.1479 345.69606,758.1479 C 344.35756,758.1479 341.6718,756.48623 339.31765,754.20161 C 337.08113,752.03114 333.85754,749.53459 332.1541,748.65371 C 330.45067,747.77283 328.65989,746.00776 328.17459,744.73133 C 327.22598,742.2363 323.10126,738.58686 320.1831,737.66067 C 316.02944,736.34235 301.01144,708.76275 295.5365,692.39873 C 292.81706,684.27064 291.82956,679.17905 290.92224,668.6075 C 289.8886,656.56414 289.94335,654.78952 291.44575,651.63894 C 292.36859,649.70373 293.39813,646.4038 293.73362,644.30575 C 294.26311,640.99449 293.93448,640.04318 291.24324,637.09665 C 287.51474,633.01447 287.48455,632.70707 290.55031,630.04143 C 291.87441,628.89014 293.23097,626.49182 293.5649,624.71181 C 293.89883,622.9318 295.51549,619.97069 297.15746,618.13156 C 298.79944,616.29243 300.14287,614.45087 300.14287,614.03922 C 300.14287,612.27628 303.51686,610.1479 306.31154,610.1479 C 308.67674,610.1479 310.3195,609.05551 313.83592,605.1444 C 318.18854,600.30324 325.15702,596.25848 334.3439,593.24082 C 337.2339,592.29152 338.53825,592.28913 340.2961,593.22991 C 342.10043,594.19556 342.6357,594.1694 342.9928,593.09812 C 344.31795,589.12267 351.01578,585.51522 352.52819,587.96235 C 353.1221,588.9233 371.40902,588.66477 375.39287,587.63909 C 376.90537,587.24969 378.14287,586.53844 378.14287,586.05854 C 378.14287,585.57865 376.90537,584.91585 375.39287,584.58567 C 373.88037,584.25548 371.39118,583.51144 369.86134,582.93224 C 368.20238,582.30415 364.36838,582.14978 360.36134,582.54973 C 356.66618,582.91856 353.19287,583.18337 352.64287,583.13821 C 352.09287,583.09305 349.0754,582.81127 345.93738,582.51203 C 340.77102,582.01937 339.98933,582.21053 337.66476,584.5351 C 335.24518,586.95468 334.82516,587.03934 330.35728,586.00803 C 326.11147,585.02798 324.80433,585.20232 317.82749,587.67914 C 313.54329,589.20007 308.14913,591.71808 305.84046,593.27474 C 300.63553,596.78423 291.46601,605.46788 287.96897,610.19926 C 285.06259,614.13151 278.77135,626.24807 277.61112,630.1479 C 277.20204,631.5229 275.84264,634.8979 274.59023,637.6479 C 273.23239,640.62939 272.05931,645.67566 271.68443,650.1479 C 271.33865,654.2729 270.59944,659.2229 270.04174,661.1479 C 267.96091,668.33029 274.34214,707.80038 278.1951,711.57915 C 278.9724,712.34148 279.85505,711.94987 281.27367,710.21324 C 282.98247,708.1214 283.17476,706.85415 282.6393,701.21324 C 282.29654,697.6023 281.53585,692.1729 280.94887,689.1479 C 279.58767,682.13289 280.64121,662.56822 282.7932,654.8979 C 284.3738,649.26417 285.98765,647.42357 286.3004,650.8979 C 286.47545,652.84247 286.46563,652.94027 285.15742,662.27456 C 284.64661,665.91922 283.9583,673.59935 283.62784,679.34151 C 282.92034,691.63513 285.18694,704.90541 289.65155,714.6085 L 292.39415,720.5691 L 290.26851,721.98047 C 288.9203,722.87565 288.14287,724.44446 288.14287,726.26987 C 288.14287,728.91279 288.43985,729.1479 291.7782,729.1479 C 296.51837,729.1479 299.66759,732.49283 300.56564,738.48143 C 300.93703,740.95804 301.83089,743.47401 302.552,744.07248 C 303.31149,744.70281 303.65092,746.27057 303.35876,747.79885 C 302.89461,750.2269 303.06512,750.38423 305.49865,749.77345 C 307.8966,749.17161 308.14287,749.37655 308.14287,751.97386 C 308.14287,753.55564 309.02692,755.63798 310.11744,756.62489 C 312.03027,758.35597 312.12331,758.32955 313.09269,755.77988 C 314.41722,752.29612 316.72824,752.44541 318.6378,756.13809 C 320.3856,759.51796 325.75984,762.57107 331.53627,763.4657 C 333.67763,763.79735 336.37763,764.9416 337.53627,766.00847 C 339.49128,767.80866 341.78619,768.74782 344.92425,769.0319 C 345.62902,769.0957 346.44937,768.3604 346.74725,767.3979 z M 397.14287,756.1479 C 397.14287,755.5979 396.24287,755.1479 395.14287,755.1479 C 394.04287,755.1479 393.14287,755.5979 393.14287,756.1479 C 393.14287,756.6979 394.04287,757.1479 395.14287,757.1479 C 396.24287,757.1479 397.14287,756.6979 397.14287,756.1479 z M 351.14287,750.1479 C 351.14287,749.5979 350.69287,749.1479 350.14287,749.1479 C 349.59287,749.1479 349.14287,749.5979 349.14287,750.1479 C 349.14287,750.6979 349.59287,751.1479 350.14287,751.1479 C 350.69287,751.1479 351.14287,750.6979 351.14287,750.1479 z M 481.14287,666.1479 C 481.14287,665.5979 480.66631,665.1479 480.08385,665.1479 C 479.50139,665.1479 479.30295,665.5979 479.64287,666.1479 C 479.98279,666.6979 480.45935,667.1479 480.70189,667.1479 C 480.94443,667.1479 481.14287,666.6979 481.14287,666.1479 z M 483.70174,660.70186 C 485.58619,659.29805 485.55104,659.16298 482.49815,656.07637 L 479.35343,652.89692 L 477.54852,655.65155 C 475.77579,658.35708 475.7848,658.43954 478.05403,660.27704 C 480.83221,662.52668 481.21363,662.55537 483.70174,660.70186 z M 419.78361,590.98961 C 422.06102,591.11266 425.88602,590.53017 428.28361,589.69517 C 430.6812,588.86018 433.62881,588.17046 434.83385,588.16245 C 436.03889,588.15445 437.26214,587.76393 437.55218,587.29463 C 437.84222,586.82534 441.4982,586.18281 445.67658,585.8668 C 453.39428,585.28312 458.14287,583.31394 458.14287,580.6972 C 458.14287,579.92467 459.91387,578.51123 462.07842,577.55623 C 464.90039,576.31119 467.29184,573.94966 470.53008,569.21033 C 478.34583,557.77158 480.12517,552.75703 481.37664,538.64244 C 483.25882,517.41445 479.92384,504.77482 469.35943,493.09697 C 463.94332,487.11003 454.62243,481.72815 447.64287,480.55783 C 445.44287,480.18894 443.15047,479.49888 442.54865,479.02435 C 441.36842,478.09376 416.95577,475.00167 416.26248,475.69496 C 416.03217,475.92527 416.26298,477.58389 416.77538,479.3808 C 417.61331,482.31925 418.12567,482.67856 421.86873,482.95265 C 424.25573,483.12744 427.31255,482.5944 429.03699,481.70265 C 433.36845,479.46277 435.70208,479.77423 437.99237,482.8979 C 439.55362,485.02725 440.28043,485.38001 441.21275,484.46093 C 442.14539,483.54153 443.24443,484.16151 446.08827,487.21125 C 449.46613,490.83368 449.915,491.0311 451.7013,489.68002 C 454.65645,487.44488 457.88959,487.83171 459.73005,490.64061 C 461.70524,493.65513 461.06773,496.89531 457.71563,500.87906 C 456.02061,502.89348 455.56314,504.19955 456.20002,505.20614 C 456.70174,505.99911 457.11914,507.46009 457.12756,508.45276 C 457.13598,509.44544 458.08224,512.31967 459.23036,514.83995 C 463.64096,524.52181 462.70327,542.33647 457.20378,553.34192 C 455.52028,556.7109 454.14287,560.38655 454.14287,561.51002 C 454.14287,563.58689 448.55076,570.1479 446.78059,570.1479 C 446.24712,570.1479 445.0979,570.83969 444.22676,571.68521 C 443.35562,572.53073 440.39287,574.65627 437.64287,576.40862 C 434.89287,578.16098 432.19287,580.12125 431.64287,580.76477 C 430.09327,582.57787 421.29598,583.51986 419.53806,582.06092 C 418.41709,581.13059 417.77731,581.11346 416.90049,581.99028 C 416.2638,582.62697 414.14537,583.15468 412.19287,583.16296 C 407.4737,583.18297 400.71583,585.59708 400.34998,587.39358 C 399.72873,590.44423 406.11921,592.47764 412.64287,591.30509 C 414.29287,591.00852 417.5062,590.86656 419.78361,590.98961 z M 395.86505,586.48276 C 396.31981,585.11685 392.6448,583.71966 391.10326,584.67238 C 390.37718,585.12112 390.4239,585.7816 391.25235,586.77982 C 392.6126,588.41882 395.27761,588.24719 395.86505,586.48276 z M 382.51311,478.29128 C 384.64113,475.93984 383.08082,474.43981 378.41025,474.34694 C 374.39774,474.26715 373.40791,475.67829 375.6999,478.21091 C 377.9078,480.65061 380.35185,480.67945 382.51311,478.29128 z M 408.23265,475.98014 C 409.03138,474.4877 408.84232,474.1479 407.21324,474.1479 C 405.03709,474.1479 402.66205,477.56089 403.68565,479.21713 C 404.43123,480.4235 406.73074,478.78649 408.23265,475.98014 z M 369.32689,476.80685 C 370.53412,474.92994 369.33426,474.43043 362.41801,473.93063 C 357.274,473.55889 354.70645,472.80386 351.75332,470.79446 C 349.61407,469.33885 347.43505,468.1479 346.91105,468.1479 C 346.38705,468.1479 344.81416,467.2479 343.41574,466.1479 C 342.01732,465.0479 339.75703,464.1479 338.39288,464.1479 C 336.87325,464.1479 334.69843,462.85421 332.77774,460.80774 C 331.05356,458.97065 328.80764,457.16645 327.7868,456.79842 C 326.36685,456.2865 326.08326,455.52155 326.57986,453.54293 C 326.93688,452.12044 326.80109,450.43714 326.27809,449.80225 C 325.7551,449.16736 325.09218,445.7229 324.80494,442.1479 C 324.51769,438.5729 323.97729,433.96297 323.60403,431.90361 C 322.6264,426.50967 325.73351,411.93824 329.6291,403.6479 C 333.12531,396.20748 340.42879,387.80841 345.89287,384.94441 C 347.68037,384.00749 349.14287,382.54499 349.14287,381.69441 C 349.14287,379.68062 347.69807,379.73801 344.42627,381.88178 C 342.44688,383.17873 340.18786,383.53378 335.46175,383.29073 L 329.14345,382.9658 L 322.17168,390.04911 C 315.03591,397.29904 312.98183,400.77657 309.11855,412.1479 C 307.17597,417.86578 306.9752,420.03165 307.44997,430.1479 C 308.19494,446.02114 310.44341,452.76095 318.26132,462.55492 C 326.77936,473.22599 331.62359,475.36436 347.70744,475.55321 C 354.04012,475.62756 356.15875,476.03316 357.57284,477.44187 C 359.02463,478.88813 360.27195,479.1035 364.00827,478.55307 C 366.5573,478.17755 368.95068,477.39175 369.32689,476.80685 z M 396.14287,478.1479 C 396.14287,477.5979 395.69287,477.1479 395.14287,477.1479 C 394.59287,477.1479 394.14287,477.5979 394.14287,478.1479 C 394.14287,478.6979 394.59287,479.1479 395.14287,479.1479 C 395.69287,479.1479 396.14287,478.6979 396.14287,478.1479 z M 404.19466,377.12018 C 405.25083,376.55494 410.32502,375.93389 415.47064,375.74008 C 420.61626,375.54626 425.76795,374.88373 426.91885,374.26779 C 428.06975,373.65185 430.12402,373.1479 431.48391,373.1479 C 435.88678,373.1479 446.52803,367.60484 451.31509,362.81778 C 454.4303,359.70258 456.79248,356.00878 458.59906,351.42768 C 461.81203,343.28029 463.0774,330.81826 461.16138,326.19259 C 459.74232,322.76667 458.95114,322.46906 457.12193,324.67313 C 455.99217,326.0344 455.67656,326.03587 454.18583,324.68678 C 450.97113,321.77751 448.99207,327.24609 450.80638,334.02496 L 451.44259,336.40202 L 453.22434,334.0399 C 455.95474,330.42012 456.39468,332.2344 454.55879,339.54311 C 451.70282,350.91279 443.05021,361.93504 433.70824,366.10389 C 424.48177,370.2212 420.34707,370.92534 398.14287,372.16067 C 386.86787,372.78796 376.06787,373.7142 374.14287,374.21897 C 372.21787,374.72375 369.18037,375.13926 367.39287,375.14232 C 365.60537,375.14539 364.14287,375.5328 364.14287,376.00323 C 364.14287,376.47366 371.43536,376.94115 380.3484,377.04209 C 389.26144,377.14303 396.76144,377.43314 397.01507,377.68676 C 397.84502,378.51672 402.23211,378.17051 404.19466,377.12018 z M 453.28651,316.55668 C 452.3893,306.73183 445.96886,296.80402 438.39287,293.5269 C 436.60537,292.75369 435.14287,291.4191 435.14287,290.56116 C 435.14287,288.54021 431.77064,289.12666 431.36796,291.21763 C 431.20412,292.06836 433.98198,295.88819 437.54097,299.70615 C 441.09997,303.52411 445.72884,309.90511 447.82737,313.88615 C 449.92589,317.86719 452.09287,320.97469 452.64287,320.79169 C 453.19287,320.6087 453.48251,318.70295 453.28651,316.55668 z M 459.51743,317.33661 C 458.62683,313.5524 457.45503,312.58902 456.68681,315.00946 C 455.93389,317.38171 457.77499,321.4933 459.19671,320.61462 C 459.72114,320.29051 459.86546,318.81541 459.51743,317.33661 z M 394.14287,287.16453 C 394.14287,285.95398 391.06784,285.46529 386.39287,285.93288 C 380.05904,286.5664 381.25884,287.9479 388.14287,287.9479 C 391.44287,287.9479 394.14287,287.59538 394.14287,287.16453 z M 237.24763,235.77413 C 236.71481,235.13212 235.50417,231.82043 234.55733,228.41483 C 232.63457,221.49903 233.05875,220.277 238.32792,217.55221 C 240.99706,216.17194 241.21163,216.21852 242.08709,218.36814 C 243.25886,221.24535 244.5426,228.17255 244.2701,230.1479 C 243.61615,234.88842 239.34951,238.30674 237.24763,235.77413 z"
         id="path7669" />
      <path
         style="fill:#000000"
         d="M 380.14287,802.51515 C 376.47353,802.04757 371.42822,801.12093 359.43969,798.71274 C 347.22209,796.25854 326.99866,787.31297 313.16048,778.24173 C 301.23013,770.42111 284.83616,751.50903 275.67434,734.99774 C 271.5908,727.63845 265.41745,711.27597 263.09187,701.6479 C 260.43051,690.62964 259.61394,674.75826 261.11755,663.27377 C 263.55657,644.6448 268.92417,630.5292 272.28938,633.89441 C 273.11017,634.7152 273.14714,635.44789 272.41355,636.35552 C 271.2823,637.75517 270.52335,641.99708 269.59021,652.13567 C 269.26179,655.70395 268.57615,659.12583 268.06655,659.73986 C 267.55696,660.35388 267.17729,663.05938 267.22284,665.75208 C 267.2684,668.44478 267.26599,672.6729 267.21748,675.1479 C 267.16898,677.6229 267.57481,680.7729 268.11932,682.1479 C 268.66384,683.5229 269.5248,687.7979 270.03257,691.6479 C 270.54034,695.4979 272.60744,704.0479 274.62613,710.6479 C 276.64481,717.2479 278.64332,723.9979 279.06725,725.6479 C 279.9982,729.27128 282.65959,733.22341 290.9162,743.24345 C 298.87374,752.90054 309.76377,761.56125 313.34837,761.08347 C 316.01661,760.72783 317.14287,761.19218 317.14287,762.6479 C 317.14287,763.4729 317.80699,764.1479 318.6187,764.1479 C 319.43041,764.1479 321.56791,765.04622 323.3687,766.14416 C 325.16949,767.24211 328.3725,768.14211 330.48649,768.14416 C 333.48732,768.14708 334.44479,768.58644 334.85312,770.1479 C 335.14426,771.2612 336.21714,772.1479 337.27307,772.1479 C 338.31639,772.1479 340.08887,772.7104 341.21192,773.3979 C 342.93498,774.45271 343.40907,774.37463 344.24804,772.8979 C 345.33248,770.98909 348.176,770.58103 349.70918,772.11421 C 350.9176,773.32263 355.68075,773.58879 359.69888,772.67244 C 361.91407,772.16725 363.1171,772.41192 364.07133,773.5617 C 365.75546,775.59095 372.47639,775.65588 374.13373,773.65891 C 375.62182,771.86587 377.14287,772.58306 377.14287,775.07775 C 377.14287,776.54766 378.22796,777.00206 382.89287,777.4857 C 386.05537,777.81357 390.66787,777.66629 393.14287,777.15841 C 395.61787,776.65054 400.13024,776.2154 403.17036,776.19145 C 406.58424,776.16455 409.58205,775.52858 411.01019,774.52828 C 412.56064,773.4423 414.55312,773.07372 417.05743,773.40961 C 419.11163,773.68514 422.5587,773.29574 424.7176,772.54429 C 430.39501,770.56814 433.87489,770.77867 435.15786,773.17591 C 436.47251,775.63236 438.52116,774.70247 437.80745,771.97324 C 437.44798,770.59864 438.11453,769.52679 440.06928,768.3361 C 443.79536,766.06644 455.14287,755.49672 455.14287,754.29569 C 455.14287,753.76893 457.16787,752.15121 459.64287,750.70077 C 462.11787,749.25032 464.14287,747.40756 464.14287,746.60575 C 464.14287,745.80393 464.5843,745.1479 465.12382,745.1479 C 465.66334,745.1479 466.41258,743.92146 466.78881,742.42247 C 467.16503,740.92348 468.7486,737.68538 470.30786,735.22669 C 471.86711,732.768 473.14287,729.69709 473.14287,728.40246 C 473.14287,727.10783 473.7536,724.83343 474.50005,723.34824 C 475.2465,721.86305 476.1202,719.26067 476.4416,717.56517 C 476.763,715.86968 478.355,711.59468 479.97937,708.06517 C 483.55465,700.29669 485.26707,688.90518 485.15314,673.6479 C 485.06048,661.24054 485.6389,649.38832 486.44641,647.1479 C 486.74376,646.3229 487.2675,643.9604 487.61027,641.8979 C 488.24384,638.08563 489.77778,637.18281 491.94287,639.3479 C 493.64736,641.05239 493.4371,641.91974 491.14287,642.6479 C 488.60773,643.45252 488.54927,645.82472 491.04507,646.61686 C 492.39742,647.04608 493.08837,648.43859 493.43543,651.43425 C 493.70393,653.75176 494.46076,657.6729 495.11728,660.1479 C 495.7738,662.6229 496.49534,667.7979 496.72069,671.6479 C 497.38044,682.91916 498.7456,688.1479 501.02866,688.1479 C 502.19608,688.1479 504.29795,677.76283 504.62706,670.36876 C 504.82224,665.98344 505.5664,662.15046 506.4989,660.72728 C 507.53915,659.13967 508.57476,652.67229 509.65679,641.00642 C 511.47824,621.36848 511.84529,620.57343 518.60533,621.6238 C 520.78468,621.96242 522.75907,622.43077 522.99287,622.66456 C 523.55384,623.22554 521.37431,654.82488 519.51082,673.1479 C 515.77988,709.83309 506.7783,733.3495 487.24459,757.44267 C 472.83039,775.22137 456.43949,786.2459 432.02064,794.58634 C 413.58612,800.88279 392.55601,804.09696 380.14287,802.51515 z M 463.09703,759.06225 C 462.48312,757.91515 461.7367,757.22074 461.43831,757.51913 C 460.61405,758.34339 461.93436,761.1479 463.14667,761.1479 C 463.88623,761.1479 463.87101,760.50844 463.09703,759.06225 z M 470.70218,754.05194 C 471.07472,753.44916 470.74923,752.32568 469.97887,751.55532 C 468.778,750.35445 468.25951,750.3779 466.34381,751.71971 C 465.11489,752.58048 464.3685,753.70395 464.68516,754.21632 C 465.48314,755.50749 469.87678,755.38745 470.70218,754.05194 z M 482.14287,745.6479 C 482.14287,744.8229 481.71943,744.1479 481.20189,744.1479 C 479.94091,744.1479 479.03779,745.70949 479.83672,746.50842 C 480.96291,747.6346 482.14287,747.19431 482.14287,745.6479 z M 481.14287,741.08888 C 481.14287,740.50642 480.69287,740.30798 480.14287,740.6479 C 479.59287,740.98782 479.14287,741.46438 479.14287,741.70692 C 479.14287,741.94946 479.59287,742.1479 480.14287,742.1479 C 480.69287,742.1479 481.14287,741.67134 481.14287,741.08888 z M 499.96207,694.74137 C 500.2762,690.91331 499.17823,689.19733 496.39287,689.16321 C 495.06268,689.14692 494.75463,693.0965 495.78582,696.94632 C 496.79994,700.73243 499.59139,699.25861 499.96207,694.74137 z M 357.14287,758.26453 C 357.14287,757.77868 356.19546,757.13341 355.03751,756.8306 C 352.51025,756.1697 353.00522,753.76621 355.75287,753.35696 C 356.9845,753.17351 358.5369,754.18957 359.95448,756.10696 L 362.20274,759.1479 L 359.67281,759.1479 C 358.28134,759.1479 357.14287,758.75038 357.14287,758.26453 z M 343.5601,753.07245 C 341.78343,752.5566 339.99189,751.11195 339.33154,749.66264 C 338.70135,748.27953 337.48975,747.1479 336.63908,747.1479 C 335.78842,747.1479 332.28479,744.53597 328.85324,741.3436 C 325.42168,738.15124 321.24331,734.72959 319.56797,733.73994 C 316.48957,731.92149 311.14287,724.54842 311.14287,722.12178 C 311.14287,721.39776 310.51222,720.09495 309.74142,719.22664 C 306.61374,715.70329 298.14603,697.05015 295.63303,688.1479 C 293.32102,679.95766 292.96422,676.88376 293.04508,665.8521 C 293.11223,656.69103 293.5574,652.24697 294.61227,650.20708 C 295.42264,648.64 296.38523,645.39811 296.75137,643.00287 C 297.1175,640.60764 297.82121,637.8604 298.31515,636.8979 C 298.85422,635.84748 298.83532,634.44175 298.26787,633.38146 C 297.62484,632.17995 297.76216,630.82077 298.69725,629.13146 C 299.45336,627.7655 300.08795,623.8354 300.10743,620.3979 C 300.13513,615.51259 300.57957,613.7112 302.14287,612.1479 C 304.54979,609.74098 305.98305,609.64723 308.92036,611.7046 C 310.82225,613.03674 311.14287,613.05099 311.14287,611.80338 C 311.14287,611.00152 312.72479,609.4121 314.65825,608.27133 C 316.59171,607.13056 318.60557,605.06111 319.1335,603.67255 C 319.66143,602.28399 320.76582,601.1479 321.5877,601.1479 C 322.40959,601.1479 324.55822,600.31895 326.36245,599.30579 C 330.2043,597.14841 336.35677,595.76264 340.75492,596.06408 C 343.49534,596.2519 343.94044,595.91006 344.48213,593.20158 C 344.87611,591.23168 346.01264,589.70873 347.64313,588.96583 C 349.81582,587.97588 350.63977,588.13915 353.2646,590.07978 C 355.91853,592.04191 357.07317,592.26211 361.68584,591.6858 C 364.95346,591.27754 367.82661,591.44346 369.07697,592.11263 C 370.675,592.96787 371.69816,592.83017 373.75391,591.48318 C 376.26029,589.84095 376.44937,589.84658 377.73285,591.60184 C 378.84586,593.12397 379.34683,593.22351 380.61161,592.17384 C 381.4538,591.47488 382.14287,590.28311 382.14287,589.52546 C 382.14287,588.7678 383.04287,588.1479 384.14287,588.1479 C 385.26261,588.1479 386.14287,588.81457 386.14287,589.6626 C 386.14287,590.49568 387.46376,591.98058 389.07818,592.96237 C 392.59934,595.10371 411.75583,595.96059 415.17674,594.12977 C 416.69537,593.31703 418.17709,593.33412 420.7839,594.19444 C 423.37608,595.04994 424.62435,595.06642 425.43493,594.25584 C 426.0443,593.64647 427.69037,593.14135 429.09287,593.13335 C 430.49537,593.12534 433.52752,592.46215 435.83098,591.65959 C 438.13444,590.85703 443.24963,589.5268 447.19806,588.70353 C 451.40658,587.82603 455.70849,586.19112 457.5949,584.75229 C 464.49662,579.48809 469.43095,574.48771 471.26628,570.8979 C 472.32076,568.8354 473.62437,567.1479 474.16319,567.1479 C 474.70202,567.1479 475.14287,566.58182 475.14287,565.88994 C 475.14287,565.19807 476.27989,562.4961 477.66958,559.88557 C 481.24756,553.16436 482.26712,546.6633 482.25491,530.6479 C 482.24198,513.68747 480.38467,506.40206 473.80266,497.49339 C 466.81964,488.04195 455.14099,479.1479 449.71348,479.1479 C 448.24502,479.1479 445.76837,478.48848 444.20982,477.68252 C 442.65127,476.87656 437.16111,475.70632 432.00948,475.08198 C 426.85784,474.45764 422.34166,473.76293 421.9735,473.53818 C 421.60535,473.31342 410.64066,472.87769 397.60752,472.56987 C 384.57438,472.26205 372.8088,471.59119 371.46179,471.07905 C 370.11477,470.56692 366.59352,470.1479 363.63679,470.1479 C 360.68005,470.1479 358.01871,469.75602 357.7227,469.27706 C 357.42668,468.7981 355.81954,468.13323 354.15127,467.79958 C 348.79021,466.72737 334.14287,459.20638 334.14287,457.52584 C 334.14287,456.66499 333.24287,455.72531 332.14287,455.43765 C 331.04287,455.14999 330.14287,454.47263 330.14287,453.9324 C 330.14287,453.39217 329.49248,451.53215 328.69756,449.79903 C 327.3596,446.88195 325.58977,439.27437 324.40575,431.35079 C 323.68474,426.52575 327.07875,410.46962 330.10468,404.3907 C 332.60061,399.37651 342.4085,388.1479 344.29232,388.1479 C 344.78371,388.1479 346.8636,387.0478 348.91431,385.70324 C 352.91856,383.07782 360.39929,380.27184 363.64746,380.17691 C 364.74494,380.14484 370.59287,379.95723 376.64287,379.76001 C 382.69287,379.56279 391.24287,379.75176 395.64287,380.17994 C 401.12047,380.71298 404.06936,380.60754 404.99553,379.84553 C 405.73949,379.23342 410.91449,378.17329 416.49553,377.48967 C 433.07626,375.45871 436.3711,374.65455 442.14287,371.23002 C 452.45776,365.10995 456.86285,359.64659 460.02132,349.05647 C 463.06586,338.84839 463.1098,338.26308 461.77858,325.6479 C 460.58752,314.3609 457.78093,304.95734 455.31345,303.98633 C 454.84045,303.80019 453.82107,302.3154 453.04816,300.6868 C 452.1051,298.69965 450.65453,297.52425 448.63806,297.11324 C 445.21283,296.4151 437.53579,291.61422 436.8068,289.7145 C 436.05082,287.74446 421.04371,285.91373 419.37006,287.58738 C 418.36397,288.59346 422.08342,291.14455 424.584,291.1635 C 427.76172,291.18759 442.41564,305.69338 446.22226,312.58303 C 449.3835,318.3046 449.5134,318.98667 449.83214,331.53786 C 450.03073,339.35793 449.71749,345.9068 449.04778,347.93603 C 447.50063,352.62393 438.25777,361.55631 431.34129,365.04774 C 424.13845,368.68372 420.58057,369.21332 400.64287,369.61732 C 384.71059,369.94015 369.41677,371.4219 363.57187,373.20895 C 361.88282,373.72537 359.40782,374.15067 358.07187,374.15406 C 356.73592,374.15745 354.49569,374.7589 353.09358,375.49063 C 351.69148,376.22235 348.36058,377.12034 345.69158,377.48617 C 335.00768,378.95056 320.98689,385.82925 319.19404,390.48602 C 318.73627,391.67505 316.96248,393.67387 315.2523,394.92784 C 313.54211,396.1818 312.14287,397.87541 312.14287,398.69141 C 312.14287,399.5074 311.74887,400.95643 311.26731,401.91147 C 310.78576,402.86651 309.61296,406.3479 308.66109,409.6479 C 307.70923,412.9479 306.60944,416.5479 306.21713,417.6479 C 304.88618,421.3797 306.99236,443.68908 309.21109,449.36108 C 311.11247,454.22178 319.63707,467.68036 322.97559,471.09237 C 326.97795,475.18282 343.5506,479.90213 350.38837,478.89856 C 352.32352,478.61454 354.54758,479.02219 355.90099,479.90898 C 357.15306,480.72937 361.14699,481.53973 364.81368,481.71734 C 368.46785,481.89435 371.75595,482.52186 372.12056,483.11181 C 372.48517,483.70176 374.31254,484.62297 376.18138,485.15894 C 379.24102,486.03644 379.78984,485.86936 381.69461,483.48055 L 383.80995,480.82766 L 394.21859,482.01124 C 401.50325,482.83959 404.73332,482.87656 404.9807,482.13442 C 405.68555,480.01986 410.35378,475.1479 411.67506,475.1479 C 413.65672,475.1479 416.14287,479.16693 416.14287,482.37041 C 416.14287,485.04344 416.33438,485.1479 421.23514,485.1479 C 424.81322,485.1479 427.08345,484.5532 428.87,483.1479 C 430.26842,482.0479 432.45138,481.1479 433.72102,481.1479 C 436.20617,481.1479 439.14287,484.50127 439.14287,487.33902 C 439.14287,488.32013 439.69051,488.87903 440.39287,488.61471 C 441.88282,488.05398 448.14287,493.67707 448.14287,495.57614 C 448.14287,497.07629 450.9233,499.7008 451.69501,498.92909 C 451.97211,498.65199 451.73867,497.21498 451.17626,495.73572 C 450.30146,493.43483 450.51829,492.68157 452.67669,490.52317 C 455.59877,487.6011 456.76463,487.76069 459.52728,491.46095 L 461.53337,494.1479 L 459.52367,496.83968 C 458.41833,498.32016 456.1812,500.2117 454.55227,501.0431 L 451.59059,502.55473 L 456.11673,511.44672 L 460.64287,520.33871 L 460.64287,531.4933 C 460.64287,544.07476 459.187,549.31675 453.69417,556.51275 C 451.91506,558.84351 450.15329,561.97025 449.77912,563.46107 C 449.07386,566.27104 441.17373,572.09203 438.01531,572.1289 C 437.12016,572.13935 435.82756,572.8229 435.14287,573.6479 C 434.45818,574.4729 433.10818,575.1479 432.14287,575.1479 C 431.17756,575.1479 429.78318,575.87638 429.04424,576.76674 C 427.98642,578.04133 426.48046,578.27494 421.96248,577.86526 C 417.75443,577.48369 415.91407,577.71866 415.06111,578.74642 C 413.7188,580.3638 410.9789,580.58393 409.58162,579.18665 C 408.96663,578.57166 407.7239,578.73764 406.13162,579.64743 C 404.76281,580.42955 403.05747,581.36904 402.34199,581.73519 C 401.6265,582.10135 400.0225,581.444 398.77754,580.27441 C 396.08699,577.74678 392.96836,577.56091 389.65665,579.73083 C 388.32793,580.60144 386.43126,581.07227 385.44183,580.77712 C 384.4524,580.48197 380.94287,579.94533 377.64287,579.58459 C 374.34287,579.22384 371.49287,578.79051 371.30954,578.62163 C 371.1262,578.45274 371.99161,577.29916 373.23265,576.05812 C 375.41453,573.87624 376.21873,573.79005 397.56599,573.45013 C 409.70827,573.25679 422.35508,573.10969 425.67001,573.12325 C 430.84269,573.14441 432.13864,572.75804 434.81133,570.3979 C 436.52413,568.8854 440.23526,565.7011 443.05828,563.32167 C 455.19803,553.0895 460.54217,530.88168 454.27444,516.71244 C 451.66535,510.81416 444.38913,503.12482 438.75344,500.31022 C 432.89,497.38188 423.06579,495.42496 410.64287,494.71076 C 405.14287,494.39457 392.09287,493.66294 381.64287,493.08492 C 348.76293,491.26623 332.54918,485.76893 318.62657,471.71915 C 310.77051,463.79134 306.93805,455.72814 304.78816,442.60425 C 302.74867,430.15421 302.72098,423.82918 304.65736,412.72515 C 308.12591,392.83503 322.07332,375.37168 335.77668,373.76112 C 338.89851,373.39421 344.16522,372.20355 347.48049,371.1152 C 357.50611,367.82396 372.44917,366.01353 396.64287,365.15894 C 416.24414,364.46656 420.59188,364.02441 426.06506,362.16676 C 437.28182,358.35969 440.15475,355.0564 444.22941,341.28144 C 448.23472,327.74089 445.46959,315.33782 436.45593,306.41334 C 432.64284,302.63798 430.08466,301.14272 424.14287,299.21637 C 417.35231,297.01484 414.53821,296.74342 394.39287,296.34701 C 380.30008,296.0697 372.14287,295.53721 372.14287,294.89456 C 372.14287,294.33652 372.6761,292.10017 373.32783,289.92491 C 374.2411,286.87666 374.2411,285.53484 373.32783,284.07246 C 370.81325,280.04598 371.68973,279.47876 381.39287,278.85316 C 393.56311,278.0685 418.83426,279.55892 427.64287,281.58086 C 431.49287,282.46459 439.20427,285.44185 444.77932,288.19699 C 455.16525,293.32963 456.90061,294.96504 461.58704,304.03658 C 463.97074,308.65071 467.14674,324.9698 467.12551,332.49458 C 467.07347,350.93597 458.46117,367.84826 444.64287,376.64455 C 432.63037,384.29132 419.91937,386.69962 378.50056,389.17623 C 360.09344,390.27688 352.01583,391.86156 345.57422,395.63578 C 332.81953,403.10892 326.41838,418.00518 329.53619,432.95827 C 330.33523,436.7905 331.91811,441.74718 333.0537,443.97311 C 334.40483,446.62154 334.91979,449.01332 334.54372,450.89367 C 334.04278,453.39833 334.46783,454.09717 337.85577,456.33921 C 348.47467,463.36647 350.52168,463.92593 368.18821,464.62928 C 403.3154,466.0278 423.11672,468.42113 443.25574,473.70248 C 446.34282,474.51205 450.93923,475.09611 453.46998,475.00038 C 457.08544,474.86363 458.95858,475.44119 462.21216,477.69592 C 472.73882,484.9909 483.43177,501.16428 486.64278,514.6479 C 488.33353,521.74769 488.58383,541.29097 487.09189,549.71424 C 484.33212,565.29543 478.57433,576.04036 466.76473,587.6479 C 458.77064,595.5052 451.27487,599.8883 439.58787,603.53936 C 425.64529,607.89507 420.32165,608.40476 390.14287,608.27327 C 374.46787,608.20497 357.36787,608.64154 352.14287,609.24342 C 333.14335,611.43204 321.74306,618.95107 309.775,637.18703 C 296.76807,657.00592 297.43176,689.0131 311.33776,712.55354 C 318.28102,724.30728 333.42471,737.50647 346.89898,743.54859 C 350.35778,745.09959 350.92178,745.70937 349.96445,746.86288 C 349.25283,747.72034 347.87689,748.04697 346.46707,747.69313 C 344.79882,747.27443 344.14287,747.53851 344.14287,748.62885 C 344.14287,749.46433 344.81787,750.1479 345.64287,750.1479 C 346.4762,750.1479 347.14287,751.03679 347.14287,752.1479 C 347.14287,753.2479 347.03037,754.10732 346.89287,754.05771 C 346.75537,754.00811 345.25562,753.56474 343.5601,753.07245 z M 417.92648,288.02373 C 418.38186,285.67257 416.43492,285.22982 402.31712,284.47401 C 383.52529,283.46797 379.75738,283.88958 380.33562,286.93363 C 380.71628,288.93756 387.46613,289.6479 406.12739,289.6479 C 415.93029,289.6479 417.65796,289.41008 417.92648,288.02373 z M 361.14287,750.1479 C 359.92991,749.36403 360.07343,749.1756 361.89287,749.16321 C 363.13037,749.15479 364.14287,749.5979 364.14287,750.1479 C 364.14287,751.40082 363.08163,751.40082 361.14287,750.1479 z M 426.71829,742.26993 C 426.41985,741.78705 428.08079,740.13629 430.40927,738.60158 C 432.73775,737.06686 437.82988,732.95388 441.72512,729.46162 C 458.37131,714.53753 466.38302,686.97117 463.21171,655.5314 C 462.55243,648.99548 461.56096,641.28841 461.00844,638.40459 C 459.6665,631.40049 460.44659,629.43679 465.12819,628.03415 C 470.4058,626.45294 472.18528,627.31847 471.98082,631.36721 C 471.8897,633.17159 472.3151,638.4729 472.92616,643.1479 C 473.53721,647.8229 474.03629,653.2229 474.03521,655.1479 C 474.03414,657.0729 474.28052,661.51103 474.58271,665.01041 C 474.98857,669.71012 474.58956,673.36892 473.05594,679.01041 C 471.91402,683.21103 470.62685,688.4479 470.19558,690.6479 C 469.44303,694.48677 468.9018,696.27504 467.16898,700.6479 C 462.58727,712.21015 460.72932,716.29506 459.77002,716.91532 C 459.14687,717.31824 456.89411,720.3479 454.76388,723.6479 C 449.72511,731.45361 447.21164,734.1479 444.96856,734.1479 C 443.68782,734.1479 443.14287,734.89413 443.14287,736.6479 C 443.14287,738.8342 442.70751,739.1479 439.67329,739.1479 C 437.76502,739.1479 434.60133,740.0479 432.64287,741.1479 C 428.71131,743.35613 427.52809,743.58021 426.71829,742.26993 z M 283.14287,712.6479 C 283.14287,711.73123 283.70537,711.16873 284.39287,711.3979 C 285.80854,711.86979 285.65292,713.47788 284.14287,713.98123 C 283.59287,714.16457 283.14287,713.56457 283.14287,712.6479 z M 272.39287,629.48123 C 270.84842,628.86345 270.72579,625.1479 272.24986,625.1479 C 272.8587,625.1479 273.11471,625.77891 272.81876,626.55013 C 272.52281,627.32136 272.54576,628.21746 272.86976,628.54146 C 273.80879,629.48049 276.07297,627.12932 275.54774,625.76059 C 274.73119,623.6327 278.009,612.94858 280.74829,608.80923 C 287.50804,598.59457 302.24389,586.47437 315.39554,580.31197 C 322.23538,577.10705 325.14287,576.42675 325.14287,578.03127 C 325.14287,579.42669 328.90198,580.04492 331.90344,579.14313 C 342.42334,575.98242 346.99944,575.17677 357.39287,574.65557 C 369.96987,574.02487 372.06671,574.83973 365.39287,577.76444 C 362.93261,578.84262 357.68766,579.57272 350.14287,579.88727 C 340.52256,580.28836 338.29206,580.6883 336.49663,582.33414 C 334.76986,583.91705 333.49949,584.18054 329.99663,583.6823 C 326.81749,583.23011 324.15901,583.62791 320.14287,585.15679 C 317.11787,586.30836 312.61787,587.93438 310.14287,588.77017 C 307.66787,589.60596 304.89574,591.15787 303.98258,592.21885 C 303.06942,593.27983 301.84229,594.1479 301.25563,594.1479 C 300.66897,594.1479 299.45185,595.2729 298.55091,596.6479 C 297.64998,598.0229 296.31993,599.1479 295.59525,599.1479 C 294.87057,599.1479 293.99184,600.04838 293.64253,601.14896 C 293.29322,602.24955 292.13326,603.61786 291.06485,604.18966 C 289.24147,605.1655 283.02037,615.05147 277.90756,625.09793 C 275.6112,629.61019 274.64172,630.38077 272.39287,629.48123 z M 454.72582,323.28211 C 454.29505,322.58511 454.21266,321.74478 454.54273,321.4147 C 455.4377,320.51974 456.4135,321.836 455.93012,323.28615 C 455.5914,324.30232 455.35585,324.30153 454.72582,323.28211 z M 453.80954,310.48123 C 453.44287,310.11457 453.14287,309.34957 453.14287,308.78123 C 453.14287,308.15463 453.60864,308.21367 454.3262,308.93123 C 454.97704,309.58207 455.27704,310.34707 454.99287,310.63123 C 454.7087,310.9154 454.1762,310.8479 453.80954,310.48123 z M 235.23467,229.95373 C 234.08418,226.54693 233.14287,223.20864 233.14287,222.53529 C 233.14287,221.86194 234.73058,220.32976 236.67111,219.13045 C 241.33265,216.24946 242.69304,217.45526 243.57489,225.24978 C 244.10904,229.97106 243.9102,231.85405 242.6791,233.73296 C 239.86975,238.02056 237.56351,236.84978 235.23467,229.95373 z"
         id="path7667" />
    </g>
  </g>
</svg>
