<?xml version="1.0" encoding="UTF-8" standalone="no"?>
<!-- Created with Inkscape (http://www.inkscape.org/) -->
<svg
   xmlns:dc="http://purl.org/dc/elements/1.1/"
   xmlns:cc="http://creativecommons.org/ns#"
   xmlns:rdf="http://www.w3.org/1999/02/22-rdf-syntax-ns#"
   xmlns:svg="http://www.w3.org/2000/svg"
   xmlns="http://www.w3.org/2000/svg"
   xmlns:sodipodi="http://sodipodi.sourceforge.net/DTD/sodipodi-0.dtd"
   xmlns:inkscape="http://www.inkscape.org/namespaces/inkscape"
   width="284.22714"
   height="458.51221"
   id="svg5317"
   sodipodi:version="0.32"
   inkscape:version="0.46"
   version="1.0"
   sodipodi:docname="sem2.svg"
   inkscape:output_extension="org.inkscape.output.svg.inkscape">
  <defs
     id="defs5319">
    <inkscape:perspective
       sodipodi:type="inkscape:persp3d"
       inkscape:vp_x="0 : 526.18109 : 1"
       inkscape:vp_y="0 : 1000 : 0"
       inkscape:vp_z="744.09448 : 526.18109 : 1"
       inkscape:persp3d-origin="372.04724 : 350.78739 : 1"
       id="perspective5325" />
    <inkscape:perspective
       id="perspective5439"
       inkscape:persp3d-origin="372.04724 : 350.78739 : 1"
       inkscape:vp_z="744.09448 : 526.18109 : 1"
       inkscape:vp_y="0 : 1000 : 0"
       inkscape:vp_x="0 : 526.18109 : 1"
       sodipodi:type="inkscape:persp3d" />
  </defs>
  <sodipodi:namedview
     id="base"
     pagecolor="#ffffff"
     bordercolor="#666666"
     borderopacity="1.0"
     inkscape:pageopacity="0.0"
     inkscape:pageshadow="2"
     inkscape:zoom="0.49497475"
     inkscape:cx="344.41029"
     inkscape:cy="264.00167"
     inkscape:document-units="px"
     inkscape:current-layer="layer1"
     showgrid="false"
     inkscape:window-width="640"
     inkscape:window-height="675"
     inkscape:window-x="78"
     inkscape:window-y="73" />
  <metadata
     id="metadata5322">
    <rdf:RDF>
      <cc:Work
         rdf:about="">
        <dc:format>image/svg+xml</dc:format>
        <dc:type
           rdf:resource="http://purl.org/dc/dcmitype/StillImage" />
      </cc:Work>
    </rdf:RDF>
  </metadata>
  <g
     inkscape:label="Calque 1"
     inkscape:groupmode="layer"
     id="layer1"
     transform="translate(-368.13,-290.73593)">
    <g
       id="g7699">
      <path
         style="fill:#000000"
         d="M 486.85715,748.97343 C 446.44494,746.49557 411.82538,726.17121 389.21151,691.64789 C 380.98277,679.08553 376.24186,666.25834 371.84041,644.64789 C 365.30696,612.56969 367.165,593.38531 379.30354,567.59041 C 394.19695,535.9413 416.09605,515.45692 445.46866,505.69966 C 467.81941,498.27499 480.29816,498.64987 529.18187,508.21452 C 570.01875,516.20471 580.65771,516.13914 591.55161,507.83008 C 600.40662,501.07614 602.75087,493.76527 597.60715,488.945 C 591.43837,483.16413 584.02924,480.86625 551.42887,474.62317 C 513.50545,467.36071 503.87918,463.70857 492.28686,452.1851 C 481.88108,441.84112 476.61066,425.83202 477.62458,407.64789 C 478.20322,397.27038 480.14797,391.99776 486.87299,382.57349 C 494.90156,371.32246 505.34485,364.03434 518.35715,360.60146 C 530.26533,357.45987 551.77378,358.80262 579.35715,364.40962 C 586.12714,365.78578 593.76478,366.56245 600.85715,366.59594 C 610.69074,366.64238 612.44787,366.37085 617.42805,364.03521 C 621.71274,362.02574 623.40816,360.56016 624.77139,357.68736 L 626.54385,353.9522 L 623.83293,351.12261 C 622.34193,349.56634 618.91315,347.3428 616.21341,346.1814 C 610.81171,343.85765 587.34145,337.90435 566.40784,333.54807 C 557.43875,331.68161 552.3326,330.12334 551.07951,328.87025 C 548.77198,326.56272 526.79133,320.62205 489.35715,312.18865 C 457.98143,305.12014 453.53759,304.47355 447.51651,306.10074 C 437.72519,308.74683 431.67064,318.09233 412.95476,359.44851 C 405.83925,375.17152 405.38671,376.58261 405.89928,381.44851 C 406.92777,391.21208 403.36255,393.74492 392.88024,390.69763 C 387.85744,389.23746 387.33316,388.79986 386.24158,385.15649 C 385.15043,381.51456 385.26652,380.88323 387.70489,377.1986 C 389.16156,374.99743 391.47923,372.45878 392.85527,371.55717 C 394.2313,370.65555 395.35715,369.44256 395.35715,368.86162 C 395.35715,368.28068 396.04262,367.04794 396.88042,366.12218 C 397.71821,365.19643 403.13722,353.91379 408.92265,341.04964 C 425.01195,305.27447 428.5652,299.68391 438.42015,294.63941 C 450.66386,288.37215 462.74619,289.26919 512.35715,300.12877 C 521.98215,302.23564 534.10342,304.69126 539.2933,305.58571 C 544.48319,306.48016 549.32913,307.70967 550.06206,308.31795 C 551.05969,309.14591 551.85889,309.00379 553.24146,307.75259 C 555.42767,305.77409 559.14985,306.15933 572.85715,309.78279 C 577.80715,311.09129 585.68215,312.60859 590.35715,313.15456 C 612.45651,315.73543 632.50173,322.73033 640.7476,330.73862 C 646.75589,336.5738 650.6492,345.88134 651.16107,355.63356 C 651.90341,369.77712 647.82392,380.69607 638.55971,389.36165 C 625.24465,401.81633 611.53985,404.55259 581.35715,400.78256 C 552.47278,397.17469 538.91841,395.93618 534.67839,396.51734 C 529.57718,397.21654 521.85997,400.3835 519.03728,402.93608 C 516.77873,404.97851 513.35715,411.42846 513.35715,413.64359 C 513.35715,415.97789 520.47444,418.63145 534.47848,421.5183 C 578.51593,430.59638 586.99195,432.52022 596.92572,435.69223 C 615.12602,441.50387 625.86759,450.32044 632.53247,464.91791 C 636.8023,474.26974 638.11639,481.80275 638.85255,501.14789 C 639.49793,518.10731 639.43939,518.89501 636.95761,526.64789 C 635.51428,531.15674 632.18684,538.0834 629.33275,542.52037 C 626.54757,546.85024 624.40117,550.48829 624.56297,550.60492 C 624.72477,550.72156 628.52824,552.27533 633.01514,554.05775 C 645.50118,559.01783 652.35715,565.83443 652.35715,573.28868 C 652.35715,575.07075 651.14157,580.26142 649.65586,584.82352 L 646.95457,593.11825 L 649.85883,596.14964 C 652.68968,599.10442 652.73163,599.30069 651.51841,603.91447 C 649.38288,612.03576 639.26595,639.117 633.8731,651.14789 C 622.32557,676.90922 606.06047,698.23041 584.02145,716.49615 C 563.19317,733.75844 546.24127,742.99735 527.69334,747.19538 C 520.51168,748.82084 499.37684,749.74107 486.85715,748.97343 z M 535.80715,676.0355 C 537.49375,674.45967 533.8439,675.06436 531.79828,676.69967 C 529.93278,678.19099 529.95455,678.22557 532.35715,677.58727 C 533.73215,677.22198 535.28465,676.52368 535.80715,676.0355 z M 548.35715,669.05412 C 548.35715,668.48079 547.00715,668.97299 545.35715,670.14789 C 543.70715,671.32279 542.35715,672.48999 542.35715,672.74166 C 542.35715,672.99334 543.70715,672.50114 545.35715,671.64789 C 547.00715,670.79464 548.35715,669.62744 548.35715,669.05412 z M 554.78572,664.57646 C 557.10946,662.25273 556.69571,661.87995 553.85715,663.73985 C 552.48215,664.64078 551.35715,665.55116 551.35715,665.7629 C 551.35715,666.70097 553.35127,666.01092 554.78572,664.57646 z M 513.10659,661.53743 C 519.81103,659.79558 531.16352,654.11558 538.88238,648.641 C 551.02857,640.02635 562.85042,624.90582 569.36878,609.64789 C 572.13866,603.16428 577.35715,581.78635 577.35715,576.92298 L 577.35715,573.14789 L 569.02002,573.14789 C 558.03908,573.14789 533.58245,569.30502 498.44319,562.05817 C 483.93758,559.06664 469.20836,558.47353 461.84235,560.58436 C 446.0773,565.10202 433.47,576.07643 425.18056,592.49772 C 421.24485,600.29431 418.15879,612.52776 418.97621,617.09237 C 421.37132,630.46711 437.06329,646.71947 455.71995,655.14832 C 473.69939,663.27121 496.61373,665.82237 513.10659,661.53743 z M 562.91899,657.37639 C 562.58379,657.04119 561.53275,657.58022 560.58334,658.57423 C 558.93312,660.30198 558.95994,660.3288 561.1928,659.18368 C 562.4774,658.52488 563.25419,657.71159 562.91899,657.37639 z M 573.35715,647.64789 C 574.6489,646.27289 575.48078,645.14789 575.20578,645.14789 C 574.93078,645.14789 573.6489,646.27289 572.35715,647.64789 C 571.0654,649.02289 570.23352,650.14789 570.50852,650.14789 C 570.78352,650.14789 572.0654,649.02289 573.35715,647.64789 z M 582.85715,319.14789 C 582.51723,318.59789 581.47817,318.15478 580.54813,318.1632 C 579.09086,318.1764 579.06446,318.31249 580.35715,319.14789 C 582.31552,320.41349 583.63933,320.41349 582.85715,319.14789 z M 574.35715,317.14789 C 572.98215,316.70754 570.73215,316.33402 569.35715,316.31786 C 567.08456,316.29113 567.03908,316.36664 568.85715,317.14789 C 569.95715,317.62058 572.20715,317.99409 573.85715,317.97793 C 576.78255,317.94926 576.79498,317.92862 574.35715,317.14789 z"
         id="path5495" />
      <path
         style="fill:#afafaf"
         d="M 484.57405,745.96572 C 478.91835,745.59052 469.46835,744.10822 463.57405,742.6717 C 449.39901,739.21706 428.08865,728.80096 416.69148,719.7564 C 398.86789,705.61195 382.23189,681.3653 378.48179,664.06654 C 377.95495,661.63628 376.53141,655.59789 375.31836,650.64789 C 374.10531,645.69789 372.40815,638.72289 371.54689,635.14789 C 369.24721,625.6021 369.34907,602.96082 371.7381,592.64789 C 375.14888,577.92427 382.79861,561.0266 391.88366,548.14789 C 407.12363,526.54414 422.52832,514.85957 446.85715,506.45013 L 457.85715,502.64789 L 477.35715,502.71624 L 496.85715,502.78458 L 527.85715,509.03785 C 561.89054,515.90301 572.25509,516.79888 582.51499,513.76228 C 591.96966,510.96401 601.02993,502.00637 602.04268,494.4558 C 602.52043,490.89386 602.22887,490.24244 598.81544,487.24541 C 591.9475,481.21528 585.98367,479.36203 551.71497,472.60899 C 514.72928,465.32054 505.55282,462.00428 494.96566,452.10052 C 487.2077,444.84333 483.6903,438.4567 480.71527,426.22578 C 478.13431,415.61493 477.80233,408.8982 479.46585,400.94711 C 482.24999,387.63992 494.13514,372.88576 507.4315,366.23072 C 518.32234,360.77968 524.1343,359.76549 540.35715,360.48515 C 552.68759,361.03215 559.25767,361.9149 585.73814,366.58248 C 606.64342,370.26735 621.34268,366.95723 626.23219,357.46363 C 628.66714,352.73587 626.58658,349.8209 617.81563,345.67157 C 612.36543,343.09321 589.34132,337.09614 567.40784,332.54188 C 558.22062,330.63425 553.34535,329.13609 552.0236,327.81434 C 549.43216,325.22291 534.31684,321.17679 482.71314,309.26111 C 459.06641,303.8009 450.93967,303.04228 444.57503,305.70094 C 435.99445,309.28525 431.81019,315.5636 417.4554,346.39308 C 411.52738,359.12455 406.26767,369.66046 405.76716,369.80621 C 405.26666,369.95196 403.61449,369.05494 402.09569,367.81285 L 399.33423,365.55449 L 409.81178,342.38985 C 423.0465,313.12943 425.61791,308.05943 429.41962,303.72952 C 434.32675,298.14061 438.88584,295.82137 445.31782,295.64202 C 448.76691,295.54584 452.19522,294.7659 454.09074,293.64619 C 456.94405,291.9607 458.00824,291.9073 466.91962,293.00245 C 476.00788,294.11933 493.52074,297.51482 521.85715,303.65406 C 528.45715,305.08399 536.32288,306.50546 539.33655,306.81288 C 547.94342,307.69086 549.35715,308.51555 549.35715,312.65832 C 549.35715,315.90838 549.53124,316.12509 551.35715,315.14789 C 552.64518,314.45856 553.9822,314.41204 555.11299,315.01722 C 557.60244,316.34953 573.98072,320.14789 577.23611,320.14789 C 578.73268,320.14789 580.4219,320.61264 580.98993,321.18067 C 582.45545,322.64619 585.35715,321.27772 585.35715,319.12106 C 585.35715,317.69617 583.87033,316.97003 578.40974,315.72804 C 574.58867,314.85896 570.30185,314.14789 568.88346,314.14789 C 567.46508,314.14789 563.37865,313.59284 559.8025,312.91446 C 554.93772,311.99161 553.3726,311.29913 553.5871,310.16446 C 553.99251,308.01985 560.77516,307.66322 565.77813,309.52346 C 573.47139,312.38401 582.86324,314.35449 590.35715,314.68032 C 607.83987,315.44046 631.8313,323.68871 639.83255,331.68995 C 641.91195,333.76936 644.96909,338.36798 646.62619,341.90911 C 649.49275,348.03482 649.60999,348.79196 649.03999,357.49771 C 648.00522,373.30219 643.71826,383.47586 635.17295,390.40645 C 622.6587,400.556 608.64543,403.07877 583.64153,399.68347 C 545.06518,394.44516 530.77087,394.12096 522.64991,398.30015 C 516.44803,401.49175 511.14153,408.30434 511.55472,412.54437 C 512.06779,417.8094 514.47249,418.60229 555.85715,427.15205 C 589.32786,434.06685 598.47396,436.49407 607.35715,440.81925 C 625.24519,449.52885 636.8419,469.2322 636.68459,490.64789 C 636.50629,514.91981 636.2124,519.93766 634.69323,524.64789 C 632.39657,531.76871 628.74271,538.83666 624.24693,544.85498 C 622.10755,547.71888 620.35715,550.27445 620.35715,550.53402 C 620.35715,550.7936 622.92112,551.75134 626.05487,552.66235 C 638.68088,556.33283 648.16331,563.00048 650.40134,569.78179 C 651.34472,572.64027 651.0131,574.47924 647.92383,583.52044 C 643.78005,595.64783 643.61105,597.14789 646.38853,597.14789 C 647.5058,597.14789 648.65427,597.7586 648.9407,598.50502 C 649.60224,600.22897 643.72202,618.53433 636.68807,636.64789 C 626.18093,663.70552 616.07552,680.01467 598.35715,698.51032 C 580.47926,717.17248 559.91921,732.04899 542.35715,739.02989 C 527.23409,745.04129 507.08906,747.45934 484.57405,745.96572 z M 507.80195,684.64931 C 525.21576,683.03853 527.27135,682.55195 538.33692,677.42132 C 552.30217,670.94624 565.29477,660.6795 579.17904,645.14789 C 591.12238,631.7875 600.71591,615.98109 601.74945,607.96061 C 601.98424,606.13862 602.88925,603.29789 603.76058,601.64789 C 604.63192,599.99789 605.3476,598.00247 605.35099,597.21361 C 605.35438,596.42476 606.20471,593.94976 607.24061,591.71361 C 608.27652,589.47747 609.62709,583.82289 610.24189,579.14789 C 611.59886,568.82927 611.61514,567.87041 610.42078,568.60856 C 609.90578,568.92685 609.54762,570.02631 609.62487,571.0518 C 609.70211,572.07729 609.04128,574.65593 608.15634,576.78211 C 605.61063,582.89852 602.35715,593.59378 602.35715,595.84594 C 602.35715,596.97732 601.68215,598.4632 600.85715,599.14789 C 600.03215,599.83258 599.35715,601.07273 599.35715,601.90378 C 599.35715,604.23025 592.66959,616.81767 587.56111,624.10644 C 585.03952,627.70424 581.74041,632.47117 580.22974,634.69963 C 576.70897,639.89327 562.5961,653.45162 554.85146,659.08075 C 551.55459,661.47705 546.60715,665.11928 543.85715,667.17459 C 541.10715,669.2299 534.80715,672.38216 529.85715,674.17962 C 524.90715,675.97708 518.03261,678.52438 514.5804,679.84029 C 511.12819,681.1562 507.85014,681.95257 507.29584,681.61 C 506.29797,680.99328 488.56678,682.93715 487.09084,683.82508 C 485.73155,684.64282 487.40919,686.14825 489.66617,686.13604 C 490.87121,686.12953 499.03231,685.46049 507.80195,684.64931 z M 482.35715,684.14789 C 482.35715,683.59789 481.88059,683.14789 481.29813,683.14789 C 480.71567,683.14789 480.51723,683.59789 480.85715,684.14789 C 481.19707,684.69789 481.67363,685.14789 481.91617,685.14789 C 482.15871,685.14789 482.35715,684.69789 482.35715,684.14789 z M 466.54465,682.46478 C 465.82278,682.17591 464.96028,682.21143 464.62798,682.54372 C 464.29569,682.87601 464.88632,683.11236 465.94048,683.06894 C 467.10543,683.02096 467.34238,682.784 466.54465,682.46478 z M 462.89716,681.21263 C 462.2016,680.08718 451.93482,676.14789 449.69719,676.14789 C 448.40175,676.14789 448.33964,676.42186 449.35715,677.64789 C 450.04184,678.47289 451.3955,679.14789 452.36529,679.14789 C 453.33507,679.14789 455.41747,679.82012 456.99284,680.64173 C 460.18715,682.30767 463.78919,682.65596 462.89716,681.21263 z M 507.35715,664.07864 C 525.8649,661.07715 549.39672,645.43065 560.38584,628.81945 C 570.70363,613.22302 578.35715,590.69169 578.35715,575.91336 L 578.35715,570.41964 L 563.60715,569.83818 C 552.73593,569.40963 543.99223,568.31958 530.35715,565.69301 C 481.85007,556.34893 471.29868,555.29206 459.75342,558.6211 C 445.50284,562.7302 432.81602,573.7575 425.20785,588.64789 C 418.96932,600.85767 415.96757,610.2577 416.83336,614.87275 C 419.11246,627.02143 425.6378,636.44264 438.47073,646.11254 C 448.3574,653.56238 455.18973,657.1015 466.36519,660.56179 C 480.44945,664.92273 494.64344,666.14049 507.35715,664.07864 z M 424.35715,534.09533 C 431.10774,529.54879 434.42589,526.14789 432.11122,526.14789 C 430.06316,526.14789 418.62708,534.775 417.24035,537.36613 C 415.98083,539.71956 416.06144,539.68252 424.35715,534.09533 z M 573.2942,528.79092 C 577.60703,527.50145 577.32707,527.44546 563.2942,526.79079 C 555.35382,526.42035 546.60715,525.65251 543.85715,525.08449 C 541.10715,524.51647 535.93215,523.42924 532.35715,522.66842 C 528.78215,521.9076 523.60715,521.05299 520.85715,520.7693 L 515.85715,520.25349 L 521.35715,522.1396 C 524.38215,523.17696 528.30392,524.0532 530.0722,524.0868 C 531.84048,524.1204 535.21548,524.77342 537.5722,525.53796 C 539.92892,526.3025 544.55715,527.2328 547.85715,527.6053 C 551.15715,527.9778 556.10715,528.64214 558.85715,529.08162 C 566.37301,530.28272 568.44411,530.24102 573.2942,528.79092 z M 448.45793,521.0028 C 451.96598,519.82104 454.6728,518.1302 454.05138,517.50879 C 453.43764,516.89505 443.47187,520.15325 442.84109,521.17387 C 442.03793,522.47342 444.29658,522.40463 448.45793,521.0028 z M 532.54465,309.46478 C 531.82277,309.17591 530.96028,309.21143 530.62798,309.54372 C 530.29569,309.87601 530.88632,310.11236 531.94048,310.06894 C 533.10543,310.02096 533.34238,309.784 532.54465,309.46478 z M 522.85715,307.14789 C 521.75715,306.6752 519.95715,306.28846 518.85715,306.28846 C 516.85715,306.28846 516.85715,306.28846 518.85715,307.14789 C 519.95715,307.62058 521.75715,308.00732 522.85715,308.00732 C 524.85715,308.00732 524.85715,308.00732 522.85715,307.14789 z M 515.54465,305.46478 C 514.82277,305.17591 513.96028,305.21143 513.62798,305.54372 C 513.29569,305.87601 513.88632,306.11236 514.94048,306.06894 C 516.10543,306.02096 516.34238,305.784 515.54465,305.46478 z M 397.85715,390.37376 C 390.23164,388.93378 388.52023,388.05446 387.4679,385.03575 C 385.27313,378.73983 389.81716,376.35301 397.71539,379.65311 C 405.89293,383.0699 406.00987,391.9133 397.85715,390.37376 z"
         id="path5493" />
      <path
         style="fill:#8f8f8f"
         d="M 481.00899,744.02598 C 461.5213,742.15035 440.5967,734.4801 422.96717,722.74981 C 407.66721,712.56957 390.44355,691.9602 383.39714,675.40138 C 379.34371,665.87598 379.36261,663.83481 383.46832,667.7108 L 386.57949,670.64789 L 382.91049,663.30802 C 377.84828,653.18102 372.72838,637.28969 371.28429,627.22225 C 366.97504,597.18037 378.60082,563.17621 402.42457,536.14024 C 424.0487,511.60048 455.35244,499.60833 488.69158,503.09221 C 494.83264,503.73394 513.55402,506.934 530.29465,510.20344 C 561.70715,516.33831 569.67933,517.11852 579.55793,515.02468 C 587.05839,513.43491 591.22091,511.07003 596.55382,505.36872 C 601.43031,500.15536 604.03144,493.9706 603.02837,489.97406 C 602.36612,487.33546 594.5162,482.15842 587.35715,479.63886 C 581.95834,477.73879 566.58709,474.29893 544.89682,470.13687 C 516.15866,464.6224 505.05425,460.43992 495.3563,451.47736 C 489.38831,445.96193 485.05466,439.05506 483.5175,432.60895 C 482.99799,430.43037 481.84938,425.96585 480.96504,422.68779 C 476.34863,405.57577 481.35945,389.30517 495.5469,375.33908 C 511.04532,360.08248 528.86842,357.49414 569.85715,364.54745 C 581.40715,366.53497 593.78579,368.43764 597.36525,368.77562 C 607.82153,369.76292 620.06506,366.44817 624.63744,361.39209 C 627.06775,358.70469 628.5163,353.31378 627.37907,351.18885 C 624.63007,346.05229 603.28535,339.11605 568.69498,332.1187 C 557.43639,329.84118 553.49531,328.64196 552.35715,327.14732 C 551.48326,325.99972 547.93529,324.39244 543.85715,323.2967 C 522.29667,317.50368 511.15568,314.71459 485.74416,308.74837 C 470.28201,305.11811 455.88201,302.15229 453.74416,302.15766 C 448.5687,302.17067 440.51523,306.03922 434.91257,311.20357 C 432.40709,313.51304 430.35715,314.85636 430.35715,314.18873 C 430.35715,312.93146 435.34965,305.31729 438.72562,301.42579 C 443.16203,296.31193 464.37916,294.35921 476.39743,297.95866 C 485.30467,300.62636 532.86603,312.11334 535.1319,312.14415 C 535.28301,312.14621 535.83438,311.02289 536.35715,309.64789 C 537.39995,306.90513 538.95833,306.63172 544.60715,308.20047 C 548.29556,309.2248 548.35715,309.32324 548.35715,314.19489 C 548.35715,319.47116 548.89275,320.16525 550.87373,317.45611 C 552.02567,315.88073 552.89333,315.9508 563.48397,318.47461 C 569.73922,319.96527 576.00465,321.17657 577.40715,321.16639 C 578.80965,321.15622 580.47404,321.66478 581.1058,322.29654 C 582.58233,323.77307 587.75281,320.62135 587.01372,318.69531 C 586.27284,316.76461 588.37063,315.14789 591.61669,315.14789 C 595.43109,315.14789 614.36965,319.50842 621.77724,322.09224 C 633.97893,326.34827 641.44705,332.734 646.09428,342.88488 C 649.8212,351.02554 649.04729,360.12347 643.41766,374.35098 C 640.007,382.97058 638.34294,385.82803 634.86928,389.02994 C 629.76073,393.73884 624.90459,396.35146 616.97691,398.6561 C 609.33686,400.87712 594.45068,400.32585 564.35715,396.70746 C 540.41171,393.8283 530.67429,393.80093 524.08487,396.59424 C 518.79701,398.83582 513.02885,404.33193 510.81746,409.23591 L 508.94229,413.39429 L 511.68419,415.75278 C 515.32337,418.88306 522.99624,421.01024 552.85715,427.16728 C 600.81846,437.05645 609.31043,440.0436 619.89873,450.74994 C 634.61425,465.6295 639.56529,488.23953 632.8679,509.97654 C 630.55748,517.47522 630.25378,519.46597 631.31974,520.12477 C 634.07771,521.82929 629.09342,535.3651 622.48059,544.12925 C 620.20586,547.144 618.48442,550.02969 618.65516,550.54191 C 618.8259,551.05413 621.64119,552.22156 624.91137,553.13619 C 634.88798,555.92653 641.1111,559.1573 645.3342,563.73882 C 648.13305,566.77521 649.35715,568.99942 649.35715,571.04858 C 649.35715,575.57024 636.38314,613.14278 628.6622,630.98085 C 626.20234,636.66398 624.39338,641.51745 624.64227,641.76634 C 624.89117,642.01524 627.62883,638.51496 630.72598,633.98795 C 633.82312,629.46094 636.35715,626.06324 636.35715,626.43751 C 636.35715,626.81178 634.76265,631.96223 632.81381,637.88295 C 623.79736,665.2756 608.36822,688.04606 583.98377,709.94675 C 560.17983,731.32607 536.87401,741.99142 509.27063,744.13743 C 495.27957,745.22516 493.39092,745.21771 481.00899,744.02598 z M 508.35715,685.65915 C 524.79826,684.01764 527.62039,683.34458 538.11471,678.56216 C 553.15342,671.7088 567.91758,660.09842 580.93162,644.89139 C 593.98578,629.63748 598.2672,622.13999 604.79936,603.09493 C 606.60144,597.84081 608.59508,592.57184 609.22966,591.38612 C 610.29681,589.39212 612.58471,578.39577 613.64849,570.14789 C 614.13093,566.40733 612.98904,562.14789 611.50383,562.14789 C 610.44922,562.14789 607.00827,571.45114 605.40104,578.64789 C 603.8838,585.44175 600.26366,597.42016 599.3566,598.64789 C 598.95026,599.19789 598.04772,601.44789 597.35095,603.64789 C 594.77444,611.78314 590.34201,618.89722 575.86631,638.13093 C 569.7219,646.29493 543.43966,667.44223 534.71441,671.24269 C 524.74832,675.58363 512.6555,679.40998 506.35715,680.21535 C 494.24883,681.76364 472.39156,682.49618 470.07134,681.43145 C 465.61305,679.38561 456.71709,676.21858 451.35715,674.76907 C 448.33215,673.95101 443.83215,672.52625 441.35715,671.60293 C 429.76754,667.27935 427.94439,667.99286 437.10715,673.26621 C 451.5281,681.56577 461.69813,684.76088 476.47171,685.63336 C 481.55951,685.93383 485.94011,686.39752 486.20637,686.66378 C 487.00378,687.46119 493.05873,687.18657 508.35715,685.65915 z M 511.35715,663.97908 C 514.38215,663.40595 520.14568,661.42673 524.16499,659.58081 C 546.05825,649.52602 561.94493,632.69827 571.92123,608.99564 C 577.21166,596.42613 581.44651,569.14694 578.10715,569.14846 C 557.67541,569.15773 550.64978,568.25186 504.9992,559.72198 C 484.07885,555.81299 473.81621,554.87931 465.73886,556.15016 C 445.9124,559.26954 428.21377,575.17259 419.55568,597.64789 C 418.92006,599.29789 417.441,601.83382 416.26889,603.28328 C 414.26067,605.76671 414.20603,606.3233 415.32139,612.93588 C 417.69194,626.99011 424.15115,636.48771 438.70937,647.32551 C 459.53684,662.83043 485.72903,668.83465 511.35715,663.97908 z M 401.75565,560.39789 C 402.66472,558.61039 403.18351,557.14789 402.90851,557.14789 C 402.33253,557.14789 399.35715,562.69171 399.35715,563.7649 C 399.35715,564.80902 399.89942,564.04779 401.75565,560.39789 z M 416.14675,542.39029 C 418.18747,540.32361 422.89103,536.41448 426.5991,533.70333 C 432.6872,529.25204 435.41497,525.87238 434.0341,524.49151 C 432.68878,523.14619 419.37429,532.97338 413.93887,539.32345 C 407.91522,546.36074 409.73297,548.88566 416.14675,542.39029 z M 574.85715,529.57941 C 578.15715,528.73393 582.17351,527.71689 583.78238,527.31933 C 585.39126,526.92176 586.89525,526.0336 587.12457,525.34563 C 587.44108,524.39611 586.49546,524.28185 583.19934,524.87133 C 574.1162,526.49576 551.49561,525.46451 538.85715,522.84981 C 521.80027,519.32101 507.49573,517.60931 506.16697,518.93807 C 504.90539,520.19965 507.22908,520.81971 531.85715,525.79331 C 540.02976,527.44375 562.72566,530.88307 566.35715,531.02141 C 567.73215,531.07379 571.55715,530.42489 574.85715,529.57941 z M 452.89888,520.12769 C 455.14823,519.0388 457.69486,518.14789 458.55806,518.14789 C 459.42127,518.14789 461.64169,517.4498 463.49234,516.59658 L 466.85715,515.04527 L 460.4674,515.59585 C 453.31141,516.21246 440.35715,519.76247 440.35715,521.1069 C 440.35715,523.68907 446.5391,523.20641 452.89888,520.12769 z M 584.35715,445.17582 C 584.35715,444.17091 580.27844,442.93521 564.85715,439.26801 C 554.24114,436.74351 552.03358,436.58627 554.60411,438.53772 C 555.56494,439.26714 559.83557,440.45998 564.09439,441.18847 C 568.35321,441.91697 574.31707,443.30666 577.34742,444.27667 C 583.90972,446.37726 584.35715,446.43466 584.35715,445.17582 z M 536.35715,435.30618 C 536.35715,434.21474 529.44253,432.14789 525.79113,432.14789 C 521.96409,432.14789 523.75974,433.81747 528.87442,435.01471 C 534.13419,436.24592 536.35715,436.33251 536.35715,435.30618 z M 540.54465,435.46478 C 539.82277,435.17591 538.96028,435.21143 538.62798,435.54372 C 538.29569,435.87602 538.88632,436.11236 539.94048,436.06894 C 541.10543,436.02096 541.34238,435.784 540.54465,435.46478 z M 573.35715,374.14789 C 571.36136,372.85811 566.06002,372.85811 566.85715,374.14789 C 567.19707,374.69789 569.13613,375.141 571.16617,375.13258 C 573.91741,375.12116 574.47524,374.87046 573.35715,374.14789 z M 543.85715,370.14789 C 543.51723,369.59789 540.36723,369.14789 536.85715,369.14789 C 533.34707,369.14789 530.19707,369.59789 529.85715,370.14789 C 529.46579,370.78113 532.0331,371.14789 536.85715,371.14789 C 541.6812,371.14789 544.24851,370.78113 543.85715,370.14789 z M 394.25146,388.51448 C 386.72699,386.32045 385.25693,379.14789 392.33171,379.14789 C 396.26702,379.14789 401.79329,383.16871 402.16096,386.29949 C 402.55296,389.63745 400.28289,390.27316 394.25146,388.51448 z M 403.09214,365.40755 C 401.23643,363.35701 400.5386,365.32946 410.70197,343.89789 C 415.08168,334.66236 417.74881,330.14789 418.82539,330.14789 C 419.76474,330.14789 421.20107,328.34491 422.29526,325.79226 C 423.32214,323.39667 424.91875,321.14636 425.84329,320.79158 C 426.76783,320.4368 427.37417,320.51693 427.19071,320.96965 C 421.6264,334.7006 406.77988,366.50698 405.77918,366.84055 C 405.19177,367.03635 403.9826,366.3915 403.09214,365.40755 z M 559.50039,311.25758 C 558.50248,310.62527 558.45139,310.20768 559.30722,309.67875 C 560.79873,308.75695 565.35715,309.87825 565.35715,311.16694 C 565.35715,312.37185 561.35664,312.43376 559.50039,311.25758 z"
         id="path5491" />
      <path
         style="fill:#6e6e6e"
         d="M 479.90913,742.11282 C 462.55231,740.13572 453.21069,737.31807 436.76017,729.09812 C 418.1123,719.7802 405.00755,708.30387 393.25752,691.00118 C 388.94032,684.64382 383.83428,674.33742 384.61507,673.55663 C 384.86982,673.30188 386.36207,674.7932 387.93118,676.87067 C 394.54674,685.62954 408.83888,699.14789 411.48355,699.14789 C 412.00429,699.14789 408.96997,695.21039 404.74063,690.39789 C 386.44335,669.57775 374.95833,646.16625 372.20026,624.06637 C 367.17572,583.80566 392.97752,534.76495 429.43282,515.28615 C 438.08958,510.66067 452.65655,505.62979 461.5912,504.17985 C 477.41854,501.61136 491.05796,502.99061 532.21938,511.32193 C 572.52686,519.48041 584.30706,518.54774 596.43446,506.23783 C 602.94718,499.62711 604.99946,494.05802 603.25334,487.73408 C 602.68025,485.65853 601.96876,484.20295 601.67225,484.49946 C 601.37574,484.79597 598.8168,483.7313 595.98571,482.13353 C 589.49796,478.47208 577.12164,475.19749 552.49608,470.62682 C 518.07859,464.23872 506.39065,460.3307 497.01147,452.07481 C 491.15615,446.92076 486.50963,440.27243 485.73839,435.9451 C 485.41518,434.13164 484.02397,429.28262 482.64681,425.16952 C 479.22941,414.96292 479.60971,401.53383 483.55854,392.97504 C 491.04938,376.7392 504.11317,366.22615 521.38078,362.5377 C 533.32846,359.98561 547.21146,361.1135 583.85715,367.61342 C 610.95463,372.41976 628.35715,366.56093 628.35715,352.63181 C 628.35715,348.39701 626.52028,344.2659 625.42518,346.03782 C 624.91172,346.8686 623.13226,346.47647 619.15696,344.65652 C 612.8452,341.7669 588.57033,335.35975 569.62949,331.58417 C 553.36549,328.34217 553.66724,328.44168 553.06006,326.11982 C 552.48083,323.90485 552.25128,323.80776 543.5286,322.08858 C 536.80629,320.76366 533.91462,318.97439 532.916,315.52186 C 532.45109,313.91451 532.81395,313.2617 534.40332,312.84607 C 535.55956,312.5437 536.74966,311.36292 537.04799,310.2221 C 537.61763,308.04381 540.36021,307.65176 545.33516,309.03746 C 547.60903,309.67082 547.81498,310.21114 547.83516,315.59642 C 547.85921,322.01527 549.65074,324.13609 551.32625,319.72917 C 551.86602,318.30947 552.73631,317.14789 553.26024,317.14789 C 553.78416,317.14789 558.4078,318.27176 563.53499,319.64537 C 568.66218,321.01898 574.10076,322.14398 575.62072,322.14537 C 577.14068,322.14676 579.27492,322.7041 580.36347,323.38391 C 582.95849,325.00453 587.70788,322.32627 588.19183,318.96938 C 588.3759,317.69256 588.86284,316.29595 589.27392,315.8658 C 590.15504,314.94379 611.69542,319.33984 619.56754,322.04825 C 631.88088,326.28466 638.61914,331.40985 643.21697,340.03626 C 649.78801,352.3648 648.07983,364.85649 637.85686,379.234 C 636.06336,381.75637 634.29087,384.78136 633.91799,385.95621 C 632.77623,389.55358 625.65002,394.77036 618.8108,397.01552 C 610.89056,399.61555 596.57177,399.87071 579.31561,397.71932 C 546.93934,393.68285 536.69744,392.93563 530.70362,394.17271 C 522.47617,395.87079 518.27334,398.28083 512.93271,404.36315 C 507.40103,410.66305 507.22638,413.48803 512.1636,416.80397 C 516.94062,420.01233 521.94706,421.38663 549.85715,427.15114 C 585.3304,434.47772 597.65666,437.67142 606.05931,441.71293 C 623.4895,450.09651 634.30217,468.81969 634.34237,490.68779 C 634.36151,501.09764 632.46296,508.33653 626.48473,520.64789 C 623.814,526.14789 620.82614,534.02289 619.84504,538.14789 C 618.86394,542.27289 617.47421,546.50496 616.75675,547.5525 C 614.6225,550.66861 616.59366,552.77888 622.26613,553.4507 C 629.04335,554.25337 641.24696,560.03979 644.62214,564.05097 C 647.71748,567.72957 647.9287,569.92699 645.73684,575.64789 C 644.89394,577.84789 643.36733,582.57289 642.34437,586.14789 C 634.48477,613.61521 625.72067,635.00222 616.52786,649.14789 C 609.83077,659.45322 595.72592,677.16899 589.69499,682.85014 C 588.40918,684.06138 587.35715,685.31471 587.35715,685.63532 C 587.35715,686.89192 591.70974,683.77068 598.55566,677.60486 C 602.49872,674.05353 606.09212,671.14789 606.541,671.14789 C 608.76227,671.14789 606.5187,674.89795 598.07643,685.29617 C 594.34703,689.88962 588.94703,697.23774 586.07643,701.62532 C 574.42736,719.43041 546.66923,736.29306 521.89794,740.61282 C 511.05917,742.50294 489.95312,743.25693 479.90913,742.11282 z M 507.35715,686.65331 C 525.64628,684.77378 529.43199,683.72752 542.90764,676.82818 C 554.52577,670.87987 566.36285,662.06275 575.59692,652.47884 C 591.05647,636.4336 599.18521,623.31675 605.85833,603.64789 C 607.91093,597.59789 610.02004,592.11301 610.54524,591.45927 C 612.01866,589.62524 615.35715,572.46006 615.35715,566.71834 C 615.35715,562.77642 615.83404,561.18404 617.42171,559.82464 C 620.77651,556.95217 619.51843,554.59246 614.82178,554.9481 C 610.36872,555.2853 608.35715,557.23482 608.35715,561.21329 C 608.35715,562.68902 607.66193,565.86551 606.81222,568.27216 C 605.96251,570.67881 604.42618,576.49962 603.39816,581.20729 C 601.64578,589.23208 597.67674,600.78926 593.11578,611.14789 C 589.90076,618.4497 572.19163,641.22451 564.19373,648.34307 C 553.32052,658.02083 539.81373,668.02066 534.52167,670.31096 C 522.08743,675.69226 510.51076,678.93102 499.81108,680.0218 C 484.80206,681.55189 474.12146,681.44795 470.14108,679.73305 C 468.33492,678.95489 461.16332,676.50202 454.20419,674.28223 C 447.24506,672.06244 439.17334,669.09912 436.26704,667.69707 C 433.36073,666.29502 430.39206,665.14789 429.67,665.14789 C 428.94793,665.14789 428.35715,664.70945 428.35715,664.17357 C 428.35715,662.78829 422.54907,659.96097 420.54002,660.36826 C 419.28047,660.62361 420.24064,662.03582 424.35715,665.98244 C 431.35734,672.69372 448.10369,681.06282 461.73099,684.66025 C 467.16161,686.09387 472.11161,687.07282 472.73099,686.8357 C 473.35038,686.59858 476.78215,686.73525 480.35715,687.13941 C 490.38114,688.27263 491.85878,688.24603 507.35715,686.65331 z M 517.97692,662.95886 C 530.2383,658.61906 540.85223,651.64521 551.93336,640.64789 C 561.48358,631.16992 562.35659,629.94316 568.65702,617.14789 C 575.43621,603.38032 578.00469,594.32477 579.89805,577.51602 C 580.97171,567.98437 580.93085,567.95684 565.25139,567.64909 C 554.29141,567.43398 547.31366,566.53597 526.85715,562.70792 C 471.61985,552.37129 466.95096,552.21929 450.57949,560.22458 C 440.88599,564.9645 430.88246,574.31956 425.43902,583.73537 C 423.55905,586.98726 421.16494,590.99789 420.11878,592.64789 L 418.21666,595.64789 L 418.86735,590.77004 C 419.22523,588.08722 419.77073,585.16222 420.07957,584.27004 C 420.59249,582.78828 420.48986,582.78993 418.89371,584.28902 C 417.93264,585.19164 416.07996,590.03576 414.77663,595.05373 C 412.52659,603.71663 412.47653,604.5759 413.78508,612.07149 C 416.00606,624.79358 419.36959,630.99537 428.98446,640.09664 C 442.62392,653.00752 455.43013,659.89198 473.85715,664.21962 C 485.98005,667.06672 508.16172,666.43286 517.97692,662.95886 z M 392.57461,608.2041 C 392.62386,606.47203 392.20213,604.59287 391.63744,604.02818 C 390.10152,602.49226 389.06979,607.74243 390.41397,610.25406 C 391.80417,612.85167 392.46017,612.22928 392.57461,608.2041 z M 391.7698,594.89789 C 392.15761,592.75283 392.04722,591.14789 391.51187,591.14789 C 390.54135,591.14789 389.39254,597.84995 390.22105,598.67846 C 390.89689,599.3543 391.01722,599.06058 391.7698,594.89789 z M 395.71815,577.09287 C 396.04927,575.43729 399.12108,568.88782 402.54439,562.53851 C 409.21324,550.1696 415.70122,542.81497 428.01785,533.66233 C 433.49421,529.59278 436.58653,525.04394 434.97333,523.43074 C 434.70869,523.1661 432.11496,524.2317 429.20948,525.79873 C 418.25162,531.70873 405.15793,547.64198 397.33882,564.58102 C 393.72132,572.41782 391.23942,580.14838 391.96433,581.32131 C 392.89134,582.82125 395.06135,580.37687 395.71815,577.09287 z M 579.35715,529.45647 C 587.40042,527.48507 589.35715,526.51506 589.35715,524.49916 C 589.35715,523.16167 588.63226,523.05259 584.60715,523.78435 C 581.99465,524.2593 573.33215,524.63467 565.35715,524.61852 C 554.03241,524.59557 548.77681,524.10674 541.35715,522.38622 C 524.92879,518.5767 500.18259,516.00328 498.96246,517.97749 C 498.23569,519.15344 505.51197,521.52484 513.35715,522.66883 C 515.83215,523.02974 520.10715,523.95484 522.85715,524.72461 C 530.74598,526.93282 537.80879,528.19412 552.85715,530.08208 C 567.80155,531.957 569.29927,531.92165 579.35715,529.45647 z M 450.6866,521.75118 C 459.01983,518.51445 470.85117,515.80408 473.61685,516.49822 C 474.85815,516.80977 476.46534,516.69906 477.18837,516.2522 C 478.70658,515.3139 471.64098,514.14649 464.46758,514.15041 C 459.76817,514.15298 442.96999,518.21436 439.10634,520.28212 C 437.06164,521.37641 437.11536,521.47421 440.41566,522.66624 C 442.30848,523.34991 444.0054,523.96296 444.1866,524.02858 C 444.36779,524.0942 447.29279,523.06937 450.6866,521.75118 z M 491.24225,518.24006 C 493.65265,516.71353 488.96395,515.02722 484.35726,515.76386 C 479.63767,516.51856 479.83568,517.16836 485.09611,518.18851 C 487.16468,518.58967 489.08215,518.96275 489.35715,519.01758 C 489.63215,519.07241 490.48044,518.72252 491.24225,518.24006 z M 600.35715,450.67357 C 600.35715,449.80284 594.48245,447.14789 592.55575,447.14789 C 591.51035,447.14789 588.48551,445.99434 585.83387,444.58445 C 580.7447,441.87852 560.18915,436.85226 549.54583,435.71129 C 546.07461,435.33916 539.81513,434.16017 535.63587,433.0913 C 527.47989,431.00535 521.81307,430.60117 520.92265,432.04191 C 519.9212,433.66229 528.15576,436.10039 539.59717,437.57107 C 554.54173,439.49205 593.14869,448.60609 595.25232,450.70973 C 595.84478,451.30219 600.35715,451.27023 600.35715,450.67357 z M 601.35715,378.20691 C 601.35715,376.55557 599.80465,376.19299 590.22906,375.60796 C 585.07451,375.29303 578.60715,374.42351 575.85715,373.67568 C 569.05716,371.8265 555.35715,370.76489 555.35715,372.08714 C 555.35715,372.64959 556.59465,373.36875 558.10715,373.68526 C 559.61965,374.00178 562.65715,374.70891 564.85715,375.25666 C 575.17713,377.82613 601.35715,379.94223 601.35715,378.20691 z M 554.13243,371.97374 C 553.19457,369.16016 529.23865,366.93306 526.74416,369.42755 C 524.79705,371.37466 526.57607,371.63224 551.19048,372.96712 C 553.35936,373.08474 554.38709,372.73772 554.13243,371.97374 z M 609.35715,325.19489 C 609.35715,323.97057 602.86088,322.16068 598.44048,322.15347 C 593.98086,322.14619 594.73994,322.75924 601.4107,324.5523 C 608.00826,326.32568 609.35715,326.43476 609.35715,325.19489 z M 392.85715,387.01838 C 387.92406,384.25797 387.53892,380.14502 392.21414,380.15163 C 395.93937,380.1569 401.57166,383.78868 401.16713,385.92465 C 400.77367,388.00218 395.78796,388.65838 392.85715,387.01838 z"
         id="path5489" />
      <path
         style="fill:#4e4e4e"
         d="M 472.85715,738.67873 C 449.18596,735.02292 426.67857,724.03449 409.48479,707.73943 C 403.90195,702.44841 392.35715,687.75068 392.35715,685.93417 C 392.35715,685.36187 395.65452,688.02581 399.68464,691.85403 C 408.84772,700.55806 413.76678,703.9518 425.5337,709.68774 C 435.63297,714.61076 453.26299,720.52077 456.09855,719.93383 C 457.09221,719.72815 454.59487,718.3162 450.35715,716.68775 C 446.23215,715.10261 441.28215,712.92744 439.35715,711.85403 C 423.88509,703.22659 419.06295,700.11652 413.59166,695.2364 C 399.25876,682.45215 385.38404,661.68388 378.07476,642.0732 C 364.91403,606.7632 377.18197,563.13053 409.26488,531.14106 C 419.19324,521.24162 429.55242,514.92823 445.16602,509.26115 L 457.85715,504.65481 L 477.85715,504.71476 L 497.85715,504.77472 L 528.68187,510.9613 C 563.59593,517.96863 572.33447,518.64055 583.50181,515.1765 C 591.24801,512.77367 599.17528,506.22076 602.40377,499.55159 C 604.32146,495.59018 604.55491,493.8636 604.08999,487.08056 C 603.17737,473.76578 598.91027,468.36917 587.54547,466.15668 C 584.41689,465.54761 580.61965,464.81071 579.10715,464.51913 C 577.47812,464.20508 576.35715,464.42899 576.35715,465.06843 C 576.35715,465.66214 577.04329,466.14789 577.8819,466.14789 C 578.72051,466.14789 579.81776,467.22918 580.32022,468.55075 C 580.82268,469.87232 581.71154,471.24888 582.29547,471.60977 C 584.06266,472.70195 583.48815,474.14789 581.28701,474.14789 C 580.14844,474.14789 569.01094,472.34472 556.53701,470.14085 C 517.78729,463.29462 506.55715,459.65315 496.69215,450.73563 C 491.92474,446.4261 487.42658,440.14789 489.10633,440.14789 C 489.58058,440.14789 491.48629,441.26761 493.34126,442.63617 C 498.37085,446.34688 498.25425,444.81437 493.08666,439.2898 C 483.76032,429.31919 479.39281,415.82598 481.41914,403.24362 C 482.73454,395.07568 484.33472,391.33468 489.77271,383.71401 C 494.83041,376.62628 500.67635,371.52253 507.85715,367.92552 C 523.28472,360.19755 536.07686,360.05939 577.35715,367.1749 C 600.50521,371.16494 610.1479,371.01434 619.06059,366.52355 C 622.19955,364.94194 625.63823,362.44391 626.70211,360.97238 C 629.38285,357.26443 630.02039,349.33113 627.95812,345.34314 C 626.06256,341.67753 624.28093,340.56802 618.83874,339.66405 L 614.85715,339.00269 L 617.35715,341.05252 L 619.85715,343.10234 L 612.85715,341.10996 C 609.00715,340.01414 601.80715,338.17087 596.85715,337.01379 C 591.90715,335.85672 587.2519,334.58423 586.51216,334.18604 C 584.50503,333.10565 584.1826,324.34495 586.11027,323.26618 C 587.78957,322.32639 587.79011,322.32646 597.85234,324.70835 C 601.69969,325.61908 606.87469,326.52793 609.35234,326.72802 C 611.82999,326.9281 615.43215,327.35096 617.35715,327.6677 C 620.8513,328.24264 620.85297,328.24107 618.35715,326.73118 C 616.98215,325.89935 615.13879,325.20281 614.26079,325.18333 C 613.38279,325.16384 611.32431,324.47935 609.68639,323.66225 C 608.04847,322.84515 603.14888,321.68153 598.79841,321.07644 C 589.87139,319.8348 589.35715,319.63866 589.35715,317.47533 C 589.35715,315.58275 593.1817,316.02778 607.35715,319.56982 C 628.16299,324.7686 634.84223,328.82381 639.86634,339.30736 C 642.82043,345.47153 643.13608,347.02408 643.22489,355.82694 C 643.30864,364.12899 642.96841,366.31725 640.887,370.86366 C 637.85638,377.4834 629.58919,385.77418 622.40552,389.39789 C 618.73841,391.24772 617.67457,392.14789 619.15552,392.14789 C 622.43723,392.14789 621.82334,393.55516 617.67964,395.53115 C 613.47511,397.53615 601.52362,399.11236 595.16269,398.50077 C 592.79464,398.27309 580.62742,396.97555 568.12441,395.61735 C 531.99004,391.69207 525.09799,392.34981 514.84354,400.70218 C 510.57143,404.18186 509.35715,404.77495 509.35715,403.3819 C 509.35715,402.39795 510.07805,400.56367 510.95915,399.30573 C 511.84025,398.04778 512.32343,396.78084 512.03289,396.49029 C 511.28785,395.74526 508.77749,400.86473 507.42784,405.88153 C 506.48601,409.38238 506.56282,410.64493 507.87156,413.17575 C 510.9313,419.09264 516.42188,421.0292 548.85715,427.63168 C 590.66671,436.14236 600.7851,439.05775 610.71672,445.45511 C 614.29672,447.76114 618.36397,451.22289 619.75504,453.14789 C 624.41472,459.59606 629.2548,469.86224 631.2794,477.59196 C 635.22667,492.66217 631.12758,511.48876 620.93726,525.09217 C 619.5182,526.98652 618.35715,529.08776 618.35715,529.76158 C 618.35715,530.43541 616.0203,533.5436 613.16414,536.66869 C 610.30799,539.79378 607.89105,543.09254 607.79317,543.99928 C 607.69529,544.90602 607.30868,546.37108 606.93403,547.25497 C 606.43866,548.4237 607.08536,549.20688 609.305,550.12629 C 612.92422,551.62542 612.97499,551.82701 610.28241,554.00732 C 608.23634,555.66414 606.66245,560.81672 602.39811,579.81884 C 598.66406,596.45796 591.91049,612.99615 585.3429,621.58378 C 582.79218,624.91904 578.99486,629.89789 576.9044,632.64789 C 570.32382,641.30468 560.24428,651.00347 548.75754,659.73153 C 538.97294,667.16624 536.12957,668.73959 524.75754,673.0117 C 515.43025,676.51567 509.50285,678.10585 503.35715,678.75293 C 491.24114,680.02862 473.60158,679.79232 472.14406,678.3348 C 471.49126,677.682 469.94994,677.14789 468.7189,677.14789 C 461.89658,677.14789 442.45244,669.13062 424.95548,659.1032 C 421.15956,656.92778 417.44706,655.14789 416.70548,655.14789 C 413.01166,655.14789 417.17334,662.16708 424.47868,668.25839 C 437.96522,679.50367 460.59515,687.45349 482.35715,688.59092 C 494.88893,689.24591 516.49485,687.31893 526.79258,684.62782 C 539.8739,681.20927 561.35859,668.1371 574.17059,655.80108 C 579.85505,650.32781 592.22288,634.94185 595.99739,628.64789 C 599.39284,622.98599 606.18815,607.385 608.84667,599.14789 C 609.82298,596.12289 611.05867,593.09584 611.59264,592.42111 C 612.86725,590.81051 616.29862,575.56586 616.33148,571.36776 C 616.35595,568.24062 620.58919,556.6488 622.4015,554.74629 C 623.60778,553.47996 637.65708,558.76975 640.78385,561.66753 C 643.64285,564.31717 643.59973,565.58097 640.25196,577.2557 C 639.20982,580.89 638.35715,584.57927 638.35715,585.45408 C 638.35715,586.87222 636.88469,592.01244 631.71311,608.64789 C 623.40006,635.38849 609.7388,657.56462 589.1322,677.7689 C 572.50346,694.07299 563.47693,701.22978 549.45836,709.22477 C 543.37887,712.69199 538.5665,715.69058 538.76422,715.8883 C 539.50567,716.62975 551.92332,711.88361 560.46213,707.59517 C 565.33241,705.14916 569.85462,703.14789 570.51148,703.14789 C 572.34161,703.14789 567.78119,707.63805 557.85715,715.60727 C 545.39703,725.61301 536.82179,730.95973 530.35715,732.75371 C 527.33215,733.59316 523.73215,734.70467 522.35715,735.22373 C 512.51389,738.93954 486.364,740.76475 472.85715,738.67873 z M 509.9908,665.65367 C 531.85918,661.46956 556.56214,642.53029 567.59384,621.49057 C 570.19902,616.52196 573.40847,609.57474 574.72594,606.05231 C 577.83589,597.7375 580.54525,581.31625 580.16048,573.11396 L 579.85715,566.64789 L 572.07225,566.9675 C 562.03561,567.37955 550.99459,566.02546 523.85715,561.0543 C 511.75715,558.83777 497.80715,556.33254 492.85715,555.48712 C 480.77128,553.42296 466.27132,553.40409 459.58706,555.44383 C 447.0785,559.26088 435.21915,567.93338 426.68026,579.5079 C 424.30255,582.7309 422.35715,584.74321 422.35715,583.97969 C 422.35715,581.74198 429.20136,568.1036 432.92614,562.91898 C 437.94813,555.92874 435.67767,557.10118 429.09392,564.89789 C 421.18206,574.26741 416.04063,583.26887 413.31039,592.53121 C 411.17015,599.79199 411.07321,601.09497 412.08281,609.03121 C 412.6857,613.77038 414.11264,620.12289 415.25377,623.14789 C 420.60228,637.32608 441.79675,654.84033 461.85715,661.65903 C 477.27373,666.89926 495.5523,668.41621 509.9908,665.65367 z M 403.35715,637.58887 C 403.35715,637.34633 402.90715,637.14789 402.35715,637.14789 C 401.80715,637.14789 401.35715,637.62445 401.35715,638.20691 C 401.35715,638.78937 401.80715,638.98781 402.35715,638.64789 C 402.90715,638.30797 403.35715,637.83141 403.35715,637.58887 z M 399.35715,634.04312 C 399.35715,632.88549 398.33906,629.84799 397.09474,627.29312 C 394.97355,622.93786 394.8331,621.39941 394.84474,602.64789 C 394.85866,580.20877 394.52762,581.66335 403.93055,562.72558 C 409.49697,551.51466 416.7587,542.93978 427.08526,535.38377 C 430.94465,532.55983 434.22684,529.23489 435.21525,527.14789 C 436.85991,523.67522 436.92413,523.64774 443.43863,523.62846 C 448.15258,523.61452 450.81266,523.07945 452.87013,521.73134 C 454.44628,520.69861 459.06892,519.27484 463.14266,518.56743 C 469.62373,517.44196 472.4434,517.52173 485.7033,519.20566 C 503.74007,521.49623 513.09567,523.14985 527.85346,526.65582 C 541.3227,529.85566 562.76532,532.46857 570.85715,531.89607 C 579.44808,531.28826 587.18647,528.66277 592.24812,524.63853 L 596.6391,521.14751 L 591.74812,521.71487 C 589.05809,522.02692 584.60715,522.78163 581.85715,523.392 C 573.39359,525.27052 554.80858,524.50094 542.64557,521.76831 C 528.68871,518.63266 497.28457,515.1092 468.85715,513.48946 C 451.62397,512.50755 430.22399,521.46479 415.91787,535.64789 C 403.99105,547.47214 390.35715,572.30722 390.35715,582.20847 C 390.35715,584.30354 389.92551,587.15299 389.39795,588.54059 C 388.87038,589.92818 388.35248,595.7091 388.24705,601.38707 C 388.04475,612.28185 389.88392,620.87654 394.66902,631.39789 C 396.90976,636.32479 399.35715,637.7057 399.35715,634.04312 z M 607.35715,455.1581 C 607.35715,453.33542 596.91416,447.25079 591.8733,446.1364 C 589.13219,445.53041 586.20719,444.43361 585.3733,443.69906 C 582.64386,441.29475 567.19538,437.46159 547.23708,434.23649 C 540.29605,433.11488 533.40425,431.7361 531.92199,431.17254 C 530.43972,430.60898 525.76875,430.14957 521.54205,430.15163 L 513.85715,430.15537 L 517.01425,432.08043 C 522.05967,435.15692 528.60135,437.01653 538.56779,438.20747 C 556.35583,440.33305 589.04459,448.5096 599.49438,453.44723 C 605.38762,456.23185 607.35715,456.6604 607.35715,455.1581 z M 608.04205,379.04491 C 610.63947,378.02721 610.7025,377.88302 608.85715,377.18009 C 607.75715,376.76108 602.13215,375.87594 596.35715,375.21312 C 590.58215,374.5503 581.80715,373.39819 576.85715,372.65287 C 571.90715,371.90756 565.38215,371.02341 562.35715,370.6881 C 559.33215,370.35279 552.41435,369.34061 546.98427,368.43881 C 538.53343,367.03535 536.01281,366.98098 529.48427,368.06133 C 522.57194,369.2052 519.26105,370.46247 520.42382,371.50194 C 520.66215,371.715 528.47617,372.41042 537.7883,373.04731 C 547.10043,373.68421 558.12543,374.91478 562.2883,375.78191 C 580.04186,379.47998 602.79088,381.10237 608.04205,379.04491 z M 393.21793,385.21887 C 391.43259,383.76005 391.1373,383.00459 392.00649,382.11954 C 393.3307,380.77115 396.648,381.58159 398.86042,383.79402 C 402.22612,387.15972 397.15912,388.43925 393.21793,385.21887 z M 562.50639,329.10386 C 554.09899,327.01748 551.67934,325.53479 558.35715,326.56133 C 571.5794,328.5939 571.95868,328.60178 570.48471,326.81324 C 569.72986,325.8973 567.89752,325.14789 566.41284,325.14789 C 563.43861,325.14789 554.4073,322.3842 552.90715,321.01498 C 552.30786,320.46799 552.31628,319.78876 552.92995,319.17509 C 553.56036,318.54468 556.90703,319.10824 562.43834,320.77625 C 571.35914,323.46638 577.05028,326.81896 574.45576,327.85557 C 573.4287,328.26592 573.69581,328.77095 575.45576,329.74625 C 577.76914,331.02825 577.71055,331.07429 573.85715,331.00252 C 571.65715,330.96154 566.54931,330.10715 562.50639,329.10386 z M 537.99201,318.07531 C 536.54284,316.93539 535.37212,315.47289 535.39042,314.82531 C 535.45113,312.67657 539.14473,309.14789 541.33318,309.14789 C 546.50633,309.14789 548.29441,312.04863 546.72686,317.89789 C 545.94074,320.83132 541.60759,320.91933 537.99201,318.07531 z"
         id="path5487" />
      <path
         style="fill:#2e2e2e"
         d="M 470.35715,729.18431 C 457.09562,727.05658 452.4056,725.73454 444.60715,721.92581 C 438.58752,718.98585 436.46325,717.34207 440.10715,718.44368 C 471.07591,727.80598 500.2679,728.79532 532.85715,721.58704 C 533.95715,721.34374 532.83215,722.07702 530.35715,723.21655 C 523.52304,726.3631 510.93614,729.07013 500.35715,729.66857 C 495.13215,729.96414 488.60715,730.35514 485.85715,730.53747 C 483.10715,730.7198 476.13215,730.11088 470.35715,729.18431 z M 478.85715,719.45669 C 470.46368,718.73235 454.60066,714.83068 448.54699,712.0016 C 445.0764,710.37967 441.20725,708.6612 439.94886,708.18276 C 438.69048,707.70432 433.20505,704.4198 427.75902,700.88382 C 405.83159,686.64685 389.13896,665.52905 379.13137,639.36514 L 375.03206,628.64789 L 374.95699,613.14789 C 374.87635,596.49699 376.22319,588.05541 380.97442,575.43256 C 386.02937,562.00279 391.65616,552.84268 403.34632,539.01233 C 415.91304,524.14493 427.62579,516.19674 446.85715,509.4862 L 457.85715,505.64789 L 478.35715,505.69434 L 498.85715,505.74079 L 529.55023,511.94434 C 562.73759,518.65202 571.11596,519.4036 581.7697,516.62865 C 595.23917,513.1203 605.32446,501.53079 605.34738,489.53438 C 605.35275,486.72195 604.90288,481.99695 604.34766,479.03438 C 602.01601,466.59306 596.03381,463.71138 562.85715,459.04795 C 533.48702,454.91958 511.84251,450.19899 505.6384,446.56875 C 497.88387,442.0313 489.97953,433.77208 486.43572,426.50393 C 482.54706,418.52852 481.37067,411.4695 482.52436,403.03352 C 484.93193,385.42896 499.84724,369.40568 518.3818,364.51244 C 530.73289,361.25167 543.4383,362.1647 583.35715,369.18165 C 592.86299,370.85258 598.18006,371.25476 605.55482,370.86066 C 614.957,370.35821 616.99413,369.75793 627.60715,364.36251 C 628.01965,364.1528 628.35715,365.6526 628.35715,367.6954 C 628.35715,371.3921 628.37387,371.40686 631.90941,370.83312 C 636.22358,370.13303 637.16629,371.68251 634.98845,375.89398 C 631.57366,382.49745 617.32003,389.72209 605.03455,391.07652 C 598.17674,391.83256 589.15812,391.19714 548.01591,387.05916 C 537.56543,386.00808 535.06199,386.07764 526.70099,387.65145 C 521.31007,388.6662 515.88022,390.34256 514.10151,391.5413 C 507.20901,396.18642 503.47664,410.29708 507.85715,415.14888 C 512.5594,420.35704 526.36278,424.47664 561.35715,431.11587 C 584.7453,435.55313 602.6662,441.51694 606.99922,446.30487 C 607.91657,447.31853 609.66169,448.14789 610.87728,448.14789 C 614.01172,448.14789 618.02889,451.61991 618.66527,454.87901 C 618.96263,456.40189 620.16291,460.28743 621.33257,463.51352 C 622.50222,466.73962 623.17091,469.66462 622.81855,470.01352 C 621.99262,470.83133 617.57851,465.52896 615.85433,461.64789 C 613.18204,455.63265 600.54023,446.61682 593.35715,445.60346 C 590.88215,445.25429 587.73215,444.18001 586.35715,443.21615 C 582.24981,440.33698 576.19041,438.65046 555.35715,434.58789 C 532.32058,430.09567 527.1145,429.22557 519.60715,428.61295 C 512.70954,428.05009 511.35715,428.18073 511.35715,429.40992 C 511.35715,432.16387 524.63591,437.10043 536.19763,438.6447 C 562.23994,442.12313 592.42654,450.03894 602.25382,455.96659 C 609.60089,460.39821 614.35715,465.48374 614.35715,468.9078 C 614.35715,472.55928 615.80645,473.88176 620.28415,474.31619 C 624.83029,474.75725 625.46372,476.91752 621.16785,477.33 L 617.85715,477.64789 L 617.67721,484.64789 C 617.57825,488.49789 617.35325,492.53065 617.17721,493.60958 C 616.68945,496.59911 619.80298,496.65958 621.15743,493.68688 C 621.79369,492.29044 622.77392,491.14789 623.33571,491.14789 C 624.38624,491.14789 624.53106,491.64983 624.8653,496.44951 C 624.9726,497.99041 625.57717,499.76791 626.20877,500.39951 C 632.48845,506.67919 615.60739,532.89814 596.46925,546.58972 C 594.20759,548.20772 592.35948,549.78272 592.36233,550.08972 C 592.36517,550.39671 595.5067,550.66192 599.34349,550.67906 C 603.18029,550.6962 606.75257,551.1462 607.2819,551.67906 C 607.89897,552.30025 607.56579,554.80086 606.35337,558.64789 C 602.81336,569.88046 600.42418,578.64006 599.80738,582.64789 C 597.99353,594.4339 589.06432,614.70626 581.25416,624.77006 C 566.91387,643.24828 546.50799,662.03864 534.64684,667.68752 C 514.20243,677.42418 485.25546,681.59869 472.35715,676.67048 C 470.43215,675.93497 465.37558,674.56531 461.12034,673.62679 C 449.64843,671.0966 437.4127,664.84056 418.35715,651.76229 C 411.95542,647.36863 410.34462,645.64539 407.35715,639.99443 C 405.43215,636.3532 402.37218,630.96063 400.55721,628.01095 C 397.37277,622.83559 397.28289,622.40289 397.98916,615.64789 C 398.78241,608.06101 398.78062,607.53051 397.92179,595.64789 C 397.60278,591.23414 397.83211,585.26832 398.43335,582.33969 C 399.75119,575.92052 407.39021,558.39202 411.33369,552.73857 C 414.52668,548.16103 423.63971,539.18039 430.13957,534.20591 C 432.4949,532.40332 435.03832,529.45339 435.79162,527.65049 C 437.15051,524.3982 437.21232,524.37358 443.67505,524.5102 C 448.85305,524.61965 450.77006,524.21975 453.023,522.56014 C 455.81747,520.50161 464.45259,518.73761 471.35715,518.81479 C 480.74599,518.91974 514.61364,524.16721 527.85715,527.56892 C 542.29262,531.27679 569.52216,533.94565 576.97264,532.3829 C 587.50528,530.17365 600.35715,523.0187 600.35715,519.36417 C 600.35715,517.61197 597.08953,518.01761 586.35715,521.10213 C 575.46638,524.23217 556.64982,524.08487 542.85715,520.76161 C 537.35715,519.43642 529.93215,518.05202 526.35715,517.68517 C 522.78215,517.31831 517.28709,516.58071 514.14591,516.04605 C 511.00473,515.51139 501.77973,514.61768 493.64591,514.06002 C 485.51209,513.50237 475.10518,512.7855 470.51944,512.46699 C 453.55132,511.28844 431.96299,519.59066 417.37518,532.90468 C 406.85082,542.51006 395.43077,560.3077 390.5902,574.64789 C 386.3286,587.27286 385.02463,607.51853 387.69186,619.64789 C 389.38371,627.34165 393.74731,637.69104 395.8033,638.88624 C 396.52391,639.30515 398.31788,641.44789 399.78991,643.64789 C 401.26193,645.84789 404.12925,649.3085 406.16173,651.33813 C 410.55764,655.72788 413.14967,658.62975 415.85715,662.19248 C 421.51745,669.64078 438.11054,680.03221 450.53722,683.9109 C 466.41449,688.8666 494.80971,692.44712 500.64355,690.2291 C 502.12615,689.66542 505.93074,688.9964 509.09817,688.74241 C 534.06616,686.74025 560.82138,672.97644 579.34201,652.60654 C 588.12498,642.9466 592.82685,636.88924 596.78675,630.1327 C 600.22671,624.2633 609.54946,603.72822 610.85359,599.14789 C 611.24509,597.77289 612.19213,595.65338 612.95814,594.43786 C 614.1653,592.52231 615.42201,587.58758 620.35019,565.41159 C 621.70338,559.32244 624.08733,555.10712 625.80504,555.76627 C 628.7141,556.88258 630.60144,561.21874 629.95039,565.29019 C 629.50366,568.08384 629.80487,569.90156 631.02241,571.75977 C 632.41466,573.88461 632.49585,574.69616 631.47902,576.32435 C 630.52457,577.85267 630.51242,578.63005 631.42577,579.73057 C 635.42735,584.55217 630.25146,606.82988 619.84267,629.58584 C 615.50735,639.06381 601.14904,660.0522 593.71648,667.77602 C 582.01849,679.93243 564.02955,694.83092 548.35715,705.34273 C 534.05616,714.93472 518.62044,719.15421 496.35715,719.55739 C 488.93215,719.69186 481.05715,719.64654 478.85715,719.45669 z M 516.35715,665.12879 C 531.22161,660.92293 550.95373,647.10888 560.79733,634.01715 C 566.08254,626.98797 572.94185,613.91847 576.21131,604.64789 C 580.36808,592.86132 582.61979,571.0132 580.22048,565.74728 C 579.24025,563.5959 578.65533,563.34858 575.97048,563.95022 C 569.82444,565.32749 549.00792,564.46054 537.35715,562.34208 C 531.03215,561.19201 517.30715,558.69013 506.85715,556.78236 C 496.40715,554.87458 484.03215,553.01459 479.35715,552.64904 C 464.42818,551.4817 449.6622,556.09049 438.01104,565.55405 C 430.38509,571.74818 429.78987,571.92953 432.41479,567.25912 C 435.48256,561.80076 445.6898,552.04152 451.37733,549.12884 C 459.85294,544.78835 467.8298,543.40111 481.93516,543.8146 C 489.04225,544.02293 498.00715,544.83643 501.85715,545.62236 C 505.70715,546.4083 512.00715,547.28483 515.85715,547.57021 L 522.85715,548.0891 L 515.85715,546.68378 C 496.32592,542.76269 487.98964,541.65923 477.85715,541.6538 C 464.3617,541.64656 456.31621,543.31222 445.70491,548.31027 C 439.02368,551.45722 436.27785,553.51514 430.4877,559.71518 C 419.5386,571.43937 414.90184,579.10974 411.86567,590.52069 C 409.44495,599.61862 409.34446,600.8428 410.39268,608.46628 C 412.47703,623.62548 415.27526,629.5952 425.06299,639.76382 C 438.83602,654.07283 455.91018,662.64273 480.35715,667.51717 C 486.39182,668.72042 508.95373,667.22357 516.35715,665.12879 z M 612.15715,508.94789 C 613.69385,507.41119 613.71922,504.86053 612.19273,505.36936 C 611.5523,505.58284 610.37242,506.74534 609.57076,507.9527 C 608.32178,509.83376 608.31669,510.14789 609.53518,510.14789 C 610.31726,510.14789 611.49715,509.60789 612.15715,508.94789 z M 610.35715,379.39634 C 612.28215,378.43469 613.85715,377.19789 613.85715,376.64789 C 613.85715,376.09789 612.28215,375.53373 610.35715,375.39421 C 600.57553,374.68522 561.02493,369.65362 544.69041,367.04012 C 532.75779,365.13093 516.35715,368.34207 516.35715,372.58761 C 516.35715,374.60969 518.06665,374.89204 524.30834,373.90089 C 530.59066,372.9033 549.48878,374.40354 561.28708,376.83648 C 581.66217,381.03806 604.66832,382.23823 610.35715,379.39634 z M 622.80396,488.86986 C 622.01686,486.81874 622.87763,484.14789 624.32577,484.14789 C 625.60471,484.14789 625.64678,487.14149 624.39563,489.11986 C 623.59819,490.38082 623.37001,490.34498 622.80396,488.86986 z M 526.15156,462.18511 C 511.81987,459.11819 502.64941,455.12226 497.35715,449.63823 L 493.85715,446.01141 L 500.22052,449.01328 C 503.72037,450.66431 513.39537,453.67027 521.72052,455.69321 C 539.56219,460.02856 541.94984,461.01711 540.1235,463.31248 C 538.97369,464.75758 537.68785,464.65382 526.15156,462.18511 z M 516.79606,395.21045 C 522.92713,388.93166 524.06364,388.71241 543.64709,390.0305 C 566.85525,391.59256 567.03056,391.60917 581.85715,393.64947 C 594.40467,395.37615 600.92516,397.05079 595.35715,397.11664 C 593.98215,397.1329 581.83215,396.02197 568.35715,394.64789 C 533.81123,391.12517 527.06488,391.4572 517.88274,397.13207 C 512.91395,400.20296 512.5498,399.55902 516.79606,395.21045 z M 629.94499,354.39789 C 630.41017,347.53401 630.20333,346.19054 628.1359,342.64789 C 625.93176,338.87099 625.32901,338.53048 617.32936,336.54282 C 612.66964,335.38503 604.94639,333.69656 600.16658,332.79066 C 588.11622,330.50681 586.35715,329.72749 586.35715,326.67264 C 586.35715,324.63863 586.84864,324.14789 588.88572,324.14789 C 591.13786,324.14789 609.5976,327.69737 619.6348,330.06038 C 622.53832,330.74395 623.75459,330.6076 624.89106,329.47113 C 626.19588,328.16631 626.7744,328.24265 629.813,330.12061 C 633.87288,332.62975 636.92747,337.23536 637.85639,342.24817 C 638.93369,348.0617 633.9832,362.14789 630.86277,362.14789 C 629.68436,362.14789 629.51607,360.72676 629.94499,354.39789 z M 595.35715,319.42703 C 593.98215,319.18036 592.40715,318.51923 591.85715,317.95786 C 591.1784,317.26508 591.98153,317.16852 594.35715,317.6573 C 598.33845,318.47645 601.97293,320.16575 599.35715,319.9813 C 598.53215,319.92312 596.73215,319.6737 595.35715,319.42703 z M 540.04772,316.4259 C 538.07589,316.12949 537.33299,315.50335 537.55591,314.32573 C 537.97885,312.0915 543.59877,311.52918 545.27841,313.55302 C 546.65183,315.20788 545.92807,317.23456 544.04813,316.99806 C 543.39309,316.91565 541.59291,316.65818 540.04772,316.4259 z"
         id="path5485" />
      <path
         style="fill:#000000"
         d="M 478.85715,713.99014 C 462.37905,710.61906 452.18083,707.55853 442.81325,703.17322 C 416.27027,690.74747 397.51953,673.41284 387.57954,652.11094 C 380.71851,637.40739 377.96016,628.86188 377.90796,622.14789 C 377.80146,608.44795 379.41284,589.71185 380.8917,587.45482 C 381.6977,586.22471 382.35715,584.32898 382.35715,583.24209 C 382.35715,582.1552 382.82343,580.97774 383.39334,580.62552 C 384.40222,580.002 384.35516,581.44346 382.77234,599.64789 C 382.48542,602.94789 381.72943,607.12365 381.09237,608.92735 C 380.11759,611.68719 380.22661,612.75002 381.78041,615.63525 C 383.10895,618.10219 383.48404,620.32982 383.11788,623.57837 C 382.69576,627.32335 382.91712,628.19084 384.41622,628.66664 C 385.41019,628.98211 387.19996,631.25746 388.39349,633.72297 C 392.19597,641.57783 404.32762,655.96585 414.6578,664.87217 C 418.98022,668.59882 424.5323,673.56039 426.99576,675.89789 C 429.45922,678.23539 431.88844,680.14789 432.39403,680.14789 C 432.89962,680.14789 436.81065,681.78593 441.08522,683.78797 C 446.39775,686.27616 451.70517,687.85313 457.85715,688.77134 C 462.80715,689.51015 469.10715,690.54524 471.85715,691.07152 C 482.23477,693.05756 499.67489,693.42798 505.22356,691.7802 C 508.08342,690.93092 511.08433,690.48971 511.89226,690.79974 C 512.70018,691.10976 515.1694,690.63993 517.37942,689.75566 C 519.58943,688.87139 522.63628,688.14789 524.1502,688.14789 C 527.56875,688.14789 545.13541,681.61059 552.51144,677.59347 C 553.9713,676.7984 555.75175,676.14789 556.468,676.14789 C 557.18424,676.14789 560.33634,674.34789 563.47265,672.14789 C 566.60897,669.94789 570.16868,668.14789 571.38312,668.14789 C 573.84073,668.14789 580.38935,661.92008 582.76753,657.3212 C 583.60231,655.70691 585.53898,653.31592 587.07123,652.00789 C 588.60349,650.69987 590.51434,648.36142 591.31757,646.81135 C 592.1208,645.26127 593.5833,643.56204 594.56757,643.03528 C 595.55184,642.50851 596.35715,641.43419 596.35715,640.64789 C 596.35715,639.25464 599.26282,637.14789 601.18442,637.14789 C 603.35587,637.14789 603.19104,640.49845 600.8501,643.94345 C 599.47898,645.96124 598.35715,648.35274 598.35715,649.2579 C 598.35715,651.56641 595.73114,657.59475 594.16493,658.88168 C 593.44565,659.47269 591.73215,660.11187 590.35715,660.30207 C 588.41425,660.57083 587.92687,661.14928 588.17001,662.89789 C 588.38686,664.45743 587.97071,665.14789 586.81391,665.14789 C 585.89599,665.14789 583.39579,666.53326 581.25791,668.22649 C 578.03617,670.77816 577.41247,671.8478 577.614,674.47588 C 577.81402,677.08418 577.46168,677.70299 575.62786,677.96412 C 574.40176,678.13871 571.8562,680.08349 569.97107,682.28584 C 565.23785,687.81553 547.82959,700.02741 536.92101,705.47041 C 524.24313,711.79623 513.93832,714.1849 497.35715,714.64138 C 489.93215,714.84579 481.60715,714.55273 478.85715,713.99014 z M 474.37809,673.67312 C 473.68188,672.83424 472.2408,672.14789 471.17569,672.14789 C 470.03745,672.14789 469.51571,671.70035 469.91007,671.06226 C 470.34784,670.35394 473.93077,670.12265 480.21909,670.39678 C 498.80445,671.20699 519.30361,667.87012 528.73232,662.49976 C 536.05566,658.32856 538.8172,657.25322 539.78352,658.19642 C 540.84195,659.22954 537.73481,663.14789 535.85715,663.14789 C 535.20264,663.14789 533.86946,664.0293 532.89453,665.10659 C 531.9196,666.18387 528.81236,667.81983 525.98954,668.74206 C 523.16673,669.66429 519.59193,671.05877 518.04554,671.84091 C 515.95646,672.89753 510.74614,673.28453 497.77031,673.34687 C 488.16532,673.39301 480.01706,673.14114 479.66307,672.78715 C 479.30908,672.43315 478.25996,672.83086 477.33168,673.67094 C 475.81913,675.03978 475.5125,675.04001 474.37809,673.67312 z M 558.35715,641.3227 C 558.35715,640.8406 560.71563,637.34154 563.59821,633.54702 C 569.50516,625.77135 571.94218,620.65232 577.59427,604.14789 C 581.41944,592.9782 581.54344,592.18929 581.9114,576.68119 C 582.23599,563.00059 582.55926,560.35177 584.1692,558.18119 C 586.40697,555.16415 591.74015,553.17416 599.60715,552.42077 C 606.09632,551.79933 606.70053,552.64939 603.78166,558.29387 C 602.91514,559.96953 601.80777,563.43468 601.32082,565.99421 C 600.15275,572.13393 592.95919,592.94585 591.5011,594.40394 C 590.87193,595.03311 590.35715,595.88084 590.35715,596.28777 C 590.35715,597.67503 581.57237,615.6282 577.50509,622.55311 C 575.27445,626.35098 571.33909,631.6603 568.75985,634.35159 C 564.14968,639.16205 558.35715,643.04377 558.35715,641.3227 z M 603.35715,634.31651 C 603.35715,633.34377 602.81715,632.00789 602.15715,631.34789 C 600.2815,629.47224 602.74821,627.39762 604.81477,629.11272 C 606.78654,630.74914 606.8131,634.75895 604.85715,635.50952 C 603.87226,635.88745 603.35715,635.47776 603.35715,634.31651 z M 411.35715,575.14117 C 411.35715,573.97255 411.82146,572.14883 412.38895,571.08846 C 412.95645,570.02809 413.48819,566.59744 413.57061,563.46479 C 413.81677,554.10896 417.75048,547.74273 429.67742,537.39789 C 431.7383,535.61039 434.23432,534.14789 435.22414,534.14789 C 437.89974,534.14789 438.25766,533.34457 437.03054,530.09355 C 436.12675,527.69914 436.21644,526.86003 437.51495,525.56152 C 438.96599,524.11048 439.37992,524.1083 442.14308,525.53719 C 445.59255,527.32098 450.23986,526.3286 453.90416,523.02575 C 455.55968,521.53353 457.85466,521.13633 465.90416,520.94887 C 478.10182,520.66479 486.73264,521.09317 491.35715,522.21218 C 493.28215,522.67798 498.84623,523.54814 503.72177,524.14586 C 508.59731,524.74358 518.04731,526.52505 524.72177,528.10467 C 551.15852,534.36138 569.83324,536.28505 579.01197,533.69708 C 591.06228,530.29945 604.62188,523.43433 606.17786,519.94318 C 606.35426,519.54741 607.99859,518.29654 609.83193,517.16347 C 612.64831,515.42286 613.56789,515.28679 615.76122,516.28613 C 617.18898,516.93667 618.3412,517.73419 618.32171,518.05841 C 618.13883,521.10082 601.03237,540.45929 594.87436,544.59253 C 587.09595,549.81338 583.67783,550.51554 569.41105,549.82331 C 554.05777,549.07836 502.76579,541.45445 489.85715,537.99862 C 484.85224,536.65873 466.8564,536.78802 458.95606,538.22062 C 450.2049,539.80751 438.88605,547.07385 426.81988,558.85102 C 421.29938,564.2393 415.99984,570.31627 415.04312,572.35541 C 412.94223,576.8332 411.35715,578.03117 411.35715,575.14117 z M 389.35715,562.3762 C 389.35715,561.87112 390.30303,560.60186 391.4591,559.55562 C 393.54392,557.66889 393.55818,557.67366 393.2091,560.14042 C 392.88467,562.43297 389.35715,564.48045 389.35715,562.3762 z M 393.5559,556.39789 C 395.91309,551.55993 396.8045,550.14789 397.50149,550.14789 C 397.9543,550.14789 397.57373,551.72289 396.65576,553.64789 C 395.73779,555.57289 394.58257,557.14789 394.0886,557.14789 C 393.59464,557.14789 393.35492,556.81039 393.5559,556.39789 z M 522.99435,555.38412 C 518.72903,554.08122 511.52983,552.9471 493.35715,550.71526 C 479.55726,549.02045 462.31816,549.43653 456.01233,551.61661 C 450.75577,553.43393 448.2791,552.96722 452.97792,551.0448 C 454.5615,550.39691 457.43215,549.14414 459.35715,548.26085 C 464.95098,545.69411 490.97877,546.05154 509.85715,548.95434 C 531.5489,552.28973 548.87426,555.66627 546.85715,556.16528 C 543.4913,556.99795 526.45146,556.44015 522.99435,555.38412 z M 401.96884,544.61778 C 402.85892,543.25934 403.98923,542.14789 404.48063,542.14789 C 405.68829,542.14789 403.2274,545.9837 401.62534,546.59847 C 400.76361,546.92915 400.87492,546.28731 401.96884,544.61778 z M 422.35715,524.16232 C 426.83061,520.17694 428.35715,519.37197 428.35715,520.99841 C 428.35715,521.4662 425.99465,523.27148 423.10715,525.01014 L 417.85715,528.17133 L 422.35715,524.16232 z M 430.30346,518.71259 C 431.89651,516.79307 443.88803,511.86757 454.91301,508.60424 C 463.40308,506.09122 464.6447,505.98522 479.37023,506.51627 C 494.81296,507.07318 506.25718,508.80203 512.55209,511.52896 C 515.55276,512.82884 514.40018,512.91856 500.03763,512.50311 C 491.3369,512.25144 483.0951,511.61856 481.72253,511.09671 C 478.69341,509.94504 465.36991,509.92286 459.85715,511.06031 C 452.2549,512.62889 439.84281,516.34501 435.85715,518.24581 C 430.91829,520.6012 428.57242,520.79836 430.30346,518.71259 z M 518.35715,514.56458 L 515.85715,513.17737 L 519.02536,513.16263 C 522.96237,513.14431 525.52209,514.07199 524.79239,515.25267 C 524.02302,516.49754 521.31976,516.20849 518.35715,514.56458 z M 604.40712,501.51646 C 608.45216,490.87719 607.87564,478.05344 602.99068,470.01007 C 600.09239,465.23786 599.33165,464.67486 592.85715,462.51041 C 583.30265,459.31631 571.6488,457.07023 551.85715,454.60838 C 529.95271,451.88371 511.3562,447.06326 504.85873,442.42577 C 494.36566,434.93648 485.73246,423.30682 484.0197,414.35384 C 483.10443,409.56953 485.16663,396.32776 487.58898,391.43485 C 489.71331,387.14391 496.89288,379.14789 498.62136,379.14789 C 500.07916,379.14789 498.46328,384.37519 496.28302,386.71234 C 495.22379,387.84779 494.35715,389.66016 494.35715,390.73983 C 494.35715,391.81951 493.74929,393.59051 493.00635,394.67538 C 490.51053,398.31988 490.31705,401.55281 492.39067,404.96261 C 493.47223,406.7411 494.35715,408.97865 494.35715,409.93493 C 494.35715,410.89122 495.19321,412.11784 496.21507,412.66076 C 497.23692,413.20368 502.63692,416.01449 508.21507,418.90701 C 513.79321,421.79952 518.35715,424.63733 518.35715,425.21326 C 518.35715,426.32312 509.67381,425.92683 505.60715,424.63138 C 503.92171,424.09447 503.35715,424.31049 503.35715,425.4923 C 503.35715,430.3852 519.95427,437.74233 535.41355,439.70218 C 545.47314,440.97749 550.28805,441.87499 567.35715,445.65643 C 580.63586,448.59816 597.22326,454.26569 601.10709,457.188 C 610.1435,463.98726 611.35715,465.30043 611.35715,468.2785 C 611.35715,469.892 611.97623,472.69379 612.73288,474.50471 C 614.40805,478.51396 614.16224,492.73568 612.35728,496.23508 C 609.12016,502.51112 602.30854,507.03615 604.40712,501.51646 z M 610.981,452.61004 C 610.64399,451.73181 611.03249,450.82597 611.88674,450.49816 C 613.43102,449.90557 616.35715,451.72011 616.35715,453.27033 C 616.35715,454.80042 611.59719,454.2158 610.981,452.61004 z M 589.35715,443.85362 C 587.98215,443.15798 586.85715,442.15211 586.85715,441.61836 C 586.85715,439.98969 591.73348,439.9675 593.85805,441.5865 C 595.58375,442.90154 595.652,443.24715 594.35715,444.11357 C 592.46255,445.3813 592.36697,445.37633 589.35715,443.85362 z M 565.02382,435.48122 C 563.67785,434.13526 564.41903,433.14789 566.77536,433.14789 C 570.04991,433.14789 572.46661,434.16176 571.79239,435.25267 C 571.15036,436.29151 566.00775,436.46515 565.02382,435.48122 z M 502.13879,406.78595 C 501.53601,403.63271 505.38565,391.32098 508.21822,387.343 C 509.39463,385.69088 510.35715,383.88852 510.35715,383.33776 C 510.35715,381.71883 519.33777,376.24215 523.17196,375.52285 C 528.52544,374.51854 551.12256,375.85491 557.47045,377.55124 C 560.55777,378.37625 566.85777,379.55254 571.47045,380.16521 C 576.08314,380.77787 582.78215,381.68489 586.35715,382.1808 C 595.95164,383.51171 605.34815,383.33507 610.92565,381.71896 C 617.36145,379.85416 620.73875,379.48994 621.35715,380.59398 C 622.18892,382.07894 614.28653,385.63518 606.21283,387.40924 C 599.21537,388.94682 597.58124,388.95696 585.73288,387.53629 C 578.65123,386.68718 568.58215,385.60028 563.35715,385.12097 C 558.13215,384.64166 551.83215,383.73394 549.35715,383.10381 C 546.40047,382.35106 540.74164,382.18609 532.85715,382.62282 C 519.01675,383.38946 512.97949,385.38082 511.32819,389.72406 C 510.76672,391.20083 509.43421,393.63529 508.36706,395.13397 C 507.29991,396.63265 505.8729,400.06138 505.19593,402.75337 C 503.66869,408.82651 502.7584,410.02725 502.13879,406.78595 z M 501.8106,375.19648 C 504.32708,372.56983 513.78252,367.14789 515.8467,367.14789 C 516.28131,367.14789 514.96692,368.72289 512.92583,370.64789 C 510.88473,372.57289 508.53026,374.14789 507.69368,374.14789 C 506.85709,374.14789 505.02844,375.04789 503.63002,376.14789 C 499.79136,379.16738 498.60206,378.54548 501.8106,375.19648 z M 606.35715,331.46788 C 598.04353,330.61291 588.35715,327.98241 588.35715,326.57968 C 588.35715,324.71394 588.01954,324.68246 601.35715,327.79204 C 616.41007,331.30154 618.3081,332.69691 606.35715,331.46788 z"
         id="path5483" />
    </g>
  </g>
</svg>
