<?xml version="1.0" encoding="UTF-8" standalone="no"?>
<!-- Created with Inkscape (http://www.inkscape.org/) -->
<svg
   xmlns:dc="http://purl.org/dc/elements/1.1/"
   xmlns:cc="http://creativecommons.org/ns#"
   xmlns:rdf="http://www.w3.org/1999/02/22-rdf-syntax-ns#"
   xmlns:svg="http://www.w3.org/2000/svg"
   xmlns="http://www.w3.org/2000/svg"
   xmlns:sodipodi="http://sodipodi.sourceforge.net/DTD/sodipodi-0.dtd"
   xmlns:inkscape="http://www.inkscape.org/namespaces/inkscape"
   width="356.3981"
   height="313.41446"
   id="svg2"
   sodipodi:version="0.32"
   inkscape:version="0.46"
   version="1.0"
   sodipodi:docname="serpent.svg"
   inkscape:output_extension="org.inkscape.output.svg.inkscape">
  <defs
     id="defs4">
    <inkscape:perspective
       sodipodi:type="inkscape:persp3d"
       inkscape:vp_x="0 : 526.18109 : 1"
       inkscape:vp_y="0 : 1000 : 0"
       inkscape:vp_z="744.09448 : 526.18109 : 1"
       inkscape:persp3d-origin="372.04724 : 350.78739 : 1"
       id="perspective10" />
    <inkscape:perspective
       id="perspective2390"
       inkscape:persp3d-origin="372.04724 : 350.78739 : 1"
       inkscape:vp_z="744.09448 : 526.18109 : 1"
       inkscape:vp_y="0 : 1000 : 0"
       inkscape:vp_x="0 : 526.18109 : 1"
       sodipodi:type="inkscape:persp3d" />
    <inkscape:perspective
       id="perspective2403"
       inkscape:persp3d-origin="372.04724 : 350.78739 : 1"
       inkscape:vp_z="744.09448 : 526.18109 : 1"
       inkscape:vp_y="0 : 1000 : 0"
       inkscape:vp_x="0 : 526.18109 : 1"
       sodipodi:type="inkscape:persp3d" />
    <inkscape:perspective
       id="perspective2416"
       inkscape:persp3d-origin="372.04724 : 350.78739 : 1"
       inkscape:vp_z="744.09448 : 526.18109 : 1"
       inkscape:vp_y="0 : 1000 : 0"
       inkscape:vp_x="0 : 526.18109 : 1"
       sodipodi:type="inkscape:persp3d" />
    <inkscape:perspective
       id="perspective2429"
       inkscape:persp3d-origin="372.04724 : 350.78739 : 1"
       inkscape:vp_z="744.09448 : 526.18109 : 1"
       inkscape:vp_y="0 : 1000 : 0"
       inkscape:vp_x="0 : 526.18109 : 1"
       sodipodi:type="inkscape:persp3d" />
    <inkscape:perspective
       id="perspective2445"
       inkscape:persp3d-origin="372.04724 : 350.78739 : 1"
       inkscape:vp_z="744.09448 : 526.18109 : 1"
       inkscape:vp_y="0 : 1000 : 0"
       inkscape:vp_x="0 : 526.18109 : 1"
       sodipodi:type="inkscape:persp3d" />
  </defs>
  <sodipodi:namedview
     id="base"
     pagecolor="#ffffff"
     bordercolor="#666666"
     borderopacity="1.0"
     inkscape:pageopacity="0.0"
     inkscape:pageshadow="2"
     inkscape:zoom="0.49497475"
     inkscape:cx="217.80489"
     inkscape:cy="465.04703"
     inkscape:document-units="px"
     inkscape:current-layer="layer1"
     showgrid="false"
     showguides="true"
     inkscape:guide-bbox="true"
     inkscape:window-width="1280"
     inkscape:window-height="751"
     inkscape:window-x="-4"
     inkscape:window-y="-4" />
  <metadata
     id="metadata7">
    <rdf:RDF>
      <cc:Work
         rdf:about="">
        <dc:format>image/svg+xml</dc:format>
        <dc:type
           rdf:resource="http://purl.org/dc/dcmitype/StillImage" />
      </cc:Work>
    </rdf:RDF>
  </metadata>
  <g
     inkscape:label="Calque 1"
     inkscape:groupmode="layer"
     id="layer1"
     transform="translate(-237.70167,-96.724301)">
    <g
       id="g2475">
      <g
         transform="matrix(0.5471577,0,0,0.5471577,368.52179,-77.795952)"
         id="g2469">
        <path
           style="opacity:1;fill:#00ff00;fill-opacity:1;fill-rule:nonzero;stroke:#00ff00;stroke-width:0.32829955;stroke-linecap:square;stroke-linejoin:miter;marker:none;marker-start:none;marker-mid:none;marker-end:none;stroke-miterlimit:4;stroke-dasharray:none;stroke-dashoffset:0;stroke-opacity:1;visibility:visible;display:inline;overflow:visible;enable-background:accumulate"
           d="M -66.09375,333.09375 C -72.360675,333.57048 -78.587382,335.84486 -83.3125,340.0625 C -88.796671,344.83349 -92.312302,351.33375 -95.4375,357.78125 C -96.036037,359.17505 -96.939749,360.47457 -97.25,361.96875 C -97.181105,363.25314 -95.402165,363.84465 -94.4375,363.1875 C -93.451553,362.06138 -93.216442,360.46572 -92.46875,359.1875 C -88.704222,351.64734 -82.525406,345.41971 -75.40625,341.03125 C -71.54785,338.67447 -67.320232,336.92623 -62.84375,336.21875 C -61.854932,335.96853 -61.528486,334.53428 -62.4375,333.9375 C -63.55309,333.3775 -64.841484,333.05554 -66.09375,333.09375 z M -22.84375,334.21875 C -23.306737,334.24373 -23.787013,334.25626 -24.25,334.28125 C -31.920695,334.77323 -39.554726,335.7481 -47.25,335.625 C -48.948571,335.65924 -50.658246,335.54406 -52.34375,335.5 C -53.504498,335.55097 -53.796032,337.2589 -52.8125,337.8125 C -50.036955,339.54915 -48.029618,342.27431 -46.71875,345.21875 C -45.550265,346.97644 -43.794121,348.35786 -41.84375,349.15625 C -39.130041,350.01745 -36.190082,348.87499 -34.0625,347.15625 C -29.859105,343.7894 -26.304739,339.68485 -22,336.4375 C -21.098759,335.7162 -21.691649,334.14876 -22.84375,334.21875 z M -2.21875,336.78125 C -2.12821,341.1771 3.7653545,344.0479 5.28125,348.46875 C 10.510325,359.7231 10.556041,373.70572 5.6875,385.1875 C 1.8612845,393.69445 -7.1310291,399.57606 -16.5625,398 C -21.968564,398.63684 -26.306421,395.80553 -29.96875,392.15625 C -41.527237,385.19527 -55.080545,392.44498 -67.0625,394.125 C -75.85218,396.81132 -86.403345,393.77457 -90.4375,384.9375 C -93.823438,378.4333 -96.316216,371.15921 -95.09375,363.875 C -98.526396,361.49172 -99.603405,368.48929 -101.59375,370.25 C -106.14978,378.93991 -114.58709,385.04885 -124,387.4375 C -135.45308,392.06687 -138.9956,411.04458 -126.96875,417.0625 C -118.27316,421.76286 -109.24926,416.28086 -101.34375,412.78125 C -88.007284,409.11911 -73.605242,410.41433 -59.90625,410.9375 C -45.901739,413.12915 -30.228074,423.20665 -30.21875,438.71875 C -45.252103,449.84394 -65.165447,449.58562 -83.125,450.40625 C -95.501261,451.25688 -108.11239,448.79469 -120.34375,450.125 C -123.73018,453.29024 -117.41473,456.264 -115.15625,457.71875 C -103.59807,464.65021 -89.700562,464.84924 -76.8125,462.25 C -56.260664,459.82571 -34.862538,457.8316 -14.625,462.8125 C -4.4221967,465.83894 6.0556112,469.59204 14.71875,475.46875 C 16.271951,473.3409 17.245693,470.10606 20.65625,471.15625 C 33.021771,470.50784 46.957365,473.65884 53.5625,485.15625 C 59.237425,494.33313 61.558627,507.68274 54.3125,516.625 C 43.861248,524.65689 32.033306,532.99101 18.8125,534.40625 C 15.269158,533.57942 11.507607,532.52956 8.125,535 C -22.703119,551.17052 -56.668159,560.71314 -87.84375,576.28125 C -93.263443,577.70677 -97.131907,582.42145 -89.25,583.6875 C -77.376559,590.40579 -76.181834,606.58167 -79.9375,618.28125 C -93.339537,642.64827 -116.36752,659.57994 -140.46875,672.1875 C -149.28395,676.05725 -160.80484,678.01302 -168.15625,670.28125 C -172.63256,666.96021 -175.87564,662.32169 -177.3125,657.0625 C -181.52745,655.87226 -182.95844,662.7828 -185.375,665.125 C -201.35325,690.62346 -216.59818,717.22002 -226.21875,745.78125 C -232.15174,768.91028 -236.31831,792.92033 -235.3125,816.875 C -234.43048,825.02538 -233.86915,833.83183 -229.96875,841.15625 C -226.35183,842.46219 -223.65906,837.31458 -220.125,836.5625 C -202.43633,825.34498 -179.7786,825.09976 -160.84375,832.8125 C -146.02332,838.89357 -126.7439,842.39995 -118.90625,857.90625 C -115.51857,866.97087 -116.29915,877.15863 -115.90625,886.46875 C -111.61048,888.80989 -106.29286,884.64104 -101.78125,884.3125 C -77.037788,877.10477 -48.952211,878.55686 -26.84375,863.28125 C -0.55261028,847.97353 31.45685,843.98069 56.375,826.28125 C 58.501785,823.14881 55.909309,818.91111 58.75,815.71875 C 64.216156,806.84516 76.252271,806.37406 85,802.4375 C 92.518898,800.3418 98.600426,795.25722 105.46875,792 C 110.44023,790.0984 114.20526,795.58854 112.8125,800.3125 C 116.73836,803.22083 122.82232,796.31082 127.46875,795.5625 C 158.35121,781.20062 188.49393,765.01716 221.03125,754.5625 C 232.86346,750.17202 245.53645,747.11579 256.96875,742.03125 C 255.59515,738.56504 249.29195,736.48683 250.84375,731.6875 C 251.34965,728.99397 251.96489,724.49745 255.78125,726.375 C 270.2124,727.04334 284.98212,721.91333 299.09375,725.875 C 302.35332,728.96156 306.77594,728.96019 310.90625,727.46875 C 333.80974,722.46 357.28124,719.32061 380.5,717.34375 C 383.63126,713.99134 376.78199,712.11519 374.46875,711.03125 C 355.75435,702.80104 335.06351,706.38854 315.3125,706.65625 C 291.8401,706.90258 268.65485,711.48112 246.65625,719.625 C 236.64917,723.3645 226.00241,725.61357 216.15625,729.5625 C 213.91856,732.65889 214.42636,737.17519 210.84375,739.71875 C 205.65611,745.55191 199.34207,750.52477 191.375,751.5625 C 179.49547,754.50938 167.82467,760.78523 155.5,760.375 C 153.18794,758.30259 156.18815,750.63927 151.40625,752.1875 C 121.97874,766.07974 93.897271,782.6927 65.46875,798.46875 C 44.535135,808.62113 21.875724,814.20725 -0.78125,818.9375 C -5.4167289,820.42723 2.1516295,827.49217 -3.40625,827.90625 C -20.829139,829.68185 -28.353719,849.932 -44.75,853.4375 C -50.435481,853.91316 -57.870945,855.19726 -61.125,849.0625 C -65.316232,844.05741 -66.8694,837.6417 -65.90625,831.375 C -68.568984,827.32465 -75.216986,829.33533 -79.25,827.5 C -93.476553,824.38591 -108.39258,821.99678 -121.3125,815.125 C -126.2363,811.23406 -129.53535,805.76455 -132.25,800.34375 C -142.9826,806.9679 -155.6259,809.16179 -168.15625,809.875 C -181.31765,812.31976 -192.58858,800.6612 -197.0625,789.375 C -201.12525,775.98536 -200.083,760.80329 -193.53125,748.375 C -186.04897,731.48676 -179.25302,713.16691 -163.625,702.03125 C -159.85275,699.51932 -155.1549,695.88452 -151.25,700.21875 C -139.90176,707.07176 -126.74249,712.97431 -120.5625,725.46875 C -116.42634,726.61816 -115.84339,718.72696 -112.90625,716.53125 C -91.961131,687.98525 -62.056676,667.43333 -34.21875,646 C -32.008303,642.97594 -23.632113,641.26437 -26.21875,636.375 C -35.343327,623.05049 -43.195968,605.22538 -36.5,589.375 C -28.384365,577.63615 -15.169906,570.18543 -2.90625,563.09375 C 11.137345,556.03352 27.360139,550.77798 43.09375,553.125 C 56.977096,557.4166 67.84283,570.51883 70.21875,584.59375 C 69.450172,587.8606 72.138459,591.65835 75.46875,589.3125 C 89.36243,581.76442 103.68145,574.00229 115,562.90625 C 116.18025,558.37846 108.98675,559.53875 106.375,559.25 C 88.399102,557.67447 77.264402,535.46302 85.3125,519.78125 C 93.442397,503.23819 109.76315,491.00071 127.46875,486.40625 C 131.42293,485.2843 135.37404,486.61199 139.25,486.59375 C 138.85371,479.92939 134.47564,473.35039 131.1875,467.375 C 124.48155,457.33958 117.32914,446.3524 106.53125,440.5625 C 97.714573,447.23897 90.970677,458.99127 79.1875,460 C 69.522287,458.65662 59.747837,452.12217 56.84375,442.3125 C 53.465094,433.91706 53.389247,422.16821 62.15625,416.90625 C 62.837587,413.20434 56.709141,411.77897 54.59375,408.9375 C 36.722546,393.08623 39.069164,366.11853 25.75,347.59375 C 19.173401,338.89698 7.9041503,337.04856 -2.21875,336.78125 z M -118.84375,394 C -115.6685,393.94591 -109.84956,396.01699 -110.6875,399.84375 C -114.43012,400.37993 -121.84568,403.23601 -123.09375,397.8125 C -123.35833,395.4724 -121.14077,393.85451 -118.84375,394 z M -96.4375,395.5625 C -92.301085,395.8788 -90.931299,401.38497 -94.53125,403.6875 C -96.887943,407.71754 -98.876257,401.71611 -98.6875,399.59375 C -98.723615,398.13178 -98.197691,395.854 -96.4375,395.5625 z"
           id="path2463" />
        <path
           style="fill:#00aa44"
           d="M -143.85714,886.95019 C -167.07839,882.98126 -189.92085,876.61462 -210.18687,863.95492 C -221.82331,858.96862 -238.52079,841.49208 -221.16179,836.56398 C -199.99614,822.0954 -174.73607,824.38931 -152.85716,835.21546 C -133.17757,840.50589 -111.68503,850.83806 -116.17114,875.08706 C -108.24927,895.55178 -132.68134,885.91412 -143.85714,886.95019 z M -57.857169,854.07855 C -72.421619,841.67022 -70.625759,820.47628 -47.242509,828.04856 C -32.543959,833.71293 2.6589414,805.28432 -0.7142586,828.54049 C -26.534309,828.80636 -28.301059,861.53978 -57.857169,854.07855 z M 56.896638,825.53516 C 50.837138,801.39189 89.796191,807.55699 101.60017,792.3735 C 114.80234,784.1191 118.18624,804.0751 107.44257,804.94736 C 91.597028,814.00535 74.936868,822.1106 56.896638,825.53516 z M -175.81667,811.07061 C -201.48239,802.40349 -206.00089,772.76444 -195.46976,750.54043 C -186.29438,730.81815 -178.00044,704.24976 -155.43243,696.98345 C -143.8959,704.06465 -119.05029,714.46282 -120.56248,728.35049 C -133.58393,750.14658 -136.45134,775.94084 -132.62196,800.90356 C -144.79776,810.07543 -160.75488,810.52569 -175.81667,811.07061 z M 154.18721,761.09088 C 146.62401,737.6189 188.13768,739.94713 201.95981,730.59449 C 226.5317,722.37282 214.84324,740.77446 200.64284,749.9836 C 185.63253,751.67881 167.32325,763.69429 154.18721,761.09088 z M 252.02768,725.10061 C 267.80343,728.89557 292.20079,717.23833 303.66244,727.99361 C 299.0677,735.78889 270.8157,738.13954 255.8148,742.08076 C 254.79712,736.77184 245.71886,740.60119 252.02768,725.10061 z M -159.24276,676.32934 C -169.13015,674.2362 -179.2375,661.35319 -177.86345,656.01462 C -177.2751,652.65222 -165.88705,632.61837 -158.74722,629.29827 C -141.82313,608.34051 -120.59193,591.56149 -95.744009,581.0284 C -76.238969,581.42868 -70.774239,614.1494 -84.376249,627.00468 C -96.831509,646.51853 -117.64873,660.54733 -137.6815,672.21643 C -144.47174,674.92329 -151.81951,677.43867 -159.24276,676.32934 z M -24.939305,639.31335 C -36.875505,625.9563 -50.630859,591.37605 -27.855929,579.00703 C -9.333329,562.67831 14.807651,551.15959 37.694641,551.55319 C 56.940731,551.21899 76.104541,578.20532 70.459151,592.38567 C 44.924541,610.01744 15.827655,623.69134 -12.999125,634.6662 C -14.443145,634.91328 -26.852955,642.71055 -24.939305,639.31335 z M 114.40986,559.75503 C 95.307431,565.29275 74.971141,542.62681 83.688671,520.84067 C 90.913991,500.89769 124.2563,478.37994 140.34505,487.13325 C 148.28025,509.50111 145.59801,536.53224 126.17546,552.30739 C 124.60955,553.11721 113.70652,566.47536 114.40986,559.75503 z M 16.948131,535.32925 C 4.5620214,532.17308 32.832141,514.84442 23.947141,499.33634 C 20.720741,486.57171 3.7594614,463.23744 28.492041,470.62591 C 51.698711,469.63555 68.086271,497.54098 55.579141,517.13431 C 44.464521,524.87609 31.621501,535.45715 16.948131,535.32925 z M 69.142831,457.15567 C 53.217131,453.40002 46.241437,417.99744 64.621747,415.90741 C 73.851647,428.34827 110.71862,429.42725 107.41882,440.98637 C 103.64821,440.48093 85.394681,472.27404 69.142831,457.15567 z"
           id="path2451"
           sodipodi:nodetypes="ccccccccccccccccccccccccccccccccccccccccccccccccccccccc" />
        <path
           style="fill:#ff0000"
           d="M -83.21875,414.25 C -88.552282,414.7979 -90.316646,421.06959 -95.21875,422.84375 C -97.427231,425.5269 -100.76271,428.1326 -104.40625,426.03125 C -107.14728,424.64988 -106.81038,419.9349 -109.6875,418.1875 C -112.89589,414.89157 -114.65641,423.22587 -117.5625,424.96875 C -120.08385,429.19144 -124.61654,430.86506 -128,433.9375 C -130.70482,436.9126 -127.48679,442.56641 -123.65625,439.90625 C -118.59725,436.23429 -109.64548,437.02378 -106.40625,443.61152 C -104.83162,446.53064 -101.99104,446.64573 -99.6875,443.375 C -97.285331,441.58125 -94.480878,436.12265 -91.71875,440.09375 C -87.143539,444.29394 -82.237658,452.01633 -74.96875,448.59375 C -68.558162,447.6388 -64.249978,442.7808 -61.21875,437.40625 C -59.337949,433.92265 -54.958985,433.0781 -52.125,436.0625 C -48.599574,438.16556 -46.960573,437.74754 -45.387691,441.43575 C -40.700714,445.24433 -32.605186,444.11583 -31.84375,438.71875 C -30.016885,434.27803 -32.702123,428.265 -38.125,429.03125 C -41.585552,428.39984 -48.666602,428.97619 -48.53125,423.51602 C -46.025444,417.46924 -53.115336,411.45107 -58.90625,415.75 C -62.832674,419.07061 -65.791998,423.08144 -70.630076,425.01348 C -73.531555,421.7211 -73.21124,417.78172 -77.78125,415.625 C -79.414004,414.66459 -81.308842,414.06821 -83.21875,414.25 z"
           id="path2454"
           sodipodi:nodetypes="ccccccccccccccccccccc" />
        <path
           style="fill:#000000"
           d="M -148.42857,890.74085 C -176.55401,884.56736 -206.75527,877.60896 -227.95776,856.72646 C -246.85433,832.21013 -236.10704,799.16114 -235.5069,770.98211 C -234.58792,742.66707 -220.6276,717.68607 -207.20358,693.92086 C -193.60973,667.7504 -177.8518,641.23329 -156.12375,620.76363 C -135.5719,597.40251 -108.5517,582.68412 -81.724351,567.90098 C -53.936961,554.76119 -22.910847,548.67739 2.7064067,531.64061 C 32.293786,522.55711 21.255316,479.55606 -1.8932943,470.8459 C -28.893059,452.79414 -60.373083,463.63503 -93.339769,464.83887 C -126.30646,466.04271 -130.93846,436.51798 -138.45717,410.71932 C -145.2174,375.45087 -93.01913,381.29946 -95.006497,346.21932 C -86.46101,315.03847 -49.180607,326.36139 -26.383843,320.51089 C 2.9847927,312.55918 32.284196,336.37308 38.857026,363.90029 C 38.383586,395.20807 69.651706,418.7764 96.676986,428.4871 C 133.1064,445.61997 155.56146,486.26228 150.14513,526.26966 C 147.66899,547.61744 124.4909,558.90389 111.85487,573.21932 C 78.728736,593.23893 46.451586,617.02332 8.8314157,628.12049 C -18.570293,636.34427 -39.172345,656.82815 -62.103605,672.76131 C -82.360093,686.65779 -97.636641,705.19829 -112.99647,723.3979 C -123.86153,749.21871 -142.29527,781.60287 -123.86146,809.63611 C -97.385427,824.91831 -64.574876,826.79647 -34.540165,824.4227 C -13.783182,811.5549 21.777896,814.94353 37.571436,804.69292 C 63.256376,797.07547 85.406076,781.13115 108.07144,768.05297 C 132.60318,757.30552 154.99827,742.21809 181.07144,733.63607 C 208.94827,726.93357 236.09347,718.42214 263.95801,710.356 C 289.35757,700.85865 319.97649,701.32454 346.07144,701.11688 C 369.06353,703.76242 402.60847,709.82348 412.27233,733.25583 C 390.52588,724.93327 364.34434,715.94745 339.52173,724.96537 C 317.50609,736.53626 290.3064,730.02323 269.07144,744.84064 C 246.28542,748.82608 221.049,758.40161 202.07144,766.21932 C 185.7501,770.85753 163.31296,783.46847 144.95299,792.81349 C 116.5571,802.9581 91.681186,820.70838 62.666296,829.11735 C 36.713696,844.91453 6.4681157,850.64913 -20.444307,864.71932 C -41.899697,886.50831 -74.798862,877.58537 -100.92857,888.98838 C -116.12188,893.6889 -132.7829,891.06547 -148.42857,890.74085 z M -105.92857,884.77485 C -80.087361,875.38454 -50.088217,879.64761 -27.428567,862.52986 C -0.015294335,846.83387 32.367056,842.92229 57.956356,824.87551 C 89.733366,814.37723 118.8545,797.6296 149.61653,784.63808 C 189.39052,762.21018 233.22624,748.96575 276.66093,736.00462 C 306.54773,725.44609 338.9513,720.74297 370.75228,717.27952 C 402.79751,719.08938 352.1883,701.78096 341.57144,706.61345 C 310.97944,706.07373 280.43455,707.77059 251.59957,718.50065 C 222.46954,730.90387 190.78274,733.36643 162.25151,747.42192 C 137.48098,760.23057 112.14241,771.42836 88.354716,786.31971 C 57.812116,807.14872 21.771336,816.65789 -14.460962,821.55239 C -47.83771,837.90298 -87.633158,829.37222 -120.99639,817.03428 C -146.84232,795.78887 -134.91086,753.8752 -121.01133,728.27047 C -99.163948,687.40028 -56.643786,663.73453 -21.646777,635.32559 C 7.3466657,622.0255 38.101056,612.80466 64.480816,594.377 C 93.489366,579.79573 124.65619,561.88767 139.93548,532.16932 C 147.32127,505.81845 139.78102,473.21186 120.39251,453.71919 C 102.41846,430.3397 73.522081,428.88764 51.600396,407.31762 C 29.678711,385.7476 40.815576,338.04349 3.2906527,338.24606 C -19.182924,329.93767 -41.47726,341.79168 -65.279601,334.20832 C -101.2142,336.69443 -89.79958,384.05368 -125.7296,388.17993 C -146.46439,407.18811 -125.14942,428.82022 -104.2925,412.76424 C -80.600559,404.80073 -31.054277,405.58118 -29.074223,438.97392 C -46.889854,453.80845 -81.76691,450.89502 -106.42857,451.08524 C -138.34129,444.83334 -109.13856,466.29072 -87.307762,463.06578 C -65.476959,459.84084 -27.421373,452.9337 0.41721666,467.38538 C 27.444926,473.34183 35.895506,516.68565 12.790796,533.493 C -15.623643,548.76696 -46.275067,559.23526 -76.326624,570.89923 C -120.8692,593.89275 -162.07622,626.2192 -187.82339,670.05527 C -203.58884,694.96256 -217.5539,721.37424 -227.08601,749.22999 C -232.08721,780.27351 -241.72519,815.2232 -227.88986,844.99125 C -208.09695,873.75245 -170.54669,883.1445 -137.49793,886.68556 C -126.93224,887.63077 -116.21992,887.71906 -105.92857,884.77485 z M -97.138357,406.64963 C -108.34829,387.69606 -79.870253,395.20194 -97.138357,406.64963 z M -122.72857,401.51932 C -130.08844,380.74562 -89.108892,403.96407 -122.72857,401.51932 z M -24.564439,397.57596 C -44.173356,372.49852 -80.930028,419.28065 -94.227497,378.49956 C -107.37309,354.46484 -57.138264,316.6335 -45.610952,344.90086 C -33.493348,359.33441 -25.82896,322.19114 -5.6433163,335.6618 C 21.685756,349.92353 13.169816,411.18077 -24.564437,397.57595 L -24.564439,397.57596 z M 0.80282184,390.29076 C 7.9600228,377.2079 11.372096,365.51536 5.1879227,354.14732 C 0.10813066,339.64522 -11.850848,337.37249 -22.524057,339.87383 C -36.423355,355.47852 -46.623236,392.66402 -14.928567,396.64939 C -9.3486323,397.23816 -2.4575912,395.93013 0.80282184,390.29076 z M -18.928567,372.42868 C -31.515184,357.81229 4.5583357,369.24588 -18.928567,372.4287 L -18.928567,372.42868 z M -66.602437,392.28077 C -53.40412,390.65618 -41.145563,384.58959 -43.487945,364.44756 C -38.910791,326.53491 -93.531071,341.02052 -89.184166,371.11646 C -92.394701,386.74383 -79.814861,395.20506 -66.602437,392.28077 z M -66.531497,369.20258 C -66.45726,349.16494 -45.516196,375.48922 -66.531497,369.20258 z M -91.300357,445.45057 C -123.08744,444.01868 -78.683209,453.76993 -91.300357,445.45057 z M -71.393897,445.14948 C -60.908613,425.11826 -48.885609,437.2271 -36.684772,443.11766 C -23.229265,425.51846 -56.819494,434.76417 -53.178567,416.75735 C -62.641697,422.65818 -72.748082,433.23712 -76.820157,418.0827 C -86.537947,407.68702 -102.70979,441.70448 -111.32833,420.1945 C -121.26121,431.27833 -136.77884,445.69165 -112.08852,434.95675 C -101.44146,452.36369 -93.787206,426.65409 -82.647972,445.40251 C -79.589356,448.79368 -74.684851,446.18506 -71.393897,445.14948 z M -107.92857,445.75827 C -121.05079,433.28994 -118.97577,446.68077 -107.92857,445.75827 z M -50.660218,441.00342 C -61.331271,431.39169 -61.640585,448.68688 -50.660218,441.00342 z M -120.42525,423.71393 C -120.55664,419.66796 -128.786,431.57741 -120.42525,423.71393 z M -38.973878,423.16471 C -47.817166,414.05795 -41.517241,430.50387 -38.973877,423.16472 L -38.973878,423.16471 z M -96.283947,419.62995 C -79.748549,404.92528 -118.1434,425.17869 -96.283947,419.62994 L -96.283947,419.62995 z M -65.428567,417.71933 C -62.933739,406.7732 -79.725871,419.12196 -65.428567,417.71933 z M 389.57144,706.7193 C 390.78086,703.06317 392.03768,710.28164 389.57144,706.7193 z"
           id="path2435"
           sodipodi:nodetypes="cccccccczccccccccccccccccccccccccccccccccccccccccccczcccccczcccccccccccccccccccccccccccccccccccccccccccccccccccccccccc" />
      </g>
    </g>
  </g>
</svg>
