<?xml version="1.0" encoding="UTF-8" standalone="no"?>
<!-- Created with Inkscape (http://www.inkscape.org/) -->
<svg
   xmlns:dc="http://purl.org/dc/elements/1.1/"
   xmlns:cc="http://creativecommons.org/ns#"
   xmlns:rdf="http://www.w3.org/1999/02/22-rdf-syntax-ns#"
   xmlns:svg="http://www.w3.org/2000/svg"
   xmlns="http://www.w3.org/2000/svg"
   xmlns:sodipodi="http://sodipodi.sourceforge.net/DTD/sodipodi-0.dtd"
   xmlns:inkscape="http://www.inkscape.org/namespaces/inkscape"
   width="258.94366"
   height="389.94461"
   id="svg2"
   sodipodi:version="0.32"
   inkscape:version="0.46"
   sodipodi:docname="tortue.svg"
   inkscape:output_extension="org.inkscape.output.svg.inkscape"
   version="1.0">
  <defs
     id="defs4">
    <inkscape:perspective
       sodipodi:type="inkscape:persp3d"
       inkscape:vp_x="0 : 526.18109 : 1"
       inkscape:vp_y="0 : 1000 : 0"
       inkscape:vp_z="744.09448 : 526.18109 : 1"
       inkscape:persp3d-origin="372.04724 : 350.78739 : 1"
       id="perspective10" />
    <clipPath
       id="clipPath2470"
       clipPathUnits="userSpaceOnUse">
      <path
         id="path2472"
         d="M 1995.6,5139.6 L 3979.6,5139.6 L 3979.6,6825.73 L 1995.6,6825.73 L 1995.6,5139.6 z" />
    </clipPath>
    <inkscape:perspective
       id="perspective2450"
       inkscape:persp3d-origin="372.04724 : 350.78739 : 1"
       inkscape:vp_z="744.09448 : 526.18109 : 1"
       inkscape:vp_y="0 : 1000 : 0"
       inkscape:vp_x="0 : 526.18109 : 1"
       sodipodi:type="inkscape:persp3d" />
    <clipPath
       id="clipPath2736"
       clipPathUnits="userSpaceOnUse">
      <path
         id="path2738"
         d="M 1924.8,3976.8 L 4333.8,3976.8 L 4333.8,6825.28 L 1924.8,6825.28 L 1924.8,3976.8 z" />
    </clipPath>
    <inkscape:perspective
       id="perspective2708"
       inkscape:persp3d-origin="372.04724 : 350.78739 : 1"
       inkscape:vp_z="744.09448 : 526.18109 : 1"
       inkscape:vp_y="0 : 1000 : 0"
       inkscape:vp_x="0 : 526.18109 : 1"
       sodipodi:type="inkscape:persp3d" />
    <clipPath
       id="clipPath3041"
       clipPathUnits="userSpaceOnUse">
      <path
         id="path3043"
         d="M 2052,2365.2 L 4206,2365.2 L 4206,4444.75 L 2052,4444.75 L 2052,2365.2 z" />
    </clipPath>
    <inkscape:perspective
       id="perspective2989"
       inkscape:persp3d-origin="372.04724 : 350.78739 : 1"
       inkscape:vp_z="744.09448 : 526.18109 : 1"
       inkscape:vp_y="0 : 1000 : 0"
       inkscape:vp_x="0 : 526.18109 : 1"
       sodipodi:type="inkscape:persp3d" />
    <clipPath
       id="clipPath3282"
       clipPathUnits="userSpaceOnUse">
      <path
         id="path3284"
         d="M 1712.4,873.602 L 4546.4,873.602 L 4546.4,3692.06 L 1712.4,3692.06 L 1712.4,873.602 z" />
    </clipPath>
    <inkscape:perspective
       id="perspective3240"
       inkscape:persp3d-origin="372.04724 : 350.78739 : 1"
       inkscape:vp_z="744.09448 : 526.18109 : 1"
       inkscape:vp_y="0 : 1000 : 0"
       inkscape:vp_x="0 : 526.18109 : 1"
       sodipodi:type="inkscape:persp3d" />
    <clipPath
       id="clipPath3498"
       clipPathUnits="userSpaceOnUse">
      <path
         id="path3500"
         d="M 1570.8,1348.8 L 4404.8,1348.8 L 4404.8,3444.15 L 1570.8,3444.15 L 1570.8,1348.8 z" />
    </clipPath>
    <inkscape:perspective
       id="perspective3426"
       inkscape:persp3d-origin="372.04724 : 350.78739 : 1"
       inkscape:vp_z="744.09448 : 526.18109 : 1"
       inkscape:vp_y="0 : 1000 : 0"
       inkscape:vp_x="0 : 526.18109 : 1"
       sodipodi:type="inkscape:persp3d" />
    <clipPath
       id="clipPath3643"
       clipPathUnits="userSpaceOnUse">
      <path
         id="path3645"
         d="M 1570.8,1944 L 4404.8,1944 L 4404.8,5701.34 L 1570.8,5701.34 L 1570.8,1944 z" />
    </clipPath>
    <inkscape:perspective
       id="perspective3605"
       inkscape:persp3d-origin="372.04724 : 350.78739 : 1"
       inkscape:vp_z="744.09448 : 526.18109 : 1"
       inkscape:vp_y="0 : 1000 : 0"
       inkscape:vp_x="0 : 526.18109 : 1"
       sodipodi:type="inkscape:persp3d" />
    <clipPath
       id="clipPath3780"
       clipPathUnits="userSpaceOnUse">
      <path
         id="path3782"
         d="M 1712.4,2679.6 L 4546.4,2679.6 L 4546.4,5249.26 L 1712.4,5249.26 L 1712.4,2679.6 z" />
    </clipPath>
    <inkscape:perspective
       id="perspective3742"
       inkscape:persp3d-origin="372.04724 : 350.78739 : 1"
       inkscape:vp_z="744.09448 : 526.18109 : 1"
       inkscape:vp_y="0 : 1000 : 0"
       inkscape:vp_x="0 : 526.18109 : 1"
       sodipodi:type="inkscape:persp3d" />
  </defs>
  <sodipodi:namedview
     id="base"
     pagecolor="#ffffff"
     bordercolor="#666666"
     borderopacity="1.0"
     inkscape:pageopacity="0.0"
     inkscape:pageshadow="2"
     inkscape:zoom="0.7"
     inkscape:cx="496.70503"
     inkscape:cy="291.02502"
     inkscape:document-units="px"
     inkscape:current-layer="layer1"
     showgrid="false"
     inkscape:window-width="1280"
     inkscape:window-height="751"
     inkscape:window-x="-4"
     inkscape:window-y="-4" />
  <metadata
     id="metadata7">
    <rdf:RDF>
      <cc:Work
         rdf:about="">
        <dc:format>image/svg+xml</dc:format>
        <dc:type
           rdf:resource="http://purl.org/dc/dcmitype/StillImage" />
      </cc:Work>
    </rdf:RDF>
  </metadata>
  <g
     inkscape:label="Calque 1"
     inkscape:groupmode="layer"
     id="layer1"
     transform="translate(-376.98956,-334.99609)">
    <g
       id="g3263">
      <path
         id="path2437"
         d="M 583.85486,558.0269 C 579.61113,557.81159 575.85619,560.13052 572.76686,562.78566 C 562.89051,570.95824 555.56139,581.66402 548.45765,592.19848 C 547.34968,593.52289 546.45584,595.26071 544.96399,596.14437 C 542.71892,596.62064 542.92922,599.51007 542.8833,601.27404 C 542.77294,603.68368 543.57247,606.79409 546.09252,607.65853 C 548.65002,607.98913 550.10073,605.2234 551.2545,603.40753 C 553.49578,599.24175 556.05853,594.8358 560.5819,592.79035 C 563.63809,591.09462 567.46968,590.35633 570.76234,591.76441 C 572.99914,593.28216 573.18444,596.35828 573.83226,598.74078 C 574.2599,600.23729 574.24317,601.9127 575.00025,603.28647 C 576.31946,604.23797 576.9528,602.37414 576.90002,601.33206 C 577.07921,600.6492 577.38959,596.91165 577.44056,598.57487 C 577.70863,602.59111 577.57402,607.33599 580.75338,610.31018 C 583.63607,612.71573 588.25011,611.82847 590.31037,608.77917 C 593.30924,605.01076 596.74969,601.56792 601.04324,599.32477 C 605.01288,597.18901 609.02739,594.22229 610.32402,589.6573 C 611.70178,584.5621 610.51962,579.14213 608.97452,574.23669 C 607.06861,569.16668 602.89965,565.37781 598.79116,562.0507 C 594.45663,558.96879 589.09113,557.90865 583.85486,558.0269 z M 592.24387,582.95715 C 592.1118,585.48106 590.42011,587.57083 589.03979,589.59416 C 588.39486,590.29533 587.41941,591.5798 586.35657,591.23566 C 585.63593,589.62286 586.97627,587.78361 587.91126,586.51635 C 589.10541,585.24484 590.36365,583.26857 592.24387,582.95715 z"
         style="opacity:1;fill:#00ff00;fill-opacity:1;fill-rule:nonzero;stroke:#808080;stroke-width:0.43461812;stroke-linecap:square;stroke-linejoin:miter;marker:none;marker-start:none;marker-mid:none;marker-end:none;stroke-miterlimit:4;stroke-dasharray:1.73847253, 0.86923627, 0.43461813, 0.86923627;stroke-dashoffset:0;stroke-opacity:1;visibility:visible;display:inline;overflow:visible;enable-background:accumulate" />
      <path
         id="path2431"
         d="M 539.25624,595.38888 C 532.06911,596.08723 531.30637,604.95297 531.62231,610.65674 C 532.78294,628.66823 538.19093,646.25521 547.06445,661.96556 C 554.5811,675.93244 564.6163,689.29554 578.43035,697.50942 C 580.78661,698.53661 585.15832,701.007 586.97946,698.08978 C 586.12661,692.15609 580.79078,687.9474 577.13571,683.53621 C 566.23116,672.22393 556.94324,659.71381 549.45714,645.87996 C 546.68724,641.93722 541.88354,639.43445 541.22053,634.16121 C 539.01573,623.25011 539.53629,611.69505 538.54196,600.67906 C 539.72326,599.31116 544.576,597.67311 541.62231,595.58978 C 540.85275,595.40288 540.04709,595.32291 539.25624,595.38888 z"
         style="opacity:1;fill:#808000;fill-opacity:1;fill-rule:nonzero;stroke:#808080;stroke-width:1.22928572;stroke-linecap:square;stroke-linejoin:miter;marker:none;marker-start:none;marker-mid:none;marker-end:none;stroke-miterlimit:4;stroke-dasharray:4.91714286, 2.45857143, 1.22928572, 2.45857143;stroke-dashoffset:0;stroke-opacity:1;visibility:visible;display:inline;overflow:visible;enable-background:accumulate" />
      <path
         id="path2433"
         d="M 593.59337,657.7842 C 592.46766,658.79197 593.64964,660.65941 593.90904,661.94318 C 595.66412,667.43494 595.98723,673.27465 596.14242,679.02107 C 595.96345,680.1573 597.25719,681.4823 598.22586,680.52841 C 599.54774,678.552 599.52064,675.92967 599.4763,673.62387 C 598.90853,668.40285 597.69149,663.15236 595.30589,658.455 C 594.9585,657.79787 594.26554,657.34926 593.59337,657.7842 z"
         style="opacity:1;fill:#808000;fill-opacity:1;fill-rule:nonzero;stroke:#808080;stroke-width:0.43461812;stroke-linecap:square;stroke-linejoin:miter;marker:none;marker-start:none;marker-mid:none;marker-end:none;stroke-miterlimit:4;stroke-dasharray:1.73847253, 0.86923627, 0.43461813, 0.86923627;stroke-dashoffset:0;stroke-opacity:1;visibility:visible;display:inline;overflow:visible;enable-background:accumulate" />
      <path
         id="path2435"
         d="M 553.7318,601.49976 C 552.24079,602.47881 553.85601,604.04368 554.74984,604.75908 C 558.50779,608.04086 562.60437,610.97976 566.25611,614.39499 C 567.11835,615.08866 568.75857,616.58367 569.56278,615.01055 C 569.67058,613.33714 567.88546,612.32557 566.95555,611.12872 C 564.01596,608.11515 560.68461,605.49091 557.12909,603.28875 C 556.06774,602.68095 555.12854,601.06074 553.7318,601.49976 z"
         style="opacity:1;fill:#808000;fill-opacity:1;fill-rule:nonzero;stroke:#808080;stroke-width:0.43461812;stroke-linecap:square;stroke-linejoin:miter;marker:none;marker-start:none;marker-mid:none;marker-end:none;stroke-miterlimit:4;stroke-dasharray:1.73847253, 0.86923627, 0.43461813, 0.86923627;stroke-dashoffset:0;stroke-opacity:1;visibility:visible;display:inline;overflow:visible;enable-background:accumulate" />
      <path
         id="path2471"
         d="M 524.01122,644.53068 C 521.5357,644.80212 520.74892,647.69005 520.04163,649.68403 C 518.77215,653.53133 518.50052,657.90003 520.47568,661.55333 C 522.43932,665.703 525.3412,669.31983 527.02589,673.56467 C 528.79392,675.84359 532.09158,675.50781 534.66517,675.61654 C 537.93708,675.35454 541.51982,675.81416 544.52205,674.25915 C 546.43115,672.77569 547.40714,670.27773 547.87607,667.97727 C 547.99995,664.52907 545.86472,661.5193 544.66818,658.4182 C 543.10451,655.24508 541.8815,651.8385 539.96058,648.87118 C 536.4017,647.2275 532.46184,646.42045 528.6913,645.32044 C 527.15035,644.95459 525.61556,644.46384 524.01122,644.53068 z"
         style="opacity:1;fill:#008000;fill-opacity:1;fill-rule:nonzero;stroke:#808080;stroke-width:0.43461812;stroke-linecap:square;stroke-linejoin:miter;marker:none;marker-start:none;marker-mid:none;marker-end:none;stroke-miterlimit:4;stroke-dasharray:1.73847253, 0.86923627, 0.43461813, 0.86923627;stroke-dashoffset:0;stroke-opacity:1;visibility:visible;display:inline;overflow:visible;enable-background:accumulate" />
      <path
         id="path2439"
         d="M 545.54799,619.40945 C 542.732,619.20411 540.7631,621.86871 540.62349,624.4681 C 540.31127,628.48912 540.88801,632.6307 542.28867,636.40842 C 543.35583,639.37483 546.47405,640.63327 549.30449,641.30135 C 552.38666,642.05346 555.46683,642.8849 558.25381,644.41861 C 562.38929,645.71866 566.37639,642.98829 569.11295,640.13336 C 572.00431,637.03277 571.92374,632.13579 570.4151,628.39033 C 569.18438,625.00472 565.38932,623.16569 561.90772,623.66314 C 559.48552,623.75487 557.0888,624.44454 555.18389,625.96755 C 553.99544,626.35264 552.63743,626.29248 551.58523,627.15921 C 550.07982,627.91484 549.16102,629.67927 548.02602,630.60793 C 549.09477,628.0185 551.9108,626.50881 553.02154,623.92357 C 552.90184,621.87463 550.66653,620.70569 548.98882,619.97766 C 547.89364,619.59536 546.71904,619.37447 545.54799,619.40945 z M 563.41506,629.25843 C 561.02124,630.83806 559.32387,633.97392 560.63714,636.77934 C 560.99969,637.87519 562.03745,639.14496 562.46015,639.84136 C 560.14325,637.93801 559.47677,634.51137 559.85585,631.66544 C 560.1066,629.93265 561.92393,629.395 563.41506,629.25843 z"
         style="opacity:1;fill:#00ff00;fill-opacity:1;fill-rule:nonzero;stroke:#808080;stroke-width:0.43461812;stroke-linecap:square;stroke-linejoin:miter;marker:none;marker-start:none;marker-mid:none;marker-end:none;stroke-miterlimit:4;stroke-dasharray:1.73847253, 0.86923627, 0.43461813, 0.86923627;stroke-dashoffset:0;stroke-opacity:1;visibility:visible;display:inline;overflow:visible;enable-background:accumulate" />
      <path
         id="path2441"
         d="M 577.69925,624.26291 C 576.29244,624.21416 576.03179,626.36501 577.43882,626.64624 C 577.9215,626.96614 576.66641,627.86744 576.46644,628.34935 C 572.68254,632.6416 572.1311,639.93113 576.04986,644.30813 C 578.3395,646.72834 582.18973,648.54443 585.32274,646.61254 C 587.92565,644.94179 590.84436,642.27783 590.28669,638.84699 C 589.63382,634.96023 588.47235,630.74919 585.13334,628.28774 C 582.92232,626.62311 580.5333,624.59885 577.69925,624.26291 z M 582.0871,636.34529 C 583.50552,636.30012 585.00702,636.32303 586.19873,637.22128 C 583.79862,637.69761 581.10684,636.09683 578.90669,637.59219 C 578.1376,638.28102 577.83074,639.45438 576.88639,639.93606 C 577.26413,637.9027 579.04727,636.31217 581.17165,636.38474 C 581.47436,636.35891 581.79528,636.33778 582.0871,636.34529 z"
         style="opacity:1;fill:#00ff00;fill-opacity:1;fill-rule:nonzero;stroke:#808080;stroke-width:0.43461812;stroke-linecap:square;stroke-linejoin:miter;marker:none;marker-start:none;marker-mid:none;marker-end:none;stroke-miterlimit:4;stroke-dasharray:1.73847253, 0.86923627, 0.43461813, 0.86923627;stroke-dashoffset:0;stroke-opacity:1;visibility:visible;display:inline;overflow:visible;enable-background:accumulate" />
      <path
         id="path2443"
         d="M 589.01611,680.12277 C 586.67347,680.20407 583.43697,681.47004 583.42871,684.2423 C 583.68097,689.52386 587.43442,693.67461 589.37124,698.37654 C 590.37908,701.34984 590.49386,704.61991 592.20441,707.36532 C 594.13772,710.96376 596.46124,715.067 600.76703,716.07789 C 604.29392,717.19109 608.18691,717.0536 611.69796,716.05525 C 613.87249,715.11615 615.96051,713.05594 616.10872,710.60097 C 615.4502,707.35322 613.82434,704.30176 612.05233,701.51749 C 611.40038,700.64437 610.16032,700.35575 610.0478,699.12627 C 606.50517,692.1387 601.7303,685.31683 594.69822,681.50384 C 592.94291,680.62333 590.99543,680.04821 589.01611,680.12277 z"
         style="opacity:1;fill:#00ff00;fill-opacity:1;fill-rule:nonzero;stroke:#808080;stroke-width:0.43461812;stroke-linecap:square;stroke-linejoin:miter;marker:none;marker-start:none;marker-mid:none;marker-end:none;stroke-miterlimit:4;stroke-dasharray:1.73847253, 0.86923627, 0.43461813, 0.86923627;stroke-dashoffset:0;stroke-opacity:1;visibility:visible;display:inline;overflow:visible;enable-background:accumulate" />
      <path
         id="path2445"
         d="M 620.23614,680.84093 C 614.89624,681.04624 610.33403,684.2165 605.27325,685.54445 C 603.48031,686.09572 604.24814,688.23616 605.03603,689.31475 C 607.55977,693.14854 609.93267,697.29394 613.47285,700.27847 C 616.80219,702.37439 620.90896,700.6458 623.98475,698.8974 C 627.12757,696.694 630.20536,693.64634 630.9769,689.75079 C 631.01031,686.46657 628.46065,683.69764 625.80776,682.07205 C 624.12927,681.1079 622.15295,680.77665 620.23614,680.84093 z M 620.9464,683.9503 C 620.20945,685.80052 618.97757,687.67308 619.32858,689.76657 C 618.98156,687.64632 618.91863,684.99131 621.01743,683.73722 L 620.9464,683.9503 z M 619.62847,691.17132 C 620.09367,692.6718 620.97281,694.03514 622.15385,695.06987 C 620.53805,694.39183 619.98935,692.48455 619.56533,690.94245 L 619.62847,691.17132 z"
         style="opacity:1;fill:#00ff00;fill-opacity:1;fill-rule:nonzero;stroke:#808080;stroke-width:0.43461812;stroke-linecap:square;stroke-linejoin:miter;marker:none;marker-start:none;marker-mid:none;marker-end:none;stroke-miterlimit:4;stroke-dasharray:1.73847253, 0.86923627, 0.43461813, 0.86923627;stroke-dashoffset:0;stroke-opacity:1;visibility:visible;display:inline;overflow:visible;enable-background:accumulate" />
      <path
         id="path2449"
         d="M 592.4964,662.41353 C 590.10534,663.56644 588.35215,665.76234 586.01088,667.04982 C 581.9041,669.92379 576.93503,671.05197 572.51432,673.27267 C 570.85283,674.0775 571.22364,676.18772 572.19865,677.3922 C 573.73245,679.77458 576.0044,682.52758 579.19869,682.0247 C 583.86168,681.37384 588.10165,678.69113 591.3442,675.36401 C 592.91068,673.45048 594.83757,671.57784 595.59,669.19261 C 595.48238,666.96131 594.46676,664.81531 593.53812,662.80813 C 593.29965,662.42819 592.89718,662.42586 592.4964,662.41353 z"
         style="opacity:1;fill:#ffff00;fill-opacity:1;fill-rule:nonzero;stroke:#808080;stroke-width:0.43461812;stroke-linecap:square;stroke-linejoin:miter;marker:none;marker-start:none;marker-mid:none;marker-end:none;stroke-miterlimit:4;stroke-dasharray:1.73847253, 0.86923627, 0.43461813, 0.86923627;stroke-dashoffset:0;stroke-opacity:1;visibility:visible;display:inline;overflow:visible;enable-background:accumulate" />
      <path
         id="path2447"
         d="M 595.06124,674.08553 C 593.40584,674.73312 592.07554,676.29586 591.39155,677.91306 C 590.91852,679.84059 593.80752,680.85286 594.714,679.08894 C 595.53089,677.8155 596.65187,676.23756 596.25291,674.66953 C 596.01874,674.24486 595.53939,674.01168 595.06124,674.08553 z"
         style="opacity:1;fill:#ffff00;fill-opacity:1;fill-rule:nonzero;stroke:#808080;stroke-width:0.43461812;stroke-linecap:square;stroke-linejoin:miter;marker:none;marker-start:none;marker-mid:none;marker-end:none;stroke-miterlimit:4;stroke-dasharray:1.73847253, 0.86923627, 0.43461813, 0.86923627;stroke-dashoffset:0;stroke-opacity:1;visibility:visible;display:inline;overflow:visible;enable-background:accumulate" />
      <path
         id="path2451"
         d="M 587.8718,650.59949 C 584.43789,654.01366 580.47884,656.90356 576.00921,658.78488 C 572.12535,660.58646 568.07157,661.92461 563.83332,662.39775 C 561.8788,663.06847 562.56893,665.61015 563.51211,666.86877 C 564.94859,668.87476 566.23241,671.31407 568.52106,672.42036 C 571.27133,673.3275 574.09116,671.7433 576.70619,670.99337 C 581.8559,669.05552 586.97781,666.30014 590.51593,661.98963 C 592.33191,658.96216 591.08647,655.19718 589.92261,652.15725 C 589.62565,651.26285 589.06155,649.77984 587.8718,650.59949 z"
         style="opacity:1;fill:#ffff00;fill-opacity:1;fill-rule:nonzero;stroke:#808080;stroke-width:0.43461812;stroke-linecap:square;stroke-linejoin:miter;marker:none;marker-start:none;marker-mid:none;marker-end:none;stroke-miterlimit:4;stroke-dasharray:1.73847253, 0.86923627, 0.43461813, 0.86923627;stroke-dashoffset:0;stroke-opacity:1;visibility:visible;display:inline;overflow:visible;enable-background:accumulate" />
      <path
         id="path2453"
         d="M 575.60792,645.05154 C 572.85955,646.57201 570.49287,648.76216 567.64507,650.15754 C 565.07306,651.60953 562.36449,652.79383 559.41391,653.10908 C 557.21475,653.47493 556.61518,656.16191 557.59879,657.89152 C 558.6342,659.89179 560.12455,662.72387 562.80739,662.32672 C 567.74161,661.76477 572.39863,659.75289 576.95115,657.91459 C 580.67583,656.33764 584.21941,653.94986 586.62489,650.67051 C 587.62408,649.39041 586.40702,647.82026 584.9755,647.75054 C 582.14526,647.05597 578.92942,647.30448 576.61018,645.26462 C 576.30813,645.10144 575.95877,644.96662 575.60792,645.05154 z"
         style="opacity:1;fill:#ffff00;fill-opacity:1;fill-rule:nonzero;stroke:#808080;stroke-width:0.43461812;stroke-linecap:square;stroke-linejoin:miter;marker:none;marker-start:none;marker-mid:none;marker-end:none;stroke-miterlimit:4;stroke-dasharray:1.73847253, 0.86923627, 0.43461813, 0.86923627;stroke-dashoffset:0;stroke-opacity:1;visibility:visible;display:inline;overflow:visible;enable-background:accumulate" />
      <path
         id="path2455"
         d="M 571.55152,638.83279 C 568.16748,641.01026 565.40823,645.09775 561.00805,645.35143 C 557.38532,645.43527 554.40418,641.80828 550.70923,642.71556 C 548.97215,643.52452 550.14606,645.5147 550.80709,646.65398 C 552.12801,648.68965 553.06496,651.22287 555.13654,652.61979 C 557.90334,653.92059 560.89584,652.27966 563.57311,651.49866 C 567.33939,649.97908 571.73329,648.23448 573.51658,644.27814 C 574.04767,642.5267 573.9073,640.04911 572.45119,638.84068 C 572.13066,638.69213 571.87032,638.65993 571.55152,638.83279 z"
         style="opacity:1;fill:#ffff00;fill-opacity:1;fill-rule:nonzero;stroke:#808080;stroke-width:0.43461812;stroke-linecap:square;stroke-linejoin:miter;marker:none;marker-start:none;marker-mid:none;marker-end:none;stroke-miterlimit:4;stroke-dasharray:1.73847253, 0.86923627, 0.43461813, 0.86923627;stroke-dashoffset:0;stroke-opacity:1;visibility:visible;display:inline;overflow:visible;enable-background:accumulate" />
      <path
         id="path2457"
         d="M 572.30914,624.10666 C 570.4029,624.43137 570.93463,626.85992 571.0938,628.22618 C 571.16408,629.5316 572.35948,631.85419 573.84015,630.5306 C 575.17814,628.99118 575.99475,626.27049 574.05323,624.8327 C 573.57951,624.40251 572.97204,624.04683 572.30914,624.10666 z"
         style="opacity:1;fill:#ffff00;fill-opacity:1;fill-rule:nonzero;stroke:#808080;stroke-width:0.43461812;stroke-linecap:square;stroke-linejoin:miter;marker:none;marker-start:none;marker-mid:none;marker-end:none;stroke-miterlimit:4;stroke-dasharray:1.73847253, 0.86923627, 0.43461813, 0.86923627;stroke-dashoffset:0;stroke-opacity:1;visibility:visible;display:inline;overflow:visible;enable-background:accumulate" />
      <path
         id="path2459"
         d="M 566.28768,616.2543 C 563.31584,616.86246 561.48102,619.58874 559.37445,621.52603 C 558.38387,623.44342 561.13507,623.29812 562.31757,623.24012 C 564.26896,623.39953 566.33579,623.0731 568.22907,623.64104 C 569.51265,625.01699 571.6269,623.50852 571.44104,621.8417 C 571.20093,619.49212 569.58119,617.11825 567.33729,616.31743 C 566.99487,616.2404 566.63679,616.22239 566.28768,616.2543 z"
         style="opacity:1;fill:#ffff00;fill-opacity:1;fill-rule:nonzero;stroke:#808080;stroke-width:0.43461812;stroke-linecap:square;stroke-linejoin:miter;marker:none;marker-start:none;marker-mid:none;marker-end:none;stroke-miterlimit:4;stroke-dasharray:1.73847253, 0.86923627, 0.43461813, 0.86923627;stroke-dashoffset:0;stroke-opacity:1;visibility:visible;display:inline;overflow:visible;enable-background:accumulate" />
      <path
         id="path2461"
         d="M 557.66982,608.61502 C 555.75134,609.06624 554.9077,611.20447 553.1478,612.03218 C 550.21593,614.06224 546.62585,614.8071 543.56714,616.53051 C 542.37998,617.52106 543.84986,618.98474 545.04291,618.69287 C 548.4009,618.99759 551.17535,621.32139 554.45785,621.85749 C 557.08471,621.78669 559.34221,620.08346 561.45,618.67709 C 563.02184,617.58425 564.72786,615.41238 563.39927,613.50795 C 562.11498,611.51891 560.37907,609.61106 558.19068,608.64659 C 558.01952,608.61285 557.84405,608.59188 557.66982,608.61502 z"
         style="opacity:1;fill:#ffff00;fill-opacity:1;fill-rule:nonzero;stroke:#808080;stroke-width:0.43461812;stroke-linecap:square;stroke-linejoin:miter;marker:none;marker-start:none;marker-mid:none;marker-end:none;stroke-miterlimit:4;stroke-dasharray:1.73847253, 0.86923627, 0.43461813, 0.86923627;stroke-dashoffset:0;stroke-opacity:1;visibility:visible;display:inline;overflow:visible;enable-background:accumulate" />
      <path
         id="path2463"
         d="M 540.14209,601.26774 C 538.77383,604.46444 538.91965,608.22893 539.75539,611.54288 C 540.32665,613.49675 541.99778,615.79099 544.32475,615.03896 C 547.53956,614.1664 550.90277,613.03559 553.40823,610.76949 C 555.11141,609.20348 555.48786,605.65319 553.17148,604.51128 C 551.12245,604.18312 550.35615,606.73469 549.01249,607.81005 C 547.60368,609.53433 544.95424,608.17713 543.83546,606.76833 C 542.49704,605.34022 542.08604,603.37034 541.69148,601.54937 C 541.4519,600.87787 540.63415,600.87767 540.14209,601.26774 z"
         style="opacity:1;fill:#ffff00;fill-opacity:1;fill-rule:nonzero;stroke:#808080;stroke-width:0.43461812;stroke-linecap:square;stroke-linejoin:miter;marker:none;marker-start:none;marker-mid:none;marker-end:none;stroke-miterlimit:4;stroke-dasharray:1.73847253, 0.86923627, 0.43461813, 0.86923627;stroke-dashoffset:0;stroke-opacity:1;visibility:visible;display:inline;overflow:visible;enable-background:accumulate" />
      <path
         id="path2465"
         d="M 563.24933,688.81166 C 560.67546,688.88378 558.19313,690.50576 557.47252,693.02589 C 556.33221,696.32109 555.61365,699.92342 556.02832,703.41152 C 556.60029,705.53446 559.13498,705.8436 560.9607,705.37659 C 566.4325,704.62221 571.99517,703.42551 576.57561,700.17811 C 578.38012,699.7067 578.32885,697.66643 576.55725,697.20589 C 572.79679,694.8689 569.12967,692.40146 565.77471,689.53771 C 565.03965,689.02855 564.14343,688.74859 563.24933,688.81166 z"
         style="opacity:1;fill:#008000;fill-opacity:1;fill-rule:nonzero;stroke:#808080;stroke-width:0.43461812;stroke-linecap:square;stroke-linejoin:miter;marker:none;marker-start:none;marker-mid:none;marker-end:none;stroke-miterlimit:4;stroke-dasharray:1.73847253, 0.86923627, 0.43461813, 0.86923627;stroke-dashoffset:0;stroke-opacity:1;visibility:visible;display:inline;overflow:visible;enable-background:accumulate" />
      <path
         id="path2467"
         d="M 537.78244,676.22421 C 535.58378,676.41835 532.43815,675.83349 531.18488,678.17349 C 529.19958,683.18866 528.00348,688.65988 528.31226,694.0834 C 528.92433,696.91093 532.01475,698.10466 534.2154,699.51272 C 539.68279,702.35455 545.49822,705.76274 551.89301,705.21875 C 553.61052,705.1816 555.26253,703.98036 555.34327,702.16319 C 556.01321,698.64816 557.00668,695.06808 556.70701,691.4712 C 555.61558,688.04341 552.74045,685.56746 550.53845,682.83304 C 548.28046,680.60002 546.31568,677.8042 543.35406,676.47675 C 541.54062,676.04496 539.63312,676.27283 537.78244,676.22421 z"
         style="opacity:1;fill:#008000;fill-opacity:1;fill-rule:nonzero;stroke:#808080;stroke-width:0.43461812;stroke-linecap:square;stroke-linejoin:miter;marker:none;marker-start:none;marker-mid:none;marker-end:none;stroke-miterlimit:4;stroke-dasharray:1.73847253, 0.86923627, 0.43461813, 0.86923627;stroke-dashoffset:0;stroke-opacity:1;visibility:visible;display:inline;overflow:visible;enable-background:accumulate" />
      <path
         id="path2469"
         d="M 549.04406,669.27942 C 547.39106,669.99168 546.85633,672.05273 546.04517,673.52521 C 544.84975,675.77868 546.53905,678.04955 548.08126,679.60191 C 551.42674,682.90663 554.81572,686.35436 558.90883,688.71696 C 560.08857,689.3892 562.68064,689.51288 562.61799,687.61211 C 560.98889,684.01699 558.36829,680.93575 556.19882,677.64523 C 554.08991,674.8964 552.26541,671.79308 549.72276,669.41358 C 549.4955,669.38185 549.2815,669.20695 549.04406,669.27942 z"
         style="opacity:1;fill:#008000;fill-opacity:1;fill-rule:nonzero;stroke:#808080;stroke-width:0.43461812;stroke-linecap:square;stroke-linejoin:miter;marker:none;marker-start:none;marker-mid:none;marker-end:none;stroke-miterlimit:4;stroke-dasharray:1.73847253, 0.86923627, 0.43461813, 0.86923627;stroke-dashoffset:0;stroke-opacity:1;visibility:visible;display:inline;overflow:visible;enable-background:accumulate" />
      <path
         id="path2473"
         d="M 517.20058,658.94903 C 513.39908,659.86114 509.83307,663.42201 510.47675,667.59057 C 511.89388,675.37392 517.05627,681.73879 521.53409,688.00404 C 523.15677,689.9975 524.47739,692.33602 526.32693,694.08862 C 528.06754,694.45166 527.73501,691.99118 528.12019,690.87541 C 528.77629,686.53692 529.58574,682.05875 528.85679,677.6842 C 527.24222,672.9392 524.08136,668.91617 521.90093,664.43133 C 520.66711,662.60864 520.09545,659.85837 517.8556,658.98849 C 517.64198,658.93377 517.41914,658.93215 517.20058,658.94903 z"
         style="opacity:1;fill:#008000;fill-opacity:1;fill-rule:nonzero;stroke:#808080;stroke-width:0.43461812;stroke-linecap:square;stroke-linejoin:miter;marker:none;marker-start:none;marker-mid:none;marker-end:none;stroke-miterlimit:4;stroke-dasharray:1.73847253, 0.86923627, 0.43461813, 0.86923627;stroke-dashoffset:0;stroke-opacity:1;visibility:visible;display:inline;overflow:visible;enable-background:accumulate" />
      <path
         id="path2475"
         d="M 513.65715,628.42348 C 511.49203,628.7814 511.1579,631.49656 510.53106,633.19766 C 508.75225,640.67456 507.84324,648.42462 508.31439,656.10008 C 508.59406,657.69261 508.40693,660.03203 510.10584,660.86674 C 512.11426,661.05402 513.79607,659.45606 515.33383,658.36791 C 518.85991,655.2631 519.94595,650.33694 520.41255,645.8565 C 520.61281,640.52248 519.49825,634.97201 516.7034,630.38854 C 515.9913,629.40069 514.98799,628.33266 513.65715,628.42348 z"
         style="opacity:1;fill:#008000;fill-opacity:1;fill-rule:nonzero;stroke:#808080;stroke-width:0.43461812;stroke-linecap:square;stroke-linejoin:miter;marker:none;marker-start:none;marker-mid:none;marker-end:none;stroke-miterlimit:4;stroke-dasharray:1.73847253, 0.86923627, 0.43461813, 0.86923627;stroke-dashoffset:0;stroke-opacity:1;visibility:visible;display:inline;overflow:visible;enable-background:accumulate" />
      <path
         id="path2477"
         d="M 526.13412,621.81803 C 523.04585,621.81528 520.58948,624.33314 519.18143,626.85301 C 518.21843,630.35315 518.85467,634.1515 519.66283,637.64112 C 520.70858,641.80672 524.94881,643.85079 528.70685,645.02786 C 531.45356,645.95499 534.20405,646.94969 537.06428,647.46643 C 538.88774,647.1678 538.14815,644.93687 537.80611,643.75728 C 535.91891,638.0236 534.66263,632.06343 532.58173,626.3795 C 531.45675,623.87145 529.03888,621.65377 526.13412,621.81803 z"
         style="opacity:1;fill:#008000;fill-opacity:1;fill-rule:nonzero;stroke:#808080;stroke-width:0.43461812;stroke-linecap:square;stroke-linejoin:miter;marker:none;marker-start:none;marker-mid:none;marker-end:none;stroke-miterlimit:4;stroke-dasharray:1.73847253, 0.86923627, 0.43461813, 0.86923627;stroke-dashoffset:0;stroke-opacity:1;visibility:visible;display:inline;overflow:visible;enable-background:accumulate" />
      <path
         id="path2479"
         d="M 520.85449,615.78868 C 518.63032,616.5304 517.72014,619.04271 516.42131,620.81 C 515.47176,622.74915 513.58417,624.59824 513.81499,626.89247 C 514.50585,628.80989 516.92884,627.87269 518.02133,626.86879 C 520.68746,624.6729 522.7089,621.34293 522.78009,617.83266 C 522.71622,616.83437 522.01041,615.61978 520.85449,615.78868 z"
         style="opacity:1;fill:#008000;fill-opacity:1;fill-rule:nonzero;stroke:#808080;stroke-width:0.43461812;stroke-linecap:square;stroke-linejoin:miter;marker:none;marker-start:none;marker-mid:none;marker-end:none;stroke-miterlimit:4;stroke-dasharray:1.73847253, 0.86923627, 0.43461813, 0.86923627;stroke-dashoffset:0;stroke-opacity:1;visibility:visible;display:inline;overflow:visible;enable-background:accumulate" />
      <path
         id="path2481"
         d="M 528.41485,607.96789 C 526.46481,608.60325 525.5993,610.81548 524.54786,612.41098 C 523.43306,614.35786 522.27037,616.93017 523.89284,618.96119 C 525.27131,620.90536 527.79759,622.56025 530.23786,622.01532 C 531.90858,620.88424 531.1062,618.48057 531.18488,616.79883 C 530.841,613.99143 530.84472,610.96687 529.5276,608.42562 C 529.27049,608.09507 528.83193,607.90254 528.41485,607.96789 z"
         style="opacity:1;fill:#008000;fill-opacity:1;fill-rule:nonzero;stroke:#808080;stroke-width:0.43461812;stroke-linecap:square;stroke-linejoin:miter;marker:none;marker-start:none;marker-mid:none;marker-end:none;stroke-miterlimit:4;stroke-dasharray:1.73847253, 0.86923627, 0.43461813, 0.86923627;stroke-dashoffset:0;stroke-opacity:1;visibility:visible;display:inline;overflow:visible;enable-background:accumulate" />
      <path
         sodipodi:nodetypes="ccccccccccc"
         id="rect3260"
         d="M 440.71428,393.79075 L 452.49999,403.96932 L 464.28571,387.71932 L 476.07142,401.46932 L 487.85714,391.64789 L 505.71428,712.36216 L 488.57142,720.75502 L 471.42856,721.29074 L 454.28571,721.82645 L 437.14285,712.00502 L 440.71428,393.79075 z"
         style="fill:#0000ff;fill-opacity:1;fill-rule:nonzero;stroke:none;stroke-width:1.72099996;stroke-linecap:square;stroke-linejoin:miter;marker:none;marker-start:none;marker-mid:none;marker-end:none;stroke-miterlimit:4;stroke-dasharray:6.884, 3.442, 1.721, 3.442;stroke-dashoffset:0;stroke-opacity:1;visibility:visible;display:inline;overflow:visible;enable-background:accumulate" />
      <path
         id="path2483"
         d="M 471.92838,361.32278 C 466.41934,361.83997 460.60057,361.14285 455.30822,362.90114 C 452.22536,366.00244 450.48707,370.34959 447.89453,373.87715 C 445.41056,378.29786 442.36567,382.69596 440.99246,387.55517 C 443.93797,390.97039 446.39002,394.97928 449.62611,398.06707 C 452.46678,398.23545 454.01133,394.72374 456.05345,393.20521 C 458.71798,390.46055 461.36781,387.69868 464.02078,384.93509 C 468.43802,388.66047 472.20186,393.45422 477.27904,396.25196 C 480.76324,394.79635 482.38541,390.60503 484.91106,387.96016 C 486.4712,386.08296 488.54273,384.01319 486.5789,381.55426 C 483.77794,375.0286 481.88431,367.89868 477.67363,362.12774 C 476.05117,360.89886 473.82065,361.38598 471.92838,361.32278 z"
         style="opacity:1;fill:#ffb380;fill-opacity:1;fill-rule:nonzero;stroke:#808080;stroke-width:0.86923623;stroke-linecap:square;stroke-linejoin:miter;marker:none;marker-start:none;marker-mid:none;marker-end:none;stroke-miterlimit:4;stroke-dasharray:3.47694506, 1.73847253, 0.86923627, 1.73847253;stroke-dashoffset:0;stroke-opacity:1;visibility:visible;display:inline;overflow:visible;enable-background:accumulate" />
      <path
         sodipodi:nodetypes="cccccc"
         id="rect2487"
         d="M 389.41382,550.82147 L 410.12194,550.82147 L 416.18286,714.46619 L 397.74757,717.74919 L 379.31229,711.94081 L 389.41382,550.82147 z"
         style="fill:#ff0000;fill-opacity:1;fill-rule:nonzero;stroke:none;stroke-width:1.72099996;stroke-linecap:square;stroke-linejoin:miter;marker:none;marker-start:none;marker-mid:none;marker-end:none;stroke-miterlimit:4;stroke-dasharray:6.884, 3.442, 1.721, 3.442;stroke-dashoffset:0;stroke-opacity:1;visibility:visible;display:inline;overflow:visible;enable-background:accumulate" />
      <path
         id="path2485"
         d="M 395.15679,532.4797 C 393.51145,537.79878 390.65745,542.96509 390.31121,548.579 C 390.50708,550.90559 393.3305,550.41711 394.41276,549.00757 C 395.85139,548.29194 397.45975,552.05464 399.37102,550.3152 C 401.67461,548.70953 404.99239,550.02893 407.53116,548.61057 C 409.26304,547.6946 411.17591,548.4045 412.94495,548.10549 C 413.46841,544.07818 411.6154,539.83207 410.21543,536.01097 C 409.57727,533.33115 406.95912,532.26737 404.42327,532.40939 C 401.36933,532.38432 398.08682,531.80892 395.15679,532.4797 z"
         style="opacity:1;fill:#ffb380;fill-opacity:1;fill-rule:nonzero;stroke:#808080;stroke-width:0.86923623;stroke-linecap:square;stroke-linejoin:miter;marker:none;marker-start:none;marker-mid:none;marker-end:none;stroke-miterlimit:4;stroke-dasharray:3.47694506, 1.73847253, 0.86923627, 1.73847253;stroke-dashoffset:0;stroke-opacity:1;visibility:visible;display:inline;overflow:visible;enable-background:accumulate" />
      <path
         id="path4037"
         d="M 452.00376,721.5089 C 448.57426,719.44297 445.12536,717.96698 444.33956,718.22889 C 443.55376,718.49082 442.91086,718.14114 442.91086,717.45183 C 442.91086,715.56642 426.26586,715.92923 417.45946,718.00659 C 402.09396,721.6312 386.00966,719.93161 378.99306,713.94194 C 376.60276,711.90139 376.42656,705.63992 378.06396,680.91362 C 378.65386,672.00562 379.44116,656.3877 379.81356,646.20714 C 380.18596,636.02657 381.30206,622.02526 382.29376,615.0931 C 383.28536,608.16095 384.72536,589.1059 385.49366,572.74855 C 386.58236,549.56875 387.28806,542.396 388.69266,540.23404 C 389.68396,538.7084 391.65306,534.07628 393.06866,529.94042 C 399.63356,510.75959 403.31976,508.0733 407.35606,519.52848 C 408.36496,522.39176 411.08866,529.94042 413.40886,536.30328 L 417.62726,547.8721 L 416.71946,564.06846 C 415.74966,581.36892 415.44386,646.52661 416.15666,683.96501 L 416.58926,706.68342 L 422.26956,707.43695 C 425.39376,707.85139 429.77086,707.84888 431.99636,707.43136 L 436.04276,706.67226 L 435.55326,693.2145 C 435.28416,685.81273 435.52476,647.74001 436.08816,608.60845 C 436.65146,569.47689 437.33466,503.2976 437.60636,461.54334 L 438.10036,385.62653 L 441.82446,378.24933 C 449.41986,363.20278 463.88236,338.41176 466.20446,336.45798 C 467.52386,335.34789 469.08516,334.73743 469.67406,335.1014 C 471.13566,336.00472 481.28816,356.41825 484.87356,365.66306 C 490.51306,380.20399 491.34176,385.09478 492.02836,407.88928 C 492.39246,419.97871 493.18836,436.37752 493.79696,444.33109 C 494.40556,452.28466 495.47256,471.54675 496.16796,487.13576 C 496.86346,502.72475 497.91676,519.6066 498.50866,524.65096 C 499.10056,529.69532 500.09996,548.43682 500.72956,566.29873 C 501.96336,601.3051 503.99786,629.41954 505.41056,630.98494 C 505.89406,631.52074 506.94646,629.95895 507.74906,627.51429 C 510.06796,620.45148 514.15986,614.82146 520.70636,609.68648 C 524.04956,607.06409 527.25496,603.92665 527.82936,602.71438 C 528.40376,601.50212 529.31486,600.51027 529.85386,600.51027 C 530.39296,600.51027 530.83396,599.82677 530.83396,598.99138 C 530.83396,598.156 532.34106,596.02864 534.18306,594.26391 C 536.65106,591.89944 538.46076,591.15273 541.06196,591.42557 C 544.26406,591.76146 545.11916,591.04586 550.27326,583.71656 C 557.49076,573.45308 571.84066,559.07829 577.10936,556.83402 C 583.21816,554.23188 592.46316,554.83095 597.75556,558.17189 C 604.01006,562.12018 610.98536,570.4767 612.68346,576.05573 C 616.56726,588.81581 612.31126,597.82687 599.53266,603.89895 C 596.71546,605.23761 593.77706,607.84383 592.34116,610.27764 C 590.38916,613.58595 589.20996,614.39286 586.32736,614.39286 C 579.49136,614.39286 573.20466,609.05839 572.01176,602.24559 C 571.56616,599.70045 570.93396,596.70702 570.60686,595.59352 C 569.73766,592.63485 563.98126,593.03089 560.16706,596.3118 C 557.22026,598.84648 557.12136,599.19766 558.86296,600.93933 C 559.89956,601.97592 561.21156,602.82403 561.77836,602.82403 C 563.62226,602.82403 575.56396,614.86864 577.54966,618.73117 C 578.61276,620.7991 580.23196,622.49104 581.14786,622.49104 C 582.06386,622.49104 584.58376,624.04558 586.74776,625.94556 C 590.93356,629.62081 594.08876,637.88179 592.95806,642.2057 C 592.55786,643.73605 594.06076,647.96181 597.05086,653.71385 C 601.15336,661.60546 601.84766,664.03855 602.31856,672.1723 C 602.61686,677.32508 603.34116,681.83782 603.92816,682.2006 C 604.51516,682.56339 608.28116,681.70025 612.29716,680.2825 C 620.95216,677.22703 626.29576,677.78055 630.40876,682.1586 C 632.47816,684.36143 633.14346,686.31859 633.04886,689.92566 C 632.96686,693.051 633.54946,695.20635 634.70436,696.05084 C 635.68446,696.76748 636.18186,698.14731 635.80966,699.11711 C 635.06496,701.05784 625.71906,704.62971 621.38576,704.62971 C 617.44686,704.62971 619.62786,708.08706 624.60466,709.7323 C 632.02066,712.18394 629.83136,714.94733 618.03996,718.01861 C 614.55456,718.92642 608.57986,719.66919 604.76286,719.66919 C 597.49606,719.66919 595.12746,718.21693 590.13996,710.70335 C 588.58146,708.35563 587.48906,708.10233 579.00086,708.12045 C 573.82466,708.13149 565.94536,708.94206 561.49136,709.92171 C 557.03736,710.90135 546.17026,712.18352 537.34216,712.77099 C 528.51406,713.35845 519.66386,714.35518 517.67516,714.98594 C 496.26936,721.77506 490.28256,723.05587 476.46056,723.80339 C 468.50696,724.23353 461.15346,724.7384 460.11936,724.9253 C 459.08536,725.1122 455.43326,723.57481 452.00376,721.5089 z M 456.38386,708.96802 C 456.10746,703.08238 454.99056,686.03282 453.90176,671.08011 C 452.00716,645.06246 451.22116,575.32501 452.00456,502.75368 C 452.27986,477.24553 450.51116,420.30984 449.40916,419.20785 C 449.02526,418.82402 448.83786,448.91795 448.99256,486.08325 C 449.14716,523.24855 448.90846,564.06846 448.46196,576.79417 C 447.67616,599.18997 448.58166,630.79836 450.86476,660.66817 C 451.47266,668.62174 452.26916,684.67132 452.63476,696.33392 C 453.29676,717.44968 453.59316,719.66919 455.75126,719.66919 C 456.44776,719.66919 456.69216,715.53469 456.38386,708.96802 z M 476.24856,704.34184 C 475.81376,695.91031 475.17816,683.02493 474.83606,675.70765 C 474.49396,668.39036 473.65946,654.07394 472.98166,643.89337 C 472.30376,633.7128 471.60406,622.51996 471.42666,619.02039 C 471.24926,615.52082 471.01906,628.01515 470.91506,646.78558 C 470.73976,678.41453 472.68036,715.20376 474.69606,718.46521 C 476.63726,721.60615 476.97856,718.50113 476.24856,704.34184 z M 484.16306,717.87469 C 484.54176,716.88773 483.99956,708.94862 482.95816,700.23223 C 481.91676,691.51585 480.55896,676.57531 479.94076,667.03102 C 479.32266,657.48674 478.04216,641.86883 477.09526,632.32454 C 476.14846,622.78026 475.31096,607.94324 475.23436,599.35338 C 475.12666,587.2924 474.84196,584.61384 473.98416,587.59229 C 473.26536,590.08818 473.31576,600.49784 474.12676,617.0928 C 476.17556,659.01046 479.78556,715.58569 480.57986,718.22309 C 481.18716,720.23921 483.33586,720.03029 484.16306,717.87469 z M 489.09196,714.174 C 488.53786,711.78793 488.07216,706.36137 488.05696,702.11499 C 488.04176,697.8686 487.53706,691.88173 486.93526,688.81083 C 486.33356,685.73994 485.26206,675.08787 484.55416,665.13958 C 483.84636,655.19129 483.05246,644.77935 482.79006,642.00192 C 480.06376,613.1469 479.71856,607.62264 478.17446,568.14911 C 477.81116,558.86071 477.03936,552.08253 476.26446,551.37431 C 475.37356,550.56003 475.17276,550.5627 475.62666,551.3828 C 475.99096,552.04111 476.62146,563.23395 477.02766,576.25578 C 477.43386,589.27761 478.54616,610.60407 479.49936,623.64792 C 480.45266,636.69177 481.69406,653.99733 482.25806,662.10471 C 484.26306,690.92434 487.69386,718.51231 489.27286,718.51231 C 489.72746,718.51231 489.64606,716.56007 489.09196,714.174 z M 613.17086,714.28391 C 614.33446,713.23087 615.28646,711.68674 615.28646,710.85252 C 615.28646,708.64077 611.54946,701.15907 610.44466,701.15907 C 609.92626,701.15907 609.50206,700.63258 609.50206,699.9891 C 609.50206,699.34562 607.44586,695.80679 604.93276,692.12504 C 599.29736,683.86923 591.42746,679.23823 586.69626,681.39389 C 584.23706,682.51441 583.88566,683.26996 584.46836,686.18391 C 584.84896,688.08672 586.47246,691.5745 588.07616,693.93454 C 589.67986,696.29458 590.99386,699.53632 590.99626,701.13839 C 591.00046,703.96271 594.29296,710.40979 597.23226,713.34905 C 600.36786,716.48468 610.10776,717.05598 613.17086,714.28391 z M 397.30806,683.14182 C 397.39556,666.00917 397.86516,629.73602 398.35156,602.53481 C 399.09546,560.93311 398.98356,553.07813 397.64656,553.0784 C 396.33066,553.07868 396.00686,560.87616 395.76486,598.3958 C 395.60406,623.32018 394.95516,651.82273 394.32286,661.73479 C 393.03156,681.975 392.79056,710.40606 393.88586,713.26061 C 394.28246,714.29398 395.17886,714.9488 395.87796,714.71576 C 396.75416,714.4237 397.19836,704.61495 397.30806,683.14182 z M 393.12536,653.14843 C 394.57836,629.55815 394.73346,553.46901 393.33026,552.60179 C 392.78486,552.26473 391.96226,563.29669 391.50236,577.11728 C 391.04236,590.93785 390.47476,606.93097 390.24096,612.65754 C 390.00706,618.38411 389.27726,637.12561 388.61916,654.30531 C 387.96096,671.48502 387.09206,691.03974 386.68826,697.76026 C 386.02946,708.72634 386.17556,710.20146 388.11346,712.14521 C 390.22156,714.25972 390.29216,713.8194 391.09336,693.56324 C 391.54466,682.15194 392.45906,663.96529 393.12536,653.14843 z M 402.83746,685.83037 C 402.29516,670.40045 401.97066,633.88056 402.11646,604.67508 C 402.26216,575.46959 402.12476,551.8308 401.81116,552.14444 C 401.24936,552.70623 400.99766,563.21049 399.48866,649.09934 C 398.63696,697.57232 399.28766,713.88478 402.07276,713.88478 C 403.61466,713.88478 403.70586,710.53964 402.83746,685.83037 z M 408.35496,671.55131 C 408.50046,624.66456 407.20836,561.4938 405.97896,555.39184 C 404.07366,545.93467 402.77606,632.40307 404.19076,674.55076 C 405.15196,703.18731 406.23776,715.08019 407.75266,713.56528 C 408.01306,713.30489 408.28406,694.3986 408.35496,671.55131 z M 449.53806,701.44829 C 449.28846,699.06222 449.08426,701.01446 449.08426,705.7866 C 449.08426,710.55874 449.28846,712.51098 449.53806,710.12491 C 449.78766,707.73884 449.78766,703.83436 449.53806,701.44829 z M 413.11936,698.0175 C 412.51666,619.33074 410.94086,553.03751 409.64226,551.73911 C 408.47426,550.57138 408.31856,554.7185 408.85176,572.79463 C 409.54156,596.17783 410.58076,673.68777 410.54096,698.78746 C 410.52366,709.75333 410.83996,712.86886 411.86656,711.84225 C 412.73946,710.96937 413.18126,706.0941 413.11936,698.0175 z M 445.65286,702.02673 C 445.41186,696.14109 444.65016,682.47541 443.96006,671.65856 C 443.27006,660.8417 442.27056,632.98975 441.73896,609.76533 L 440.77246,567.53911 L 441.29736,616.12818 C 441.95246,676.76802 443.62586,712.72789 445.79276,712.72789 C 445.95686,712.72789 445.89386,707.91237 445.65286,702.02673 z M 384.95566,697.75385 C 384.98546,692.30943 385.56736,676.14148 386.24866,661.82505 C 388.40106,616.59808 389.55666,580.78903 389.38476,564.6469 C 389.28006,554.80969 389.11246,552.88278 388.93216,559.44093 C 388.60896,571.19025 386.64946,607.13378 385.05326,630.58922 C 384.46876,639.17907 383.88236,654.27639 383.75026,664.13882 C 383.61816,674.00124 383.01526,687.64485 382.41046,694.45795 C 381.29906,706.97902 381.85736,712.57826 383.88946,709.29025 C 384.44606,708.38964 384.92586,703.19826 384.95566,697.75385 z M 440.59636,686.04962 C 439.98876,673.04425 439.40676,660.8417 439.30306,658.93285 C 439.18806,656.8162 438.77626,657.94454 438.24756,661.82505 C 437.77076,665.32462 437.87566,677.26906 438.48066,688.36822 C 439.48876,706.86183 440.06116,711.33577 441.26496,710.13191 C 441.50486,709.89201 441.20396,699.05499 440.59636,686.04962 z M 491.15956,703.18361 C 490.88386,701.75197 490.65816,702.92331 490.65816,705.7866 C 490.65816,708.64988 490.88386,709.82123 491.15956,708.38958 C 491.43536,706.95794 491.43536,704.61525 491.15956,703.18361 z M 554.38766,702.60517 C 554.70216,701.49167 555.30116,698.38244 555.71876,695.69578 C 556.44496,691.02344 556.21096,690.50758 550.33996,683.83773 C 544.52476,677.23135 543.92636,676.86547 538.96406,676.88224 C 536.08326,676.89198 533.15146,677.28243 532.44896,677.7499 C 531.74646,678.21738 530.51126,682.13994 529.70406,686.46671 C 528.04906,695.33786 528.04716,695.33438 537.19686,700.20273 C 546.12396,704.9526 553.43586,705.97446 554.38766,702.60517 z M 566.36096,703.58641 C 569.03926,703.06803 572.59406,701.75045 574.26066,700.65848 L 577.29076,698.67309 L 572.13226,695.40165 C 569.29506,693.60237 566.62056,691.55873 566.18886,690.86023 C 565.13926,689.16196 561.78336,689.25073 559.53156,691.03634 C 558.52126,691.83749 557.37296,695.19123 556.95686,698.55608 C 556.10896,705.41269 556.32586,705.52876 566.36096,703.58641 z M 627.14456,695.19721 C 631.06956,690.52845 631.14926,687.99462 627.48636,684.33169 C 624.00476,680.85008 618.88286,680.67162 612.39426,683.80582 C 609.84916,685.03522 607.11596,686.05875 606.32066,686.08034 C 605.52526,686.10192 604.87456,686.56207 604.87456,687.10289 C 604.87456,688.39054 611.61346,697.89009 613.72696,699.58174 C 616.47086,701.77792 623.55956,699.46151 627.14456,695.19721 z M 621.42516,695.78703 C 619.05996,694.82484 617.28016,687.7225 618.72676,685.01936 C 619.42456,683.71563 620.49766,682.64894 621.11156,682.64894 C 622.56526,682.64894 622.51956,683.36998 620.90166,685.96068 C 619.07396,688.88725 620.48426,693.58324 623.64876,695.10835 C 626.20376,696.33971 624.24976,696.93613 621.42516,695.78703 z M 491.10196,695.06342 C 490.78506,694.28017 490.54506,695.20112 490.56866,697.10998 C 490.59226,699.01883 490.85146,699.65968 491.14486,698.53406 C 491.43816,697.40845 491.41886,695.84666 491.10196,695.06342 z M 520.60466,698.8453 L 524.06866,698.8453 L 521.58916,695.66387 C 520.22536,693.91409 517.27416,689.87946 515.03076,686.69803 L 510.95186,680.91362 L 511.73416,689.56729 C 512.61886,699.3535 513.01806,700.42729 515.42776,699.50261 C 516.36986,699.14109 518.69946,698.8453 520.60466,698.8453 z M 586.36436,697.63097 C 586.36436,695.15203 582.54236,689.14517 579.14746,686.28854 C 569.75256,678.38328 554.93456,658.77019 550.38316,648.21614 C 549.09586,645.23107 547.14706,642.86218 545.44676,642.21574 C 541.73916,640.80609 538.77016,631.90653 539.00426,622.90351 C 539.10106,619.17708 538.79826,612.40987 538.33126,607.86525 C 537.53156,600.08266 537.62526,599.55693 539.94256,598.82145 C 543.23836,597.7754 543.07566,595.88274 539.68996,595.88274 C 534.78106,595.88274 531.49456,601.85355 531.81366,610.19196 C 532.01746,615.51674 535.94526,635.61517 537.66586,640.13723 C 546.52046,663.40944 558.13256,681.31224 571.39976,692.1465 C 578.54886,697.9845 586.36436,700.84887 586.36436,697.63097 z M 449.41656,681.78128 C 448.14836,657.60397 447.24826,646.78562 446.50476,646.78485 C 445.71636,646.78404 447.21346,689.87534 448.14266,693.92855 C 449.60896,700.32449 450.12906,695.36476 449.41656,681.78128 z M 528.45356,680.67577 C 528.49166,678.55623 527.30736,675.17993 525.68936,672.79574 C 524.13236,670.50138 521.91986,666.58722 520.77256,664.09759 C 518.40806,658.96627 517.97056,658.79019 514.01846,661.37966 C 508.76876,664.81939 511.04876,672.75065 521.11596,686.06942 L 526.76196,693.53897 L 527.57446,688.96162 C 528.02126,686.44407 528.41686,682.71544 528.45356,680.67577 z M 489.88516,687.58979 C 489.50076,687.20537 489.22736,687.88866 489.27756,689.1082 C 489.33306,690.45591 489.60716,690.73003 489.97646,689.80715 C 490.31066,688.97202 490.26956,687.97421 489.88516,687.58979 z M 561.87706,687.56569 C 560.93476,685.44565 549.85286,670.01682 549.24066,669.97255 C 548.86556,669.94542 547.91286,671.34051 547.12366,673.07272 C 545.75556,676.07543 545.98476,676.50674 552.04216,682.32778 C 555.53666,685.68585 559.26576,688.43336 560.32916,688.43336 C 561.39256,688.43336 562.08916,688.04291 561.87706,687.56569 z M 585.24766,679.02201 C 587.85396,677.66349 590.85146,675.19066 591.90856,673.52682 C 592.96576,671.86299 594.18256,670.24137 594.61266,669.92323 C 595.04266,669.60509 594.79446,667.89852 594.06096,666.13087 L 592.72726,662.91693 L 588.65736,666.28309 C 586.41886,668.13448 582.03576,670.51553 578.91716,671.57433 C 571.03866,674.24915 570.99316,674.30609 573.69656,678.10264 C 576.56976,682.13776 578.91226,682.3242 585.24766,679.02201 z M 597.94936,668.89818 C 597.15816,665.3261 595.81056,661.102 594.95456,659.51129 C 592.92646,655.74209 592.94356,656.674 595.00766,662.40349 C 595.92456,664.94864 596.73876,670.41491 596.81686,674.55076 C 596.94316,681.23405 597.09406,681.69911 598.17346,678.73168 C 599.05036,676.32079 598.98806,673.58783 597.94936,668.89818 z M 594.91726,677.34835 C 596.00326,674.51829 595.76776,674.14436 593.88416,675.70765 C 591.96096,677.30374 591.58166,679.17829 593.18196,679.17829 C 593.75016,679.17829 594.53106,678.35482 594.91726,677.34835 z M 488.84576,670.79089 C 488.57006,669.35925 488.34446,670.53059 488.34446,673.39388 C 488.34446,676.25716 488.57006,677.42851 488.84576,675.99687 C 489.12156,674.56522 489.12156,672.22254 488.84576,670.79089 z M 546.09956,670.69668 C 547.74366,667.19593 547.63416,666.6341 543.66586,658.20747 L 539.51066,649.38391 L 531.46986,646.94542 C 522.61306,644.25943 522.44896,644.32493 520.45906,651.34262 C 519.02996,656.38251 519.89666,659.96874 524.05496,666.22136 C 525.87456,668.95747 527.36336,671.66473 527.36336,672.23751 C 527.36336,674.28425 530.75946,675.1233 537.51586,674.74577 C 543.93566,674.38704 544.48886,674.12609 546.09956,670.69668 z M 575.95246,670.41278 C 582.90896,668.02016 589.73356,663.21079 590.49876,660.16181 C 590.84056,658.79992 590.55186,656.19058 589.85706,654.36326 L 588.59386,651.04088 L 584.87616,654.50734 C 581.17596,657.95744 569.65106,662.98194 565.43756,662.98194 C 562.52466,662.98194 562.64506,664.77065 565.82976,668.80859 C 568.89506,672.69522 569.18346,672.74091 575.95246,670.41278 z M 570.68416,659.46723 C 577.81366,657.08252 581.22256,655.23275 584.46676,651.9886 C 587.27966,649.17574 586.82546,648.44642 582.06136,648.12557 C 579.69476,647.96619 577.38386,647.22974 576.92606,646.48902 C 576.32176,645.51128 575.51956,645.65222 573.99856,647.00339 C 570.66806,649.9619 563.35896,653.72687 560.94606,653.72687 C 557.70166,653.72687 556.99046,655.75712 559.10456,658.98373 C 561.33586,662.389 561.88106,662.41177 570.68416,659.46723 z M 518.68176,650.84578 C 520.02446,646.08119 520.06276,643.83509 518.89706,638.21908 C 517.59046,631.9238 514.69756,627.82989 512.85666,629.67083 C 510.40096,632.12646 507.92376,652.17981 509.36606,657.92662 C 510.07366,660.7459 510.09376,660.74959 513.56276,658.70037 C 516.13906,657.17851 517.47456,655.12929 518.68176,650.84578 z M 566.10616,649.60632 C 571.42566,647.08205 573.68306,644.31311 572.89096,641.28414 C 572.24036,638.79601 572.18426,638.80696 568.93436,642.05684 C 564.65726,646.33396 560.31996,647.42118 556.78206,645.10304 C 554.02226,643.29476 550.50106,642.70219 550.50106,644.04604 C 550.50106,644.44815 551.61576,646.5809 552.97826,648.78548 C 555.13266,652.27124 555.89876,652.70516 558.85506,652.1139 C 560.72476,651.73996 563.98776,650.61155 566.10616,649.60632 z M 537.23796,644.76103 C 536.54386,642.97052 534.91046,637.31737 532.47466,628.27545 C 530.86626,622.30489 525.16826,620.68132 521.30936,625.09403 C 519.45666,627.21265 519.15696,628.76037 519.69906,633.41158 C 520.50676,640.34263 522.06236,642.03813 529.94776,644.58249 C 537.87916,647.14164 538.16356,647.14861 537.23796,644.76103 z M 587.43236,643.98805 C 589.56006,641.7232 589.90086,640.4638 589.22216,637.37394 C 588.76116,635.27482 587.79936,632.59967 587.08496,631.42915 C 585.48566,628.80901 578.40746,624.27795 577.43406,625.25128 C 577.04336,625.64201 577.42186,625.96169 578.27506,625.96169 C 579.24856,625.96169 578.78176,627.0739 577.02176,628.9476 C 573.13256,633.08814 573.23476,641.07419 577.21926,644.39194 C 580.94946,647.4979 584.25786,647.36706 587.43236,643.98805 z M 575.95246,640.34667 C 575.95246,636.34745 580.92116,634.08848 585.69136,635.91897 C 589.15886,637.24959 587.54526,638.79673 583.48436,638.03492 C 580.36476,637.44967 579.28516,637.70063 578.73306,639.13938 C 578.06556,640.87889 575.95246,641.79636 575.95246,640.34667 z M 567.83446,640.34527 C 570.00146,638.21194 570.67726,636.38666 570.58626,632.91311 C 570.42626,626.81148 566.73846,623.60689 560.93096,624.52296 C 558.69406,624.8758 556.69036,625.60416 556.47826,626.14154 C 556.26616,626.67891 555.09926,627.11857 553.88506,627.11857 C 552.67086,627.11857 551.02726,628.15976 550.23256,629.43234 C 549.43776,630.70491 548.39216,631.7461 547.90896,631.7461 C 546.11796,631.7461 547.11826,629.24041 549.96096,626.60589 C 552.65076,624.11301 552.73906,623.73744 551.03516,622.0336 C 550.01426,621.01262 547.66416,620.17727 545.81286,620.17727 C 541.76656,620.17727 540.58726,623.32091 541.74276,631.02627 C 542.77826,637.93148 544.38516,639.65923 550.89106,640.86224 C 553.96896,641.43136 557.09066,642.50056 557.82836,643.23824 C 559.68396,645.09384 564.39436,643.73197 567.83446,640.34527 z M 559.94176,638.05452 C 557.35646,632.38033 558.98776,628.21436 563.74736,628.33613 C 566.04586,628.39495 566.03866,628.45278 563.51596,630.21256 C 560.44096,632.35757 560.15706,635.93462 562.82756,638.88553 C 564.45136,640.67978 564.47956,641.00116 563.01326,641.00116 C 562.06236,641.00116 560.68016,639.67518 559.94176,638.05452 z M 445.92366,629.74565 C 445.53916,629.36123 445.26576,630.04452 445.31596,631.26406 C 445.37156,632.61177 445.64566,632.8859 446.01496,631.96302 C 446.34916,631.12789 446.30806,630.13007 445.92366,629.74565 z M 573.77786,625.6381 C 571.98026,623.84052 570.97166,625.33985 571.93546,628.37671 C 572.68636,630.74257 572.85566,630.79041 573.89636,628.93085 C 574.66426,627.55865 574.62566,626.48591 573.77786,625.6381 z M 520.31826,622.98554 C 521.92906,620.25548 522.41986,618.25034 521.76406,617.07856 C 520.98526,615.68682 519.98826,616.57729 517.13676,621.2116 C 513.88476,626.49671 513.73256,627.11857 515.69096,627.11857 C 516.97456,627.11857 518.88816,625.4094 520.31826,622.98554 z M 570.23436,620.30114 C 568.02036,616.16437 566.26666,615.91384 562.82596,619.24286 L 559.53296,622.42897 L 563.69876,622.27237 C 565.98996,622.18622 568.19516,622.44634 568.59926,622.85039 C 570.04166,624.29277 571.31126,622.31334 570.23436,620.30114 z M 530.23336,615.26052 C 529.78356,611.92002 529.22706,608.98299 528.99676,608.73378 C 528.09156,607.75422 523.96746,613.96305 523.93116,616.35992 C 523.89296,618.89195 526.52946,621.23184 529.49646,621.29898 C 530.70636,621.32636 530.86976,619.98726 530.23336,615.26052 z M 559.46686,619.03307 C 563.97076,616.287 564.17866,614.48092 560.37196,611.17105 C 557.54126,608.70979 557.50366,608.70813 555.91626,610.97445 C 555.03586,612.23151 551.50496,614.25778 548.06986,615.47724 C 543.61956,617.05714 542.65576,617.72365 544.71656,617.79604 C 546.30736,617.8519 548.91026,618.6198 550.50106,619.50245 C 554.45686,621.6975 555.15696,621.66084 559.46686,619.03307 z M 564.35736,609.74153 C 561.55946,607.20947 558.89616,605.1378 558.43896,605.1378 C 557.98166,605.1378 556.78946,604.31972 555.78966,603.31984 C 554.78976,602.31997 553.97166,601.98887 553.97166,602.58406 C 553.97166,603.17927 555.98456,605.06121 558.44486,606.76618 C 560.90516,608.47115 564.11756,611.14289 565.58356,612.70337 C 567.04956,614.26386 568.51796,615.27166 568.84666,614.94293 C 569.17546,614.61422 567.15516,612.27358 564.35736,609.74153 z M 549.51376,612.36832 C 552.68066,610.91055 553.92036,609.61506 553.94186,607.74078 C 553.97876,604.51492 552.15476,604.3616 550.50106,607.45156 C 548.01756,612.09203 541.49806,608.50626 541.09366,602.27739 C 541.00986,600.98733 540.59626,601.75392 540.17446,603.98092 C 539.22846,608.97602 540.85126,614.39286 543.29386,614.39286 C 544.29576,614.39286 547.09466,613.48181 549.51376,612.36832 z M 483.09366,594.9763 C 482.85626,591.97527 482.66446,594.72585 482.66746,601.08871 C 482.67046,607.45156 482.86476,609.90695 483.09916,606.54512 C 483.33366,603.18329 483.33116,597.97732 483.09366,594.9763 z M 591.37716,606.24083 C 593.29086,603.53613 597.03876,600.40069 600.38466,598.70517 C 608.22076,594.73434 610.95996,590.12664 609.97186,582.57858 C 608.90406,574.42206 607.64866,571.62974 602.78106,566.58419 C 597.42736,561.03464 592.36036,558.86249 584.76876,558.86249 C 579.49056,558.86249 578.16056,559.41068 572.83946,563.77924 C 565.99766,569.39622 557.30636,579.85835 551.01716,590.04764 C 548.64356,593.89322 545.99456,597.03962 545.13056,597.03962 C 542.92966,597.03962 543.09006,604.46475 545.33116,606.32469 C 547.34566,607.99658 549.03426,606.38498 552.40646,599.57197 C 554.95706,594.41869 561.53216,590.09832 566.82426,590.09832 C 571.99946,590.09832 573.54186,591.831 574.74586,598.99756 C 575.25976,602.05655 575.76116,603.77846 575.86006,602.82403 C 576.37686,597.83507 577.40606,591.77576 577.80866,591.35161 C 578.06036,591.0865 578.26626,594.22439 578.26626,598.32472 C 578.26626,607.12523 580.30156,610.93463 584.98386,610.89751 C 587.28806,610.87925 588.95346,609.66621 591.37716,606.24083 z M 592.92006,599.73901 C 592.49586,599.31483 592.14886,597.66627 592.14886,596.07555 C 592.14886,592.48548 593.57606,593.67577 593.99616,597.61621 C 594.32216,600.67332 594.16476,600.98372 592.92006,599.73901 z M 585.20756,590.04574 C 585.20756,587.58358 589.98806,582.00014 592.09626,582.00014 C 593.95536,582.00014 593.54456,584.2327 590.89756,588.51567 C 588.21126,592.86224 585.20756,593.66995 585.20756,590.04574 z M 445.89066,572.74508 C 447.70286,517.65581 446.83176,476.78741 444.63296,513.74406 C 443.16856,538.35792 443.14836,604.3321 444.60576,602.61586 C 444.77866,602.41221 445.35686,588.97036 445.89066,572.74508 z M 471.50626,571.89333 C 471.24036,570.1348 471.01566,571.29898 471.00696,574.48041 C 470.99826,577.66183 471.21586,579.10064 471.49046,577.67774 C 471.76506,576.25484 471.77216,573.65186 471.50626,571.89333 z M 471.83296,559.37265 C 471.83296,556.20088 471.37826,554.37944 470.69226,554.80341 C 470.06486,555.19117 469.76586,556.65354 470.02786,558.05312 C 470.28986,559.4527 470.54286,561.50886 470.59016,562.62236 C 470.77866,567.06272 471.83296,564.30603 471.83296,559.37265 z M 441.29606,553.39139 C 440.91166,553.00697 440.63826,553.69026 440.68846,554.9098 C 440.74396,556.25751 441.01816,556.53164 441.38746,555.60876 C 441.72156,554.77363 441.68046,553.77583 441.29606,553.39139 z M 401.98636,548.89026 C 403.17926,549.26829 405.53876,548.85929 407.22956,547.98139 C 409.53996,546.78181 410.64826,546.71366 411.68976,547.70708 C 413.25686,549.2018 412.45216,544.10361 410.00536,537.03626 C 408.67386,533.19027 408.41766,533.05253 402.25466,532.86856 L 395.88086,532.6783 L 393.36606,539.16396 C 389.94156,547.99547 390.18386,552.12571 393.90806,548.40152 C 394.74476,547.56488 395.58136,547.75879 396.64036,549.03471 C 397.73026,550.34799 398.40266,550.492 398.99206,549.53838 C 399.44596,548.80389 400.79336,548.51224 401.98636,548.89026 z M 479.63196,527.38277 C 479.40546,523.38105 479.21826,526.35408 479.21596,533.98951 C 479.21366,541.62494 479.39906,544.89906 479.62786,541.26536 C 479.85666,537.63165 479.85856,531.38449 479.63196,527.38277 z M 476.15216,510.01477 C 475.90786,507.29373 475.70446,509.23222 475.70026,514.3225 C 475.69606,519.41279 475.89596,521.63908 476.14456,519.26983 C 476.39316,516.90058 476.39656,512.7358 476.15216,510.01477 z M 472.62786,512.86291 C 472.33826,511.75683 472.11186,512.93424 472.12476,515.47939 C 472.13756,518.02453 472.37446,518.9295 472.65116,517.49044 C 472.92796,516.05138 472.91746,513.96899 472.62786,512.86291 z M 469.06126,514.05738 C 468.67686,513.67296 468.40346,514.35625 468.45366,515.57579 C 468.50916,516.9235 468.78336,517.19762 469.15266,516.27474 C 469.48676,515.43961 469.44566,514.44181 469.06126,514.05738 z M 479.53316,508.80529 C 479.21626,508.02205 478.97626,508.943 478.99986,510.85185 C 479.02336,512.76071 479.28266,513.40155 479.57596,512.27594 C 479.86926,511.15033 479.85006,509.58854 479.53316,508.80529 z M 444.11516,457.63524 C 444.18856,439.81924 443.81746,417.69386 443.29056,408.46772 C 442.57536,395.94575 442.32876,406.65115 442.31786,450.69394 C 442.30976,483.28389 442.67886,505.29313 443.14246,499.86147 C 443.60406,494.45304 444.04176,475.45123 444.11516,457.63524 z M 479.56916,493.1959 C 479.27956,492.08982 479.05316,493.26724 479.06606,495.81238 C 479.07886,498.35752 479.31576,499.26249 479.59246,497.82343 C 479.86926,496.38438 479.85876,494.30199 479.56916,493.1959 z M 476.00596,470.65017 C 474.86326,435.85464 473.88226,415.99113 473.27796,415.40902 C 472.46706,414.62806 473.93156,478.32565 474.86716,484.53277 C 476.26436,493.80205 476.62276,489.43266 476.00596,470.65017 z M 479.62716,469.49329 C 479.39346,466.15279 479.20226,468.88592 479.20226,475.56692 C 479.20226,482.24793 479.39346,484.98106 479.62716,481.64057 C 479.86086,478.30007 479.86086,472.83379 479.62716,469.49329 z M 470.28536,478.74836 C 469.96446,477.953 469.70186,478.60375 469.70186,480.19446 C 469.70186,481.78518 469.96446,482.43592 470.28536,481.64057 C 470.60636,480.84521 470.60636,479.54372 470.28536,478.74836 z M 469.13386,437.10057 C 468.40746,399.04375 467.94716,392.27136 466.08706,392.27136 C 464.50916,392.27136 464.96106,436.43583 466.68446,450.6594 C 467.60726,458.27583 468.36236,467.25613 468.36236,470.61562 C 468.36236,473.97512 468.70616,476.7238 469.12626,476.7238 C 469.54646,476.7238 469.54986,458.89335 469.13386,437.10057 z M 478.31636,444.64441 C 477.93196,444.25999 477.65846,444.94327 477.70876,446.16281 C 477.76426,447.51052 478.03836,447.78465 478.40766,446.86177 C 478.74186,446.02665 478.70076,445.02884 478.31636,444.64441 z M 477.21936,428.98038 C 476.90246,428.19713 476.66246,429.11808 476.68606,431.02694 C 476.70966,432.93579 476.96886,433.57664 477.26226,432.45102 C 477.55556,431.32541 477.53626,429.76362 477.21936,428.98038 z M 447.53846,408.27491 C 447.53846,404.35115 447.22816,401.45106 446.84896,401.83027 C 445.61666,403.06258 445.20966,415.40902 446.40136,415.40902 C 447.02676,415.40902 447.53846,412.19867 447.53846,408.27491 z M 476.06246,405.84272 C 475.74556,405.05947 475.50556,405.98042 475.52916,407.88928 C 475.55276,409.79814 475.81206,410.43898 476.10536,409.31337 C 476.39866,408.18776 476.37936,406.62597 476.06246,405.84272 z M 467.56906,387.23696 C 469.56446,389.05146 472.35646,391.70738 473.77356,393.13903 C 475.19056,394.57067 476.87716,395.74201 477.52146,395.74201 C 478.16576,395.74201 479.30846,394.57067 480.06086,393.13903 C 480.81326,391.70738 482.65366,389.2937 484.15066,387.7753 C 485.64766,386.25689 486.85916,384.6951 486.84296,384.30465 C 486.82666,383.9142 484.78786,378.64907 482.31216,372.60436 C 478.76106,363.93384 477.36316,361.67237 475.68966,361.89065 C 474.52296,362.04283 469.49636,362.27097 464.51956,362.39762 C 455.68576,362.62244 455.42756,362.71203 453.64696,366.17003 C 452.64376,368.1182 450.65816,371.27394 449.23446,373.1828 C 445.90996,377.64004 441.51336,386.37885 441.97566,387.61063 C 442.17186,388.1336 444.15456,390.71345 446.38156,393.34363 L 450.43066,398.12578 L 457.18586,391.03183 L 463.94106,383.93789 L 467.56906,387.23696 z M 465.65786,356.11878 C 465.33696,355.32342 465.07436,355.97417 465.07436,357.56488 C 465.07436,359.1556 465.33696,359.80634 465.65786,359.01098 C 465.97876,358.21563 465.97876,356.91414 465.65786,356.11878 z M 597.93326,633.98513 C 596.97876,633.48176 595.28686,632.78841 594.17336,632.44433 C 591.84286,631.72418 591.44786,627.1254 593.53706,625.03618 C 595.89956,622.67372 597.00586,623.50753 595.10666,626.21911 C 592.72196,629.62366 592.83526,630.58922 595.61946,630.58922 C 596.89206,630.58922 597.93326,630.03789 597.93326,629.36406 C 597.93326,628.69022 598.48936,628.48258 599.16896,628.90263 C 599.84866,629.3227 600.12526,630.39461 599.78376,631.28468 C 599.02246,633.26848 600.44686,633.3972 602.32936,631.51472 C 603.40916,630.43497 604.02616,630.43497 605.10586,631.51472 C 607.26506,633.67391 608.58036,633.15286 607.73046,630.47501 C 607.07466,628.4086 607.32146,628.16179 609.38786,628.81765 C 611.31946,629.43072 611.81586,629.09929 611.81586,627.19653 C 611.81586,625.50358 611.07226,624.8048 609.27066,624.8048 C 607.29116,624.8048 607.03406,624.4963 608.11376,623.41655 C 610.41486,621.11553 609.68486,619.88058 606.49666,620.68076 C 604.31786,621.2276 603.62676,621.02344 603.98426,619.93852 C 604.93676,617.04751 609.07916,617.62417 611.25916,620.95124 C 615.87886,628.00187 612.62356,634.54002 604.37916,634.76931 C 601.78826,634.84138 598.88766,634.48849 597.93326,633.98513 z M 593.93066,619.11043 C 592.87336,617.06578 592.23816,614.77743 592.51906,614.02521 C 592.80006,613.27299 593.65176,614.21933 594.41186,616.12818 L 595.79376,619.59883 L 597.24536,616.89885 L 598.69686,614.19887 L 600.65546,617.18807 C 601.73296,618.83255 602.08166,620.25534 601.43056,620.35081 C 600.77956,620.44625 599.59626,620.5764 598.80086,620.64003 C 598.00556,620.70366 597.01686,621.22197 596.60396,621.79184 C 596.19096,622.36171 594.98806,621.15508 593.93066,619.11043 z M 580.00156,551.92119 C 580.39476,551.28491 582.01806,550.76431 583.60876,550.76431 C 585.24226,550.76431 586.18976,551.26777 585.78596,551.92119 C 585.39266,552.55748 583.76946,553.07807 582.17876,553.07807 C 580.54516,553.07807 579.59766,552.57461 580.00156,551.92119 z M 581.88146,548.59515 C 582.12006,547.87933 582.70576,547.29366 583.18296,547.29366 C 584.53776,547.29366 584.20076,548.97895 582.74916,549.46282 C 582.03336,549.70142 581.64286,549.31098 581.88146,548.59515 z"
         style="fill:#000000" />
    </g>
  </g>
</svg>
